<svg class="main-svg" xmlns="http://www.w3.org/2000/svg" xmlns:xlink="http://www.w3.org/1999/xlink" width="800" height="900" style="" viewBox="0 0 800 900"><rect x="0" y="0" width="800" height="900" style="fill: rgb(255, 255, 255); fill-opacity: 1;"/><defs id="defs-15639b"><g class="clips"/><g class="gradients"/><g class="patterns"/></defs><g class="bglayer"/><g class="layer-below"><g class="imagelayer"/><g class="shapelayer"/></g><g class="cartesianlayer"/><g class="polarlayer"/><g class="smithlayer"/><g class="ternarylayer"/><g class="geolayer"/><g class="funnelarealayer"/><g class="pielayer"/><g class="iciclelayer"/><g class="treemaplayer"/><g class="sunburstlayer"/><g class="glimages"/><g class="sankey" transform="translate(80,100)matrix(0 1 1 0 0 0)" style="box-sizing: content-box; position: absolute; left: 0px; shape-rendering: geometricprecision; pointer-events: none;"><g class="sankey-links" style="fill: none;"><path class="sankey-link" d="M390.5882352941177,288.18029613672104C532.7941176470588,288.18029613672104 532.7941176470588,282.22559138953307 675,282.22559138953307L700,338.2253897902588L675,394.22518819098457C532.7941176470588,394.22518819098457 532.7941176470588,400.17989293817254 390.5882352941177,400.17989293817254Z" style="stroke: rgb(68, 68, 68); stroke-opacity: 1; fill: rgb(0, 0, 255); fill-opacity: 0.3; stroke-width: 0; opacity: 1;"/><path class="sankey-link" d="M431.764705882353,90.30397186543551C512.2058823529412,90.30397186543551 512.2058823529412,111.99959680145155 592.6470588235295,111.99959680145155L617.6470588235295,167.9993952021773L592.6470588235295,223.99919360290306C512.2058823529412,223.99919360290306 512.2058823529412,202.30356866688703 431.764705882353,202.30356866688703Z" style="stroke: rgb(68, 68, 68); stroke-opacity: 1; fill: rgb(0, 0, 255); fill-opacity: 0.3; stroke-width: 0; opacity: 1;"/><path class="sankey-link" d="M20,357.31462475517213C25.294117647058826,357.31462475517213 25.294117647058826,395.9994624019356 30.58823529411765,395.9994624019356L41.1764705882353,451.99926080266135L30.58823529411765,507.9990592033871C25.294117647058826,507.9990592033871 25.294117647058826,469.31422155662364 20,469.31422155662364Z" style="stroke: rgb(68, 68, 68); stroke-opacity: 1; fill: rgb(0, 0, 255); fill-opacity: 0.3; stroke-width: 0; opacity: 1;"/><path class="sankey-link" d="M102.3529411764706,430.6119662713809C244.5588235294118,430.6119662713809 244.5588235294118,202.30356866688703 386.764705882353,202.30356866688703L411.764705882353,258.3033670676128L386.764705882353,314.30316546833853C244.5588235294118,314.30316546833853 244.5588235294118,542.6115630728324 102.3529411764706,542.6115630728324Z" style="stroke: rgb(68, 68, 68); stroke-opacity: 1; fill: rgb(0, 0, 255); fill-opacity: 0.3; stroke-width: 0; opacity: 1;"/><path class="sankey-link" d="M431.764705882353,314.30316546833853C437.0588235294118,314.30316546833853 437.0588235294118,227.60334089884975 442.3529411764706,227.60334089884975L452.9411764705883,283.6031392995755L442.3529411764706,339.60293770030125C437.0588235294118,339.60293770030125 437.0588235294118,426.30276226979004 431.764705882353,426.30276226979004Z" style="stroke: rgb(68, 68, 68); stroke-opacity: 1; fill: rgb(0, 0, 255); fill-opacity: 0.3; stroke-width: 0; opacity: 1;"/><path class="sankey-link" d="M431.764705882353,202.30356866688703C512.2058823529412,202.30356866688703 512.2058823529412,223.99919360290306 592.6470588235295,223.99919360290306L617.6470588235295,279.9989920036288L592.6470588235295,335.99879040435457C512.2058823529412,335.99879040435457 512.2058823529412,314.30316546833853 431.764705882353,314.30316546833853Z" style="stroke: rgb(68, 68, 68); stroke-opacity: 1; fill: rgb(0, 0, 255); fill-opacity: 0.3; stroke-width: 0; opacity: 1;"/><path class="sankey-link" d="M349.4117647058824,178.60709796824267C388.67647058823536,178.60709796824267 388.67647058823536,3.604147295946703 427.9411764705883,3.604147295946703L452.9411764705883,59.60394569667247L427.9411764705883,115.60374409739823C388.67647058823536,115.60374409739823 388.67647058823536,290.6066947696942 349.4117647058824,290.6066947696942Z" style="stroke: rgb(68, 68, 68); stroke-opacity: 1; fill: rgb(0, 0, 255); fill-opacity: 0.3; stroke-width: 0; opacity: 1;"/><path class="sankey-link" d="M349.4117647058824,66.60750116679111C471.02941176470597,66.60750116679111 471.02941176470597,0 592.6470588235295,0L617.6470588235295,55.999798400725766L592.6470588235295,111.99959680145153C471.02941176470597,111.99959680145153 471.02941176470597,178.60709796824264 349.4117647058824,178.60709796824264Z" style="stroke: rgb(68, 68, 68); stroke-opacity: 1; fill: rgb(0, 0, 255); fill-opacity: 0.3; stroke-width: 0; opacity: 1;"/><path class="sankey-link" d="M20,133.31498315388183C25.294117647058826,133.31498315388183 25.294117647058826,131.9998208006458 30.58823529411765,131.9998208006458L41.1764705882353,187.99961920137156L30.58823529411765,243.9994176020973C25.294117647058826,243.9994176020973 25.294117647058826,245.31457995533333 20,245.31457995533333Z" style="stroke: rgb(68, 68, 68); stroke-opacity: 1; fill: rgb(0, 0, 255); fill-opacity: 0.3; stroke-width: 0; opacity: 1;"/><path class="sankey-link" d="M61.1764705882353,263.9996416012909C66.47058823529412,263.9996416012909 66.47058823529412,206.61322066686512 71.76470588235294,206.61322066686512L82.3529411764706,262.61301906759087L71.76470588235294,318.6128174683166C66.47058823529412,318.6128174683166 66.47058823529412,375.9992384027424 61.1764705882353,375.9992384027424Z" style="stroke: rgb(68, 68, 68); stroke-opacity: 1; fill: rgb(0, 0, 255); fill-opacity: 0.3; stroke-width: 0; opacity: 1;"/><path class="sankey-link" d="M61.1764705882353,6.536993168992922e-13C223.97058823529414,6.536993168992922e-13 223.97058823529414,90.30397186543551 386.764705882353,90.30397186543551L411.764705882353,146.30377026616128L386.764705882353,202.30356866688703C223.97058823529414,202.30356866688703 223.97058823529414,111.99959680145218 61.1764705882353,111.99959680145218Z" style="stroke: rgb(68, 68, 68); stroke-opacity: 1; fill: rgb(0, 0, 255); fill-opacity: 0.3; stroke-width: 0; opacity: 1;"/><path class="sankey-link" d="M61.1764705882353,528.000179199355C66.47058823529412,528.000179199355 66.47058823529412,430.61375826492986 71.76470588235294,430.61375826492986L82.3529411764706,486.6135566656556L71.76470588235294,542.6133550663814C66.47058823529412,542.6133550663814 66.47058823529412,639.9997760008066 61.1764705882353,639.9997760008066Z" style="stroke: rgb(68, 68, 68); stroke-opacity: 1; fill: rgb(0, 0, 255); fill-opacity: 0.3; stroke-width: 0; opacity: 1;"/><path class="sankey-link" d="M349.4117647058824,290.6066947696942C388.67647058823536,290.6066947696942 388.67647058823536,115.60374409739823 427.9411764705883,115.60374409739823L452.9411764705883,171.603542498124L427.9411764705883,227.60334089884975C388.67647058823536,227.60334089884975 388.67647058823536,402.6062915711457 349.4117647058824,402.6062915711457Z" style="stroke: rgb(68, 68, 68); stroke-opacity: 1; fill: rgb(0, 0, 255); fill-opacity: 0.3; stroke-width: 0; opacity: 1;"/><path class="sankey-link" d="M61.1764705882353,395.9994624019356C66.47058823529412,395.9994624019356 66.47058823529412,318.61304146751024 71.76470588235294,318.61304146751024L82.3529411764706,374.612839868236L71.76470588235294,430.61263826896175C66.47058823529412,430.61263826896175 66.47058823529412,507.9990592033871 61.1764705882353,507.9990592033871Z" style="stroke: rgb(68, 68, 68); stroke-opacity: 1; fill: rgb(0, 0, 255); fill-opacity: 0.3; stroke-width: 0; opacity: 1;"/><path class="sankey-link" d="M637.6470588235295,0C656.3235294117648,0 656.3235294117648,58.226397786630045 675,58.226397786630045L700,114.22619618735581L675,170.22599458808156C656.3235294117648,170.22599458808156 656.3235294117648,111.99959680145153 637.6470588235295,111.99959680145153Z" style="stroke: rgb(68, 68, 68); stroke-opacity: 1; fill: rgb(0, 0, 255); fill-opacity: 0.3; stroke-width: 0; opacity: 1;"/><path class="sankey-link" d="M20,245.314803954527C25.294117647058826,245.314803954527 25.294117647058826,263.9996416012909 30.58823529411765,263.9996416012909L41.1764705882353,319.9994400020166L30.58823529411765,375.9992384027424C25.294117647058826,375.9992384027424 25.294117647058826,357.3144007559785 20,357.3144007559785Z" style="stroke: rgb(68, 68, 68); stroke-opacity: 1; fill: rgb(0, 0, 255); fill-opacity: 0.3; stroke-width: 0; opacity: 1;"/><path class="sankey-link" d="M514.1176470588235,226.78600812332854C553.3823529411766,226.78600812332854 553.3823529411766,447.9983872058061 592.6470588235295,447.9983872058061L617.6470588235295,503.9981856065319L592.6470588235295,559.9979840072576C553.3823529411766,559.9979840072576 553.3823529411766,338.78560492478005 514.1176470588235,338.78560492478005Z" style="stroke: rgb(68, 68, 68); stroke-opacity: 1; fill: rgb(0, 0, 255); fill-opacity: 0.3; stroke-width: 0; opacity: 1;"/><path class="sankey-link" d="M637.6470588235295,111.99959680145155C642.9411764705883,111.99959680145155 642.9411764705883,223.36716105211462 648.2352941176471,223.36716105211462L658.8235294117646,279.3669594528404L648.2352941176471,335.3667578535661C642.9411764705883,335.3667578535661 642.9411764705883,223.99919360290306 637.6470588235295,223.99919360290306Z" style="stroke: rgb(68, 68, 68); stroke-opacity: 1; fill: rgb(0, 0, 255); fill-opacity: 0.3; stroke-width: 0; opacity: 1;"/><path class="sankey-link" d="M102.3529411764706,318.6123694699294C203.3823529411765,318.6123694699294 203.3823529411765,66.60750116679111 304.4117647058824,66.60750116679111L329.4117647058824,122.60729956751688L304.4117647058824,178.60709796824264C203.3823529411765,178.60709796824264 203.3823529411765,430.6119662713809 102.3529411764706,430.6119662713809Z" style="stroke: rgb(68, 68, 68); stroke-opacity: 1; fill: rgb(0, 0, 255); fill-opacity: 0.3; stroke-width: 0; opacity: 1;"/><path class="sankey-link" d="M472.9411764705883,3.604147295946703C573.9705882352941,3.604147295946703 573.9705882352941,170.22599458808156 675,170.22599458808156L700,226.2257929888073L675,282.22559138953307C573.9705882352941,282.22559138953307 573.9705882352941,115.60374409739823 472.9411764705883,115.60374409739823Z" style="stroke: rgb(68, 68, 68); stroke-opacity: 1; fill: rgb(0, 0, 255); fill-opacity: 0.3; stroke-width: 0; opacity: 1;"/><path class="sankey-link" d="M61.1764705882353,131.9998208006458C66.47058823529412,131.9998208006458 66.47058823529412,94.61339986621992 71.76470588235294,94.61339986621992L82.3529411764706,150.6131982669457L71.76470588235294,206.61299666767144C66.47058823529412,206.61299666767144 66.47058823529412,243.9994176020973 61.1764705882353,243.9994176020973Z" style="stroke: rgb(68, 68, 68); stroke-opacity: 1; fill: rgb(0, 0, 255); fill-opacity: 0.3; stroke-width: 0; opacity: 1;"/><path class="sankey-link" d="M20,469.3150055538014C25.294117647058826,469.3150055538014 25.294117647058826,528.000179199355 30.58823529411765,528.000179199355L41.1764705882353,583.9999776000808L30.58823529411765,639.9997760008066C25.294117647058826,639.9997760008066 25.294117647058826,581.314602355253 20,581.314602355253Z" style="stroke: rgb(68, 68, 68); stroke-opacity: 1; fill: rgb(0, 0, 255); fill-opacity: 0.3; stroke-width: 0; opacity: 1;"/><path class="sankey-link" d="M102.3529411764706,94.61317586702636C347.50000000000006,94.61317586702636 347.50000000000006,335.9987904043546 592.6470588235295,335.9987904043546L617.6470588235295,391.9985888050804L592.6470588235295,447.9983872058061C347.50000000000006,447.9983872058061 347.50000000000006,206.61277266847787 102.3529411764706,206.61277266847787Z" style="stroke: rgb(68, 68, 68); stroke-opacity: 1; fill: rgb(0, 0, 255); fill-opacity: 0.3; stroke-width: 0; opacity: 1;"/><path class="sankey-link" d="M678.8235294117648,223.36716105211462C684.1176470588236,223.36716105211462 684.1176470588236,394.22518819098457 689.4117647058824,394.22518819098457L700,450.2249865917103L689.4117647058824,506.22478499243607C684.1176470588236,506.22478499243607 684.1176470588236,335.3667578535661 678.8235294117648,335.3667578535661Z" style="stroke: rgb(68, 68, 68); stroke-opacity: 1; fill: rgb(0, 0, 255); fill-opacity: 0.3; stroke-width: 0; opacity: 1;"/><path class="sankey-link" d="M102.3529411764706,206.61277266847787C265.14705882352945,206.61277266847787 265.14705882352945,339.6041696958662 427.9411764705883,339.6041696958662L452.9411764705883,395.6039680965919L427.9411764705883,451.6037664973177C265.14705882352945,451.6037664973177 265.14705882352945,318.6123694699294 102.3529411764706,318.6123694699294Z" style="stroke: rgb(68, 68, 68); stroke-opacity: 1; fill: rgb(0, 0, 255); fill-opacity: 0.3; stroke-width: 0; opacity: 1;"/><path class="sankey-link" d="M20,21.31516235323666C25.294117647058826,21.31516235323666 25.294117647058826,6.536993168992922e-13 30.58823529411765,6.536993168992922e-13L41.1764705882353,55.99979840072642L30.58823529411765,111.99959680145218C25.294117647058826,111.99959680145218 25.294117647058826,133.3147591546882 20,133.3147591546882Z" style="stroke: rgb(68, 68, 68); stroke-opacity: 1; fill: rgb(0, 0, 255); fill-opacity: 0.3; stroke-width: 0; opacity: 1;"/><path class="sankey-link" d="M390.5882352941177,176.18069933526954C409.264705882353,176.18069933526954 409.264705882353,451.6037664973177 427.9411764705883,451.6037664973177L452.9411764705883,507.60356489804343L427.9411764705883,563.6033632987692C409.264705882353,563.6033632987692 409.264705882353,288.18029613672104 390.5882352941177,288.18029613672104Z" style="stroke: rgb(68, 68, 68); stroke-opacity: 1; fill: rgb(0, 0, 255); fill-opacity: 0.3; stroke-width: 0; opacity: 1;"/><path class="sankey-link" d="M349.4117647058824,402.6062915711457C354.7058823529412,402.6062915711457 354.7058823529412,176.18069933526954 360,176.18069933526954L370.5882352941177,232.1804977359953L360,288.18029613672104C354.7058823529412,288.18029613672104 354.7058823529412,514.6058883725972 349.4117647058824,514.6058883725972Z" style="stroke: rgb(68, 68, 68); stroke-opacity: 1; fill: rgb(0, 0, 255); fill-opacity: 0.3; stroke-width: 0; opacity: 1;"/><path class="sankey-link" d="M20,469.3142215566237C25.294117647058826,469.3142215566237 25.294117647058826,507.9990592033871 30.58823529411765,507.9990592033871L41.1764705882353,507.9991152031855L30.58823529411765,507.9991712029839C25.294117647058826,507.9991712029839 25.294117647058826,469.3143335562205 20,469.3143335562205Z" style="stroke: rgb(0, 255, 0); stroke-opacity: 0; fill: rgb(0, 255, 0); fill-opacity: 0; stroke-width: 1; opacity: 1;"/><path class="sankey-link" d="M20,469.3143335562205C25.294117647058826,469.3143335562205 25.294117647058826,507.9991712029839 30.58823529411765,507.9991712029839L41.1764705882353,507.9992272027823L30.58823529411765,507.9992832025807C25.294117647058826,507.9992832025807 25.294117647058826,469.3144455558173 20,469.3144455558173Z" style="stroke: rgb(0, 255, 0); stroke-opacity: 0; fill: rgb(0, 255, 0); fill-opacity: 0; stroke-width: 1; opacity: 1;"/><path class="sankey-link" d="M20,469.3144455558173C25.294117647058826,469.3144455558173 25.294117647058826,507.9992832025807 30.58823529411765,507.9992832025807L41.1764705882353,507.99933920237913L30.58823529411765,507.99939520217754C25.294117647058826,507.99939520217754 25.294117647058826,469.3145575554141 20,469.3145575554141Z" style="stroke: rgb(0, 255, 0); stroke-opacity: 0; fill: rgb(0, 255, 0); fill-opacity: 0; stroke-width: 1; opacity: 1;"/><path class="sankey-link" d="M20,469.3145575554141C25.294117647058826,469.3145575554141 25.294117647058826,507.99939520217754 30.58823529411765,507.99939520217754L41.1764705882353,507.99945120197594L30.58823529411765,507.99950720177435C25.294117647058826,507.99950720177435 25.294117647058826,469.31466955501094 20,469.31466955501094Z" style="stroke: rgb(0, 255, 0); stroke-opacity: 0; fill: rgb(0, 255, 0); fill-opacity: 0; stroke-width: 1; opacity: 1;"/><path class="sankey-link" d="M20,469.31466955501094C25.294117647058826,469.31466955501094 25.294117647058826,507.99950720177435 30.58823529411765,507.99950720177435L41.1764705882353,507.99956320157276L30.58823529411765,507.99961920137116C25.294117647058826,507.99961920137116 25.294117647058826,469.31478155460775 20,469.31478155460775Z" style="stroke: rgb(0, 255, 0); stroke-opacity: 0; fill: rgb(0, 255, 0); fill-opacity: 0; stroke-width: 1; opacity: 1;"/><path class="sankey-link" d="M20,469.31478155460775C25.294117647058826,469.31478155460775 25.294117647058826,507.99961920137116 30.58823529411765,507.99961920137116L41.1764705882353,507.99967520116957L30.58823529411765,507.999731200968C25.294117647058826,507.999731200968 25.294117647058826,469.31489355420456 20,469.31489355420456Z" style="stroke: rgb(0, 255, 0); stroke-opacity: 0; fill: rgb(0, 255, 0); fill-opacity: 0; stroke-width: 1; opacity: 1;"/><path class="sankey-link" d="M20,245.31457995533336C25.294117647058826,245.31457995533336 25.294117647058826,243.99941760209734 30.58823529411765,243.99941760209734L41.1764705882353,243.99947360189574L30.58823529411765,243.99952960169415C25.294117647058826,243.99952960169415 25.294117647058826,245.31469195493017 20,245.31469195493017Z" style="stroke: rgb(0, 255, 0); stroke-opacity: 0; fill: rgb(0, 255, 0); fill-opacity: 0; stroke-width: 1; opacity: 1;"/><path class="sankey-link" d="M20,357.3144007559785C25.294117647058826,357.3144007559785 25.294117647058826,375.99923840274244 30.58823529411765,375.99923840274244L41.1764705882353,375.99929440254084L30.58823529411765,375.99935040233925C25.294117647058826,375.99935040233925 25.294117647058826,357.3145127555753 20,357.3145127555753Z" style="stroke: rgb(0, 255, 0); stroke-opacity: 0; fill: rgb(0, 255, 0); fill-opacity: 0; stroke-width: 1; opacity: 1;"/><path class="sankey-link" d="M20,133.3147591546882C25.294117647058826,133.3147591546882 25.294117647058826,111.99959680145218 30.58823529411765,111.99959680145218L41.1764705882353,111.99965280125059L30.58823529411765,111.999708801049C25.294117647058826,111.999708801049 25.294117647058826,133.31487115428502 20,133.31487115428502Z" style="stroke: rgb(0, 255, 0); stroke-opacity: 0; fill: rgb(0, 255, 0); fill-opacity: 0; stroke-width: 1; opacity: 1;"/><path class="sankey-link" d="M20,581.3146023552529C25.294117647058826,581.3146023552529 25.294117647058826,639.9997760008065 30.58823529411765,639.9997760008065L41.1764705882353,639.9998320006049L30.58823529411765,639.9998880004033C25.294117647058826,639.9998880004033 25.294117647058826,581.3147143548497 20,581.3147143548497Z" style="stroke: rgb(0, 255, 0); stroke-opacity: 0; fill: rgb(0, 255, 0); fill-opacity: 0; stroke-width: 1; opacity: 1;"/><path class="sankey-link" d="M20,469.31489355420456C25.294117647058826,469.31489355420456 25.294117647058826,507.999731200968 30.58823529411765,507.999731200968L41.1764705882353,507.9997872007664L30.58823529411765,507.9998432005648C25.294117647058826,507.9998432005648 25.294117647058826,469.31500555380137 20,469.31500555380137Z" style="stroke: rgb(0, 255, 0); stroke-opacity: 0; fill: rgb(0, 255, 0); fill-opacity: 0; stroke-width: 1; opacity: 1;"/><path class="sankey-link" d="M20,357.3145127555753C25.294117647058826,357.3145127555753 25.294117647058826,375.99935040233925 30.58823529411765,375.99935040233925L41.1764705882353,375.99940640213765L30.58823529411765,375.99946240193606C25.294117647058826,375.99946240193606 25.294117647058826,357.31462475517213 20,357.31462475517213Z" style="stroke: rgb(0, 255, 0); stroke-opacity: 0; fill: rgb(0, 255, 0); fill-opacity: 0; stroke-width: 1; opacity: 1;"/><path class="sankey-link" d="M20,245.31469195493017C25.294117647058826,245.31469195493017 25.294117647058826,243.99952960169415 30.58823529411765,243.99952960169415L41.1764705882353,243.99958560149256L30.58823529411765,243.99964160129096C25.294117647058826,243.99964160129096 25.294117647058826,245.31480395452698 20,245.31480395452698Z" style="stroke: rgb(0, 255, 0); stroke-opacity: 0; fill: rgb(0, 255, 0); fill-opacity: 0; stroke-width: 1; opacity: 1;"/><path class="sankey-link" d="M20,581.3147143548497C25.294117647058826,581.3147143548497 25.294117647058826,639.9998880004033 30.58823529411765,639.9998880004033L41.1764705882353,639.9999440002017L30.58823529411765,640.0000000000001C25.294117647058826,640.0000000000001 25.294117647058826,581.3148263544465 20,581.3148263544465Z" style="stroke: rgb(0, 255, 0); stroke-opacity: 0; fill: rgb(0, 255, 0); fill-opacity: 0; stroke-width: 1; opacity: 1;"/><path class="sankey-link" d="M20,133.31487115428502C25.294117647058826,133.31487115428502 25.294117647058826,111.99970880104898 30.58823529411765,111.99970880104898L41.1764705882353,111.99976480084739L30.58823529411765,111.9998208006458C25.294117647058826,111.9998208006458 25.294117647058826,133.31498315388183 20,133.31498315388183Z" style="stroke: rgb(0, 255, 0); stroke-opacity: 0; fill: rgb(0, 255, 0); fill-opacity: 0; stroke-width: 1; opacity: 1;"/><path class="sankey-link" d="M61.1764705882353,507.9990592033871C66.47058823529412,507.9990592033871 66.47058823529412,430.61263826896175 71.76470588235294,430.61263826896175L82.3529411764706,430.61269426876015L71.76470588235294,430.61275026855856C66.47058823529412,430.61275026855856 66.47058823529412,507.9991712029839 61.1764705882353,507.9991712029839Z" style="stroke: rgb(0, 255, 0); stroke-opacity: 0; fill: rgb(0, 255, 0); fill-opacity: 0; stroke-width: 1; opacity: 1;"/><path class="sankey-link" d="M61.1764705882353,243.99941760209734C66.47058823529412,243.99941760209734 66.47058823529412,206.61299666767147 71.76470588235294,206.61299666767147L82.3529411764706,206.61305266746987L71.76470588235294,206.61310866726828C66.47058823529412,206.61310866726828 66.47058823529412,243.99952960169415 61.1764705882353,243.99952960169415Z" style="stroke: rgb(0, 255, 0); stroke-opacity: 0; fill: rgb(0, 255, 0); fill-opacity: 0; stroke-width: 1; opacity: 1;"/><path class="sankey-link" d="M61.1764705882353,375.99923840274244C66.47058823529412,375.99923840274244 66.47058823529412,318.6128174683166 71.76470588235294,318.6128174683166L82.3529411764706,318.612873468115L71.76470588235294,318.61292946791343C66.47058823529412,318.61292946791343 66.47058823529412,375.99935040233925 61.1764705882353,375.99935040233925Z" style="stroke: rgb(0, 255, 0); stroke-opacity: 0; fill: rgb(0, 255, 0); fill-opacity: 0; stroke-width: 1; opacity: 1;"/><path class="sankey-link" d="M61.1764705882353,111.99959680145218C66.47058823529412,111.99959680145218 66.47058823529412,94.61317586702634 71.76470588235294,94.61317586702634L82.3529411764706,94.61323186682475L71.76470588235294,94.61328786662315C66.47058823529412,94.61328786662315 66.47058823529412,111.999708801049 61.1764705882353,111.999708801049Z" style="stroke: rgb(0, 255, 0); stroke-opacity: 0; fill: rgb(0, 255, 0); fill-opacity: 0; stroke-width: 1; opacity: 1;"/><path class="sankey-link" d="M61.1764705882353,639.9997760008065C66.47058823529412,639.9997760008065 66.47058823529412,542.6133550663814 71.76470588235294,542.6133550663814L82.3529411764706,542.6134110661798L71.76470588235294,542.6134670659782C66.47058823529412,542.6134670659782 66.47058823529412,639.9998880004033 61.1764705882353,639.9998880004033Z" style="stroke: rgb(0, 255, 0); stroke-opacity: 0; fill: rgb(0, 255, 0); fill-opacity: 0; stroke-width: 1; opacity: 1;"/><path class="sankey-link" d="M61.1764705882353,507.9991712029839C66.47058823529412,507.9991712029839 66.47058823529412,430.61275026855856 71.76470588235294,430.61275026855856L82.3529411764706,430.61280626835696L71.76470588235294,430.61286226815537C66.47058823529412,430.61286226815537 66.47058823529412,507.9992832025807 61.1764705882353,507.9992832025807Z" style="stroke: rgb(0, 255, 0); stroke-opacity: 0; fill: rgb(0, 255, 0); fill-opacity: 0; stroke-width: 1; opacity: 1;"/><path class="sankey-link" d="M61.1764705882353,375.99935040233925C66.47058823529412,375.99935040233925 66.47058823529412,318.61292946791343 71.76470588235294,318.61292946791343L82.3529411764706,318.61298546771184L71.76470588235294,318.61304146751024C66.47058823529412,318.61304146751024 66.47058823529412,375.99946240193606 61.1764705882353,375.99946240193606Z" style="stroke: rgb(0, 255, 0); stroke-opacity: 0; fill: rgb(0, 255, 0); fill-opacity: 0; stroke-width: 1; opacity: 1;"/><path class="sankey-link" d="M61.1764705882353,243.99952960169415C66.47058823529412,243.99952960169415 66.47058823529412,206.61310866726828 71.76470588235294,206.61310866726828L82.3529411764706,206.61316466706668L71.76470588235294,206.6132206668651C66.47058823529412,206.6132206668651 66.47058823529412,243.99964160129096 61.1764705882353,243.99964160129096Z" style="stroke: rgb(0, 255, 0); stroke-opacity: 0; fill: rgb(0, 255, 0); fill-opacity: 0; stroke-width: 1; opacity: 1;"/><path class="sankey-link" d="M61.1764705882353,639.9998880004033C66.47058823529412,639.9998880004033 66.47058823529412,542.6134670659782 71.76470588235294,542.6134670659782L82.3529411764706,542.6135230657766L71.76470588235294,542.613579065575C66.47058823529412,542.613579065575 66.47058823529412,640.0000000000001 61.1764705882353,640.0000000000001Z" style="stroke: rgb(0, 255, 0); stroke-opacity: 0; fill: rgb(0, 255, 0); fill-opacity: 0; stroke-width: 1; opacity: 1;"/><path class="sankey-link" d="M61.1764705882353,111.99970880104898C66.47058823529412,111.99970880104898 66.47058823529412,94.61328786662314 71.76470588235294,94.61328786662314L82.3529411764706,94.61334386642154L71.76470588235294,94.61339986621995C66.47058823529412,94.61339986621995 66.47058823529412,111.9998208006458 61.1764705882353,111.9998208006458Z" style="stroke: rgb(0, 255, 0); stroke-opacity: 0; fill: rgb(0, 255, 0); fill-opacity: 0; stroke-width: 1; opacity: 1;"/><path class="sankey-link" d="M61.1764705882353,507.9992832025807C66.47058823529412,507.9992832025807 66.47058823529412,430.61286226815537 71.76470588235294,430.61286226815537L82.3529411764706,430.6129182679538L71.76470588235294,430.6129742677522C66.47058823529412,430.6129742677522 66.47058823529412,507.99939520217754 61.1764705882353,507.99939520217754Z" style="stroke: rgb(0, 255, 0); stroke-opacity: 0; fill: rgb(0, 255, 0); fill-opacity: 0; stroke-width: 1; opacity: 1;"/><path class="sankey-link" d="M61.1764705882353,507.99939520217754C66.47058823529412,507.99939520217754 66.47058823529412,430.6129742677522 71.76470588235294,430.6129742677522L82.3529411764706,430.6130302675506L71.76470588235294,430.613086267349C66.47058823529412,430.613086267349 66.47058823529412,507.99950720177435 61.1764705882353,507.99950720177435Z" style="stroke: rgb(0, 255, 0); stroke-opacity: 0; fill: rgb(0, 255, 0); fill-opacity: 0; stroke-width: 1; opacity: 1;"/><path class="sankey-link" d="M61.1764705882353,507.99950720177435C66.47058823529412,507.99950720177435 66.47058823529412,430.613086267349 71.76470588235294,430.613086267349L82.3529411764706,430.6131422671474L71.76470588235294,430.6131982669458C66.47058823529412,430.6131982669458 66.47058823529412,507.99961920137116 61.1764705882353,507.99961920137116Z" style="stroke: rgb(0, 255, 0); stroke-opacity: 0; fill: rgb(0, 255, 0); fill-opacity: 0; stroke-width: 1; opacity: 1;"/><path class="sankey-link" d="M61.1764705882353,507.99961920137116C66.47058823529412,507.99961920137116 66.47058823529412,430.6131982669458 71.76470588235294,430.6131982669458L82.3529411764706,430.6132542667442L71.76470588235294,430.6133102665426C66.47058823529412,430.6133102665426 66.47058823529412,507.999731200968 61.1764705882353,507.999731200968Z" style="stroke: rgb(0, 255, 0); stroke-opacity: 0; fill: rgb(0, 255, 0); fill-opacity: 0; stroke-width: 1; opacity: 1;"/><path class="sankey-link" d="M61.1764705882353,507.999731200968C66.47058823529412,507.999731200968 66.47058823529412,430.6133102665426 71.76470588235294,430.6133102665426L82.3529411764706,430.613366266341L71.76470588235294,430.6134222661394C66.47058823529412,430.6134222661394 66.47058823529412,507.9998432005648 61.1764705882353,507.9998432005648Z" style="stroke: rgb(0, 255, 0); stroke-opacity: 0; fill: rgb(0, 255, 0); fill-opacity: 0; stroke-width: 1; opacity: 1;"/><path class="sankey-link" d="M61.1764705882353,507.9998432005648C66.47058823529412,507.9998432005648 66.47058823529412,430.6134222661394 71.76470588235294,430.6134222661394L82.3529411764706,430.61347826593783L71.76470588235294,430.61353426573623C66.47058823529412,430.61353426573623 66.47058823529412,507.9999552001616 61.1764705882353,507.9999552001616Z" style="stroke: rgb(0, 255, 0); stroke-opacity: 0; fill: rgb(0, 255, 0); fill-opacity: 0; stroke-width: 1; opacity: 1;"/><path class="sankey-link" d="M61.1764705882353,507.9999552001616C66.47058823529412,507.9999552001616 66.47058823529412,430.61353426573623 71.76470588235294,430.61353426573623L82.3529411764706,430.61359026553464L71.76470588235294,430.61364626533305C66.47058823529412,430.61364626533305 66.47058823529412,508.0000671997584 61.1764705882353,508.0000671997584Z" style="stroke: rgb(0, 255, 0); stroke-opacity: 0; fill: rgb(0, 255, 0); fill-opacity: 0; stroke-width: 1; opacity: 1;"/><path class="sankey-link" d="M61.1764705882353,508.0000671997584C66.47058823529412,508.0000671997584 66.47058823529412,430.61364626533305 71.76470588235294,430.61364626533305L82.3529411764706,430.61370226513145L71.76470588235294,430.61375826492986C66.47058823529412,430.61375826492986 66.47058823529412,508.0001791993552 61.1764705882353,508.0001791993552Z" style="stroke: rgb(0, 255, 0); stroke-opacity: 0; fill: rgb(0, 255, 0); fill-opacity: 0; stroke-width: 1; opacity: 1;"/><path class="sankey-link" d="M102.3529411764706,542.6115630728324C107.64705882352942,542.6115630728324 107.64705882352942,292.45357260050133 112.94117647058823,292.45357260050133L123.52941176470588,292.45362860029974L112.94117647058823,292.45368460009814C107.64705882352942,292.45368460009814 107.64705882352942,542.6116750724292 102.3529411764706,542.6116750724292Z" style="stroke: rgb(0, 255, 0); stroke-opacity: 0; fill: rgb(0, 255, 0); fill-opacity: 0; stroke-width: 1; opacity: 1;"/><path class="sankey-link" d="M102.3529411764706,542.6116750724292C107.64705882352942,542.6116750724292 107.64705882352942,292.45368460009814 112.94117647058823,292.45368460009814L123.52941176470588,292.45374059989655L112.94117647058823,292.45379659969495C107.64705882352942,292.45379659969495 107.64705882352942,542.611787072026 102.3529411764706,542.611787072026Z" style="stroke: rgb(0, 255, 0); stroke-opacity: 0; fill: rgb(0, 255, 0); fill-opacity: 0; stroke-width: 1; opacity: 1;"/><path class="sankey-link" d="M102.3529411764706,542.611787072026C107.64705882352942,542.611787072026 107.64705882352942,292.45379659969495 112.94117647058823,292.45379659969495L123.52941176470588,292.45385259949336L112.94117647058823,292.45390859929176C107.64705882352942,292.45390859929176 107.64705882352942,542.6118990716228 102.3529411764706,542.6118990716228Z" style="stroke: rgb(0, 255, 0); stroke-opacity: 0; fill: rgb(0, 255, 0); fill-opacity: 0; stroke-width: 1; opacity: 1;"/><path class="sankey-link" d="M102.3529411764706,542.6118990716228C107.64705882352942,542.6118990716228 107.64705882352942,292.45390859929176 112.94117647058823,292.45390859929176L123.52941176470588,292.45396459909017L112.94117647058823,292.4540205988886C107.64705882352942,292.4540205988886 107.64705882352942,542.6120110712196 102.3529411764706,542.6120110712196Z" style="stroke: rgb(0, 255, 0); stroke-opacity: 0; fill: rgb(0, 255, 0); fill-opacity: 0; stroke-width: 1; opacity: 1;"/><path class="sankey-link" d="M102.3529411764706,542.6120110712196C107.64705882352942,542.6120110712196 107.64705882352942,292.4540205988886 112.94117647058823,292.4540205988886L123.52941176470588,292.454076598687L112.94117647058823,292.4541325984854C107.64705882352942,292.4541325984854 107.64705882352942,542.6121230708164 102.3529411764706,542.6121230708164Z" style="stroke: rgb(0, 255, 0); stroke-opacity: 0; fill: rgb(0, 255, 0); fill-opacity: 0; stroke-width: 1; opacity: 1;"/><path class="sankey-link" d="M102.3529411764706,542.6121230708164C107.64705882352942,542.6121230708164 107.64705882352942,292.4541325984854 112.94117647058823,292.4541325984854L123.52941176470588,292.4541885982838L112.94117647058823,292.4542445980822C107.64705882352942,292.4542445980822 107.64705882352942,542.6122350704132 102.3529411764706,542.6122350704132Z" style="stroke: rgb(0, 255, 0); stroke-opacity: 0; fill: rgb(0, 255, 0); fill-opacity: 0; stroke-width: 1; opacity: 1;"/><path class="sankey-link" d="M102.3529411764706,542.6122350704132C107.64705882352942,542.6122350704132 107.64705882352942,292.4542445980822 112.94117647058823,292.4542445980822L123.52941176470588,292.4543005978806L112.94117647058823,292.454356597679C107.64705882352942,292.454356597679 107.64705882352942,542.6123470700101 102.3529411764706,542.6123470700101Z" style="stroke: rgb(0, 255, 0); stroke-opacity: 0; fill: rgb(0, 255, 0); fill-opacity: 0; stroke-width: 1; opacity: 1;"/><path class="sankey-link" d="M102.3529411764706,542.6123470700101C107.64705882352942,542.6123470700101 107.64705882352942,292.454356597679 112.94117647058823,292.454356597679L123.52941176470588,292.4544125974774L112.94117647058823,292.4544685972758C107.64705882352942,292.4544685972758 107.64705882352942,542.6124590696069 102.3529411764706,542.6124590696069Z" style="stroke: rgb(0, 255, 0); stroke-opacity: 0; fill: rgb(0, 255, 0); fill-opacity: 0; stroke-width: 1; opacity: 1;"/><path class="sankey-link" d="M102.3529411764706,542.6124590696069C107.64705882352942,542.6124590696069 107.64705882352942,292.4544685972758 112.94117647058823,292.4544685972758L123.52941176470588,292.4545245970742L112.94117647058823,292.45458059687263C107.64705882352942,292.45458059687263 107.64705882352942,542.6125710692037 102.3529411764706,542.6125710692037Z" style="stroke: rgb(0, 255, 0); stroke-opacity: 0; fill: rgb(0, 255, 0); fill-opacity: 0; stroke-width: 1; opacity: 1;"/><path class="sankey-link" d="M143.52941176470588,292.45357260050133C148.8235294117647,292.45357260050133 148.8235294117647,291.1522109508874 154.11764705882354,291.1522109508874L164.7058823529412,291.1522669506858L154.11764705882354,291.15232295048423C148.8235294117647,291.15232295048423 148.8235294117647,292.45368460009814 143.52941176470588,292.45368460009814Z" style="stroke: rgb(0, 255, 0); stroke-opacity: 0; fill: rgb(0, 255, 0); fill-opacity: 0; stroke-width: 1; opacity: 1;"/><path class="sankey-link" d="M143.52941176470588,292.45368460009814C148.8235294117647,292.45368460009814 148.8235294117647,291.15232295048423 154.11764705882354,291.15232295048423L164.7058823529412,291.15237895028264L154.11764705882354,291.15243495008104C148.8235294117647,291.15243495008104 148.8235294117647,292.45379659969495 143.52941176470588,292.45379659969495Z" style="stroke: rgb(0, 255, 0); stroke-opacity: 0; fill: rgb(0, 255, 0); fill-opacity: 0; stroke-width: 1; opacity: 1;"/><path class="sankey-link" d="M184.7058823529412,291.1522109508874C190,291.1522109508874 190,289.96070678668855 195.29411764705884,289.96070678668855L205.8823529411765,289.96076278648695L195.29411764705884,289.96081878628536C190,289.96081878628536 190,291.15232295048423 184.7058823529412,291.15232295048423Z" style="stroke: rgb(0, 255, 0); stroke-opacity: 0; fill: rgb(0, 255, 0); fill-opacity: 0; stroke-width: 1; opacity: 1;"/><path class="sankey-link" d="M184.7058823529412,291.15232295048423C190,291.15232295048423 190,289.96081878628536 195.29411764705884,289.96081878628536L205.8823529411765,289.96087478608376L195.29411764705884,289.96093078588217C190,289.96093078588217 190,291.15243495008104 184.7058823529412,291.15243495008104Z" style="stroke: rgb(0, 255, 0); stroke-opacity: 0; fill: rgb(0, 255, 0); fill-opacity: 0; stroke-width: 1; opacity: 1;"/><path class="sankey-link" d="M225.8823529411765,289.96070678668855C231.1764705882353,289.96070678668855 231.1764705882353,288.87230435548685 236.47058823529414,288.87230435548685L247.05882352941177,288.87236035528525L236.47058823529414,288.87241635508366C231.1764705882353,288.87241635508366 231.1764705882353,289.96081878628536 225.8823529411765,289.96081878628536Z" style="stroke: rgb(0, 255, 0); stroke-opacity: 0; fill: rgb(0, 255, 0); fill-opacity: 0; stroke-width: 1; opacity: 1;"/><path class="sankey-link" d="M225.8823529411765,289.96081878628536C231.1764705882353,289.96081878628536 231.1764705882353,288.87241635508366 236.47058823529414,288.87241635508366L247.05882352941177,288.87247235488206L236.47058823529414,288.87252835468047C231.1764705882353,288.87252835468047 231.1764705882353,289.96093078588217 225.8823529411765,289.96093078588217Z" style="stroke: rgb(0, 255, 0); stroke-opacity: 0; fill: rgb(0, 255, 0); fill-opacity: 0; stroke-width: 1; opacity: 1;"/><path class="sankey-link" d="M267.05882352941177,288.87230435548685C272.3529411764706,288.87230435548685 272.3529411764706,287.88061059823326 277.6470588235294,287.88061059823326L288.2352941176471,287.88066659803167L277.6470588235294,287.8807225978301C272.3529411764706,287.8807225978301 272.3529411764706,288.87241635508366 267.05882352941177,288.87241635508366Z" style="stroke: rgb(0, 255, 0); stroke-opacity: 0; fill: rgb(0, 255, 0); fill-opacity: 0; stroke-width: 1; opacity: 1;"/><path class="sankey-link" d="M267.05882352941177,288.87241635508366C272.3529411764706,288.87241635508366 272.3529411764706,287.8807225978301 277.6470588235294,287.8807225978301L288.2352941176471,287.8807785976285L277.6470588235294,287.8808345974269C272.3529411764706,287.8808345974269 272.3529411764706,288.87252835468047 267.05882352941177,288.87252835468047Z" style="stroke: rgb(0, 255, 0); stroke-opacity: 0; fill: rgb(0, 255, 0); fill-opacity: 0; stroke-width: 1; opacity: 1;"/><path class="sankey-link" d="M308.2352941176471,287.88061059823326C313.5294117647059,287.88061059823326 313.5294117647059,178.60709796824264 318.82352941176475,178.60709796824264L329.41176470588243,178.60715396804105L318.82352941176475,178.60720996783945C313.5294117647059,178.60720996783945 313.5294117647059,287.8807225978301 308.2352941176471,287.8807225978301Z" style="stroke: rgb(0, 255, 0); stroke-opacity: 0; fill: rgb(0, 255, 0); fill-opacity: 0; stroke-width: 1; opacity: 1;"/><path class="sankey-link" d="M308.2352941176471,287.8807225978301C313.5294117647059,287.8807225978301 313.5294117647059,178.60720996783945 318.82352941176475,178.60720996783945L329.41176470588243,178.60726596763786L318.82352941176475,178.60732196743626C313.5294117647059,178.60732196743626 313.5294117647059,287.8808345974269 308.2352941176471,287.8808345974269Z" style="stroke: rgb(0, 255, 0); stroke-opacity: 0; fill: rgb(0, 255, 0); fill-opacity: 0; stroke-width: 1; opacity: 1;"/><path class="sankey-link" d="M308.2352941176471,287.8808345974269C313.5294117647059,287.8808345974269 313.5294117647059,178.60732196743626 318.82352941176475,178.60732196743626L329.41176470588243,178.60737796723467L318.82352941176475,178.60743396703307C313.5294117647059,178.60743396703307 313.5294117647059,287.8809465970237 308.2352941176471,287.8809465970237Z" style="stroke: rgb(0, 255, 0); stroke-opacity: 0; fill: rgb(0, 255, 0); fill-opacity: 0; stroke-width: 1; opacity: 1;"/><path class="sankey-link" d="M308.2352941176471,287.8809465970237C313.5294117647059,287.8809465970237 313.5294117647059,178.60743396703307 318.82352941176475,178.60743396703307L329.41176470588243,178.60748996683148L318.82352941176475,178.60754596662989C313.5294117647059,178.60754596662989 313.5294117647059,287.8810585966205 308.2352941176471,287.8810585966205Z" style="stroke: rgb(0, 255, 0); stroke-opacity: 0; fill: rgb(0, 255, 0); fill-opacity: 0; stroke-width: 1; opacity: 1;"/><path class="sankey-link" d="M308.2352941176471,287.8810585966205C313.5294117647059,287.8810585966205 313.5294117647059,178.60754596662989 318.82352941176475,178.60754596662989L329.41176470588243,178.6076019664283L318.82352941176475,178.6076579662267C313.5294117647059,178.6076579662267 313.5294117647059,287.8811705962173 308.2352941176471,287.8811705962173Z" style="stroke: rgb(0, 255, 0); stroke-opacity: 0; fill: rgb(0, 255, 0); fill-opacity: 0; stroke-width: 1; opacity: 1;"/><path class="sankey-link" d="M308.2352941176471,287.8811705962173C313.5294117647059,287.8811705962173 313.5294117647059,178.6076579662267 318.82352941176475,178.6076579662267L329.41176470588243,178.6077139660251L318.82352941176475,178.6077699658235C313.5294117647059,178.6077699658235 313.5294117647059,287.8812825958141 308.2352941176471,287.8812825958141Z" style="stroke: rgb(0, 255, 0); stroke-opacity: 0; fill: rgb(0, 255, 0); fill-opacity: 0; stroke-width: 1; opacity: 1;"/><path class="sankey-link" d="M349.4117647058824,514.6058883725972C354.7058823529412,514.6058883725972 354.7058823529412,288.18029613672104 360,288.18029613672104L370.5882352941177,288.18035213651945L360,288.18040813631785C354.7058823529412,288.18040813631785 354.7058823529412,514.606000372194 349.4117647058824,514.606000372194Z" style="stroke: rgb(0, 255, 0); stroke-opacity: 0; fill: rgb(0, 255, 0); fill-opacity: 0; stroke-width: 1; opacity: 1;"/><path class="sankey-link" d="M349.4117647058824,514.606000372194C354.7058823529412,514.606000372194 354.7058823529412,288.18040813631785 360,288.18040813631785L370.5882352941177,288.18046413611626L360,288.18052013591466C354.7058823529412,288.18052013591466 354.7058823529412,514.6061123717908 349.4117647058824,514.6061123717908Z" style="stroke: rgb(0, 255, 0); stroke-opacity: 0; fill: rgb(0, 255, 0); fill-opacity: 0; stroke-width: 1; opacity: 1;"/><path class="sankey-link" d="M349.4117647058824,514.6061123717908C354.7058823529412,514.6061123717908 354.7058823529412,288.18052013591466 360,288.18052013591466L370.5882352941177,288.18057613571307L360,288.1806321355115C354.7058823529412,288.1806321355115 354.7058823529412,514.6062243713876 349.4117647058824,514.6062243713876Z" style="stroke: rgb(0, 255, 0); stroke-opacity: 0; fill: rgb(0, 255, 0); fill-opacity: 0; stroke-width: 1; opacity: 1;"/><path class="sankey-link" d="M349.4117647058824,514.6062243713876C354.7058823529412,514.6062243713876 354.7058823529412,288.1806321355115 360,288.1806321355115L370.5882352941177,288.1806881353099L360,288.1807441351083C354.7058823529412,288.1807441351083 354.7058823529412,514.6063363709844 349.4117647058824,514.6063363709844Z" style="stroke: rgb(0, 255, 0); stroke-opacity: 0; fill: rgb(0, 255, 0); fill-opacity: 0; stroke-width: 1; opacity: 1;"/><path class="sankey-link" d="M349.4117647058824,514.6063363709844C354.7058823529412,514.6063363709844 354.7058823529412,288.1807441351083 360,288.1807441351083L370.5882352941177,288.1808001349067L360,288.1808561347051C354.7058823529412,288.1808561347051 354.7058823529412,514.6064483705812 349.4117647058824,514.6064483705812Z" style="stroke: rgb(0, 255, 0); stroke-opacity: 0; fill: rgb(0, 255, 0); fill-opacity: 0; stroke-width: 1; opacity: 1;"/><path class="sankey-link" d="M349.4117647058824,514.6064483705812C354.7058823529412,514.6064483705812 354.7058823529412,288.1808561347051 360,288.1808561347051L370.5882352941177,288.1809121345035L360,288.1809681343019C354.7058823529412,288.1809681343019 354.7058823529412,514.606560370178 349.4117647058824,514.606560370178Z" style="stroke: rgb(0, 255, 0); stroke-opacity: 0; fill: rgb(0, 255, 0); fill-opacity: 0; stroke-width: 1; opacity: 1;"/><path class="sankey-link" d="M349.4117647058824,514.606560370178C354.7058823529412,514.606560370178 354.7058823529412,288.1809681343019 360,288.1809681343019L370.5882352941177,288.1810241341003L360,288.1810801338987C354.7058823529412,288.1810801338987 354.7058823529412,514.6066723697749 349.4117647058824,514.6066723697749Z" style="stroke: rgb(0, 255, 0); stroke-opacity: 0; fill: rgb(0, 255, 0); fill-opacity: 0; stroke-width: 1; opacity: 1;"/><path class="sankey-link" d="M349.4117647058824,514.6066723697749C354.7058823529412,514.6066723697749 354.7058823529412,288.1810801338987 360,288.1810801338987L370.5882352941177,288.1811361336971L360,288.18119213349553C354.7058823529412,288.18119213349553 354.7058823529412,514.6067843693717 349.4117647058824,514.6067843693717Z" style="stroke: rgb(0, 255, 0); stroke-opacity: 0; fill: rgb(0, 255, 0); fill-opacity: 0; stroke-width: 1; opacity: 1;"/><path class="sankey-link" d="M390.5882352941177,400.17989293817254C395.8823529411765,400.17989293817254 395.8823529411765,314.30316546833853 401.17647058823536,314.30316546833853L411.76470588235304,314.30322146813694L401.17647058823536,314.30327746793535C395.8823529411765,314.30327746793535 395.8823529411765,400.18000493776935 390.5882352941177,400.18000493776935Z" style="stroke: rgb(0, 255, 0); stroke-opacity: 0; fill: rgb(0, 255, 0); fill-opacity: 0; stroke-width: 1; opacity: 1;"/><path class="sankey-link" d="M390.5882352941177,400.18000493776935C395.8823529411765,400.18000493776935 395.8823529411765,314.30327746793535 401.17647058823536,314.30327746793535L411.76470588235304,314.30333346773375L401.17647058823536,314.30338946753216C395.8823529411765,314.30338946753216 395.8823529411765,400.18011693736617 390.5882352941177,400.18011693736617Z" style="stroke: rgb(0, 255, 0); stroke-opacity: 0; fill: rgb(0, 255, 0); fill-opacity: 0; stroke-width: 1; opacity: 1;"/><path class="sankey-link" d="M390.5882352941177,400.18011693736617C395.8823529411765,400.18011693736617 395.8823529411765,314.30338946753216 401.17647058823536,314.30338946753216L411.76470588235304,314.30344546733056L401.17647058823536,314.30350146712897C395.8823529411765,314.30350146712897 395.8823529411765,400.180228936963 390.5882352941177,400.180228936963Z" style="stroke: rgb(0, 255, 0); stroke-opacity: 0; fill: rgb(0, 255, 0); fill-opacity: 0; stroke-width: 1; opacity: 1;"/><path class="sankey-link" d="M390.5882352941177,400.180228936963C395.8823529411765,400.180228936963 395.8823529411765,314.30350146712897 401.17647058823536,314.30350146712897L411.76470588235304,314.3035574669274L401.17647058823536,314.3036134667258C395.8823529411765,314.3036134667258 395.8823529411765,400.1803409365598 390.5882352941177,400.1803409365598Z" style="stroke: rgb(0, 255, 0); stroke-opacity: 0; fill: rgb(0, 255, 0); fill-opacity: 0; stroke-width: 1; opacity: 1;"/><path class="sankey-link" d="M390.5882352941177,400.1803409365598C395.8823529411765,400.1803409365598 395.8823529411765,314.3036134667258 401.17647058823536,314.3036134667258L411.76470588235304,314.3036694665242L401.17647058823536,314.3037254663226C395.8823529411765,314.3037254663226 395.8823529411765,400.1804529361566 390.5882352941177,400.1804529361566Z" style="stroke: rgb(0, 255, 0); stroke-opacity: 0; fill: rgb(0, 255, 0); fill-opacity: 0; stroke-width: 1; opacity: 1;"/><path class="sankey-link" d="M390.5882352941177,400.1804529361566C395.8823529411765,400.1804529361566 395.8823529411765,314.3037254663226 401.17647058823536,314.3037254663226L411.76470588235304,314.303781466121L401.17647058823536,314.3038374659194C395.8823529411765,314.3038374659194 395.8823529411765,400.1805649357534 390.5882352941177,400.1805649357534Z" style="stroke: rgb(0, 255, 0); stroke-opacity: 0; fill: rgb(0, 255, 0); fill-opacity: 0; stroke-width: 1; opacity: 1;"/><path class="sankey-link" d="M390.5882352941177,400.1805649357534C395.8823529411765,400.1805649357534 395.8823529411765,314.3038374659194 401.17647058823536,314.3038374659194L411.76470588235304,314.3038934657178L401.17647058823536,314.3039494655162C395.8823529411765,314.3039494655162 395.8823529411765,400.1806769353502 390.5882352941177,400.1806769353502Z" style="stroke: rgb(0, 255, 0); stroke-opacity: 0; fill: rgb(0, 255, 0); fill-opacity: 0; stroke-width: 1; opacity: 1;"/><path class="sankey-link" d="M390.5882352941177,400.1806769353502C395.8823529411765,400.1806769353502 395.8823529411765,314.3039494655162 401.17647058823536,314.3039494655162L411.76470588235304,314.3040054653146L401.17647058823536,314.304061465113C395.8823529411765,314.304061465113 395.8823529411765,400.18078893494703 390.5882352941177,400.18078893494703Z" style="stroke: rgb(0, 255, 0); stroke-opacity: 0; fill: rgb(0, 255, 0); fill-opacity: 0; stroke-width: 1; opacity: 1;"/><path class="sankey-link" d="M431.764705882353,426.30276226979004C437.0588235294118,426.30276226979004 437.0588235294118,339.60293770030125 442.3529411764706,339.60293770030125L452.9411764705883,339.60299370009966L442.3529411764706,339.60304969989807C437.0588235294118,339.60304969989807 437.0588235294118,426.30287426938685 431.764705882353,426.30287426938685Z" style="stroke: rgb(0, 255, 0); stroke-opacity: 0; fill: rgb(0, 255, 0); fill-opacity: 0; stroke-width: 1; opacity: 1;"/><path class="sankey-link" d="M431.764705882353,426.30287426938685C437.0588235294118,426.30287426938685 437.0588235294118,339.60304969989807 442.3529411764706,339.60304969989807L452.9411764705883,339.60310569969647L442.3529411764706,339.6031616994949C437.0588235294118,339.6031616994949 437.0588235294118,426.30298626898366 431.764705882353,426.30298626898366Z" style="stroke: rgb(0, 255, 0); stroke-opacity: 0; fill: rgb(0, 255, 0); fill-opacity: 0; stroke-width: 1; opacity: 1;"/><path class="sankey-link" d="M431.764705882353,426.30298626898366C437.0588235294118,426.30298626898366 437.0588235294118,339.6031616994949 442.3529411764706,339.6031616994949L452.9411764705883,339.6032176992933L442.3529411764706,339.6032736990917C437.0588235294118,339.6032736990917 437.0588235294118,426.30309826858047 431.764705882353,426.30309826858047Z" style="stroke: rgb(0, 255, 0); stroke-opacity: 0; fill: rgb(0, 255, 0); fill-opacity: 0; stroke-width: 1; opacity: 1;"/><path class="sankey-link" d="M431.764705882353,426.30309826858047C437.0588235294118,426.30309826858047 437.0588235294118,339.6032736990917 442.3529411764706,339.6032736990917L452.9411764705883,339.6033296988901L442.3529411764706,339.6033856986885C437.0588235294118,339.6033856986885 437.0588235294118,426.3032102681773 431.764705882353,426.3032102681773Z" style="stroke: rgb(0, 255, 0); stroke-opacity: 0; fill: rgb(0, 255, 0); fill-opacity: 0; stroke-width: 1; opacity: 1;"/><path class="sankey-link" d="M431.764705882353,426.3032102681773C437.0588235294118,426.3032102681773 437.0588235294118,339.6033856986885 442.3529411764706,339.6033856986885L452.9411764705883,339.6034416984869L442.3529411764706,339.6034976982853C437.0588235294118,339.6034976982853 437.0588235294118,426.3033222677741 431.764705882353,426.3033222677741Z" style="stroke: rgb(0, 255, 0); stroke-opacity: 0; fill: rgb(0, 255, 0); fill-opacity: 0; stroke-width: 1; opacity: 1;"/><path class="sankey-link" d="M431.764705882353,426.3033222677741C437.0588235294118,426.3033222677741 437.0588235294118,339.6034976982853 442.3529411764706,339.6034976982853L452.9411764705883,339.6035536980837L442.3529411764706,339.6036096978821C437.0588235294118,339.6036096978821 437.0588235294118,426.3034342673709 431.764705882353,426.3034342673709Z" style="stroke: rgb(0, 255, 0); stroke-opacity: 0; fill: rgb(0, 255, 0); fill-opacity: 0; stroke-width: 1; opacity: 1;"/><path class="sankey-link" d="M431.764705882353,426.3034342673709C437.0588235294118,426.3034342673709 437.0588235294118,339.6036096978821 442.3529411764706,339.6036096978821L452.9411764705883,339.6036656976805L442.3529411764706,339.60372169747893C437.0588235294118,339.60372169747893 437.0588235294118,426.3035462669677 431.764705882353,426.3035462669677Z" style="stroke: rgb(0, 255, 0); stroke-opacity: 0; fill: rgb(0, 255, 0); fill-opacity: 0; stroke-width: 1; opacity: 1;"/><path class="sankey-link" d="M431.764705882353,426.3035462669677C437.0588235294118,426.3035462669677 437.0588235294118,339.60372169747893 442.3529411764706,339.60372169747893L452.9411764705883,339.60377769727734L442.3529411764706,339.60383369707574C437.0588235294118,339.60383369707574 437.0588235294118,426.3036582665645 431.764705882353,426.3036582665645Z" style="stroke: rgb(0, 255, 0); stroke-opacity: 0; fill: rgb(0, 255, 0); fill-opacity: 0; stroke-width: 1; opacity: 1;"/><path class="sankey-link" d="M431.764705882353,426.3036582665645C437.0588235294118,426.3036582665645 437.0588235294118,339.60383369707574 442.3529411764706,339.60383369707574L452.9411764705883,339.60388969687415L442.3529411764706,339.60394569667255C437.0588235294118,339.60394569667255 437.0588235294118,426.30377026616134 431.764705882353,426.30377026616134Z" style="stroke: rgb(0, 255, 0); stroke-opacity: 0; fill: rgb(0, 255, 0); fill-opacity: 0; stroke-width: 1; opacity: 1;"/><path class="sankey-link" d="M431.764705882353,426.30377026616134C437.0588235294118,426.30377026616134 437.0588235294118,339.60394569667255 442.3529411764706,339.60394569667255L452.9411764705883,339.60400169647096L442.3529411764706,339.60405769626936C437.0588235294118,339.60405769626936 437.0588235294118,426.30388226575815 431.764705882353,426.30388226575815Z" style="stroke: rgb(0, 255, 0); stroke-opacity: 0; fill: rgb(0, 255, 0); fill-opacity: 0; stroke-width: 1; opacity: 1;"/><path class="sankey-link" d="M431.764705882353,426.30388226575815C437.0588235294118,426.30388226575815 437.0588235294118,339.60405769626936 442.3529411764706,339.60405769626936L452.9411764705883,339.60411369606777L442.3529411764706,339.6041696958662C437.0588235294118,339.6041696958662 437.0588235294118,426.30399426535496 431.764705882353,426.30399426535496Z" style="stroke: rgb(0, 255, 0); stroke-opacity: 0; fill: rgb(0, 255, 0); fill-opacity: 0; stroke-width: 1; opacity: 1;"/><path class="sankey-link" d="M472.9411764705883,115.60374409739823C478.2352941176471,115.60374409739823 478.2352941176471,226.78600812332851 483.5294117647059,226.78600812332851L494.11764705882354,226.78606412312692L483.5294117647059,226.78612012292533C478.2352941176471,226.78612012292533 478.2352941176471,115.60385609699505 472.9411764705883,115.60385609699505Z" style="stroke: rgb(0, 255, 0); stroke-opacity: 0; fill: rgb(0, 255, 0); fill-opacity: 0; stroke-width: 1; opacity: 1;"/><path class="sankey-link" d="M472.9411764705883,115.60385609699503C478.2352941176471,115.60385609699503 478.2352941176471,226.78612012292533 483.5294117647059,226.78612012292533L494.11764705882354,226.78617612272373L483.5294117647059,226.78623212252214C478.2352941176471,226.78623212252214 478.2352941176471,115.60396809659184 472.9411764705883,115.60396809659184Z" style="stroke: rgb(0, 255, 0); stroke-opacity: 0; fill: rgb(0, 255, 0); fill-opacity: 0; stroke-width: 1; opacity: 1;"/><path class="sankey-link" d="M472.9411764705883,115.60396809659183C478.2352941176471,115.60396809659183 478.2352941176471,226.78623212252214 483.5294117647059,226.78623212252214L494.11764705882354,226.78628812232054L483.5294117647059,226.78634412211895C478.2352941176471,226.78634412211895 478.2352941176471,115.60408009618864 472.9411764705883,115.60408009618864Z" style="stroke: rgb(0, 255, 0); stroke-opacity: 0; fill: rgb(0, 255, 0); fill-opacity: 0; stroke-width: 1; opacity: 1;"/><path class="sankey-link" d="M472.9411764705883,115.60408009618862C478.2352941176471,115.60408009618862 478.2352941176471,226.78634412211895 483.5294117647059,226.78634412211895L494.11764705882354,226.78640012191735L483.5294117647059,226.78645612171576C478.2352941176471,226.78645612171576 478.2352941176471,115.60419209578544 472.9411764705883,115.60419209578544Z" style="stroke: rgb(0, 255, 0); stroke-opacity: 0; fill: rgb(0, 255, 0); fill-opacity: 0; stroke-width: 1; opacity: 1;"/><path class="sankey-link" d="M472.9411764705883,115.60419209578542C478.2352941176471,115.60419209578542 478.2352941176471,226.78645612171576 483.5294117647059,226.78645612171576L494.11764705882354,226.78651212151416L483.5294117647059,226.78656812131257C478.2352941176471,226.78656812131257 478.2352941176471,115.60430409538223 472.9411764705883,115.60430409538223Z" style="stroke: rgb(0, 255, 0); stroke-opacity: 0; fill: rgb(0, 255, 0); fill-opacity: 0; stroke-width: 1; opacity: 1;"/><path class="sankey-link" d="M472.9411764705883,115.60430409538222C478.2352941176471,115.60430409538222 478.2352941176471,226.78656812131257 483.5294117647059,226.78656812131257L494.11764705882354,226.78662412111098L483.5294117647059,226.78668012090938C478.2352941176471,226.78668012090938 478.2352941176471,115.60441609497903 472.9411764705883,115.60441609497903Z" style="stroke: rgb(0, 255, 0); stroke-opacity: 0; fill: rgb(0, 255, 0); fill-opacity: 0; stroke-width: 1; opacity: 1;"/><path class="sankey-link" d="M472.9411764705883,115.60441609497902C478.2352941176471,115.60441609497902 478.2352941176471,226.78668012090938 483.5294117647059,226.78668012090938L494.11764705882354,226.7867361207078L483.5294117647059,226.7867921205062C478.2352941176471,226.7867921205062 478.2352941176471,115.60452809457583 472.9411764705883,115.60452809457583Z" style="stroke: rgb(0, 255, 0); stroke-opacity: 0; fill: rgb(0, 255, 0); fill-opacity: 0; stroke-width: 1; opacity: 1;"/><path class="sankey-link" d="M514.1176470588235,338.78560492478005C519.4117647058824,338.78560492478005 519.4117647058824,282.29605280552744 524.7058823529412,282.29605280552744L535.2941176470589,282.29610880532584L524.7058823529412,282.29616480512425C519.4117647058824,282.29616480512425 519.4117647058824,338.78571692437686 514.1176470588235,338.78571692437686Z" style="stroke: rgb(0, 255, 0); stroke-opacity: 0; fill: rgb(0, 255, 0); fill-opacity: 0; stroke-width: 1; opacity: 1;"/><path class="sankey-link" d="M514.1176470588235,338.78571692437686C519.4117647058824,338.78571692437686 519.4117647058824,282.29616480512425 524.7058823529412,282.29616480512425L535.2941176470589,282.29622080492265L524.7058823529412,282.29627680472106C519.4117647058824,282.29627680472106 519.4117647058824,338.78582892397367 514.1176470588235,338.78582892397367Z" style="stroke: rgb(0, 255, 0); stroke-opacity: 0; fill: rgb(0, 255, 0); fill-opacity: 0; stroke-width: 1; opacity: 1;"/><path class="sankey-link" d="M555.2941176470589,282.29605280552744C560.5882352941178,282.29605280552744 560.5882352941178,281.85712542582695 565.8823529411766,281.85712542582695L576.4705882352941,281.85718142562536L565.8823529411766,281.85723742542376C560.5882352941178,281.85723742542376 560.5882352941178,282.29616480512425 555.2941176470589,282.29616480512425Z" style="stroke: rgb(0, 255, 0); stroke-opacity: 0; fill: rgb(0, 255, 0); fill-opacity: 0; stroke-width: 1; opacity: 1;"/><path class="sankey-link" d="M555.2941176470589,282.29616480512425C560.5882352941178,282.29616480512425 560.5882352941178,281.85723742542376 565.8823529411766,281.85723742542376L576.4705882352941,281.85729342522217L565.8823529411766,281.8573494250206C560.5882352941178,281.8573494250206 560.5882352941178,282.29627680472106 555.2941176470589,282.29627680472106Z" style="stroke: rgb(0, 255, 0); stroke-opacity: 0; fill: rgb(0, 255, 0); fill-opacity: 0; stroke-width: 1; opacity: 1;"/><path class="sankey-link" d="M596.4705882352941,281.85712542582695C601.7647058823529,281.85712542582695 601.7647058823529,559.9979840072576 607.0588235294118,559.9979840072576L617.6470588235295,559.998040007056L607.0588235294118,559.9980960068544C601.7647058823529,559.9980960068544 601.7647058823529,281.85723742542376 596.4705882352941,281.85723742542376Z" style="stroke: rgb(0, 255, 0); stroke-opacity: 0; fill: rgb(0, 255, 0); fill-opacity: 0; stroke-width: 1; opacity: 1;"/><path class="sankey-link" d="M596.4705882352941,281.85723742542376C601.7647058823529,281.85723742542376 601.7647058823529,559.9980960068544 607.0588235294118,559.9980960068544L617.6470588235295,559.9981520066528L607.0588235294118,559.9982080064513C601.7647058823529,559.9982080064513 601.7647058823529,281.8573494250206 596.4705882352941,281.8573494250206Z" style="stroke: rgb(0, 255, 0); stroke-opacity: 0; fill: rgb(0, 255, 0); fill-opacity: 0; stroke-width: 1; opacity: 1;"/><path class="sankey-link" d="M596.4705882352941,281.8573494250206C601.7647058823529,281.8573494250206 601.7647058823529,559.9982080064513 607.0588235294118,559.9982080064513L617.6470588235295,559.9982640062497L607.0588235294118,559.9983200060481C601.7647058823529,559.9983200060481 601.7647058823529,281.8574614246174 596.4705882352941,281.8574614246174Z" style="stroke: rgb(0, 255, 0); stroke-opacity: 0; fill: rgb(0, 255, 0); fill-opacity: 0; stroke-width: 1; opacity: 1;"/><path class="sankey-link" d="M596.4705882352941,281.8574614246174C601.7647058823529,281.8574614246174 601.7647058823529,559.9983200060481 607.0588235294118,559.9983200060481L617.6470588235295,559.9983760058465L607.0588235294118,559.9984320056449C601.7647058823529,559.9984320056449 601.7647058823529,281.8575734242142 596.4705882352941,281.8575734242142Z" style="stroke: rgb(0, 255, 0); stroke-opacity: 0; fill: rgb(0, 255, 0); fill-opacity: 0; stroke-width: 1; opacity: 1;"/><path class="sankey-link" d="M596.4705882352941,281.8575734242142C601.7647058823529,281.8575734242142 601.7647058823529,559.9984320056449 607.0588235294118,559.9984320056449L617.6470588235295,559.9984880054433L607.0588235294118,559.9985440052417C601.7647058823529,559.9985440052417 601.7647058823529,281.857685423811 596.4705882352941,281.857685423811Z" style="stroke: rgb(0, 255, 0); stroke-opacity: 0; fill: rgb(0, 255, 0); fill-opacity: 0; stroke-width: 1; opacity: 1;"/><path class="sankey-link" d="M596.4705882352941,281.857685423811C601.7647058823529,281.857685423811 601.7647058823529,559.9985440052417 607.0588235294118,559.9985440052417L617.6470588235295,559.9986000050401L607.0588235294118,559.9986560048385C601.7647058823529,559.9986560048385 601.7647058823529,281.8577974234078 596.4705882352941,281.8577974234078Z" style="stroke: rgb(0, 255, 0); stroke-opacity: 0; fill: rgb(0, 255, 0); fill-opacity: 0; stroke-width: 1; opacity: 1;"/><path class="sankey-link" d="M596.4705882352941,281.8577974234078C601.7647058823529,281.8577974234078 601.7647058823529,559.9986560048385 607.0588235294118,559.9986560048385L617.6470588235295,559.9987120046369L607.0588235294118,559.9987680044353C601.7647058823529,559.9987680044353 601.7647058823529,281.8579094230046 596.4705882352941,281.8579094230046Z" style="stroke: rgb(0, 255, 0); stroke-opacity: 0; fill: rgb(0, 255, 0); fill-opacity: 0; stroke-width: 1; opacity: 1;"/><path class="sankey-link" d="M596.4705882352941,281.8579094230046C601.7647058823529,281.8579094230046 601.7647058823529,559.9987680044353 607.0588235294118,559.9987680044353L617.6470588235295,559.9988240042337L607.0588235294118,559.9988800040321C601.7647058823529,559.9988800040321 601.7647058823529,281.85802142260144 596.4705882352941,281.85802142260144Z" style="stroke: rgb(0, 255, 0); stroke-opacity: 0; fill: rgb(0, 255, 0); fill-opacity: 0; stroke-width: 1; opacity: 1;"/><path class="sankey-link" d="M637.6470588235295,223.99919360290306C642.9411764705883,223.99919360290306 642.9411764705883,335.3667578535661 648.2352941176471,335.3667578535661L658.8235294117646,335.36681385336453L648.2352941176471,335.36686985316294C642.9411764705883,335.36686985316294 642.9411764705883,223.99930560249987 637.6470588235295,223.99930560249987Z" style="stroke: rgb(0, 255, 0); stroke-opacity: 0; fill: rgb(0, 255, 0); fill-opacity: 0; stroke-width: 1; opacity: 1;"/><path class="sankey-link" d="M637.6470588235295,223.99930560249987C642.9411764705883,223.99930560249987 642.9411764705883,335.36686985316294 648.2352941176471,335.36686985316294L658.8235294117646,335.36692585296134L648.2352941176471,335.36698185275975C642.9411764705883,335.36698185275975 642.9411764705883,223.99941760209668 637.6470588235295,223.99941760209668Z" style="stroke: rgb(0, 255, 0); stroke-opacity: 0; fill: rgb(0, 255, 0); fill-opacity: 0; stroke-width: 1; opacity: 1;"/><path class="sankey-link" d="M637.6470588235295,223.99941760209668C642.9411764705883,223.99941760209668 642.9411764705883,335.36698185275975 648.2352941176471,335.36698185275975L658.8235294117646,335.36703785255816L648.2352941176471,335.36709385235656C642.9411764705883,335.36709385235656 642.9411764705883,223.9995296016935 637.6470588235295,223.9995296016935Z" style="stroke: rgb(0, 255, 0); stroke-opacity: 0; fill: rgb(0, 255, 0); fill-opacity: 0; stroke-width: 1; opacity: 1;"/><path class="sankey-link" d="M637.6470588235295,223.9995296016935C642.9411764705883,223.9995296016935 642.9411764705883,335.36709385235656 648.2352941176471,335.36709385235656L658.8235294117646,335.36714985215497L648.2352941176471,335.3672058519534C642.9411764705883,335.3672058519534 642.9411764705883,223.9996416012903 637.6470588235295,223.9996416012903Z" style="stroke: rgb(0, 255, 0); stroke-opacity: 0; fill: rgb(0, 255, 0); fill-opacity: 0; stroke-width: 1; opacity: 1;"/><path class="sankey-link" d="M637.6470588235295,223.9996416012903C642.9411764705883,223.9996416012903 642.9411764705883,335.3672058519534 648.2352941176471,335.3672058519534L658.8235294117646,335.3672618517518L648.2352941176471,335.3673178515502C642.9411764705883,335.3673178515502 642.9411764705883,223.99975360088712 637.6470588235295,223.99975360088712Z" style="stroke: rgb(0, 255, 0); stroke-opacity: 0; fill: rgb(0, 255, 0); fill-opacity: 0; stroke-width: 1; opacity: 1;"/><path class="sankey-link" d="M637.6470588235295,223.99975360088712C642.9411764705883,223.99975360088712 642.9411764705883,335.3673178515502 648.2352941176471,335.3673178515502L658.8235294117646,335.3673738513486L648.2352941176471,335.367429851147C642.9411764705883,335.367429851147 642.9411764705883,223.99986560048393 637.6470588235295,223.99986560048393Z" style="stroke: rgb(0, 255, 0); stroke-opacity: 0; fill: rgb(0, 255, 0); fill-opacity: 0; stroke-width: 1; opacity: 1;"/><path class="sankey-link" d="M637.6470588235295,223.99986560048393C642.9411764705883,223.99986560048393 642.9411764705883,335.367429851147 648.2352941176471,335.367429851147L658.8235294117646,335.3674858509454L648.2352941176471,335.3675418507438C642.9411764705883,335.3675418507438 642.9411764705883,223.99997760008074 637.6470588235295,223.99997760008074Z" style="stroke: rgb(0, 255, 0); stroke-opacity: 0; fill: rgb(0, 255, 0); fill-opacity: 0; stroke-width: 1; opacity: 1;"/><path class="sankey-link" d="M637.6470588235295,223.99997760008074C642.9411764705883,223.99997760008074 642.9411764705883,335.3675418507438 648.2352941176471,335.3675418507438L658.8235294117646,335.3675978505422L648.2352941176471,335.3676538503406C642.9411764705883,335.3676538503406 642.9411764705883,224.00008959967755 637.6470588235295,224.00008959967755Z" style="stroke: rgb(0, 255, 0); stroke-opacity: 0; fill: rgb(0, 255, 0); fill-opacity: 0; stroke-width: 1; opacity: 1;"/><path class="sankey-link" d="M637.6470588235295,224.00008959967755C642.9411764705883,224.00008959967755 642.9411764705883,335.3676538503406 648.2352941176471,335.3676538503406L658.8235294117646,335.367709850139L648.2352941176471,335.3677658499374C642.9411764705883,335.3677658499374 642.9411764705883,224.00020159927436 637.6470588235295,224.00020159927436Z" style="stroke: rgb(0, 255, 0); stroke-opacity: 0; fill: rgb(0, 255, 0); fill-opacity: 0; stroke-width: 1; opacity: 1;"/><path class="sankey-link" d="M678.8235294117648,335.3667578535661C684.1176470588236,335.3667578535661 684.1176470588236,506.22478499243607 689.4117647058824,506.22478499243607L700,506.2248409922345L689.4117647058824,506.2248969920329C684.1176470588236,506.2248969920329 684.1176470588236,335.36686985316294 678.8235294117648,335.36686985316294Z" style="stroke: rgb(0, 255, 0); stroke-opacity: 0; fill: rgb(0, 255, 0); fill-opacity: 0; stroke-width: 1; opacity: 1;"/><path class="sankey-link" d="M678.8235294117648,335.36686985316294C684.1176470588236,335.36686985316294 684.1176470588236,506.2248969920329 689.4117647058824,506.2248969920329L700,506.2249529918313L689.4117647058824,506.2250089916297C684.1176470588236,506.2250089916297 684.1176470588236,335.36698185275975 678.8235294117648,335.36698185275975Z" style="stroke: rgb(0, 255, 0); stroke-opacity: 0; fill: rgb(0, 255, 0); fill-opacity: 0; stroke-width: 1; opacity: 1;"/><path class="sankey-link" d="M678.8235294117648,335.36698185275975C684.1176470588236,335.36698185275975 684.1176470588236,506.2250089916297 689.4117647058824,506.2250089916297L700,506.2250649914281L689.4117647058824,506.2251209912265C684.1176470588236,506.2251209912265 684.1176470588236,335.36709385235656 678.8235294117648,335.36709385235656Z" style="stroke: rgb(0, 255, 0); stroke-opacity: 0; fill: rgb(0, 255, 0); fill-opacity: 0; stroke-width: 1; opacity: 1;"/><path class="sankey-link" d="M678.8235294117648,335.36709385235656C684.1176470588236,335.36709385235656 684.1176470588236,506.2251209912265 689.4117647058824,506.2251209912265L700,506.2251769910249L689.4117647058824,506.2252329908233C684.1176470588236,506.2252329908233 684.1176470588236,335.3672058519534 678.8235294117648,335.3672058519534Z" style="stroke: rgb(0, 255, 0); stroke-opacity: 0; fill: rgb(0, 255, 0); fill-opacity: 0; stroke-width: 1; opacity: 1;"/><path class="sankey-link" d="M678.8235294117648,335.3672058519534C684.1176470588236,335.3672058519534 684.1176470588236,506.2252329908233 689.4117647058824,506.2252329908233L700,506.2252889906217L689.4117647058824,506.2253449904201C684.1176470588236,506.2253449904201 684.1176470588236,335.3673178515502 678.8235294117648,335.3673178515502Z" style="stroke: rgb(0, 255, 0); stroke-opacity: 0; fill: rgb(0, 255, 0); fill-opacity: 0; stroke-width: 1; opacity: 1;"/><path class="sankey-link" d="M678.8235294117648,335.3673178515502C684.1176470588236,335.3673178515502 684.1176470588236,506.2253449904201 689.4117647058824,506.2253449904201L700,506.22540099021853L689.4117647058824,506.22545699001694C684.1176470588236,506.22545699001694 684.1176470588236,335.367429851147 678.8235294117648,335.367429851147Z" style="stroke: rgb(0, 255, 0); stroke-opacity: 0; fill: rgb(0, 255, 0); fill-opacity: 0; stroke-width: 1; opacity: 1;"/></g><g class="sankey-node-set" style="cursor: ns-resize;"><g class="sankey-node" transform="translate(576.471,281.857)" style="opacity: 1;"><rect class="node-rect" width="20" height="0.5" style="stroke-width: 0; stroke: rgb(68, 68, 68); stroke-opacity: 1; fill: rgb(0, 0, 0); fill-opacity: 0;"/><text class="node-label" data-notex="1" x="0" y="0" text-anchor="start" transform="translate(16.65,3)scale(-1,1)rotate(90)" style="cursor: default; font-family: 'Open Sans', verdana, arial, sans-serif; font-size: 19px; fill: rgb(42, 63, 95); fill-opacity: 1; text-shadow: rgb(255, 255, 255) 1px 1px 1px, rgb(255, 255, 255) -1px -1px 1px, rgb(255, 255, 255) 1px -1px 1px, rgb(255, 255, 255) -1px 1px 1px; white-space: pre;"></text></g><g class="sankey-node" transform="translate(205.882,289.961)" style="opacity: 1;"><rect class="node-rect" width="20" height="0.5" style="stroke-width: 0; stroke: rgb(68, 68, 68); stroke-opacity: 1; fill: rgb(0, 0, 0); fill-opacity: 0;"/><text class="node-label" data-notex="1" x="0" y="0" text-anchor="start" transform="translate(16.65,3)scale(-1,1)rotate(90)" style="cursor: default; font-family: 'Open Sans', verdana, arial, sans-serif; font-size: 19px; fill: rgb(42, 63, 95); fill-opacity: 1; text-shadow: rgb(255, 255, 255) 1px 1px 1px, rgb(255, 255, 255) -1px -1px 1px, rgb(255, 255, 255) 1px -1px 1px, rgb(255, 255, 255) -1px 1px 1px; white-space: pre;"></text></g><g class="sankey-node" transform="translate(370.588,176.181)" style="opacity: 1;"><rect class="node-rect" width="20" height="224.00008959967766" style="stroke-width: 0; stroke: rgb(68, 68, 68); stroke-opacity: 1; fill: rgb(55, 126, 184); fill-opacity: 1;"/><text class="node-label" data-notex="1" x="0" y="0" text-anchor="start" transform="translate(16.65,3)scale(-1,1)rotate(90)" style="cursor: default; font-family: 'Open Sans', verdana, arial, sans-serif; font-size: 19px; fill: rgb(42, 63, 95); fill-opacity: 1; text-shadow: rgb(255, 255, 255) 1px 1px 1px, rgb(255, 255, 255) -1px -1px 1px, rgb(255, 255, 255) 1px -1px 1px, rgb(255, 255, 255) -1px 1px 1px; white-space: pre;">A4.10</text></g><g class="sankey-node" transform="translate(123.529,292.454)" style="opacity: 1;"><rect class="node-rect" width="20" height="0.5" style="stroke-width: 0; stroke: rgb(68, 68, 68); stroke-opacity: 1; fill: rgb(0, 0, 0); fill-opacity: 0;"/><text class="node-label" data-notex="1" x="0" y="0" text-anchor="start" transform="translate(16.65,3)scale(-1,1)rotate(90)" style="cursor: default; font-family: 'Open Sans', verdana, arial, sans-serif; font-size: 19px; fill: rgb(42, 63, 95); fill-opacity: 1; text-shadow: rgb(255, 255, 255) 1px 1px 1px, rgb(255, 255, 255) -1px -1px 1px, rgb(255, 255, 255) 1px -1px 1px, rgb(255, 255, 255) -1px 1px 1px; white-space: pre;"></text></g><g class="sankey-node" transform="translate(535.294,282.296)" style="opacity: 1;"><rect class="node-rect" width="20" height="0.5" style="stroke-width: 0; stroke: rgb(68, 68, 68); stroke-opacity: 1; fill: rgb(0, 0, 0); fill-opacity: 0;"/><text class="node-label" data-notex="1" x="0" y="0" text-anchor="start" transform="translate(16.65,3)scale(-1,1)rotate(90)" style="cursor: default; font-family: 'Open Sans', verdana, arial, sans-serif; font-size: 19px; fill: rgb(42, 63, 95); fill-opacity: 1; text-shadow: rgb(255, 255, 255) 1px 1px 1px, rgb(255, 255, 255) -1px -1px 1px, rgb(255, 255, 255) 1px -1px 1px, rgb(255, 255, 255) -1px 1px 1px; white-space: pre;"></text></g><g class="sankey-node" transform="translate(41.176,0.000)" style="opacity: 1;"><rect class="node-rect" width="20" height="111.99982080064515" style="stroke-width: 0; stroke: rgb(68, 68, 68); stroke-opacity: 1; fill: rgb(153, 153, 153); fill-opacity: 1;"/><text class="node-label" data-notex="1" x="0" y="0" text-anchor="start" transform="translate(16.65,3)scale(-1,1)rotate(90)" style="cursor: default; font-family: 'Open Sans', verdana, arial, sans-serif; font-size: 19px; fill: rgb(42, 63, 95); fill-opacity: 1; text-shadow: rgb(255, 255, 255) 1px 1px 1px, rgb(255, 255, 255) -1px -1px 1px, rgb(255, 255, 255) 1px -1px 1px, rgb(255, 255, 255) -1px 1px 1px; white-space: pre;">A0.9</text></g><g class="sankey-node" transform="translate(411.765,90.304)" style="opacity: 1;"><rect class="node-rect" width="20" height="336.00002239991966" style="stroke-width: 0; stroke: rgb(68, 68, 68); stroke-opacity: 1; fill: rgb(255, 127, 0); fill-opacity: 1;"/><text class="node-label" data-notex="1" x="0" y="0" text-anchor="start" transform="translate(16.65,3)scale(-1,1)rotate(90)" style="cursor: default; font-family: 'Open Sans', verdana, arial, sans-serif; font-size: 19px; fill: rgb(42, 63, 95); fill-opacity: 1; text-shadow: rgb(255, 255, 255) 1px 1px 1px, rgb(255, 255, 255) -1px -1px 1px, rgb(255, 255, 255) 1px -1px 1px, rgb(255, 255, 255) -1px 1px 1px; white-space: pre;">MLP 4</text></g><g class="sankey-node" transform="translate(288.235,287.881)" style="opacity: 1;"><rect class="node-rect" width="20" height="0.5" style="stroke-width: 0; stroke: rgb(68, 68, 68); stroke-opacity: 1; fill: rgb(0, 0, 0); fill-opacity: 0;"/><text class="node-label" data-notex="1" x="0" y="0" text-anchor="start" transform="translate(16.65,3)scale(-1,1)rotate(90)" style="cursor: default; font-family: 'Open Sans', verdana, arial, sans-serif; font-size: 19px; fill: rgb(42, 63, 95); fill-opacity: 1; text-shadow: rgb(255, 255, 255) 1px 1px 1px, rgb(255, 255, 255) -1px -1px 1px, rgb(255, 255, 255) 1px -1px 1px, rgb(255, 255, 255) -1px 1px 1px; white-space: pre;"></text></g><g class="sankey-node" transform="translate(329.412,66.608)" style="opacity: 1;"><rect class="node-rect" width="20" height="447.99928320258044" style="stroke-width: 0; stroke: rgb(68, 68, 68); stroke-opacity: 1; fill: rgb(55, 126, 184); fill-opacity: 1;"/><text class="node-label" data-notex="1" x="0" y="0" text-anchor="start" transform="translate(16.65,3)scale(-1,1)rotate(90)" style="cursor: default; font-family: 'Open Sans', verdana, arial, sans-serif; font-size: 19px; fill: rgb(42, 63, 95); fill-opacity: 1; text-shadow: rgb(255, 255, 255) 1px 1px 1px, rgb(255, 255, 255) -1px -1px 1px, rgb(255, 255, 255) 1px -1px 1px, rgb(255, 255, 255) -1px 1px 1px; white-space: pre;">MLP 3</text></g><g class="sankey-node" transform="translate(494.118,226.786)" style="opacity: 1;"><rect class="node-rect" width="20" height="111.99982080064498" style="stroke-width: 0; stroke: rgb(68, 68, 68); stroke-opacity: 1; fill: rgb(153, 153, 153); fill-opacity: 1;"/><text class="node-label" data-notex="1" x="0" y="0" text-anchor="start" transform="translate(16.65,3)scale(-1,1)rotate(90)" style="cursor: default; font-family: 'Open Sans', verdana, arial, sans-serif; font-size: 19px; fill: rgb(42, 63, 95); fill-opacity: 1; text-shadow: rgb(255, 255, 255) 1px 1px 1px, rgb(255, 255, 255) -1px -1px 1px, rgb(255, 255, 255) 1px -1px 1px, rgb(255, 255, 255) -1px 1px 1px; white-space: pre;">MLP 5</text></g><g class="sankey-node" transform="translate(82.353,94.613)" style="opacity: 1;"><rect class="node-rect" width="20" height="448.0004031985486" style="stroke-width: 0; stroke: rgb(68, 68, 68); stroke-opacity: 1; fill: rgb(166, 86, 40); fill-opacity: 1;"/><text class="node-label" data-notex="1" x="0" y="0" text-anchor="start" transform="translate(16.65,3)scale(-1,1)rotate(90)" style="cursor: default; font-family: 'Open Sans', verdana, arial, sans-serif; font-size: 19px; fill: rgb(42, 63, 95); fill-opacity: 1; text-shadow: rgb(255, 255, 255) 1px 1px 1px, rgb(255, 255, 255) -1px -1px 1px, rgb(255, 255, 255) 1px -1px 1px, rgb(255, 255, 255) -1px 1px 1px; white-space: pre;">MLP 0</text></g><g class="sankey-node" transform="translate(41.176,132.000)" style="opacity: 1;"><rect class="node-rect" width="20" height="111.99982080064507" style="stroke-width: 0; stroke: rgb(68, 68, 68); stroke-opacity: 1; fill: rgb(77, 175, 74); fill-opacity: 1;"/><text class="node-label" data-notex="1" x="0" y="0" text-anchor="start" transform="translate(16.65,3)scale(-1,1)rotate(90)" style="cursor: default; font-family: 'Open Sans', verdana, arial, sans-serif; font-size: 19px; fill: rgb(42, 63, 95); fill-opacity: 1; text-shadow: rgb(255, 255, 255) 1px 1px 1px, rgb(255, 255, 255) -1px -1px 1px, rgb(255, 255, 255) 1px -1px 1px, rgb(255, 255, 255) -1px 1px 1px; white-space: pre;">A0.4</text></g><g class="sankey-node" transform="translate(164.706,291.152)" style="opacity: 1;"><rect class="node-rect" width="20" height="0.5" style="stroke-width: 0; stroke: rgb(68, 68, 68); stroke-opacity: 1; fill: rgb(0, 0, 0); fill-opacity: 0;"/><text class="node-label" data-notex="1" x="0" y="0" text-anchor="start" transform="translate(16.65,3)scale(-1,1)rotate(90)" style="cursor: default; font-family: 'Open Sans', verdana, arial, sans-serif; font-size: 19px; fill: rgb(42, 63, 95); fill-opacity: 1; text-shadow: rgb(255, 255, 255) 1px 1px 1px, rgb(255, 255, 255) -1px -1px 1px, rgb(255, 255, 255) 1px -1px 1px, rgb(255, 255, 255) -1px 1px 1px; white-space: pre;"></text></g><g class="sankey-node" transform="translate(452.941,3.604)" style="opacity: 1;"><rect class="node-rect" width="20" height="559.9992160028229" style="stroke-width: 0; stroke: rgb(68, 68, 68); stroke-opacity: 1; fill: rgb(222, 222, 0); fill-opacity: 1;"/><text class="node-label" data-notex="1" x="0" y="0" text-anchor="start" transform="translate(16.65,3)scale(-1,1)rotate(90)" style="cursor: default; font-family: 'Open Sans', verdana, arial, sans-serif; font-size: 19px; fill: rgb(42, 63, 95); fill-opacity: 1; text-shadow: rgb(255, 255, 255) 1px 1px 1px, rgb(255, 255, 255) -1px -1px 1px, rgb(255, 255, 255) 1px -1px 1px, rgb(255, 255, 255) -1px 1px 1px; white-space: pre;">A5.13</text></g><g class="sankey-node" transform="translate(41.176,264.000)" style="opacity: 1;"><rect class="node-rect" width="20" height="111.99982080064473" style="stroke-width: 0; stroke: rgb(68, 68, 68); stroke-opacity: 1; fill: rgb(166, 86, 40); fill-opacity: 1;"/><text class="node-label" data-notex="1" x="0" y="0" text-anchor="start" transform="translate(16.65,3)scale(-1,1)rotate(90)" style="cursor: default; font-family: 'Open Sans', verdana, arial, sans-serif; font-size: 19px; fill: rgb(42, 63, 95); fill-opacity: 1; text-shadow: rgb(255, 255, 255) 1px 1px 1px, rgb(255, 255, 255) -1px -1px 1px, rgb(255, 255, 255) 1px -1px 1px, rgb(255, 255, 255) -1px 1px 1px; white-space: pre;">A0.7</text></g><g class="sankey-node" transform="translate(41.176,395.999)" style="opacity: 1;"><rect class="node-rect" width="20" height="112.00071679741939" style="stroke-width: 0; stroke: rgb(68, 68, 68); stroke-opacity: 1; fill: rgb(228, 26, 28); fill-opacity: 1;"/><text class="node-label" data-notex="1" x="0" y="0" text-anchor="start" transform="translate(16.65,3)scale(-1,1)rotate(90)" style="cursor: default; font-family: 'Open Sans', verdana, arial, sans-serif; font-size: 19px; fill: rgb(42, 63, 95); fill-opacity: 1; text-shadow: rgb(255, 255, 255) 1px 1px 1px, rgb(255, 255, 255) -1px -1px 1px, rgb(255, 255, 255) 1px -1px 1px, rgb(255, 255, 255) -1px 1px 1px; white-space: pre;">A0.2</text></g><g class="sankey-node" transform="translate(617.647,0.000)" style="opacity: 1;"><rect class="node-rect" width="20" height="559.9988800040323" style="stroke-width: 0; stroke: rgb(68, 68, 68); stroke-opacity: 1; fill: rgb(228, 26, 28); fill-opacity: 1;"/><text class="node-label" data-notex="1" x="0" y="0" text-anchor="start" transform="translate(16.65,3)scale(-1,1)rotate(90)" style="cursor: default; font-family: 'Open Sans', verdana, arial, sans-serif; font-size: 19px; fill: rgb(42, 63, 95); fill-opacity: 1; text-shadow: rgb(255, 255, 255) 1px 1px 1px, rgb(255, 255, 255) -1px -1px 1px, rgb(255, 255, 255) 1px -1px 1px, rgb(255, 255, 255) -1px 1px 1px; white-space: pre;">A7.2</text></g><g class="sankey-node" transform="translate(247.059,288.872)" style="opacity: 1;"><rect class="node-rect" width="20" height="0.5" style="stroke-width: 0; stroke: rgb(68, 68, 68); stroke-opacity: 1; fill: rgb(0, 0, 0); fill-opacity: 0;"/><text class="node-label" data-notex="1" x="0" y="0" text-anchor="start" transform="translate(16.65,3)scale(-1,1)rotate(90)" style="cursor: default; font-family: 'Open Sans', verdana, arial, sans-serif; font-size: 19px; fill: rgb(42, 63, 95); fill-opacity: 1; text-shadow: rgb(255, 255, 255) 1px 1px 1px, rgb(255, 255, 255) -1px -1px 1px, rgb(255, 255, 255) 1px -1px 1px, rgb(255, 255, 255) -1px 1px 1px; white-space: pre;"></text></g><g class="sankey-node" transform="translate(41.176,528.000)" style="opacity: 1;"><rect class="node-rect" width="20" height="111.99982080064501" style="stroke-width: 0; stroke: rgb(68, 68, 68); stroke-opacity: 1; fill: rgb(247, 129, 191); fill-opacity: 1;"/><text class="node-label" data-notex="1" x="0" y="0" text-anchor="start" transform="translate(16.65,3)scale(-1,1)rotate(90)" style="cursor: default; font-family: 'Open Sans', verdana, arial, sans-serif; font-size: 19px; fill: rgb(42, 63, 95); fill-opacity: 1; text-shadow: rgb(255, 255, 255) 1px 1px 1px, rgb(255, 255, 255) -1px -1px 1px, rgb(255, 255, 255) 1px -1px 1px, rgb(255, 255, 255) -1px 1px 1px; white-space: pre;">A0.5</text></g><g class="sankey-node" transform="translate(658.824,223.367)" style="opacity: 1;"><rect class="node-rect" width="20" height="112.0006047978224" style="stroke-width: 0; stroke: rgb(68, 68, 68); stroke-opacity: 1; fill: rgb(152, 78, 163); fill-opacity: 1;"/><text class="node-label" data-notex="1" x="0" y="0" text-anchor="start" transform="translate(16.65,3)scale(-1,1)rotate(90)" style="cursor: default; font-family: 'Open Sans', verdana, arial, sans-serif; font-size: 19px; fill: rgb(42, 63, 95); fill-opacity: 1; text-shadow: rgb(255, 255, 255) 1px 1px 1px, rgb(255, 255, 255) -1px -1px 1px, rgb(255, 255, 255) 1px -1px 1px, rgb(255, 255, 255) -1px 1px 1px; white-space: pre;">MLP 7</text></g><g class="sankey-node" transform="translate(700.000,58.226)" style="opacity: 1;"><rect class="node-rect" width="20" height="447.99905920338705" style="stroke-width: 0; stroke: rgb(68, 68, 68); stroke-opacity: 1; fill: rgb(152, 78, 163); fill-opacity: 1;"/><text class="node-label" data-notex="1" x="0" y="0" text-anchor="start" transform="translate(16.65,3)scale(-1,1)rotate(90)" style="cursor: default; font-family: 'Open Sans', verdana, arial, sans-serif; font-size: 19px; fill: rgb(42, 63, 95); fill-opacity: 1; text-shadow: rgb(255, 255, 255) 1px 1px 1px, rgb(255, 255, 255) -1px -1px 1px, rgb(255, 255, 255) 1px -1px 1px, rgb(255, 255, 255) -1px 1px 1px; white-space: pre;">Unembed</text></g><g class="sankey-node" transform="translate(0.000,21.315)" style="opacity: 1;"><rect class="node-rect" width="20" height="559.9996640012097" style="stroke-width: 0; stroke: rgb(68, 68, 68); stroke-opacity: 1; fill: rgb(153, 153, 153); fill-opacity: 1;"/><text class="node-label" data-notex="1" x="0" y="0" text-anchor="start" transform="translate(16.65,3)scale(-1,1)rotate(90)" style="cursor: default; font-family: 'Open Sans', verdana, arial, sans-serif; font-size: 19px; fill: rgb(42, 63, 95); fill-opacity: 1; text-shadow: rgb(255, 255, 255) 1px 1px 1px, rgb(255, 255, 255) -1px -1px 1px, rgb(255, 255, 255) 1px -1px 1px, rgb(255, 255, 255) -1px 1px 1px; white-space: pre;">Embed</text></g></g></g><defs id="topdefs-15639b"><g class="clips"/></defs><g class="layer-above"><g class="imagelayer"/><g class="shapelayer"/></g><g class="infolayer"><g class="g-gtitle"/><g class="first-render"/></g></svg>