<svg class="main-svg" xmlns="http://www.w3.org/2000/svg" xmlns:xlink="http://www.w3.org/1999/xlink" width="800" height="900" style="" viewBox="0 0 800 900"><rect x="0" y="0" width="800" height="900" style="fill: rgb(255, 255, 255); fill-opacity: 1;"/><defs id="defs-1fa420"><g class="clips"/><g class="gradients"/><g class="patterns"/></defs><g class="bglayer"/><g class="layer-below"><g class="imagelayer"/><g class="shapelayer"/></g><g class="cartesianlayer"/><g class="polarlayer"/><g class="smithlayer"/><g class="ternarylayer"/><g class="geolayer"/><g class="funnelarealayer"/><g class="pielayer"/><g class="iciclelayer"/><g class="treemaplayer"/><g class="sunburstlayer"/><g class="glimages"/><g class="sankey" transform="translate(80,100)matrix(0 1 1 0 0 0)" style="box-sizing: content-box; position: absolute; left: 0px; shape-rendering: geometricprecision; pointer-events: none;"><g class="sankey-links" style="fill: none;"><path class="sankey-link" d="M102.3529411764706,390.644941589747C285.7352941176471,390.644941589747 285.7352941176471,318.2853392225112 469.11764705882354,318.2853392225112L494.11764705882354,347.285289922595L469.11764705882354,376.28524062267877C285.7352941176471,376.28524062267877 285.7352941176471,448.6448429899146 102.3529411764706,448.6448429899146Z" style="stroke: rgb(68, 68, 68); stroke-opacity: 1; fill: rgb(0, 0, 255); fill-opacity: 0.3; stroke-width: 0; opacity: 1;"/><path class="sankey-link" d="M637.6470588235295,425.99977380038496C642.9411764705883,425.99977380038496 642.9411764705883,370.4431907892638 648.2352941176471,370.4431907892638L658.8235294117646,399.44314148934757L648.2352941176471,428.44309218943135C642.9411764705883,428.44309218943135 642.9411764705883,483.99967520055253 637.6470588235295,483.99967520055253Z" style="stroke: rgb(68, 68, 68); stroke-opacity: 1; fill: rgb(0, 0, 255); fill-opacity: 0.3; stroke-width: 0; opacity: 1;"/><path class="sankey-link" d="M637.6470588235295,504.0000231999609C656.3235294117648,504.0000231999609 656.3235294117648,504.38312989599206 675,504.38312989599206L700,533.3830805960758L675,562.3830312961596C656.3235294117648,562.3830312961596 656.3235294117648,561.9999246001285 637.6470588235295,561.9999246001285Z" style="stroke: rgb(68, 68, 68); stroke-opacity: 1; fill: rgb(0, 0, 255); fill-opacity: 0.3; stroke-width: 0; opacity: 1;"/><path class="sankey-link" d="M637.6470588235295,2.5579538487363607e-13C656.3235294117648,2.5579538487363607e-13 656.3235294117648,214.3829848962385 675,214.3829848962385L700,243.3829355963223L675,272.3828862964061C656.3235294117648,272.3828862964061 656.3235294117648,57.999901400167865 637.6470588235295,57.999901400167865Z" style="stroke: rgb(68, 68, 68); stroke-opacity: 1; fill: rgb(0, 0, 255); fill-opacity: 0.3; stroke-width: 0; opacity: 1;"/><path class="sankey-link" d="M102.3529411764706,448.64484298991465C162.2058823529412,448.64484298991465 162.2058823529412,362.71076646795495 222.05882352941177,362.71076646795495L247.05882352941177,391.71071716803874L222.05882352941177,420.7106678681225C162.2058823529412,420.7106678681225 162.2058823529412,506.6447443900822 102.3529411764706,506.6447443900822Z" style="stroke: rgb(68, 68, 68); stroke-opacity: 1; fill: rgb(0, 0, 255); fill-opacity: 0.3; stroke-width: 0; opacity: 1;"/><path class="sankey-link" d="M349.4117647058824,347.15324244350916C471.02941176470597,347.15324244350916 471.02941176470597,231.99960560067066 592.6470588235295,231.99960560067066L617.6470588235295,260.9995563007545L592.6470588235295,289.99950700083826C471.02941176470597,289.99950700083826 471.02941176470597,405.15314384367673 349.4117647058824,405.15314384367673Z" style="stroke: rgb(68, 68, 68); stroke-opacity: 1; fill: rgb(0, 0, 255); fill-opacity: 0.3; stroke-width: 0; opacity: 1;"/><path class="sankey-link" d="M267.05882352941177,420.7108998677282C388.67647058823536,420.7108998677282 388.67647058823536,530.8735511408473 510.2941176470589,530.8735511408473L535.2941176470589,559.8735018409311L510.2941176470589,588.8734525410149C388.67647058823536,588.8734525410149 388.67647058823536,478.71080126789576 267.05882352941177,478.71080126789576Z" style="stroke: rgb(68, 68, 68); stroke-opacity: 1; fill: rgb(0, 0, 255); fill-opacity: 0.3; stroke-width: 0; opacity: 1;"/><path class="sankey-link" d="M61.1764705882353,581.9995186008185C66.47058823529412,581.9995186008185 66.47058823529412,506.64509238949074 71.76470588235294,506.64509238949074L82.3529411764706,535.6450430895745L71.76470588235294,564.6449937896583C66.47058823529412,564.6449937896583 66.47058823529412,639.9994200009861 61.1764705882353,639.9994200009861Z" style="stroke: rgb(68, 68, 68); stroke-opacity: 1; fill: rgb(0, 0, 255); fill-opacity: 0.3; stroke-width: 0; opacity: 1;"/><path class="sankey-link" d="M514.1176470588235,318.2853392225112C553.3823529411766,318.2853392225112 553.3823529411766,2.5579538487363607e-13 592.6470588235295,2.5579538487363607e-13L617.6470588235295,28.99995070008406L592.6470588235295,57.999901400167865C553.3823529411766,57.999901400167865 553.3823529411766,376.28524062267877 514.1176470588235,376.28524062267877Z" style="stroke: rgb(68, 68, 68); stroke-opacity: 1; fill: rgb(0, 0, 255); fill-opacity: 0.3; stroke-width: 0; opacity: 1;"/><path class="sankey-link" d="M61.1764705882353,503.99950120084804C66.47058823529412,503.99950120084804 66.47058823529412,448.64507498952025 71.76470588235294,448.64507498952025L82.3529411764706,477.64502568960404L71.76470588235294,506.6449763896878C66.47058823529412,506.6449763896878 66.47058823529412,561.9994026010156 61.1764705882353,561.9994026010156Z" style="stroke: rgb(68, 68, 68); stroke-opacity: 1; fill: rgb(0, 0, 255); fill-opacity: 0.3; stroke-width: 0; opacity: 1;"/><path class="sankey-link" d="M20,391.1827155730381C25.294117647058826,391.1827155730381 25.294117647058826,425.9994838008778 30.58823529411765,425.9994838008778L41.1764705882353,454.99943450096157L30.58823529411765,483.99938520104536C25.294117647058826,483.99938520104536 25.294117647058826,449.18261697320565 20,449.18261697320565Z" style="stroke: rgb(68, 68, 68); stroke-opacity: 1; fill: rgb(0, 0, 255); fill-opacity: 0.3; stroke-width: 0; opacity: 1;"/><path class="sankey-link" d="M555.2941176470589,530.8730291417347C594.5588235294118,530.8730291417347 594.5588235294118,428.4434401888398 633.8235294117648,428.4434401888398L658.8235294117648,457.4433908889236L633.8235294117648,486.4433415890074C594.5588235294118,486.4433415890074 594.5588235294118,588.8729305419023 555.2941176470589,588.8729305419023Z" style="stroke: rgb(68, 68, 68); stroke-opacity: 1; fill: rgb(0, 0, 255); fill-opacity: 0.3; stroke-width: 0; opacity: 1;"/><path class="sankey-link" d="M596.4705882352941,374.4314363118029C601.7647058823529,374.4314363118029 601.7647058823529,289.9995070008383 607.0588235294118,289.9995070008383L617.6470588235295,318.9994577009221L607.0588235294118,347.9994084010059C601.7647058823529,347.9994084010059 601.7647058823529,432.43133771197046 596.4705882352941,432.43133771197046Z" style="stroke: rgb(68, 68, 68); stroke-opacity: 1; fill: rgb(0, 0, 255); fill-opacity: 0.3; stroke-width: 0; opacity: 1;"/><path class="sankey-link" d="M555.2941176470589,394.8731103415968C615.1470588235295,394.8731103415968 615.1470588235295,330.38342569548917 675,330.38342569548917L700,359.38337639557295L675,388.38332709565674C615.1470588235295,388.38332709565674 615.1470588235295,452.8730117417644 555.2941176470589,452.8730117417644Z" style="stroke: rgb(68, 68, 68); stroke-opacity: 1; fill: rgb(0, 0, 255); fill-opacity: 0.3; stroke-width: 0; opacity: 1;"/><path class="sankey-link" d="M514.1176470588235,376.2852406226788C553.3823529411766,376.2852406226788 553.3823529411766,57.99990140016787 592.6470588235295,57.99990140016787L617.6470588235295,86.99985210025167L592.6470588235295,115.99980280033547C553.3823529411766,115.99980280033547 553.3823529411766,434.2851420228464 514.1176470588235,434.2851420228464Z" style="stroke: rgb(68, 68, 68); stroke-opacity: 1; fill: rgb(0, 0, 255); fill-opacity: 0.3; stroke-width: 0; opacity: 1;"/><path class="sankey-link" d="M61.1764705882353,347.9994664009073C66.47058823529412,347.9994664009073 66.47058823529412,332.6450401895794 71.76470588235294,332.6450401895794L82.3529411764706,361.6449908896632L71.76470588235294,390.64494158974696C66.47058823529412,390.64494158974696 66.47058823529412,405.99936780107487 61.1764705882353,405.99936780107487Z" style="stroke: rgb(68, 68, 68); stroke-opacity: 1; fill: rgb(0, 0, 255); fill-opacity: 0.3; stroke-width: 0; opacity: 1;"/><path class="sankey-link" d="M20,449.1827329730085C25.294117647058826,449.1827329730085 25.294117647058826,503.99950120084804 30.58823529411765,503.99950120084804L41.1764705882353,532.9994519009318L30.58823529411765,561.9994026010156C25.294117647058826,561.9994026010156 25.294117647058826,507.1826343731761 20,507.1826343731761Z" style="stroke: rgb(68, 68, 68); stroke-opacity: 1; fill: rgb(0, 0, 255); fill-opacity: 0.3; stroke-width: 0; opacity: 1;"/><path class="sankey-link" d="M20,333.18269817306765C25.294117647058826,333.18269817306765 25.294117647058826,347.9994664009073 30.58823529411765,347.9994664009073L41.1764705882353,376.9994171009911L30.58823529411765,405.99936780107487C25.294117647058826,405.99936780107487 25.294117647058826,391.1825995732352 20,391.1825995732352Z" style="stroke: rgb(68, 68, 68); stroke-opacity: 1; fill: rgb(0, 0, 255); fill-opacity: 0.3; stroke-width: 0; opacity: 1;"/><path class="sankey-link" d="M20,507.18275037297894C25.294117647058826,507.18275037297894 25.294117647058826,581.9995186008185 30.58823529411765,581.9995186008185L41.1764705882353,610.9994693009023L30.58823529411765,639.9994200009861C25.294117647058826,639.9994200009861 25.294117647058826,565.1826517731465 20,565.1826517731465Z" style="stroke: rgb(68, 68, 68); stroke-opacity: 1; fill: rgb(0, 0, 255); fill-opacity: 0.3; stroke-width: 0; opacity: 1;"/><path class="sankey-link" d="M637.6470588235295,581.9999826000299C656.3235294117648,581.9999826000299 656.3235294117648,562.3830312961596 675,562.3830312961596L700,591.3829819962434L675,620.3829326963272C656.3235294117648,620.3829326963272 656.3235294117648,639.9998840001974 637.6470588235295,639.9998840001974Z" style="stroke: rgb(68, 68, 68); stroke-opacity: 1; fill: rgb(0, 0, 255); fill-opacity: 0.3; stroke-width: 0; opacity: 1;"/><path class="sankey-link" d="M555.2941176470589,336.8732089414292C573.9705882352941,336.8732089414292 573.9705882352941,173.9997042005031 592.6470588235295,173.9997042005031L617.6470588235295,202.9996549005869L592.6470588235295,231.99960560067072C573.9705882352941,231.99960560067072 573.9705882352941,394.87311034159677 555.2941176470589,394.87311034159677Z" style="stroke: rgb(68, 68, 68); stroke-opacity: 1; fill: rgb(0, 0, 255); fill-opacity: 0.3; stroke-width: 0; opacity: 1;"/><path class="sankey-link" d="M514.1176470588235,434.28525802264926C519.4117647058824,434.28525802264926 519.4117647058824,472.87312774156715 524.7058823529412,472.87312774156715L535.2941176470589,501.87307844165093L524.7058823529412,530.8730291417347C519.4117647058824,530.8730291417347 519.4117647058824,492.28515942281683 514.1176470588235,492.28515942281683Z" style="stroke: rgb(68, 68, 68); stroke-opacity: 1; fill: rgb(0, 0, 255); fill-opacity: 0.3; stroke-width: 0; opacity: 1;"/><path class="sankey-link" d="M555.2941176470589,472.87312774156715C615.1470588235295,472.87312774156715 615.1470588235295,446.3832284958244 675,446.3832284958244L700,475.3831791959082L675,504.383129895992C615.1470588235295,504.383129895992 615.1470588235295,530.8730291417347 555.2941176470589,530.8730291417347Z" style="stroke: rgb(68, 68, 68); stroke-opacity: 1; fill: rgb(0, 0, 255); fill-opacity: 0.3; stroke-width: 0; opacity: 1;"/><path class="sankey-link" d="M267.05882352941177,362.71076646795495C368.0882352941177,362.71076646795495 368.0882352941177,376.2852406226788 469.11764705882354,376.2852406226788L494.11764705882354,405.2851913227626L469.11764705882354,434.2851420228464C368.0882352941177,434.2851420228464 368.0882352941177,420.7106678681225 267.05882352941177,420.7106678681225Z" style="stroke: rgb(68, 68, 68); stroke-opacity: 1; fill: rgb(0, 0, 255); fill-opacity: 0.3; stroke-width: 0; opacity: 1;"/><path class="sankey-link" d="M61.1764705882353,425.9994838008778C66.47058823529412,425.9994838008778 66.47058823529412,390.6450575895498 71.76470588235294,390.6450575895498L82.3529411764706,419.6450082896336L71.76470588235294,448.6449589897174C66.47058823529412,448.6449589897174 66.47058823529412,483.99938520104536 61.1764705882353,483.99938520104536Z" style="stroke: rgb(68, 68, 68); stroke-opacity: 1; fill: rgb(0, 0, 255); fill-opacity: 0.3; stroke-width: 0; opacity: 1;"/><path class="sankey-link" d="M637.6470588235295,57.99990140016787C642.9411764705883,57.99990140016787 642.9411764705883,312.44282538988494 648.2352941176471,312.44282538988494L658.8235294117646,341.44277608996873L648.2352941176471,370.4427267900525C642.9411764705883,370.4427267900525 642.9411764705883,115.99980280033547 637.6470588235295,115.99980280033547Z" style="stroke: rgb(68, 68, 68); stroke-opacity: 1; fill: rgb(0, 0, 255); fill-opacity: 0.3; stroke-width: 0; opacity: 1;"/><path class="sankey-link" d="M102.3529411764706,506.64526638919494C347.50000000000006,506.64526638919494 347.50000000000006,581.9999826000299 592.6470588235295,581.9999826000299L617.6470588235295,610.9999333001136L592.6470588235295,639.9998840001974C347.50000000000006,639.9998840001974 347.50000000000006,564.6451677893625 102.3529411764706,564.6451677893625Z" style="stroke: rgb(68, 68, 68); stroke-opacity: 1; fill: rgb(0, 0, 255); fill-opacity: 0.3; stroke-width: 0; opacity: 1;"/><path class="sankey-link" d="M102.3529411764706,332.6450401895794C347.50000000000006,332.6450401895794 347.50000000000006,115.99980280033547 592.6470588235295,115.99980280033547L617.6470588235295,144.99975350041927L592.6470588235295,173.9997042005031C347.50000000000006,173.9997042005031 347.50000000000006,390.64494158974696 102.3529411764706,390.64494158974696Z" style="stroke: rgb(68, 68, 68); stroke-opacity: 1; fill: rgb(0, 0, 255); fill-opacity: 0.3; stroke-width: 0; opacity: 1;"/><path class="sankey-link" d="M678.8235294117648,312.44282538988494C684.1176470588236,312.44282538988494 684.1176470588236,272.3828862964061 689.4117647058824,272.3828862964061L700,301.3828369964899L689.4117647058824,330.3827876965737C684.1176470588236,330.3827876965737 684.1176470588236,370.4427267900525 678.8235294117648,370.4427267900525Z" style="stroke: rgb(68, 68, 68); stroke-opacity: 1; fill: rgb(0, 0, 255); fill-opacity: 0.3; stroke-width: 0; opacity: 1;"/><path class="sankey-link" d="M637.6470588235295,367.9998724002173C656.3235294117648,367.9998724002173 656.3235294117648,388.3833270956568 675,388.3833270956568L700,417.3832777957406L675,446.38322849582437C656.3235294117648,446.38322849582437 656.3235294117648,425.9997738003849 637.6470588235295,425.9997738003849Z" style="stroke: rgb(68, 68, 68); stroke-opacity: 1; fill: rgb(0, 0, 255); fill-opacity: 0.3; stroke-width: 0; opacity: 1;"/><path class="sankey-link" d="M20,565.1826517731465C25.294117647058826,565.1826517731465 25.294117647058826,639.9994200009861 30.58823529411765,639.9994200009861L41.1764705882353,639.9994490009368L30.58823529411765,639.9994780008875C25.294117647058826,639.9994780008875 25.294117647058826,565.1827097730479 20,565.1827097730479Z" style="stroke: rgb(0, 255, 0); stroke-opacity: 0; fill: rgb(0, 255, 0); fill-opacity: 0; stroke-width: 1; opacity: 1;"/><path class="sankey-link" d="M20,565.1827097730479C25.294117647058826,565.1827097730479 25.294117647058826,639.9994780008875 30.58823529411765,639.9994780008875L41.1764705882353,639.9995070008382L30.58823529411765,639.9995360007889C25.294117647058826,639.9995360007889 25.294117647058826,565.1827677729493 20,565.1827677729493Z" style="stroke: rgb(0, 255, 0); stroke-opacity: 0; fill: rgb(0, 255, 0); fill-opacity: 0; stroke-width: 1; opacity: 1;"/><path class="sankey-link" d="M20,565.1827677729493C25.294117647058826,565.1827677729493 25.294117647058826,639.9995360007889 30.58823529411765,639.9995360007889L41.1764705882353,639.9995650007396L30.58823529411765,639.9995940006903C25.294117647058826,639.9995940006903 25.294117647058826,565.1828257728507 20,565.1828257728507Z" style="stroke: rgb(0, 255, 0); stroke-opacity: 0; fill: rgb(0, 255, 0); fill-opacity: 0; stroke-width: 1; opacity: 1;"/><path class="sankey-link" d="M20,565.1828257728507C25.294117647058826,565.1828257728507 25.294117647058826,639.9995940006903 30.58823529411765,639.9995940006903L41.1764705882353,639.999623000641L30.58823529411765,639.9996520005917C25.294117647058826,639.9996520005917 25.294117647058826,565.1828837727521 20,565.1828837727521Z" style="stroke: rgb(0, 255, 0); stroke-opacity: 0; fill: rgb(0, 255, 0); fill-opacity: 0; stroke-width: 1; opacity: 1;"/><path class="sankey-link" d="M20,565.1828837727521C25.294117647058826,565.1828837727521 25.294117647058826,639.9996520005917 30.58823529411765,639.9996520005917L41.1764705882353,639.9996810005424L30.58823529411765,639.9997100004931C25.294117647058826,639.9997100004931 25.294117647058826,565.1829417726535 20,565.1829417726535Z" style="stroke: rgb(0, 255, 0); stroke-opacity: 0; fill: rgb(0, 255, 0); fill-opacity: 0; stroke-width: 1; opacity: 1;"/><path class="sankey-link" d="M20,507.18263437317614C25.294117647058826,507.18263437317614 25.294117647058826,561.9994026010156 30.58823529411765,561.9994026010156L41.1764705882353,561.9994316009663L30.58823529411765,561.999460600917C25.294117647058826,561.999460600917 25.294117647058826,507.18269237307754 20,507.18269237307754Z" style="stroke: rgb(0, 255, 0); stroke-opacity: 0; fill: rgb(0, 255, 0); fill-opacity: 0; stroke-width: 1; opacity: 1;"/><path class="sankey-link" d="M20,449.1826169732057C25.294117647058826,449.1826169732057 25.294117647058826,483.9993852010454 30.58823529411765,483.9993852010454L41.1764705882353,483.9994142009961L30.58823529411765,483.9994432009468C25.294117647058826,483.9994432009468 25.294117647058826,449.1826749731071 20,449.1826749731071Z" style="stroke: rgb(0, 255, 0); stroke-opacity: 0; fill: rgb(0, 255, 0); fill-opacity: 0; stroke-width: 1; opacity: 1;"/><path class="sankey-link" d="M20,391.1825995732353C25.294117647058826,391.1825995732353 25.294117647058826,405.9993678010749 30.58823529411765,405.9993678010749L41.1764705882353,405.9993968010256L30.58823529411765,405.9994258009763C25.294117647058826,405.9994258009763 25.294117647058826,391.1826575731367 20,391.1826575731367Z" style="stroke: rgb(0, 255, 0); stroke-opacity: 0; fill: rgb(0, 255, 0); fill-opacity: 0; stroke-width: 1; opacity: 1;"/><path class="sankey-link" d="M20,507.18269237307754C25.294117647058826,507.18269237307754 25.294117647058826,561.999460600917 30.58823529411765,561.999460600917L41.1764705882353,561.9994896008677L30.58823529411765,561.9995186008184C25.294117647058826,561.9995186008184 25.294117647058826,507.18275037297894 20,507.18275037297894Z" style="stroke: rgb(0, 255, 0); stroke-opacity: 0; fill: rgb(0, 255, 0); fill-opacity: 0; stroke-width: 1; opacity: 1;"/><path class="sankey-link" d="M20,391.1826575731367C25.294117647058826,391.1826575731367 25.294117647058826,405.9994258009763 30.58823529411765,405.9994258009763L41.1764705882353,405.999454800927L30.58823529411765,405.9994838008777C25.294117647058826,405.9994838008777 25.294117647058826,391.1827155730381 20,391.1827155730381Z" style="stroke: rgb(0, 255, 0); stroke-opacity: 0; fill: rgb(0, 255, 0); fill-opacity: 0; stroke-width: 1; opacity: 1;"/><path class="sankey-link" d="M20,565.1829417726535C25.294117647058826,565.1829417726535 25.294117647058826,639.9997100004931 30.58823529411765,639.9997100004931L41.1764705882353,639.9997390004438L30.58823529411765,639.9997680003945C25.294117647058826,639.9997680003945 25.294117647058826,565.1829997725549 20,565.1829997725549Z" style="stroke: rgb(0, 255, 0); stroke-opacity: 0; fill: rgb(0, 255, 0); fill-opacity: 0; stroke-width: 1; opacity: 1;"/><path class="sankey-link" d="M20,449.1826749731071C25.294117647058826,449.1826749731071 25.294117647058826,483.9994432009468 30.58823529411765,483.9994432009468L41.1764705882353,483.9994722008975L30.58823529411765,483.9995012008482C25.294117647058826,483.9995012008482 25.294117647058826,449.1827329730085 20,449.1827329730085Z" style="stroke: rgb(0, 255, 0); stroke-opacity: 0; fill: rgb(0, 255, 0); fill-opacity: 0; stroke-width: 1; opacity: 1;"/><path class="sankey-link" d="M61.1764705882353,639.9994200009861C66.47058823529412,639.9994200009861 66.47058823529412,564.6449937896583 71.76470588235294,564.6449937896583L82.3529411764706,564.645022789609L71.76470588235294,564.6450517895597C66.47058823529412,564.6450517895597 66.47058823529412,639.9994780008875 61.1764705882353,639.9994780008875Z" style="stroke: rgb(0, 255, 0); stroke-opacity: 0; fill: rgb(0, 255, 0); fill-opacity: 0; stroke-width: 1; opacity: 1;"/><path class="sankey-link" d="M61.1764705882353,561.9994026010156C66.47058823529412,561.9994026010156 66.47058823529412,506.6449763896879 71.76470588235294,506.6449763896879L82.3529411764706,506.6450053896386L71.76470588235294,506.6450343895893C66.47058823529412,506.6450343895893 66.47058823529412,561.999460600917 61.1764705882353,561.999460600917Z" style="stroke: rgb(0, 255, 0); stroke-opacity: 0; fill: rgb(0, 255, 0); fill-opacity: 0; stroke-width: 1; opacity: 1;"/><path class="sankey-link" d="M61.1764705882353,483.9993852010454C66.47058823529412,483.9993852010454 66.47058823529412,448.64495898971745 71.76470588235294,448.64495898971745L82.3529411764706,448.64498798966815L71.76470588235294,448.64501698961885C66.47058823529412,448.64501698961885 66.47058823529412,483.9994432009468 61.1764705882353,483.9994432009468Z" style="stroke: rgb(0, 255, 0); stroke-opacity: 0; fill: rgb(0, 255, 0); fill-opacity: 0; stroke-width: 1; opacity: 1;"/><path class="sankey-link" d="M61.1764705882353,405.9993678010749C66.47058823529412,405.9993678010749 66.47058823529412,390.644941589747 71.76470588235294,390.644941589747L82.3529411764706,390.6449705896977L71.76470588235294,390.6449995896484C66.47058823529412,390.6449995896484 66.47058823529412,405.9994258009763 61.1764705882353,405.9994258009763Z" style="stroke: rgb(0, 255, 0); stroke-opacity: 0; fill: rgb(0, 255, 0); fill-opacity: 0; stroke-width: 1; opacity: 1;"/><path class="sankey-link" d="M61.1764705882353,561.999460600917C66.47058823529412,561.999460600917 66.47058823529412,506.6450343895893 71.76470588235294,506.6450343895893L82.3529411764706,506.64506338954L71.76470588235294,506.6450923894907C66.47058823529412,506.6450923894907 66.47058823529412,561.9995186008184 61.1764705882353,561.9995186008184Z" style="stroke: rgb(0, 255, 0); stroke-opacity: 0; fill: rgb(0, 255, 0); fill-opacity: 0; stroke-width: 1; opacity: 1;"/><path class="sankey-link" d="M61.1764705882353,405.9994258009763C66.47058823529412,405.9994258009763 66.47058823529412,390.6449995896484 71.76470588235294,390.6449995896484L82.3529411764706,390.6450285895991L71.76470588235294,390.6450575895498C66.47058823529412,390.6450575895498 66.47058823529412,405.9994838008777 61.1764705882353,405.9994838008777Z" style="stroke: rgb(0, 255, 0); stroke-opacity: 0; fill: rgb(0, 255, 0); fill-opacity: 0; stroke-width: 1; opacity: 1;"/><path class="sankey-link" d="M61.1764705882353,639.9994780008875C66.47058823529412,639.9994780008875 66.47058823529412,564.6450517895597 71.76470588235294,564.6450517895597L82.3529411764706,564.6450807895104L71.76470588235294,564.6451097894611C66.47058823529412,564.6451097894611 66.47058823529412,639.9995360007889 61.1764705882353,639.9995360007889Z" style="stroke: rgb(0, 255, 0); stroke-opacity: 0; fill: rgb(0, 255, 0); fill-opacity: 0; stroke-width: 1; opacity: 1;"/><path class="sankey-link" d="M61.1764705882353,483.9994432009468C66.47058823529412,483.9994432009468 66.47058823529412,448.64501698961885 71.76470588235294,448.64501698961885L82.3529411764706,448.64504598956955L71.76470588235294,448.64507498952025C66.47058823529412,448.64507498952025 66.47058823529412,483.9995012008482 61.1764705882353,483.9995012008482Z" style="stroke: rgb(0, 255, 0); stroke-opacity: 0; fill: rgb(0, 255, 0); fill-opacity: 0; stroke-width: 1; opacity: 1;"/><path class="sankey-link" d="M61.1764705882353,639.9995360007889C66.47058823529412,639.9995360007889 66.47058823529412,564.6451097894611 71.76470588235294,564.6451097894611L82.3529411764706,564.6451387894118L71.76470588235294,564.6451677893625C66.47058823529412,564.6451677893625 66.47058823529412,639.9995940006903 61.1764705882353,639.9995940006903Z" style="stroke: rgb(0, 255, 0); stroke-opacity: 0; fill: rgb(0, 255, 0); fill-opacity: 0; stroke-width: 1; opacity: 1;"/><path class="sankey-link" d="M61.1764705882353,639.9995940006903C66.47058823529412,639.9995940006903 66.47058823529412,564.6451677893625 71.76470588235294,564.6451677893625L82.3529411764706,564.6451967893132L71.76470588235294,564.6452257892639C66.47058823529412,564.6452257892639 66.47058823529412,639.9996520005917 61.1764705882353,639.9996520005917Z" style="stroke: rgb(0, 255, 0); stroke-opacity: 0; fill: rgb(0, 255, 0); fill-opacity: 0; stroke-width: 1; opacity: 1;"/><path class="sankey-link" d="M61.1764705882353,639.9996520005917C66.47058823529412,639.9996520005917 66.47058823529412,564.6452257892639 71.76470588235294,564.6452257892639L82.3529411764706,564.6452547892146L71.76470588235294,564.6452837891653C66.47058823529412,564.6452837891653 66.47058823529412,639.9997100004931 61.1764705882353,639.9997100004931Z" style="stroke: rgb(0, 255, 0); stroke-opacity: 0; fill: rgb(0, 255, 0); fill-opacity: 0; stroke-width: 1; opacity: 1;"/><path class="sankey-link" d="M61.1764705882353,639.9997100004931C66.47058823529412,639.9997100004931 66.47058823529412,564.6452837891653 71.76470588235294,564.6452837891653L82.3529411764706,564.645312789116L71.76470588235294,564.6453417890667C66.47058823529412,564.6453417890667 66.47058823529412,639.9997680003945 61.1764705882353,639.9997680003945Z" style="stroke: rgb(0, 255, 0); stroke-opacity: 0; fill: rgb(0, 255, 0); fill-opacity: 0; stroke-width: 1; opacity: 1;"/><path class="sankey-link" d="M61.1764705882353,639.9997680003945C66.47058823529412,639.9997680003945 66.47058823529412,564.6453417890667 71.76470588235294,564.6453417890667L82.3529411764706,564.6453707890174L71.76470588235294,564.6453997889681C66.47058823529412,564.6453997889681 66.47058823529412,639.9998260002959 61.1764705882353,639.9998260002959Z" style="stroke: rgb(0, 255, 0); stroke-opacity: 0; fill: rgb(0, 255, 0); fill-opacity: 0; stroke-width: 1; opacity: 1;"/><path class="sankey-link" d="M61.1764705882353,639.9998260002959C66.47058823529412,639.9998260002959 66.47058823529412,564.6453997889681 71.76470588235294,564.6453997889681L82.3529411764706,564.6454287889188L71.76470588235294,564.6454577888695C66.47058823529412,564.6454577888695 66.47058823529412,639.9998840001973 61.1764705882353,639.9998840001973Z" style="stroke: rgb(0, 255, 0); stroke-opacity: 0; fill: rgb(0, 255, 0); fill-opacity: 0; stroke-width: 1; opacity: 1;"/><path class="sankey-link" d="M61.1764705882353,639.9998840001973C66.47058823529412,639.9998840001973 66.47058823529412,564.6454577888695 71.76470588235294,564.6454577888695L82.3529411764706,564.6454867888202L71.76470588235294,564.6455157887709C66.47058823529412,564.6455157887709 66.47058823529412,639.9999420000987 61.1764705882353,639.9999420000987Z" style="stroke: rgb(0, 255, 0); stroke-opacity: 0; fill: rgb(0, 255, 0); fill-opacity: 0; stroke-width: 1; opacity: 1;"/><path class="sankey-link" d="M61.1764705882353,639.9999420000987C66.47058823529412,639.9999420000987 66.47058823529412,564.6455157887709 71.76470588235294,564.6455157887709L82.3529411764706,564.6455447887216L71.76470588235294,564.6455737886723C66.47058823529412,564.6455737886723 66.47058823529412,640.0000000000001 61.1764705882353,640.0000000000001Z" style="stroke: rgb(0, 255, 0); stroke-opacity: 0; fill: rgb(0, 255, 0); fill-opacity: 0; stroke-width: 1; opacity: 1;"/><path class="sankey-link" d="M102.3529411764706,506.6447443900823C107.64705882352942,506.6447443900823 107.64705882352942,420.52338764439696 112.94117647058823,420.52338764439696L123.52941176470588,420.52341664434766L112.94117647058823,420.52344564429836C107.64705882352942,420.52344564429836 107.64705882352942,506.6448023899837 102.3529411764706,506.6448023899837Z" style="stroke: rgb(0, 255, 0); stroke-opacity: 0; fill: rgb(0, 255, 0); fill-opacity: 0; stroke-width: 1; opacity: 1;"/><path class="sankey-link" d="M102.3529411764706,506.6448023899837C107.64705882352942,506.6448023899837 107.64705882352942,420.52344564429836 112.94117647058823,420.52344564429836L123.52941176470588,420.52347464424906L112.94117647058823,420.52350364419976C107.64705882352942,420.52350364419976 107.64705882352942,506.6448603898851 102.3529411764706,506.6448603898851Z" style="stroke: rgb(0, 255, 0); stroke-opacity: 0; fill: rgb(0, 255, 0); fill-opacity: 0; stroke-width: 1; opacity: 1;"/><path class="sankey-link" d="M102.3529411764706,506.6448603898851C107.64705882352942,506.6448603898851 107.64705882352942,420.52350364419976 112.94117647058823,420.52350364419976L123.52941176470588,420.52353264415046L112.94117647058823,420.52356164410116C107.64705882352942,420.52356164410116 107.64705882352942,506.6449183897865 102.3529411764706,506.6449183897865Z" style="stroke: rgb(0, 255, 0); stroke-opacity: 0; fill: rgb(0, 255, 0); fill-opacity: 0; stroke-width: 1; opacity: 1;"/><path class="sankey-link" d="M102.3529411764706,506.6449183897865C107.64705882352942,506.6449183897865 107.64705882352942,420.52356164410116 112.94117647058823,420.52356164410116L123.52941176470588,420.52359064405186L112.94117647058823,420.52361964400257C107.64705882352942,420.52361964400257 107.64705882352942,506.6449763896879 102.3529411764706,506.6449763896879Z" style="stroke: rgb(0, 255, 0); stroke-opacity: 0; fill: rgb(0, 255, 0); fill-opacity: 0; stroke-width: 1; opacity: 1;"/><path class="sankey-link" d="M102.3529411764706,506.6449763896879C107.64705882352942,506.6449763896879 107.64705882352942,420.52361964400257 112.94117647058823,420.52361964400257L123.52941176470588,420.52364864395327L112.94117647058823,420.52367764390397C107.64705882352942,420.52367764390397 107.64705882352942,506.6450343895893 102.3529411764706,506.6450343895893Z" style="stroke: rgb(0, 255, 0); stroke-opacity: 0; fill: rgb(0, 255, 0); fill-opacity: 0; stroke-width: 1; opacity: 1;"/><path class="sankey-link" d="M102.3529411764706,506.6450343895893C107.64705882352942,506.6450343895893 107.64705882352942,420.52367764390397 112.94117647058823,420.52367764390397L123.52941176470588,420.52370664385467L112.94117647058823,420.52373564380537C107.64705882352942,420.52373564380537 107.64705882352942,506.6450923894907 102.3529411764706,506.6450923894907Z" style="stroke: rgb(0, 255, 0); stroke-opacity: 0; fill: rgb(0, 255, 0); fill-opacity: 0; stroke-width: 1; opacity: 1;"/><path class="sankey-link" d="M102.3529411764706,506.6450923894907C107.64705882352942,506.6450923894907 107.64705882352942,420.52373564380537 112.94117647058823,420.52373564380537L123.52941176470588,420.52376464375607L112.94117647058823,420.52379364370677C107.64705882352942,420.52379364370677 107.64705882352942,506.6451503893921 102.3529411764706,506.6451503893921Z" style="stroke: rgb(0, 255, 0); stroke-opacity: 0; fill: rgb(0, 255, 0); fill-opacity: 0; stroke-width: 1; opacity: 1;"/><path class="sankey-link" d="M102.3529411764706,506.6451503893921C107.64705882352942,506.6451503893921 107.64705882352942,420.52379364370677 112.94117647058823,420.52379364370677L123.52941176470588,420.52382264365747L112.94117647058823,420.52385164360817C107.64705882352942,420.52385164360817 107.64705882352942,506.6452083892935 102.3529411764706,506.6452083892935Z" style="stroke: rgb(0, 255, 0); stroke-opacity: 0; fill: rgb(0, 255, 0); fill-opacity: 0; stroke-width: 1; opacity: 1;"/><path class="sankey-link" d="M102.3529411764706,506.6452083892935C107.64705882352942,506.6452083892935 107.64705882352942,420.52385164360817 112.94117647058823,420.52385164360817L123.52941176470588,420.52388064355887L112.94117647058823,420.52390964350957C107.64705882352942,420.52390964350957 107.64705882352942,506.6452663891949 102.3529411764706,506.6452663891949Z" style="stroke: rgb(0, 255, 0); stroke-opacity: 0; fill: rgb(0, 255, 0); fill-opacity: 0; stroke-width: 1; opacity: 1;"/><path class="sankey-link" d="M143.52941176470588,420.52338764439696C148.8235294117647,420.52338764439696 148.8235294117647,420.4459921979641 154.11764705882354,420.4459921979641L164.7058823529412,420.4460211979148L154.11764705882354,420.4460501978655C148.8235294117647,420.4460501978655 148.8235294117647,420.52344564429836 143.52941176470588,420.52344564429836Z" style="stroke: rgb(0, 255, 0); stroke-opacity: 0; fill: rgb(0, 255, 0); fill-opacity: 0; stroke-width: 1; opacity: 1;"/><path class="sankey-link" d="M143.52941176470588,420.52344564429836C148.8235294117647,420.52344564429836 148.8235294117647,420.4460501978655 154.11764705882354,420.4460501978655L164.7058823529412,420.4460791978162L154.11764705882354,420.4461081977669C148.8235294117647,420.4461081977669 148.8235294117647,420.52350364419976 143.52941176470588,420.52350364419976Z" style="stroke: rgb(0, 255, 0); stroke-opacity: 0; fill: rgb(0, 255, 0); fill-opacity: 0; stroke-width: 1; opacity: 1;"/><path class="sankey-link" d="M184.7058823529412,420.4459921979641C190,420.4459921979641 190,420.46281989500216 195.29411764705884,420.46281989500216L205.8823529411765,420.46284889495286L195.29411764705884,420.46287789490356C190,420.46287789490356 190,420.4460501978655 184.7058823529412,420.4460501978655Z" style="stroke: rgb(0, 255, 0); stroke-opacity: 0; fill: rgb(0, 255, 0); fill-opacity: 0; stroke-width: 1; opacity: 1;"/><path class="sankey-link" d="M184.7058823529412,420.4460501978655C190,420.4460501978655 190,420.46287789490356 195.29411764705884,420.46287789490356L205.8823529411765,420.46290689485426L195.29411764705884,420.46293589480496C190,420.46293589480496 190,420.4461081977669 184.7058823529412,420.4461081977669Z" style="stroke: rgb(0, 255, 0); stroke-opacity: 0; fill: rgb(0, 255, 0); fill-opacity: 0; stroke-width: 1; opacity: 1;"/><path class="sankey-link" d="M225.8823529411765,420.46281989500216C231.1764705882353,420.46281989500216 231.1764705882353,420.7106678681226 236.47058823529414,420.7106678681226L247.05882352941177,420.7106968680733L236.47058823529414,420.710725868024C231.1764705882353,420.710725868024 231.1764705882353,420.46287789490356 225.8823529411765,420.46287789490356Z" style="stroke: rgb(0, 255, 0); stroke-opacity: 0; fill: rgb(0, 255, 0); fill-opacity: 0; stroke-width: 1; opacity: 1;"/><path class="sankey-link" d="M225.8823529411765,420.46287789490356C231.1764705882353,420.46287789490356 231.1764705882353,420.710725868024 236.47058823529414,420.710725868024L247.05882352941177,420.7107548679747L236.47058823529414,420.7107838679254C231.1764705882353,420.7107838679254 231.1764705882353,420.46293589480496 225.8823529411765,420.46293589480496Z" style="stroke: rgb(0, 255, 0); stroke-opacity: 0; fill: rgb(0, 255, 0); fill-opacity: 0; stroke-width: 1; opacity: 1;"/><path class="sankey-link" d="M225.8823529411765,420.46293589480496C231.1764705882353,420.46293589480496 231.1764705882353,420.7107838679254 236.47058823529414,420.7107838679254L247.05882352941177,420.7108128678761L236.47058823529414,420.7108418678268C231.1764705882353,420.7108418678268 231.1764705882353,420.46299389470636 225.8823529411765,420.46299389470636Z" style="stroke: rgb(0, 255, 0); stroke-opacity: 0; fill: rgb(0, 255, 0); fill-opacity: 0; stroke-width: 1; opacity: 1;"/><path class="sankey-link" d="M225.8823529411765,420.46299389470636C231.1764705882353,420.46299389470636 231.1764705882353,420.7108418678268 236.47058823529414,420.7108418678268L247.05882352941177,420.7108708677775L236.47058823529414,420.7108998677282C231.1764705882353,420.7108998677282 231.1764705882353,420.46305189460776 225.8823529411765,420.46305189460776Z" style="stroke: rgb(0, 255, 0); stroke-opacity: 0; fill: rgb(0, 255, 0); fill-opacity: 0; stroke-width: 1; opacity: 1;"/><path class="sankey-link" d="M267.05882352941177,420.7106678681226C272.3529411764706,420.7106678681226 272.3529411764706,398.46232650117116 277.6470588235294,398.46232650117116L288.2352941176471,398.46235550112186L277.6470588235294,398.46238450107256C272.3529411764706,398.46238450107256 272.3529411764706,420.710725868024 267.05882352941177,420.710725868024Z" style="stroke: rgb(0, 255, 0); stroke-opacity: 0; fill: rgb(0, 255, 0); fill-opacity: 0; stroke-width: 1; opacity: 1;"/><path class="sankey-link" d="M267.05882352941177,420.710725868024C272.3529411764706,420.710725868024 272.3529411764706,398.46238450107256 277.6470588235294,398.46238450107256L288.2352941176471,398.46241350102326L277.6470588235294,398.46244250097396C272.3529411764706,398.46244250097396 272.3529411764706,420.7107838679254 267.05882352941177,420.7107838679254Z" style="stroke: rgb(0, 255, 0); stroke-opacity: 0; fill: rgb(0, 255, 0); fill-opacity: 0; stroke-width: 1; opacity: 1;"/><path class="sankey-link" d="M267.05882352941177,420.7107838679254C272.3529411764706,420.7107838679254 272.3529411764706,398.46244250097396 277.6470588235294,398.46244250097396L288.2352941176471,398.46247150092466L277.6470588235294,398.46250050087536C272.3529411764706,398.46250050087536 272.3529411764706,420.7108418678268 267.05882352941177,420.7108418678268Z" style="stroke: rgb(0, 255, 0); stroke-opacity: 0; fill: rgb(0, 255, 0); fill-opacity: 0; stroke-width: 1; opacity: 1;"/><path class="sankey-link" d="M267.05882352941177,420.7108418678268C272.3529411764706,420.7108418678268 272.3529411764706,398.46250050087536 277.6470588235294,398.46250050087536L288.2352941176471,398.46252950082607L277.6470588235294,398.46255850077677C272.3529411764706,398.46255850077677 272.3529411764706,420.7108998677282 267.05882352941177,420.7108998677282Z" style="stroke: rgb(0, 255, 0); stroke-opacity: 0; fill: rgb(0, 255, 0); fill-opacity: 0; stroke-width: 1; opacity: 1;"/><path class="sankey-link" d="M308.2352941176471,398.46232650117116C313.5294117647059,398.46232650117116 313.5294117647059,347.15324244350916 318.82352941176475,347.15324244350916L329.41176470588243,347.15327144345986L318.82352941176475,347.15330044341056C313.5294117647059,347.15330044341056 313.5294117647059,398.46238450107256 308.2352941176471,398.46238450107256Z" style="stroke: rgb(0, 255, 0); stroke-opacity: 0; fill: rgb(0, 255, 0); fill-opacity: 0; stroke-width: 1; opacity: 1;"/><path class="sankey-link" d="M308.2352941176471,398.46238450107256C313.5294117647059,398.46238450107256 313.5294117647059,347.15330044341056 318.82352941176475,347.15330044341056L329.41176470588243,347.15332944336126L318.82352941176475,347.15335844331196C313.5294117647059,347.15335844331196 313.5294117647059,398.46244250097396 308.2352941176471,398.46244250097396Z" style="stroke: rgb(0, 255, 0); stroke-opacity: 0; fill: rgb(0, 255, 0); fill-opacity: 0; stroke-width: 1; opacity: 1;"/><path class="sankey-link" d="M349.4117647058824,405.1531438436768C354.7058823529412,405.1531438436768 354.7058823529412,377.46384548183653 360,377.46384548183653L370.5882352941177,377.46387448178723L360,377.46390348173793C354.7058823529412,377.46390348173793 354.7058823529412,405.1532018435782 349.4117647058824,405.1532018435782Z" style="stroke: rgb(0, 255, 0); stroke-opacity: 0; fill: rgb(0, 255, 0); fill-opacity: 0; stroke-width: 1; opacity: 1;"/><path class="sankey-link" d="M349.4117647058824,405.1532018435782C354.7058823529412,405.1532018435782 354.7058823529412,377.46390348173793 360,377.46390348173793L370.5882352941177,377.46393248168863L360,377.46396148163933C354.7058823529412,377.46396148163933 354.7058823529412,405.1532598434796 349.4117647058824,405.1532598434796Z" style="stroke: rgb(0, 255, 0); stroke-opacity: 0; fill: rgb(0, 255, 0); fill-opacity: 0; stroke-width: 1; opacity: 1;"/><path class="sankey-link" d="M390.5882352941177,377.46384548183653C395.8823529411765,377.46384548183653 395.8823529411765,378.58831551989806 401.17647058823536,378.58831551989806L411.76470588235304,378.58834451984876L401.17647058823536,378.58837351979946C395.8823529411765,378.58837351979946 395.8823529411765,377.46390348173793 390.5882352941177,377.46390348173793Z" style="stroke: rgb(0, 255, 0); stroke-opacity: 0; fill: rgb(0, 255, 0); fill-opacity: 0; stroke-width: 1; opacity: 1;"/><path class="sankey-link" d="M390.5882352941177,377.46390348173793C395.8823529411765,377.46390348173793 395.8823529411765,378.58837351979946 401.17647058823536,378.58837351979946L411.76470588235304,378.58840251975016L401.17647058823536,378.58843151970086C395.8823529411765,378.58843151970086 395.8823529411765,377.46396148163933 390.5882352941177,377.46396148163933Z" style="stroke: rgb(0, 255, 0); stroke-opacity: 0; fill: rgb(0, 255, 0); fill-opacity: 0; stroke-width: 1; opacity: 1;"/><path class="sankey-link" d="M431.764705882353,378.58831551989806C437.0588235294118,378.58831551989806 437.0588235294118,379.5538935567951 442.3529411764706,379.5538935567951L452.9411764705883,379.5539225567458L442.3529411764706,379.5539515566965C437.0588235294118,379.5539515566965 437.0588235294118,378.58837351979946 431.764705882353,378.58837351979946Z" style="stroke: rgb(0, 255, 0); stroke-opacity: 0; fill: rgb(0, 255, 0); fill-opacity: 0; stroke-width: 1; opacity: 1;"/><path class="sankey-link" d="M431.764705882353,378.58837351979946C437.0588235294118,378.58837351979946 437.0588235294118,379.5539515566965 442.3529411764706,379.5539515566965L452.9411764705883,379.5539805566472L442.3529411764706,379.5540095565979C437.0588235294118,379.5540095565979 437.0588235294118,378.58843151970086 431.764705882353,378.58843151970086Z" style="stroke: rgb(0, 255, 0); stroke-opacity: 0; fill: rgb(0, 255, 0); fill-opacity: 0; stroke-width: 1; opacity: 1;"/><path class="sankey-link" d="M472.9411764705883,379.5538935567951C478.2352941176471,379.5538935567951 478.2352941176471,434.28514202284646 483.5294117647059,434.28514202284646L494.11764705882354,434.28517102279716L483.5294117647059,434.28520002274786C478.2352941176471,434.28520002274786 478.2352941176471,379.5539515566965 472.9411764705883,379.5539515566965Z" style="stroke: rgb(0, 255, 0); stroke-opacity: 0; fill: rgb(0, 255, 0); fill-opacity: 0; stroke-width: 1; opacity: 1;"/><path class="sankey-link" d="M472.9411764705883,379.5539515566965C478.2352941176471,379.5539515566965 478.2352941176471,434.28520002274786 483.5294117647059,434.28520002274786L494.11764705882354,434.28522902269856L483.5294117647059,434.28525802264926C478.2352941176471,434.28525802264926 478.2352941176471,379.5540095565979 472.9411764705883,379.5540095565979Z" style="stroke: rgb(0, 255, 0); stroke-opacity: 0; fill: rgb(0, 255, 0); fill-opacity: 0; stroke-width: 1; opacity: 1;"/><path class="sankey-link" d="M472.9411764705883,379.5540095565979C478.2352941176471,379.5540095565979 478.2352941176471,434.28525802264926 483.5294117647059,434.28525802264926L494.11764705882354,434.28528702259996L483.5294117647059,434.28531602255066C478.2352941176471,434.28531602255066 478.2352941176471,379.5540675564993 472.9411764705883,379.5540675564993Z" style="stroke: rgb(0, 255, 0); stroke-opacity: 0; fill: rgb(0, 255, 0); fill-opacity: 0; stroke-width: 1; opacity: 1;"/><path class="sankey-link" d="M472.9411764705883,379.5540675564993C478.2352941176471,379.5540675564993 478.2352941176471,434.28531602255066 483.5294117647059,434.28531602255066L494.11764705882354,434.28534502250136L483.5294117647059,434.28537402245206C478.2352941176471,434.28537402245206 478.2352941176471,379.5541255564007 472.9411764705883,379.5541255564007Z" style="stroke: rgb(0, 255, 0); stroke-opacity: 0; fill: rgb(0, 255, 0); fill-opacity: 0; stroke-width: 1; opacity: 1;"/><path class="sankey-link" d="M472.9411764705883,379.5541255564007C478.2352941176471,379.5541255564007 478.2352941176471,434.28537402245206 483.5294117647059,434.28537402245206L494.11764705882354,434.28540302240276L483.5294117647059,434.28543202235346C478.2352941176471,434.28543202235346 478.2352941176471,379.5541835563021 472.9411764705883,379.5541835563021Z" style="stroke: rgb(0, 255, 0); stroke-opacity: 0; fill: rgb(0, 255, 0); fill-opacity: 0; stroke-width: 1; opacity: 1;"/><path class="sankey-link" d="M472.9411764705883,379.5541835563021C478.2352941176471,379.5541835563021 478.2352941176471,434.28543202235346 483.5294117647059,434.28543202235346L494.11764705882354,434.28546102230416L483.5294117647059,434.28549002225486C478.2352941176471,434.28549002225486 478.2352941176471,379.5542415562035 472.9411764705883,379.5542415562035Z" style="stroke: rgb(0, 255, 0); stroke-opacity: 0; fill: rgb(0, 255, 0); fill-opacity: 0; stroke-width: 1; opacity: 1;"/><path class="sankey-link" d="M514.1176470588235,492.2851594228169C519.4117647058824,492.2851594228169 519.4117647058824,530.8730291417347 524.7058823529412,530.8730291417347L535.2941176470589,530.8730581416854L524.7058823529412,530.8730871416361C519.4117647058824,530.8730871416361 519.4117647058824,492.2852174227183 514.1176470588235,492.2852174227183Z" style="stroke: rgb(0, 255, 0); stroke-opacity: 0; fill: rgb(0, 255, 0); fill-opacity: 0; stroke-width: 1; opacity: 1;"/><path class="sankey-link" d="M514.1176470588235,492.2852174227183C519.4117647058824,492.2852174227183 519.4117647058824,530.8730871416361 524.7058823529412,530.8730871416361L535.2941176470589,530.8731161415868L524.7058823529412,530.8731451415375C519.4117647058824,530.8731451415375 519.4117647058824,492.2852754226197 514.1176470588235,492.2852754226197Z" style="stroke: rgb(0, 255, 0); stroke-opacity: 0; fill: rgb(0, 255, 0); fill-opacity: 0; stroke-width: 1; opacity: 1;"/><path class="sankey-link" d="M514.1176470588235,492.2852754226197C519.4117647058824,492.2852754226197 519.4117647058824,530.8731451415375 524.7058823529412,530.8731451415375L535.2941176470589,530.8731741414882L524.7058823529412,530.8732031414389C519.4117647058824,530.8732031414389 519.4117647058824,492.2853334225211 514.1176470588235,492.2853334225211Z" style="stroke: rgb(0, 255, 0); stroke-opacity: 0; fill: rgb(0, 255, 0); fill-opacity: 0; stroke-width: 1; opacity: 1;"/><path class="sankey-link" d="M514.1176470588235,492.2853334225211C519.4117647058824,492.2853334225211 519.4117647058824,530.8732031414389 524.7058823529412,530.8732031414389L535.2941176470589,530.8732321413896L524.7058823529412,530.8732611413403C519.4117647058824,530.8732611413403 519.4117647058824,492.2853914224225 514.1176470588235,492.2853914224225Z" style="stroke: rgb(0, 255, 0); stroke-opacity: 0; fill: rgb(0, 255, 0); fill-opacity: 0; stroke-width: 1; opacity: 1;"/><path class="sankey-link" d="M514.1176470588235,492.2853914224225C519.4117647058824,492.2853914224225 519.4117647058824,530.8732611413403 524.7058823529412,530.8732611413403L535.2941176470589,530.873290141291L524.7058823529412,530.8733191412417C519.4117647058824,530.8733191412417 519.4117647058824,492.2854494223239 514.1176470588235,492.2854494223239Z" style="stroke: rgb(0, 255, 0); stroke-opacity: 0; fill: rgb(0, 255, 0); fill-opacity: 0; stroke-width: 1; opacity: 1;"/><path class="sankey-link" d="M514.1176470588235,492.2854494223239C519.4117647058824,492.2854494223239 519.4117647058824,530.8733191412417 524.7058823529412,530.8733191412417L535.2941176470589,530.8733481411924L524.7058823529412,530.8733771411431C519.4117647058824,530.8733771411431 519.4117647058824,492.2855074222253 514.1176470588235,492.2855074222253Z" style="stroke: rgb(0, 255, 0); stroke-opacity: 0; fill: rgb(0, 255, 0); fill-opacity: 0; stroke-width: 1; opacity: 1;"/><path class="sankey-link" d="M514.1176470588235,492.2855074222253C519.4117647058824,492.2855074222253 519.4117647058824,530.8733771411431 524.7058823529412,530.8733771411431L535.2941176470589,530.8734061410938L524.7058823529412,530.8734351410445C519.4117647058824,530.8734351410445 519.4117647058824,492.2855654221267 514.1176470588235,492.2855654221267Z" style="stroke: rgb(0, 255, 0); stroke-opacity: 0; fill: rgb(0, 255, 0); fill-opacity: 0; stroke-width: 1; opacity: 1;"/><path class="sankey-link" d="M514.1176470588235,434.28514202284646C519.4117647058824,434.28514202284646 519.4117647058824,336.8732089414292 524.7058823529412,336.8732089414292L535.2941176470589,336.8732379413799L524.7058823529412,336.8732669413306C519.4117647058824,336.8732669413306 519.4117647058824,434.28520002274786 514.1176470588235,434.28520002274786Z" style="stroke: rgb(0, 255, 0); stroke-opacity: 0; fill: rgb(0, 255, 0); fill-opacity: 0; stroke-width: 1; opacity: 1;"/><path class="sankey-link" d="M514.1176470588235,434.28520002274786C519.4117647058824,434.28520002274786 519.4117647058824,336.8732669413306 524.7058823529412,336.8732669413306L535.2941176470589,336.8732959412813L524.7058823529412,336.873324941232C519.4117647058824,336.873324941232 519.4117647058824,434.28525802264926 514.1176470588235,434.28525802264926Z" style="stroke: rgb(0, 255, 0); stroke-opacity: 0; fill: rgb(0, 255, 0); fill-opacity: 0; stroke-width: 1; opacity: 1;"/><path class="sankey-link" d="M514.1176470588235,492.2855654221267C519.4117647058824,492.2855654221267 519.4117647058824,530.8734351410445 524.7058823529412,530.8734351410445L535.2941176470589,530.8734641409952L524.7058823529412,530.8734931409459C519.4117647058824,530.8734931409459 519.4117647058824,492.2856234220281 514.1176470588235,492.2856234220281Z" style="stroke: rgb(0, 255, 0); stroke-opacity: 0; fill: rgb(0, 255, 0); fill-opacity: 0; stroke-width: 1; opacity: 1;"/><path class="sankey-link" d="M514.1176470588235,492.2856234220281C519.4117647058824,492.2856234220281 519.4117647058824,530.8734931409459 524.7058823529412,530.8734931409459L535.2941176470589,530.8735221408966L524.7058823529412,530.8735511408473C519.4117647058824,530.8735511408473 519.4117647058824,492.2856814219295 514.1176470588235,492.2856814219295Z" style="stroke: rgb(0, 255, 0); stroke-opacity: 0; fill: rgb(0, 255, 0); fill-opacity: 0; stroke-width: 1; opacity: 1;"/><path class="sankey-link" d="M555.2941176470589,588.8729305419023C560.5882352941178,588.8729305419023 560.5882352941178,374.4315523116057 565.8823529411766,374.4315523116057L576.4705882352941,374.4315813115564L565.8823529411766,374.4316103115071C560.5882352941178,374.4316103115071 560.5882352941178,588.8729885418037 555.2941176470589,588.8729885418037Z" style="stroke: rgb(0, 255, 0); stroke-opacity: 0; fill: rgb(0, 255, 0); fill-opacity: 0; stroke-width: 1; opacity: 1;"/><path class="sankey-link" d="M555.2941176470589,588.8729885418037C560.5882352941178,588.8729885418037 560.5882352941178,374.4316103115071 565.8823529411766,374.4316103115071L576.4705882352941,374.4316393114578L565.8823529411766,374.4316683114085C560.5882352941178,374.4316683114085 560.5882352941178,588.8730465417051 555.2941176470589,588.8730465417051Z" style="stroke: rgb(0, 255, 0); stroke-opacity: 0; fill: rgb(0, 255, 0); fill-opacity: 0; stroke-width: 1; opacity: 1;"/><path class="sankey-link" d="M555.2941176470589,452.87301174176446C560.5882352941178,452.87301174176446 560.5882352941178,374.4314363118029 565.8823529411766,374.4314363118029L576.4705882352941,374.4314653117536L565.8823529411766,374.4314943117043C560.5882352941178,374.4314943117043 560.5882352941178,452.87306974166586 555.2941176470589,452.87306974166586Z" style="stroke: rgb(0, 255, 0); stroke-opacity: 0; fill: rgb(0, 255, 0); fill-opacity: 0; stroke-width: 1; opacity: 1;"/><path class="sankey-link" d="M555.2941176470589,452.87306974166586C560.5882352941178,452.87306974166586 560.5882352941178,374.4314943117043 565.8823529411766,374.4314943117043L576.4705882352941,374.431523311655L565.8823529411766,374.4315523116057C560.5882352941178,374.4315523116057 560.5882352941178,452.87312774156726 555.2941176470589,452.87312774156726Z" style="stroke: rgb(0, 255, 0); stroke-opacity: 0; fill: rgb(0, 255, 0); fill-opacity: 0; stroke-width: 1; opacity: 1;"/><path class="sankey-link" d="M555.2941176470589,588.8730465417051C560.5882352941178,588.8730465417051 560.5882352941178,374.4316683114085 565.8823529411766,374.4316683114085L576.4705882352941,374.4316973113592L565.8823529411766,374.4317263113099C560.5882352941178,374.4317263113099 560.5882352941178,588.8731045416065 555.2941176470589,588.8731045416065Z" style="stroke: rgb(0, 255, 0); stroke-opacity: 0; fill: rgb(0, 255, 0); fill-opacity: 0; stroke-width: 1; opacity: 1;"/><path class="sankey-link" d="M555.2941176470589,588.8731045416065C560.5882352941178,588.8731045416065 560.5882352941178,374.4317263113099 565.8823529411766,374.4317263113099L576.4705882352941,374.4317553112606L565.8823529411766,374.4317843112113C560.5882352941178,374.4317843112113 560.5882352941178,588.8731625415079 555.2941176470589,588.8731625415079Z" style="stroke: rgb(0, 255, 0); stroke-opacity: 0; fill: rgb(0, 255, 0); fill-opacity: 0; stroke-width: 1; opacity: 1;"/><path class="sankey-link" d="M555.2941176470589,588.8731625415079C560.5882352941178,588.8731625415079 560.5882352941178,374.4317843112113 565.8823529411766,374.4317843112113L576.4705882352941,374.431813311162L565.8823529411766,374.4318423111127C560.5882352941178,374.4318423111127 560.5882352941178,588.8732205414093 555.2941176470589,588.8732205414093Z" style="stroke: rgb(0, 255, 0); stroke-opacity: 0; fill: rgb(0, 255, 0); fill-opacity: 0; stroke-width: 1; opacity: 1;"/><path class="sankey-link" d="M596.4705882352941,432.4318017111817C601.7647058823529,432.4318017111817 601.7647058823529,367.9998724002173 607.0588235294118,367.9998724002173L617.6470588235295,367.999901400168L607.0588235294118,367.9999304001187C601.7647058823529,367.9999304001187 601.7647058823529,432.4318597110831 596.4705882352941,432.4318597110831Z" style="stroke: rgb(0, 255, 0); stroke-opacity: 0; fill: rgb(0, 255, 0); fill-opacity: 0; stroke-width: 1; opacity: 1;"/><path class="sankey-link" d="M596.4705882352941,432.4318597110831C601.7647058823529,432.4318597110831 601.7647058823529,367.9999304001187 607.0588235294118,367.9999304001187L617.6470588235295,367.99995940006943L607.0588235294118,367.99998840002013C601.7647058823529,367.99998840002013 601.7647058823529,432.4319177109845 596.4705882352941,432.4319177109845Z" style="stroke: rgb(0, 255, 0); stroke-opacity: 0; fill: rgb(0, 255, 0); fill-opacity: 0; stroke-width: 1; opacity: 1;"/><path class="sankey-link" d="M596.4705882352941,432.4319757108859C601.7647058823529,432.4319757108859 601.7647058823529,504.0000231999609 607.0588235294118,504.0000231999609L617.6470588235295,504.0000521999116L607.0588235294118,504.0000811998623C601.7647058823529,504.0000811998623 601.7647058823529,432.4320337107873 596.4705882352941,432.4320337107873Z" style="stroke: rgb(0, 255, 0); stroke-opacity: 0; fill: rgb(0, 255, 0); fill-opacity: 0; stroke-width: 1; opacity: 1;"/><path class="sankey-link" d="M596.4705882352941,432.4313377119705C601.7647058823529,432.4313377119705 601.7647058823529,347.99940840100595 607.0588235294118,347.99940840100595L617.6470588235295,347.99943740095665L607.0588235294118,347.99946640090735C601.7647058823529,347.99946640090735 601.7647058823529,432.4313957118719 596.4705882352941,432.4313957118719Z" style="stroke: rgb(0, 255, 0); stroke-opacity: 0; fill: rgb(0, 255, 0); fill-opacity: 0; stroke-width: 1; opacity: 1;"/><path class="sankey-link" d="M596.4705882352941,432.4313957118719C601.7647058823529,432.4313957118719 601.7647058823529,347.99946640090735 607.0588235294118,347.99946640090735L617.6470588235295,347.99949540085805L607.0588235294118,347.99952440080875C601.7647058823529,347.99952440080875 601.7647058823529,432.4314537117733 596.4705882352941,432.4314537117733Z" style="stroke: rgb(0, 255, 0); stroke-opacity: 0; fill: rgb(0, 255, 0); fill-opacity: 0; stroke-width: 1; opacity: 1;"/><path class="sankey-link" d="M596.4705882352941,432.4314537117733C601.7647058823529,432.4314537117733 601.7647058823529,347.99952440080875 607.0588235294118,347.99952440080875L617.6470588235295,347.99955340075945L607.0588235294118,347.99958240071015C601.7647058823529,347.99958240071015 601.7647058823529,432.4315117116747 596.4705882352941,432.4315117116747Z" style="stroke: rgb(0, 255, 0); stroke-opacity: 0; fill: rgb(0, 255, 0); fill-opacity: 0; stroke-width: 1; opacity: 1;"/><path class="sankey-link" d="M596.4705882352941,432.4315117116747C601.7647058823529,432.4315117116747 601.7647058823529,347.99958240071015 607.0588235294118,347.99958240071015L617.6470588235295,347.99961140066085L607.0588235294118,347.99964040061155C601.7647058823529,347.99964040061155 601.7647058823529,432.4315697115761 596.4705882352941,432.4315697115761Z" style="stroke: rgb(0, 255, 0); stroke-opacity: 0; fill: rgb(0, 255, 0); fill-opacity: 0; stroke-width: 1; opacity: 1;"/><path class="sankey-link" d="M596.4705882352941,432.4315697115761C601.7647058823529,432.4315697115761 601.7647058823529,347.99964040061155 607.0588235294118,347.99964040061155L617.6470588235295,347.99966940056225L607.0588235294118,347.99969840051295C601.7647058823529,347.99969840051295 601.7647058823529,432.4316277114775 596.4705882352941,432.4316277114775Z" style="stroke: rgb(0, 255, 0); stroke-opacity: 0; fill: rgb(0, 255, 0); fill-opacity: 0; stroke-width: 1; opacity: 1;"/><path class="sankey-link" d="M596.4705882352941,432.4320337107873C601.7647058823529,432.4320337107873 601.7647058823529,639.9998840001974 607.0588235294118,639.9998840001974L617.6470588235295,639.9999130001481L607.0588235294118,639.9999420000988C601.7647058823529,639.9999420000988 601.7647058823529,432.4320917106887 596.4705882352941,432.4320917106887Z" style="stroke: rgb(0, 255, 0); stroke-opacity: 0; fill: rgb(0, 255, 0); fill-opacity: 0; stroke-width: 1; opacity: 1;"/><path class="sankey-link" d="M596.4705882352941,432.4316277114775C601.7647058823529,432.4316277114775 601.7647058823529,347.99969840051295 607.0588235294118,347.99969840051295L617.6470588235295,347.99972740046366L607.0588235294118,347.99975640041436C601.7647058823529,347.99975640041436 601.7647058823529,432.4316857113789 596.4705882352941,432.4316857113789Z" style="stroke: rgb(0, 255, 0); stroke-opacity: 0; fill: rgb(0, 255, 0); fill-opacity: 0; stroke-width: 1; opacity: 1;"/><path class="sankey-link" d="M596.4705882352941,432.4316857113789C601.7647058823529,432.4316857113789 601.7647058823529,347.99975640041436 607.0588235294118,347.99975640041436L617.6470588235295,347.99978540036506L607.0588235294118,347.99981440031576C601.7647058823529,347.99981440031576 601.7647058823529,432.4317437112803 596.4705882352941,432.4317437112803Z" style="stroke: rgb(0, 255, 0); stroke-opacity: 0; fill: rgb(0, 255, 0); fill-opacity: 0; stroke-width: 1; opacity: 1;"/><path class="sankey-link" d="M596.4705882352941,432.4320917106887C601.7647058823529,432.4320917106887 601.7647058823529,639.9999420000988 607.0588235294118,639.9999420000988L617.6470588235295,639.9999710000495L607.0588235294118,640.0000000000002C601.7647058823529,640.0000000000002 601.7647058823529,432.4321497105901 596.4705882352941,432.4321497105901Z" style="stroke: rgb(0, 255, 0); stroke-opacity: 0; fill: rgb(0, 255, 0); fill-opacity: 0; stroke-width: 1; opacity: 1;"/><path class="sankey-link" d="M596.4705882352941,432.4317437112803C601.7647058823529,432.4317437112803 601.7647058823529,347.99981440031576 607.0588235294118,347.99981440031576L617.6470588235295,347.99984340026646L607.0588235294118,347.99987240021716C601.7647058823529,347.99987240021716 601.7647058823529,432.4318017111817 596.4705882352941,432.4318017111817Z" style="stroke: rgb(0, 255, 0); stroke-opacity: 0; fill: rgb(0, 255, 0); fill-opacity: 0; stroke-width: 1; opacity: 1;"/><path class="sankey-link" d="M596.4705882352941,432.4319177109845C601.7647058823529,432.4319177109845 601.7647058823529,367.99998840002013 607.0588235294118,367.99998840002013L617.6470588235295,368.00001739997083L607.0588235294118,368.00004639992153C601.7647058823529,368.00004639992153 601.7647058823529,432.4319757108859 596.4705882352941,432.4319757108859Z" style="stroke: rgb(0, 255, 0); stroke-opacity: 0; fill: rgb(0, 255, 0); fill-opacity: 0; stroke-width: 1; opacity: 1;"/><path class="sankey-link" d="M637.6470588235295,483.9996752005526C642.9411764705883,483.9996752005526 642.9411764705883,428.4430921894314 648.2352941176471,428.4430921894314L658.8235294117646,428.4431211893821L648.2352941176471,428.4431501893328C642.9411764705883,428.4431501893328 642.9411764705883,483.999733200454 637.6470588235295,483.999733200454Z" style="stroke: rgb(0, 255, 0); stroke-opacity: 0; fill: rgb(0, 255, 0); fill-opacity: 0; stroke-width: 1; opacity: 1;"/><path class="sankey-link" d="M637.6470588235295,561.9999246001285C642.9411764705883,561.9999246001285 642.9411764705883,486.44334158900745 648.2352941176471,486.44334158900745L658.8235294117646,486.44337058895815L648.2352941176471,486.44339958890885C642.9411764705883,486.44339958890885 642.9411764705883,561.9999826000299 637.6470588235295,561.9999826000299Z" style="stroke: rgb(0, 255, 0); stroke-opacity: 0; fill: rgb(0, 255, 0); fill-opacity: 0; stroke-width: 1; opacity: 1;"/><path class="sankey-link" d="M637.6470588235295,115.99980280033547C642.9411764705883,115.99980280033547 642.9411764705883,370.4427267900526 648.2352941176471,370.4427267900526L658.8235294117646,370.4427557900033L648.2352941176471,370.442784789954C642.9411764705883,370.442784789954 642.9411764705883,115.99986080023687 637.6470588235295,115.99986080023687Z" style="stroke: rgb(0, 255, 0); stroke-opacity: 0; fill: rgb(0, 255, 0); fill-opacity: 0; stroke-width: 1; opacity: 1;"/><path class="sankey-link" d="M637.6470588235295,115.99986080023687C642.9411764705883,115.99986080023687 642.9411764705883,370.442784789954 648.2352941176471,370.442784789954L658.8235294117646,370.4428137899047L648.2352941176471,370.4428427898554C642.9411764705883,370.4428427898554 642.9411764705883,115.99991880013827 637.6470588235295,115.99991880013827Z" style="stroke: rgb(0, 255, 0); stroke-opacity: 0; fill: rgb(0, 255, 0); fill-opacity: 0; stroke-width: 1; opacity: 1;"/><path class="sankey-link" d="M637.6470588235295,115.99991880013827C642.9411764705883,115.99991880013827 642.9411764705883,370.4428427898554 648.2352941176471,370.4428427898554L658.8235294117646,370.4428717898061L648.2352941176471,370.4429007897568C642.9411764705883,370.4429007897568 642.9411764705883,115.99997680003968 637.6470588235295,115.99997680003968Z" style="stroke: rgb(0, 255, 0); stroke-opacity: 0; fill: rgb(0, 255, 0); fill-opacity: 0; stroke-width: 1; opacity: 1;"/><path class="sankey-link" d="M637.6470588235295,115.99997680003968C642.9411764705883,115.99997680003968 642.9411764705883,370.4429007897568 648.2352941176471,370.4429007897568L658.8235294117646,370.4429297897075L648.2352941176471,370.4429587896582C642.9411764705883,370.4429587896582 642.9411764705883,116.00003479994108 637.6470588235295,116.00003479994108Z" style="stroke: rgb(0, 255, 0); stroke-opacity: 0; fill: rgb(0, 255, 0); fill-opacity: 0; stroke-width: 1; opacity: 1;"/><path class="sankey-link" d="M637.6470588235295,116.00003479994108C642.9411764705883,116.00003479994108 642.9411764705883,370.4429587896582 648.2352941176471,370.4429587896582L658.8235294117646,370.4429877896089L648.2352941176471,370.4430167895596C642.9411764705883,370.4430167895596 642.9411764705883,116.00009279984248 637.6470588235295,116.00009279984248Z" style="stroke: rgb(0, 255, 0); stroke-opacity: 0; fill: rgb(0, 255, 0); fill-opacity: 0; stroke-width: 1; opacity: 1;"/><path class="sankey-link" d="M637.6470588235295,639.9998840001974C642.9411764705883,639.9998840001974 642.9411764705883,486.44339958890885 648.2352941176471,486.44339958890885L658.8235294117646,486.44342858885955L648.2352941176471,486.44345758881025C642.9411764705883,486.44345758881025 642.9411764705883,639.9999420000988 637.6470588235295,639.9999420000988Z" style="stroke: rgb(0, 255, 0); stroke-opacity: 0; fill: rgb(0, 255, 0); fill-opacity: 0; stroke-width: 1; opacity: 1;"/><path class="sankey-link" d="M637.6470588235295,116.00009279984248C642.9411764705883,116.00009279984248 642.9411764705883,370.4430167895596 648.2352941176471,370.4430167895596L658.8235294117646,370.4430457895103L648.2352941176471,370.443074789461C642.9411764705883,370.443074789461 642.9411764705883,116.00015079974388 637.6470588235295,116.00015079974388Z" style="stroke: rgb(0, 255, 0); stroke-opacity: 0; fill: rgb(0, 255, 0); fill-opacity: 0; stroke-width: 1; opacity: 1;"/><path class="sankey-link" d="M637.6470588235295,116.00015079974388C642.9411764705883,116.00015079974388 642.9411764705883,370.443074789461 648.2352941176471,370.443074789461L658.8235294117646,370.4431037894117L648.2352941176471,370.4431327893624C642.9411764705883,370.4431327893624 642.9411764705883,116.00020879964528 637.6470588235295,116.00020879964528Z" style="stroke: rgb(0, 255, 0); stroke-opacity: 0; fill: rgb(0, 255, 0); fill-opacity: 0; stroke-width: 1; opacity: 1;"/><path class="sankey-link" d="M637.6470588235295,639.9999420000988C642.9411764705883,639.9999420000988 642.9411764705883,486.44345758881025 648.2352941176471,486.44345758881025L658.8235294117646,486.44348658876095L648.2352941176471,486.44351558871165C642.9411764705883,486.44351558871165 642.9411764705883,640.0000000000002 637.6470588235295,640.0000000000002Z" style="stroke: rgb(0, 255, 0); stroke-opacity: 0; fill: rgb(0, 255, 0); fill-opacity: 0; stroke-width: 1; opacity: 1;"/><path class="sankey-link" d="M637.6470588235295,116.00020879964528C642.9411764705883,116.00020879964528 642.9411764705883,370.4431327893624 648.2352941176471,370.4431327893624L658.8235294117646,370.4431617893131L648.2352941176471,370.4431907892638C642.9411764705883,370.4431907892638 642.9411764705883,116.00026679954668 637.6470588235295,116.00026679954668Z" style="stroke: rgb(0, 255, 0); stroke-opacity: 0; fill: rgb(0, 255, 0); fill-opacity: 0; stroke-width: 1; opacity: 1;"/><path class="sankey-link" d="M637.6470588235295,483.999733200454C642.9411764705883,483.999733200454 642.9411764705883,428.4431501893328 648.2352941176471,428.4431501893328L658.8235294117646,428.4431791892835L648.2352941176471,428.4432081892342C642.9411764705883,428.4432081892342 642.9411764705883,483.9997912003554 637.6470588235295,483.9997912003554Z" style="stroke: rgb(0, 255, 0); stroke-opacity: 0; fill: rgb(0, 255, 0); fill-opacity: 0; stroke-width: 1; opacity: 1;"/><path class="sankey-link" d="M637.6470588235295,483.9997912003554C642.9411764705883,483.9997912003554 642.9411764705883,428.4432081892342 648.2352941176471,428.4432081892342L658.8235294117646,428.4432371891849L648.2352941176471,428.4432661891356C642.9411764705883,428.4432661891356 642.9411764705883,483.9998492002568 637.6470588235295,483.9998492002568Z" style="stroke: rgb(0, 255, 0); stroke-opacity: 0; fill: rgb(0, 255, 0); fill-opacity: 0; stroke-width: 1; opacity: 1;"/><path class="sankey-link" d="M637.6470588235295,483.9998492002568C642.9411764705883,483.9998492002568 642.9411764705883,428.4432661891356 648.2352941176471,428.4432661891356L658.8235294117646,428.4432951890863L648.2352941176471,428.443324189037C642.9411764705883,428.443324189037 642.9411764705883,483.9999072001582 637.6470588235295,483.9999072001582Z" style="stroke: rgb(0, 255, 0); stroke-opacity: 0; fill: rgb(0, 255, 0); fill-opacity: 0; stroke-width: 1; opacity: 1;"/><path class="sankey-link" d="M637.6470588235295,483.9999072001582C642.9411764705883,483.9999072001582 642.9411764705883,428.443324189037 648.2352941176471,428.443324189037L658.8235294117646,428.4433531889877L648.2352941176471,428.4433821889384C642.9411764705883,428.4433821889384 642.9411764705883,483.9999652000596 637.6470588235295,483.9999652000596Z" style="stroke: rgb(0, 255, 0); stroke-opacity: 0; fill: rgb(0, 255, 0); fill-opacity: 0; stroke-width: 1; opacity: 1;"/><path class="sankey-link" d="M637.6470588235295,483.9999652000596C642.9411764705883,483.9999652000596 642.9411764705883,428.4433821889384 648.2352941176471,428.4433821889384L658.8235294117646,428.4434111888891L648.2352941176471,428.4434401888398C642.9411764705883,428.4434401888398 642.9411764705883,484.000023199961 637.6470588235295,484.000023199961Z" style="stroke: rgb(0, 255, 0); stroke-opacity: 0; fill: rgb(0, 255, 0); fill-opacity: 0; stroke-width: 1; opacity: 1;"/><path class="sankey-link" d="M678.8235294117648,370.4427267900526C684.1176470588236,370.4427267900526 684.1176470588236,330.38278769657376 689.4117647058824,330.38278769657376L700,330.38281669652446L689.4117647058824,330.38284569647516C684.1176470588236,330.38284569647516 684.1176470588236,370.442784789954 678.8235294117648,370.442784789954Z" style="stroke: rgb(0, 255, 0); stroke-opacity: 0; fill: rgb(0, 255, 0); fill-opacity: 0; stroke-width: 1; opacity: 1;"/><path class="sankey-link" d="M678.8235294117648,370.442784789954C684.1176470588236,370.442784789954 684.1176470588236,330.38284569647516 689.4117647058824,330.38284569647516L700,330.38287469642586L689.4117647058824,330.38290369637656C684.1176470588236,330.38290369637656 684.1176470588236,370.4428427898554 678.8235294117648,370.4428427898554Z" style="stroke: rgb(0, 255, 0); stroke-opacity: 0; fill: rgb(0, 255, 0); fill-opacity: 0; stroke-width: 1; opacity: 1;"/><path class="sankey-link" d="M678.8235294117648,370.4428427898554C684.1176470588236,370.4428427898554 684.1176470588236,330.38290369637656 689.4117647058824,330.38290369637656L700,330.38293269632726L689.4117647058824,330.38296169627796C684.1176470588236,330.38296169627796 684.1176470588236,370.4429007897568 678.8235294117648,370.4429007897568Z" style="stroke: rgb(0, 255, 0); stroke-opacity: 0; fill: rgb(0, 255, 0); fill-opacity: 0; stroke-width: 1; opacity: 1;"/><path class="sankey-link" d="M678.8235294117648,370.4429007897568C684.1176470588236,370.4429007897568 684.1176470588236,330.38296169627796 689.4117647058824,330.38296169627796L700,330.38299069622866L689.4117647058824,330.38301969617936C684.1176470588236,330.38301969617936 684.1176470588236,370.4429587896582 678.8235294117648,370.4429587896582Z" style="stroke: rgb(0, 255, 0); stroke-opacity: 0; fill: rgb(0, 255, 0); fill-opacity: 0; stroke-width: 1; opacity: 1;"/><path class="sankey-link" d="M678.8235294117648,370.4429587896582C684.1176470588236,370.4429587896582 684.1176470588236,330.38301969617936 689.4117647058824,330.38301969617936L700,330.38304869613006L689.4117647058824,330.38307769608076C684.1176470588236,330.38307769608076 684.1176470588236,370.4430167895596 678.8235294117648,370.4430167895596Z" style="stroke: rgb(0, 255, 0); stroke-opacity: 0; fill: rgb(0, 255, 0); fill-opacity: 0; stroke-width: 1; opacity: 1;"/><path class="sankey-link" d="M678.8235294117648,370.4430167895596C684.1176470588236,370.4430167895596 684.1176470588236,330.38307769608076 689.4117647058824,330.38307769608076L700,330.38310669603146L689.4117647058824,330.38313569598216C684.1176470588236,330.38313569598216 684.1176470588236,370.443074789461 678.8235294117648,370.443074789461Z" style="stroke: rgb(0, 255, 0); stroke-opacity: 0; fill: rgb(0, 255, 0); fill-opacity: 0; stroke-width: 1; opacity: 1;"/><path class="sankey-link" d="M678.8235294117648,370.443074789461C684.1176470588236,370.443074789461 684.1176470588236,330.38313569598216 689.4117647058824,330.38313569598216L700,330.38316469593286L689.4117647058824,330.38319369588356C684.1176470588236,330.38319369588356 684.1176470588236,370.4431327893624 678.8235294117648,370.4431327893624Z" style="stroke: rgb(0, 255, 0); stroke-opacity: 0; fill: rgb(0, 255, 0); fill-opacity: 0; stroke-width: 1; opacity: 1;"/><path class="sankey-link" d="M678.8235294117648,370.4431327893624C684.1176470588236,370.4431327893624 684.1176470588236,330.38319369588356 689.4117647058824,330.38319369588356L700,330.38322269583426L689.4117647058824,330.38325169578496C684.1176470588236,330.38325169578496 684.1176470588236,370.4431907892638 678.8235294117648,370.4431907892638Z" style="stroke: rgb(0, 255, 0); stroke-opacity: 0; fill: rgb(0, 255, 0); fill-opacity: 0; stroke-width: 1; opacity: 1;"/><path class="sankey-link" d="M678.8235294117648,370.4431907892638C684.1176470588236,370.4431907892638 684.1176470588236,330.38325169578496 689.4117647058824,330.38325169578496L700,330.38328069573566L689.4117647058824,330.38330969568636C684.1176470588236,330.38330969568636 684.1176470588236,370.4432487891652 678.8235294117648,370.4432487891652Z" style="stroke: rgb(0, 255, 0); stroke-opacity: 0; fill: rgb(0, 255, 0); fill-opacity: 0; stroke-width: 1; opacity: 1;"/><path class="sankey-link" d="M678.8235294117648,370.4432487891652C684.1176470588236,370.4432487891652 684.1176470588236,330.38330969568636 689.4117647058824,330.38330969568636L700,330.38333869563706L689.4117647058824,330.38336769558776C684.1176470588236,330.38336769558776 684.1176470588236,370.4433067890666 678.8235294117648,370.4433067890666Z" style="stroke: rgb(0, 255, 0); stroke-opacity: 0; fill: rgb(0, 255, 0); fill-opacity: 0; stroke-width: 1; opacity: 1;"/><path class="sankey-link" d="M678.8235294117648,370.4433067890666C684.1176470588236,370.4433067890666 684.1176470588236,330.38336769558776 689.4117647058824,330.38336769558776L700,330.38339669553847L689.4117647058824,330.38342569548917C684.1176470588236,330.38342569548917 684.1176470588236,370.443364788968 678.8235294117648,370.443364788968Z" style="stroke: rgb(0, 255, 0); stroke-opacity: 0; fill: rgb(0, 255, 0); fill-opacity: 0; stroke-width: 1; opacity: 1;"/></g><g class="sankey-node-set" style="cursor: ns-resize;"><g class="sankey-node" transform="translate(617.647,582.000)" style="opacity: 1;"><rect class="node-rect" width="20" height="58.00001739997015" style="stroke-width: 0; stroke: rgb(68, 68, 68); stroke-opacity: 1; fill: rgb(222, 222, 0); fill-opacity: 1;"/><text class="node-label" data-notex="1" x="0" y="0" text-anchor="start" transform="translate(16.65,3)scale(-1,1)rotate(90)" style="cursor: default; font-family: 'Open Sans', verdana, arial, sans-serif; font-size: 19px; fill: rgb(42, 63, 95); fill-opacity: 1; text-shadow: rgb(255, 255, 255) 1px 1px 1px, rgb(255, 255, 255) -1px -1px 1px, rgb(255, 255, 255) 1px -1px 1px, rgb(255, 255, 255) -1px 1px 1px; white-space: pre;">A7.11</text></g><g class="sankey-node" transform="translate(576.471,374.431)" style="opacity: 1;"><rect class="node-rect" width="20" height="58.00071339878707" style="stroke-width: 0; stroke: rgb(68, 68, 68); stroke-opacity: 1; fill: rgb(247, 129, 191); fill-opacity: 1;"/><text class="node-label" data-notex="1" x="0" y="0" text-anchor="start" transform="translate(16.65,3)scale(-1,1)rotate(90)" style="cursor: default; font-family: 'Open Sans', verdana, arial, sans-serif; font-size: 19px; fill: rgb(42, 63, 95); fill-opacity: 1; text-shadow: rgb(255, 255, 255) 1px 1px 1px, rgb(255, 255, 255) -1px -1px 1px, rgb(255, 255, 255) 1px -1px 1px, rgb(255, 255, 255) -1px 1px 1px; white-space: pre;">MLP 6</text></g><g class="sankey-node" transform="translate(205.882,420.463)" style="opacity: 1;"><rect class="node-rect" width="20" height="0.5" style="stroke-width: 0; stroke: rgb(68, 68, 68); stroke-opacity: 1; fill: rgb(0, 0, 0); fill-opacity: 0;"/><text class="node-label" data-notex="1" x="0" y="0" text-anchor="start" transform="translate(16.65,3)scale(-1,1)rotate(90)" style="cursor: default; font-family: 'Open Sans', verdana, arial, sans-serif; font-size: 19px; fill: rgb(42, 63, 95); fill-opacity: 1; text-shadow: rgb(255, 255, 255) 1px 1px 1px, rgb(255, 255, 255) -1px -1px 1px, rgb(255, 255, 255) 1px -1px 1px, rgb(255, 255, 255) -1px 1px 1px; white-space: pre;"></text></g><g class="sankey-node" transform="translate(370.588,377.464)" style="opacity: 1;"><rect class="node-rect" width="20" height="0.5" style="stroke-width: 0; stroke: rgb(68, 68, 68); stroke-opacity: 1; fill: rgb(0, 0, 0); fill-opacity: 0;"/><text class="node-label" data-notex="1" x="0" y="0" text-anchor="start" transform="translate(16.65,3)scale(-1,1)rotate(90)" style="cursor: default; font-family: 'Open Sans', verdana, arial, sans-serif; font-size: 19px; fill: rgb(42, 63, 95); fill-opacity: 1; text-shadow: rgb(255, 255, 255) 1px 1px 1px, rgb(255, 255, 255) -1px -1px 1px, rgb(255, 255, 255) 1px -1px 1px, rgb(255, 255, 255) -1px 1px 1px; white-space: pre;"></text></g><g class="sankey-node" transform="translate(123.529,420.523)" style="opacity: 1;"><rect class="node-rect" width="20" height="0.5" style="stroke-width: 0; stroke: rgb(68, 68, 68); stroke-opacity: 1; fill: rgb(0, 0, 0); fill-opacity: 0;"/><text class="node-label" data-notex="1" x="0" y="0" text-anchor="start" transform="translate(16.65,3)scale(-1,1)rotate(90)" style="cursor: default; font-family: 'Open Sans', verdana, arial, sans-serif; font-size: 19px; fill: rgb(42, 63, 95); fill-opacity: 1; text-shadow: rgb(255, 255, 255) 1px 1px 1px, rgb(255, 255, 255) -1px -1px 1px, rgb(255, 255, 255) 1px -1px 1px, rgb(255, 255, 255) -1px 1px 1px; white-space: pre;"></text></g><g class="sankey-node" transform="translate(452.941,379.554)" style="opacity: 1;"><rect class="node-rect" width="20" height="0.5" style="stroke-width: 0; stroke: rgb(68, 68, 68); stroke-opacity: 1; fill: rgb(0, 0, 0); fill-opacity: 0;"/><text class="node-label" data-notex="1" x="0" y="0" text-anchor="start" transform="translate(16.65,3)scale(-1,1)rotate(90)" style="cursor: default; font-family: 'Open Sans', verdana, arial, sans-serif; font-size: 19px; fill: rgb(42, 63, 95); fill-opacity: 1; text-shadow: rgb(255, 255, 255) 1px 1px 1px, rgb(255, 255, 255) -1px -1px 1px, rgb(255, 255, 255) 1px -1px 1px, rgb(255, 255, 255) -1px 1px 1px; white-space: pre;"></text></g><g class="sankey-node" transform="translate(411.765,378.588)" style="opacity: 1;"><rect class="node-rect" width="20" height="0.5" style="stroke-width: 0; stroke: rgb(68, 68, 68); stroke-opacity: 1; fill: rgb(0, 0, 0); fill-opacity: 0;"/><text class="node-label" data-notex="1" x="0" y="0" text-anchor="start" transform="translate(16.65,3)scale(-1,1)rotate(90)" style="cursor: default; font-family: 'Open Sans', verdana, arial, sans-serif; font-size: 19px; fill: rgb(42, 63, 95); fill-opacity: 1; text-shadow: rgb(255, 255, 255) 1px 1px 1px, rgb(255, 255, 255) -1px -1px 1px, rgb(255, 255, 255) 1px -1px 1px, rgb(255, 255, 255) -1px 1px 1px; white-space: pre;"></text></g><g class="sankey-node" transform="translate(288.235,398.462)" style="opacity: 1;"><rect class="node-rect" width="20" height="0.5" style="stroke-width: 0; stroke: rgb(68, 68, 68); stroke-opacity: 1; fill: rgb(0, 0, 0); fill-opacity: 0;"/><text class="node-label" data-notex="1" x="0" y="0" text-anchor="start" transform="translate(16.65,3)scale(-1,1)rotate(90)" style="cursor: default; font-family: 'Open Sans', verdana, arial, sans-serif; font-size: 19px; fill: rgb(42, 63, 95); fill-opacity: 1; text-shadow: rgb(255, 255, 255) 1px 1px 1px, rgb(255, 255, 255) -1px -1px 1px, rgb(255, 255, 255) 1px -1px 1px, rgb(255, 255, 255) -1px 1px 1px; white-space: pre;"></text></g><g class="sankey-node" transform="translate(535.294,336.873)" style="opacity: 1;"><rect class="node-rect" width="20" height="115.99991880013795" style="stroke-width: 0; stroke: rgb(68, 68, 68); stroke-opacity: 1; fill: rgb(77, 175, 74); fill-opacity: 1;"/><text class="node-label" data-notex="1" x="0" y="0" text-anchor="start" transform="translate(16.65,3)scale(-1,1)rotate(90)" style="cursor: default; font-family: 'Open Sans', verdana, arial, sans-serif; font-size: 19px; fill: rgb(42, 63, 95); fill-opacity: 1; text-shadow: rgb(255, 255, 255) 1px 1px 1px, rgb(255, 255, 255) -1px -1px 1px, rgb(255, 255, 255) 1px -1px 1px, rgb(255, 255, 255) -1px 1px 1px; white-space: pre;">A6.15</text></g><g class="sankey-node" transform="translate(329.412,347.153)" style="opacity: 1;"><rect class="node-rect" width="20" height="58.000017399970375" style="stroke-width: 0; stroke: rgb(68, 68, 68); stroke-opacity: 1; fill: rgb(152, 78, 163); fill-opacity: 1;"/><text class="node-label" data-notex="1" x="0" y="0" text-anchor="start" transform="translate(16.65,3)scale(-1,1)rotate(90)" style="cursor: default; font-family: 'Open Sans', verdana, arial, sans-serif; font-size: 19px; fill: rgb(42, 63, 95); fill-opacity: 1; text-shadow: rgb(255, 255, 255) 1px 1px 1px, rgb(255, 255, 255) -1px -1px 1px, rgb(255, 255, 255) 1px -1px 1px, rgb(255, 255, 255) -1px 1px 1px; white-space: pre;">MLP 3</text></g><g class="sankey-node" transform="translate(494.118,318.285)" style="opacity: 1;"><rect class="node-rect" width="20" height="174.00034219941836" style="stroke-width: 0; stroke: rgb(68, 68, 68); stroke-opacity: 1; fill: rgb(152, 78, 163); fill-opacity: 1;"/><text class="node-label" data-notex="1" x="0" y="0" text-anchor="start" transform="translate(16.65,3)scale(-1,1)rotate(90)" style="cursor: default; font-family: 'Open Sans', verdana, arial, sans-serif; font-size: 19px; fill: rgb(42, 63, 95); fill-opacity: 1; text-shadow: rgb(255, 255, 255) 1px 1px 1px, rgb(255, 255, 255) -1px -1px 1px, rgb(255, 255, 255) 1px -1px 1px, rgb(255, 255, 255) -1px 1px 1px; white-space: pre;">MLP 5</text></g><g class="sankey-node" transform="translate(82.353,332.645)" style="opacity: 1;"><rect class="node-rect" width="20" height="232.00053359909282" style="stroke-width: 0; stroke: rgb(68, 68, 68); stroke-opacity: 1; fill: rgb(55, 126, 184); fill-opacity: 1;"/><text class="node-label" data-notex="1" x="0" y="0" text-anchor="start" transform="translate(16.65,3)scale(-1,1)rotate(90)" style="cursor: default; font-family: 'Open Sans', verdana, arial, sans-serif; font-size: 19px; fill: rgb(42, 63, 95); fill-opacity: 1; text-shadow: rgb(255, 255, 255) 1px 1px 1px, rgb(255, 255, 255) -1px -1px 1px, rgb(255, 255, 255) 1px -1px 1px, rgb(255, 255, 255) -1px 1px 1px; white-space: pre;">MLP 0</text></g><g class="sankey-node" transform="translate(41.176,347.999)" style="opacity: 1;"><rect class="node-rect" width="20" height="58.00001739997049" style="stroke-width: 0; stroke: rgb(68, 68, 68); stroke-opacity: 1; fill: rgb(222, 222, 0); fill-opacity: 1;"/><text class="node-label" data-notex="1" x="0" y="0" text-anchor="start" transform="translate(16.65,3)scale(-1,1)rotate(90)" style="cursor: default; font-family: 'Open Sans', verdana, arial, sans-serif; font-size: 19px; fill: rgb(42, 63, 95); fill-opacity: 1; text-shadow: rgb(255, 255, 255) 1px 1px 1px, rgb(255, 255, 255) -1px -1px 1px, rgb(255, 255, 255) 1px -1px 1px, rgb(255, 255, 255) -1px 1px 1px; white-space: pre;">A0.3</text></g><g class="sankey-node" transform="translate(41.176,425.999)" style="opacity: 1;"><rect class="node-rect" width="20" height="58.00001739997026" style="stroke-width: 0; stroke: rgb(68, 68, 68); stroke-opacity: 1; fill: rgb(166, 86, 40); fill-opacity: 1;"/><text class="node-label" data-notex="1" x="0" y="0" text-anchor="start" transform="translate(16.65,3)scale(-1,1)rotate(90)" style="cursor: default; font-family: 'Open Sans', verdana, arial, sans-serif; font-size: 19px; fill: rgb(42, 63, 95); fill-opacity: 1; text-shadow: rgb(255, 255, 255) 1px 1px 1px, rgb(255, 255, 255) -1px -1px 1px, rgb(255, 255, 255) 1px -1px 1px, rgb(255, 255, 255) -1px 1px 1px; white-space: pre;">A0.4</text></g><g class="sankey-node" transform="translate(41.176,504.000)" style="opacity: 1;"><rect class="node-rect" width="20" height="58.00001739997049" style="stroke-width: 0; stroke: rgb(68, 68, 68); stroke-opacity: 1; fill: rgb(153, 153, 153); fill-opacity: 1;"/><text class="node-label" data-notex="1" x="0" y="0" text-anchor="start" transform="translate(16.65,3)scale(-1,1)rotate(90)" style="cursor: default; font-family: 'Open Sans', verdana, arial, sans-serif; font-size: 19px; fill: rgb(42, 63, 95); fill-opacity: 1; text-shadow: rgb(255, 255, 255) 1px 1px 1px, rgb(255, 255, 255) -1px -1px 1px, rgb(255, 255, 255) 1px -1px 1px, rgb(255, 255, 255) -1px 1px 1px; white-space: pre;">A0.11</text></g><g class="sankey-node" transform="translate(164.706,420.446)" style="opacity: 1;"><rect class="node-rect" width="20" height="0.5" style="stroke-width: 0; stroke: rgb(68, 68, 68); stroke-opacity: 1; fill: rgb(0, 0, 0); fill-opacity: 0;"/><text class="node-label" data-notex="1" x="0" y="0" text-anchor="start" transform="translate(16.65,3)scale(-1,1)rotate(90)" style="cursor: default; font-family: 'Open Sans', verdana, arial, sans-serif; font-size: 19px; fill: rgb(42, 63, 95); fill-opacity: 1; text-shadow: rgb(255, 255, 255) 1px 1px 1px, rgb(255, 255, 255) -1px -1px 1px, rgb(255, 255, 255) 1px -1px 1px, rgb(255, 255, 255) -1px 1px 1px; white-space: pre;"></text></g><g class="sankey-node" transform="translate(617.647,0.000)" style="opacity: 1;"><rect class="node-rect" width="20" height="347.9998724002171" style="stroke-width: 0; stroke: rgb(68, 68, 68); stroke-opacity: 1; fill: rgb(55, 126, 184); fill-opacity: 1;"/><text class="node-label" data-notex="1" x="0" y="0" text-anchor="start" transform="translate(16.65,3)scale(-1,1)rotate(90)" style="cursor: default; font-family: 'Open Sans', verdana, arial, sans-serif; font-size: 19px; fill: rgb(42, 63, 95); fill-opacity: 1; text-shadow: rgb(255, 255, 255) 1px 1px 1px, rgb(255, 255, 255) -1px -1px 1px, rgb(255, 255, 255) 1px -1px 1px, rgb(255, 255, 255) -1px 1px 1px; white-space: pre;">A7.7</text></g><g class="sankey-node" transform="translate(535.294,472.873)" style="opacity: 1;"><rect class="node-rect" width="20" height="116.0003247994473" style="stroke-width: 0; stroke: rgb(68, 68, 68); stroke-opacity: 1; fill: rgb(228, 26, 28); fill-opacity: 1;"/><text class="node-label" data-notex="1" x="0" y="0" text-anchor="start" transform="translate(16.65,3)scale(-1,1)rotate(90)" style="cursor: default; font-family: 'Open Sans', verdana, arial, sans-serif; font-size: 19px; fill: rgb(42, 63, 95); fill-opacity: 1; text-shadow: rgb(255, 255, 255) 1px 1px 1px, rgb(255, 255, 255) -1px -1px 1px, rgb(255, 255, 255) 1px -1px 1px, rgb(255, 255, 255) -1px 1px 1px; white-space: pre;">A6.1</text></g><g class="sankey-node" transform="translate(617.647,368.000)" style="opacity: 1;"><rect class="node-rect" width="20" height="116.00015079974355" style="stroke-width: 0; stroke: rgb(68, 68, 68); stroke-opacity: 1; fill: rgb(77, 175, 74); fill-opacity: 1;"/><text class="node-label" data-notex="1" x="0" y="0" text-anchor="start" transform="translate(16.65,3)scale(-1,1)rotate(90)" style="cursor: default; font-family: 'Open Sans', verdana, arial, sans-serif; font-size: 19px; fill: rgb(42, 63, 95); fill-opacity: 1; text-shadow: rgb(255, 255, 255) 1px 1px 1px, rgb(255, 255, 255) -1px -1px 1px, rgb(255, 255, 255) 1px -1px 1px, rgb(255, 255, 255) -1px 1px 1px; white-space: pre;">A7.4</text></g><g class="sankey-node" transform="translate(617.647,504.000)" style="opacity: 1;"><rect class="node-rect" width="20" height="57.999959400068974" style="stroke-width: 0; stroke: rgb(68, 68, 68); stroke-opacity: 1; fill: rgb(77, 175, 74); fill-opacity: 1;"/><text class="node-label" data-notex="1" x="0" y="0" text-anchor="start" transform="translate(16.65,3)scale(-1,1)rotate(90)" style="cursor: default; font-family: 'Open Sans', verdana, arial, sans-serif; font-size: 19px; fill: rgb(42, 63, 95); fill-opacity: 1; text-shadow: rgb(255, 255, 255) 1px 1px 1px, rgb(255, 255, 255) -1px -1px 1px, rgb(255, 255, 255) 1px -1px 1px, rgb(255, 255, 255) -1px 1px 1px; white-space: pre;">A7.15</text></g><g class="sankey-node" transform="translate(247.059,362.711)" style="opacity: 1;"><rect class="node-rect" width="20" height="116.00003479994086" style="stroke-width: 0; stroke: rgb(68, 68, 68); stroke-opacity: 1; fill: rgb(152, 78, 163); fill-opacity: 1;"/><text class="node-label" data-notex="1" x="0" y="0" text-anchor="start" transform="translate(16.65,3)scale(-1,1)rotate(90)" style="cursor: default; font-family: 'Open Sans', verdana, arial, sans-serif; font-size: 19px; fill: rgb(42, 63, 95); fill-opacity: 1; text-shadow: rgb(255, 255, 255) 1px 1px 1px, rgb(255, 255, 255) -1px -1px 1px, rgb(255, 255, 255) 1px -1px 1px, rgb(255, 255, 255) -1px 1px 1px; white-space: pre;">MLP 2</text></g><g class="sankey-node" transform="translate(41.176,582.000)" style="opacity: 1;"><rect class="node-rect" width="20" height="58.00048139918147" style="stroke-width: 0; stroke: rgb(68, 68, 68); stroke-opacity: 1; fill: rgb(55, 126, 184); fill-opacity: 1;"/><text class="node-label" data-notex="1" x="0" y="0" text-anchor="start" transform="translate(16.65,3)scale(-1,1)rotate(90)" style="cursor: default; font-family: 'Open Sans', verdana, arial, sans-serif; font-size: 19px; fill: rgb(42, 63, 95); fill-opacity: 1; text-shadow: rgb(255, 255, 255) 1px 1px 1px, rgb(255, 255, 255) -1px -1px 1px, rgb(255, 255, 255) 1px -1px 1px, rgb(255, 255, 255) -1px 1px 1px; white-space: pre;">A0.15</text></g><g class="sankey-node" transform="translate(658.824,312.443)" style="opacity: 1;"><rect class="node-rect" width="20" height="174.00069019882676" style="stroke-width: 0; stroke: rgb(68, 68, 68); stroke-opacity: 1; fill: rgb(255, 127, 0); fill-opacity: 1;"/><text class="node-label" data-notex="1" x="0" y="0" text-anchor="start" transform="translate(16.65,3)scale(-1,1)rotate(90)" style="cursor: default; font-family: 'Open Sans', verdana, arial, sans-serif; font-size: 19px; fill: rgb(42, 63, 95); fill-opacity: 1; text-shadow: rgb(255, 255, 255) 1px 1px 1px, rgb(255, 255, 255) -1px -1px 1px, rgb(255, 255, 255) 1px -1px 1px, rgb(255, 255, 255) -1px 1px 1px; white-space: pre;">MLP 7</text></g><g class="sankey-node" transform="translate(700.000,214.383)" style="opacity: 1;"><rect class="node-rect" width="20" height="405.99994780008893" style="stroke-width: 0; stroke: rgb(68, 68, 68); stroke-opacity: 1; fill: rgb(77, 175, 74); fill-opacity: 1;"/><text class="node-label" data-notex="1" x="0" y="0" text-anchor="start" transform="translate(16.65,3)scale(-1,1)rotate(90)" style="cursor: default; font-family: 'Open Sans', verdana, arial, sans-serif; font-size: 19px; fill: rgb(42, 63, 95); fill-opacity: 1; text-shadow: rgb(255, 255, 255) 1px 1px 1px, rgb(255, 255, 255) -1px -1px 1px, rgb(255, 255, 255) 1px -1px 1px, rgb(255, 255, 255) -1px 1px 1px; white-space: pre;">Unembed</text></g><g class="sankey-node" transform="translate(0.000,333.183)" style="opacity: 1;"><rect class="node-rect" width="20" height="232.00030159948727" style="stroke-width: 0; stroke: rgb(68, 68, 68); stroke-opacity: 1; fill: rgb(55, 126, 184); fill-opacity: 1;"/><text class="node-label" data-notex="1" x="0" y="0" text-anchor="start" transform="translate(16.65,3)scale(-1,1)rotate(90)" style="cursor: default; font-family: 'Open Sans', verdana, arial, sans-serif; font-size: 19px; fill: rgb(42, 63, 95); fill-opacity: 1; text-shadow: rgb(255, 255, 255) 1px 1px 1px, rgb(255, 255, 255) -1px -1px 1px, rgb(255, 255, 255) 1px -1px 1px, rgb(255, 255, 255) -1px 1px 1px; white-space: pre;">Embed</text></g></g></g><defs id="topdefs-1fa420"><g class="clips"/></defs><g class="layer-above"><g class="imagelayer"/><g class="shapelayer"/></g><g class="infolayer"><g class="g-gtitle"/><g class="first-render"/></g></svg>