<svg class="main-svg" xmlns="http://www.w3.org/2000/svg" xmlns:xlink="http://www.w3.org/1999/xlink" width="800" height="900" style="" viewBox="0 0 800 900"><rect x="0" y="0" width="800" height="900" style="fill: rgb(255, 255, 255); fill-opacity: 1;"/><defs id="defs-7a7946"><g class="clips"/><g class="gradients"/><g class="patterns"/></defs><g class="bglayer"/><g class="layer-below"><g class="imagelayer"/><g class="shapelayer"/></g><g class="cartesianlayer"/><g class="polarlayer"/><g class="smithlayer"/><g class="ternarylayer"/><g class="geolayer"/><g class="funnelarealayer"/><g class="pielayer"/><g class="iciclelayer"/><g class="treemaplayer"/><g class="sunburstlayer"/><g class="glimages"/><g class="sankey" transform="translate(80,100)matrix(0 1 1 0 0 0)" style="box-sizing: content-box; position: absolute; left: 0px; shape-rendering: geometricprecision; pointer-events: none;"><g class="sankey-links" style="fill: none;"><path class="sankey-link" d="M390.5882352941177,309.5675334023715C450.4411764705883,309.5675334023715 450.4411764705883,133.8459170418388 510.2941176470589,133.8459170418388L535.2941176470589,156.1535698821453L510.2941176470589,178.4612227224518C450.4411764705883,178.4612227224518 450.4411764705883,354.1828390829845 390.5882352941177,354.1828390829845Z" style="stroke: rgb(68, 68, 68); stroke-opacity: 1; fill: rgb(0, 0, 255); fill-opacity: 0.3; stroke-width: 0; opacity: 1;"/><path class="sankey-link" d="M555.2941176470589,486.1537706510213C594.5588235294118,486.1537706510213 594.5588235294118,411.05073818741766 633.8235294117648,411.05073818741766L658.8235294117648,433.35839102772417L633.8235294117648,455.66604386803067C594.5588235294118,455.66604386803067 594.5588235294118,530.7690763316343 555.2941176470589,530.7690763316343Z" style="stroke: rgb(68, 68, 68); stroke-opacity: 1; fill: rgb(0, 0, 255); fill-opacity: 0.3; stroke-width: 0; opacity: 1;"/><path class="sankey-link" d="M555.2941176470589,441.5384649704083C615.1470588235295,441.5384649704083 615.1470588235295,455.84448197466605 675,455.84448197466605L700,478.15213481497256L675,500.45978765527906C615.1470588235295,500.45978765527906 615.1470588235295,486.1537706510213 555.2941176470589,486.1537706510213Z" style="stroke: rgb(68, 68, 68); stroke-opacity: 1; fill: rgb(0, 0, 255); fill-opacity: 0.3; stroke-width: 0; opacity: 1;"/><path class="sankey-link" d="M349.4117647058824,354.3596330024563C354.7058823529412,354.3596330024563 354.7058823529412,354.1828390829845 360,354.1828390829845L370.5882352941177,376.490491923291L360,398.7981447635975C354.7058823529412,398.7981447635975 354.7058823529412,398.9749386830693 349.4117647058824,398.9749386830693Z" style="stroke: rgb(68, 68, 68); stroke-opacity: 1; fill: rgb(0, 0, 255); fill-opacity: 0.3; stroke-width: 0; opacity: 1;"/><path class="sankey-link" d="M390.5882352941177,398.7981447635975C512.2058823529412,398.7981447635975 512.2058823529412,321.8198145190519 633.8235294117648,321.8198145190519L658.8235294117648,344.1274673593584L633.8235294117648,366.4351201996649C512.2058823529412,366.4351201996649 512.2058823529412,443.4134504442105 390.5882352941177,443.4134504442105Z" style="stroke: rgb(68, 68, 68); stroke-opacity: 1; fill: rgb(0, 0, 255); fill-opacity: 0.3; stroke-width: 0; opacity: 1;"/><path class="sankey-link" d="M514.1176470588235,314.5834747914267C519.4117647058824,314.5834747914267 519.4117647058824,178.4612227224518 524.7058823529412,178.4612227224518L535.2941176470589,200.7688755627583L524.7058823529412,223.0765284030648C519.4117647058824,223.0765284030648 519.4117647058824,359.1987804720397 514.1176470588235,359.1987804720397Z" style="stroke: rgb(68, 68, 68); stroke-opacity: 1; fill: rgb(0, 0, 255); fill-opacity: 0.3; stroke-width: 0; opacity: 1;"/><path class="sankey-link" d="M102.3529411764706,434.97456608633746C265.14705882352945,434.97456608633746 265.14705882352945,367.68556829957197 427.9411764705883,367.68556829957197L452.9411764705883,389.9932211398785L427.9411764705883,412.300873980185C265.14705882352945,412.300873980185 265.14705882352945,479.58987176695047 102.3529411764706,479.58987176695047Z" style="stroke: rgb(68, 68, 68); stroke-opacity: 1; fill: rgb(0, 0, 255); fill-opacity: 0.3; stroke-width: 0; opacity: 1;"/><path class="sankey-link" d="M102.3529411764706,479.5903179200073C306.32352941176475,479.5903179200073 306.32352941176475,441.5384649704083 510.2941176470589,441.5384649704083L535.2941176470589,463.8461178107148L510.2941176470589,486.1537706510213C306.32352941176475,486.1537706510213 306.32352941176475,524.2056236006204 102.3529411764706,524.2056236006204Z" style="stroke: rgb(68, 68, 68); stroke-opacity: 1; fill: rgb(0, 0, 255); fill-opacity: 0.3; stroke-width: 0; opacity: 1;"/><path class="sankey-link" d="M102.3529411764706,301.12864904449845C223.97058823529414,301.12864904449845 223.97058823529414,309.5675334023715 345.5882352941177,309.5675334023715L370.5882352941177,331.875186242678L345.5882352941177,354.1828390829845C223.97058823529414,354.1828390829845 223.97058823529414,345.74395472511145 102.3529411764706,345.74395472511145Z" style="stroke: rgb(68, 68, 68); stroke-opacity: 1; fill: rgb(0, 0, 255); fill-opacity: 0.3; stroke-width: 0; opacity: 1;"/><path class="sankey-link" d="M102.3529411764706,524.2056236006204C306.32352941176475,524.2056236006204 306.32352941176475,550.769254792857 510.2941176470589,550.769254792857L535.2941176470589,573.0769076331636L510.2941176470589,595.3845604734702C306.32352941176475,595.3845604734702 306.32352941176475,568.8209292812335 102.3529411764706,568.8209292812335Z" style="stroke: rgb(68, 68, 68); stroke-opacity: 1; fill: rgb(0, 0, 255); fill-opacity: 0.3; stroke-width: 0; opacity: 1;"/><path class="sankey-link" d="M472.9411764705883,367.68556829957197C573.9705882352941,367.68556829957197 573.9705882352941,411.22917629405305 675,411.22917629405305L700,433.53682913435955L675,455.84448197466605C573.9705882352941,455.84448197466605 573.9705882352941,412.300873980185 472.9411764705883,412.300873980185Z" style="stroke: rgb(68, 68, 68); stroke-opacity: 1; fill: rgb(0, 0, 255); fill-opacity: 0.3; stroke-width: 0; opacity: 1;"/><path class="sankey-link" d="M555.2941176470589,595.3845604734701C594.5588235294118,595.3845604734701 594.5588235294118,455.66604386803067 633.8235294117648,455.66604386803067L658.8235294117648,477.9736967083372L633.8235294117648,500.2813495486437C594.5588235294118,500.2813495486437 594.5588235294118,639.9998661540832 555.2941176470589,639.9998661540832Z" style="stroke: rgb(68, 68, 68); stroke-opacity: 1; fill: rgb(0, 0, 255); fill-opacity: 0.3; stroke-width: 0; opacity: 1;"/><path class="sankey-link" d="M102.3529411764706,256.51334336388544C203.3823529411765,256.51334336388544 203.3823529411765,265.1290216412303 304.4117647058824,265.1290216412303L329.4117647058824,287.4366744815368L304.4117647058824,309.7443273218433C203.3823529411765,309.7443273218433 203.3823529411765,301.12864904449845 102.3529411764706,301.12864904449845Z" style="stroke: rgb(68, 68, 68); stroke-opacity: 1; fill: rgb(0, 0, 255); fill-opacity: 0.3; stroke-width: 0; opacity: 1;"/><path class="sankey-link" d="M102.3529411764706,390.35926040572446C306.32352941176475,390.35926040572446 306.32352941176475,332.30771976326514 510.2941176470589,332.30771976326514L535.2941176470589,354.61537260357164L510.2941176470589,376.92302544387815C306.32352941176475,376.92302544387815 306.32352941176475,434.97456608633746 102.3529411764706,434.97456608633746Z" style="stroke: rgb(68, 68, 68); stroke-opacity: 1; fill: rgb(0, 0, 255); fill-opacity: 0.3; stroke-width: 0; opacity: 1;"/><path class="sankey-link" d="M555.2941176470589,-2.5579538487363607e-13C615.1470588235295,-2.5579538487363607e-13 615.1470588235295,232.76737357262715 675,232.76737357262715L700,255.07502641293365L675,277.38267925324016C615.1470588235295,277.38267925324016 615.1470588235295,44.615305680612764 555.2941176470589,44.615305680612764Z" style="stroke: rgb(68, 68, 68); stroke-opacity: 1; fill: rgb(0, 0, 255); fill-opacity: 0.3; stroke-width: 0; opacity: 1;"/><path class="sankey-link" d="M349.4117647058824,443.5907351320448C429.8529411764706,443.5907351320448 429.8529411764706,486.1537706510213 510.2941176470589,486.1537706510213L535.2941176470589,508.4614234913278L510.2941176470589,530.7690763316343C429.8529411764706,530.7690763316343 429.8529411764706,488.2060408126578 349.4117647058824,488.2060408126578Z" style="stroke: rgb(68, 68, 68); stroke-opacity: 1; fill: rgb(0, 0, 255); fill-opacity: 0.3; stroke-width: 0; opacity: 1;"/><path class="sankey-link" d="M349.4117647058824,265.1290216412303C429.8529411764706,265.1290216412303 429.8529411764706,44.61530568061277 510.2941176470589,44.61530568061277L535.2941176470589,66.92295852091928L510.2941176470589,89.23061136122578C429.8529411764706,89.23061136122578 429.8529411764706,309.7443273218433 349.4117647058824,309.7443273218433Z" style="stroke: rgb(68, 68, 68); stroke-opacity: 1; fill: rgb(0, 0, 255); fill-opacity: 0.3; stroke-width: 0; opacity: 1;"/><path class="sankey-link" d="M555.2941176470589,376.92302544387815C594.5588235294118,376.92302544387815 594.5588235294118,366.4351201996649 633.8235294117648,366.4351201996649L658.8235294117648,388.7427730399714L633.8235294117648,411.0504258802779C594.5588235294118,411.0504258802779 594.5588235294118,421.53833112449115 555.2941176470589,421.53833112449115Z" style="stroke: rgb(68, 68, 68); stroke-opacity: 1; fill: rgb(0, 0, 255); fill-opacity: 0.3; stroke-width: 0; opacity: 1;"/><path class="sankey-link" d="M555.2941176470589,550.769254792857C615.1470588235295,550.769254792857 615.1470588235295,500.45978765527906 675,500.45978765527906L700,522.7674404955856L675,545.0750933358921C615.1470588235295,545.0750933358921 615.1470588235295,595.3845604734702 555.2941176470589,595.3845604734702Z" style="stroke: rgb(68, 68, 68); stroke-opacity: 1; fill: rgb(0, 0, 255); fill-opacity: 0.3; stroke-width: 0; opacity: 1;"/><path class="sankey-link" d="M102.3529411764706,211.8980376832724C306.32352941176475,211.8980376832724 306.32352941176475,-2.5579538487363607e-13 510.2941176470589,-2.5579538487363607e-13L535.2941176470589,22.307652840306254L510.2941176470589,44.615305680612764C306.32352941176475,44.615305680612764 306.32352941176475,256.51334336388544 102.3529411764706,256.51334336388544Z" style="stroke: rgb(68, 68, 68); stroke-opacity: 1; fill: rgb(0, 0, 255); fill-opacity: 0.3; stroke-width: 0; opacity: 1;"/><path class="sankey-link" d="M678.8235294117648,277.20450883843887C684.1176470588236,277.20450883843887 684.1176470588236,277.38267925324016 689.4117647058824,277.38267925324016L700,299.69033209354666L689.4117647058824,321.99798493385316C684.1176470588236,321.99798493385316 684.1176470588236,321.8198145190519 678.8235294117648,321.8198145190519Z" style="stroke: rgb(68, 68, 68); stroke-opacity: 1; fill: rgb(0, 0, 255); fill-opacity: 0.3; stroke-width: 0; opacity: 1;"/><path class="sankey-link" d="M514.1176470588235,359.1987804720397C519.4117647058824,359.1987804720397 519.4117647058824,223.0765284030648 524.7058823529412,223.0765284030648L535.2941176470589,245.3841812433713L524.7058823529412,267.6918340836778C519.4117647058824,267.6918340836778 519.4117647058824,403.8140861526527 514.1176470588235,403.8140861526527Z" style="stroke: rgb(68, 68, 68); stroke-opacity: 1; fill: rgb(0, 0, 255); fill-opacity: 0.3; stroke-width: 0; opacity: 1;"/><path class="sankey-link" d="M390.5882352941177,354.1828390829845C532.7941176470588,354.1828390829845 532.7941176470588,321.99856493282704 675,321.99856493282704L700,344.30621777313354L675,366.61387061344004C532.7941176470588,366.61387061344004 532.7941176470588,398.7981447635975 390.5882352941177,398.7981447635975Z" style="stroke: rgb(68, 68, 68); stroke-opacity: 1; fill: rgb(0, 0, 255); fill-opacity: 0.3; stroke-width: 0; opacity: 1;"/><path class="sankey-link" d="M431.764705882353,331.9167349199116C471.02941176470597,331.9167349199116 471.02941176470597,267.6924140826517 510.2941176470589,267.6924140826517L535.2941176470589,290.0000669229582L510.2941176470589,312.3077197632647C471.02941176470597,312.3077197632647 471.02941176470597,376.5320406005246 431.764705882353,376.5320406005246Z" style="stroke: rgb(68, 68, 68); stroke-opacity: 1; fill: rgb(0, 0, 255); fill-opacity: 0.3; stroke-width: 0; opacity: 1;"/><path class="sankey-link" d="M20,368.1334034218798C38.6764705882353,368.1334034218798 38.6764705882353,211.8980376832724 57.352941176470594,211.8980376832724L82.3529411764706,234.2056905235789L57.352941176470594,256.51334336388544C38.6764705882353,256.51334336388544 38.6764705882353,412.7487091024928 20,412.7487091024928Z" style="stroke: rgb(68, 68, 68); stroke-opacity: 1; fill: rgb(0, 0, 255); fill-opacity: 0.3; stroke-width: 0; opacity: 1;"/><path class="sankey-link" d="M349.4117647058824,398.9754294514318C409.2647058823529,398.9754294514318 409.2647058823529,359.1987804720397 469.11764705882354,359.1987804720397L494.11764705882354,381.5064333123462L469.11764705882354,403.8140861526527C409.2647058823529,403.8140861526527 409.2647058823529,443.5907351320448 349.4117647058824,443.5907351320448Z" style="stroke: rgb(68, 68, 68); stroke-opacity: 1; fill: rgb(0, 0, 255); fill-opacity: 0.3; stroke-width: 0; opacity: 1;"/><path class="sankey-link" d="M555.2941176470589,332.30771976326514C615.1470588235295,332.30771976326514 615.1470588235295,366.61387061344004 675,366.61387061344004L700,388.92152345374654L675,411.22917629405305C615.1470588235295,411.22917629405305 615.1470588235295,376.92302544387815 555.2941176470589,376.92302544387815Z" style="stroke: rgb(68, 68, 68); stroke-opacity: 1; fill: rgb(0, 0, 255); fill-opacity: 0.3; stroke-width: 0; opacity: 1;"/><path class="sankey-link" d="M102.3529411764706,345.74395472511145C285.7352941176471,345.74395472511145 285.7352941176471,314.5834747914267 469.11764705882354,314.5834747914267L494.11764705882354,336.8911276317332L469.11764705882354,359.1987804720397C285.7352941176471,359.1987804720397 285.7352941176471,390.35926040572446 102.3529411764706,390.35926040572446Z" style="stroke: rgb(68, 68, 68); stroke-opacity: 1; fill: rgb(0, 0, 255); fill-opacity: 0.3; stroke-width: 0; opacity: 1;"/><path class="sankey-link" d="M555.2941176470589,44.61530568061277C594.5588235294118,44.61530568061277 594.5588235294118,277.20450883843887 633.8235294117648,277.20450883843887L658.8235294117648,299.5121616787454L633.8235294117648,321.8198145190519C594.5588235294118,321.8198145190519 594.5588235294118,89.23061136122578 555.2941176470589,89.23061136122578Z" style="stroke: rgb(68, 68, 68); stroke-opacity: 1; fill: rgb(0, 0, 255); fill-opacity: 0.3; stroke-width: 0; opacity: 1;"/><path class="sankey-link" d="M349.4117647058824,309.7443273218433C429.8529411764706,309.7443273218433 429.8529411764706,89.23061136122578 510.2941176470589,89.23061136122578L535.2941176470589,111.53826420153229L510.2941176470589,133.8459170418388C429.8529411764706,133.8459170418388 429.8529411764706,354.3596330024563 349.4117647058824,354.3596330024563Z" style="stroke: rgb(68, 68, 68); stroke-opacity: 1; fill: rgb(0, 0, 255); fill-opacity: 0.3; stroke-width: 0; opacity: 1;"/><path class="sankey-link" d="M20,412.7487091024928C25.294117647058826,412.7487091024928 25.294117647058826,390.4408776845619 30.58823529411765,390.4408776845619L41.1764705882353,390.4408999922147L30.58823529411765,390.44092229986757C25.294117647058826,390.44092229986757 25.294117647058826,412.7487537177985 20,412.7487537177985Z" style="stroke: rgb(0, 255, 0); stroke-opacity: 0; fill: rgb(0, 255, 0); fill-opacity: 0; stroke-width: 1; opacity: 1;"/><path class="sankey-link" d="M20,412.7487537177985C25.294117647058826,412.7487537177985 25.294117647058826,390.44092229986757 30.58823529411765,390.44092229986757L41.1764705882353,390.4409446075204L30.58823529411765,390.44096691517325C25.294117647058826,390.44096691517325 25.294117647058826,412.74879833310416 20,412.74879833310416Z" style="stroke: rgb(0, 255, 0); stroke-opacity: 0; fill: rgb(0, 255, 0); fill-opacity: 0; stroke-width: 1; opacity: 1;"/><path class="sankey-link" d="M61.1764705882353,390.4408776845619C66.47058823529412,390.4408776845619 66.47058823529412,256.51334336388544 71.76470588235294,256.51334336388544L82.3529411764706,256.5133656715383L71.76470588235294,256.5133879791911C66.47058823529412,256.5133879791911 66.47058823529412,390.44092229986757 61.1764705882353,390.44092229986757Z" style="stroke: rgb(0, 255, 0); stroke-opacity: 0; fill: rgb(0, 255, 0); fill-opacity: 0; stroke-width: 1; opacity: 1;"/><path class="sankey-link" d="M61.1764705882353,390.44092229986757C66.47058823529412,390.44092229986757 66.47058823529412,256.5133879791911 71.76470588235294,256.5133879791911L82.3529411764706,256.51341028684396L71.76470588235294,256.5134325944968C66.47058823529412,256.5134325944968 66.47058823529412,390.44096691517325 61.1764705882353,390.44096691517325Z" style="stroke: rgb(0, 255, 0); stroke-opacity: 0; fill: rgb(0, 255, 0); fill-opacity: 0; stroke-width: 1; opacity: 1;"/><path class="sankey-link" d="M61.1764705882353,390.44096691517325C66.47058823529412,390.44096691517325 66.47058823529412,256.5134325944968 71.76470588235294,256.5134325944968L82.3529411764706,256.51345490214965L71.76470588235294,256.5134772098025C66.47058823529412,256.5134772098025 66.47058823529412,390.44101153047893 61.1764705882353,390.44101153047893Z" style="stroke: rgb(0, 255, 0); stroke-opacity: 0; fill: rgb(0, 255, 0); fill-opacity: 0; stroke-width: 1; opacity: 1;"/><path class="sankey-link" d="M61.1764705882353,390.44101153047893C66.47058823529412,390.44101153047893 66.47058823529412,256.5134772098025 71.76470588235294,256.5134772098025L82.3529411764706,256.51349951745533L71.76470588235294,256.51352182510817C66.47058823529412,256.51352182510817 66.47058823529412,390.4410561457846 61.1764705882353,390.4410561457846Z" style="stroke: rgb(0, 255, 0); stroke-opacity: 0; fill: rgb(0, 255, 0); fill-opacity: 0; stroke-width: 1; opacity: 1;"/><path class="sankey-link" d="M61.1764705882353,390.4410561457846C66.47058823529412,390.4410561457846 66.47058823529412,256.51352182510817 71.76470588235294,256.51352182510817L82.3529411764706,256.513544132761L71.76470588235294,256.51356644041385C66.47058823529412,256.51356644041385 66.47058823529412,390.4411007610903 61.1764705882353,390.4411007610903Z" style="stroke: rgb(0, 255, 0); stroke-opacity: 0; fill: rgb(0, 255, 0); fill-opacity: 0; stroke-width: 1; opacity: 1;"/><path class="sankey-link" d="M61.1764705882353,390.4411007610903C66.47058823529412,390.4411007610903 66.47058823529412,256.51356644041385 71.76470588235294,256.51356644041385L82.3529411764706,256.5135887480667L71.76470588235294,256.51361105571954C66.47058823529412,256.51361105571954 66.47058823529412,390.441145376396 61.1764705882353,390.441145376396Z" style="stroke: rgb(0, 255, 0); stroke-opacity: 0; fill: rgb(0, 255, 0); fill-opacity: 0; stroke-width: 1; opacity: 1;"/><path class="sankey-link" d="M61.1764705882353,390.441145376396C66.47058823529412,390.441145376396 66.47058823529412,256.51361105571954 71.76470588235294,256.51361105571954L82.3529411764706,256.5136333633724L71.76470588235294,256.5136556710252C66.47058823529412,256.5136556710252 66.47058823529412,390.44118999170166 61.1764705882353,390.44118999170166Z" style="stroke: rgb(0, 255, 0); stroke-opacity: 0; fill: rgb(0, 255, 0); fill-opacity: 0; stroke-width: 1; opacity: 1;"/><path class="sankey-link" d="M61.1764705882353,390.44118999170166C66.47058823529412,390.44118999170166 66.47058823529412,256.5136556710252 71.76470588235294,256.5136556710252L82.3529411764706,256.51367797867806L71.76470588235294,256.5137002863309C66.47058823529412,256.5137002863309 66.47058823529412,390.44123460700735 61.1764705882353,390.44123460700735Z" style="stroke: rgb(0, 255, 0); stroke-opacity: 0; fill: rgb(0, 255, 0); fill-opacity: 0; stroke-width: 1; opacity: 1;"/><path class="sankey-link" d="M61.1764705882353,390.44123460700735C66.47058823529412,390.44123460700735 66.47058823529412,256.5137002863309 71.76470588235294,256.5137002863309L82.3529411764706,256.51372259398374L71.76470588235294,256.5137449016366C66.47058823529412,256.5137449016366 66.47058823529412,390.441279222313 61.1764705882353,390.441279222313Z" style="stroke: rgb(0, 255, 0); stroke-opacity: 0; fill: rgb(0, 255, 0); fill-opacity: 0; stroke-width: 1; opacity: 1;"/><path class="sankey-link" d="M61.1764705882353,390.441279222313C66.47058823529412,390.441279222313 66.47058823529412,256.5137449016366 71.76470588235294,256.5137449016366L82.3529411764706,256.5137672092894L71.76470588235294,256.51378951694227C66.47058823529412,256.51378951694227 66.47058823529412,390.4413238376187 61.1764705882353,390.4413238376187Z" style="stroke: rgb(0, 255, 0); stroke-opacity: 0; fill: rgb(0, 255, 0); fill-opacity: 0; stroke-width: 1; opacity: 1;"/><path class="sankey-link" d="M102.3529411764706,479.58987176695047C107.64705882352942,479.58987176695047 107.64705882352942,386.0216595033086 112.94117647058823,386.0216595033086L123.52941176470588,386.02168181096147L112.94117647058823,386.0217041186143C107.64705882352942,386.0217041186143 107.64705882352942,479.58991638225615 102.3529411764706,479.58991638225615Z" style="stroke: rgb(0, 255, 0); stroke-opacity: 0; fill: rgb(0, 255, 0); fill-opacity: 0; stroke-width: 1; opacity: 1;"/><path class="sankey-link" d="M102.3529411764706,479.58991638225615C107.64705882352942,479.58991638225615 107.64705882352942,386.0217041186143 112.94117647058823,386.0217041186143L123.52941176470588,386.02172642626715L112.94117647058823,386.02174873392C107.64705882352942,386.02174873392 107.64705882352942,479.58996099756183 102.3529411764706,479.58996099756183Z" style="stroke: rgb(0, 255, 0); stroke-opacity: 0; fill: rgb(0, 255, 0); fill-opacity: 0; stroke-width: 1; opacity: 1;"/><path class="sankey-link" d="M102.3529411764706,479.58996099756183C107.64705882352942,479.58996099756183 107.64705882352942,386.02174873392 112.94117647058823,386.02174873392L123.52941176470588,386.02177104157283L112.94117647058823,386.0217933492257C107.64705882352942,386.0217933492257 107.64705882352942,479.5900056128675 102.3529411764706,479.5900056128675Z" style="stroke: rgb(0, 255, 0); stroke-opacity: 0; fill: rgb(0, 255, 0); fill-opacity: 0; stroke-width: 1; opacity: 1;"/><path class="sankey-link" d="M102.3529411764706,479.5900056128675C107.64705882352942,479.5900056128675 107.64705882352942,386.0217933492257 112.94117647058823,386.0217933492257L123.52941176470588,386.0218156568785L112.94117647058823,386.02183796453136C107.64705882352942,386.02183796453136 107.64705882352942,479.5900502281732 102.3529411764706,479.5900502281732Z" style="stroke: rgb(0, 255, 0); stroke-opacity: 0; fill: rgb(0, 255, 0); fill-opacity: 0; stroke-width: 1; opacity: 1;"/><path class="sankey-link" d="M102.3529411764706,479.5900502281732C107.64705882352942,479.5900502281732 107.64705882352942,386.02183796453136 112.94117647058823,386.02183796453136L123.52941176470588,386.0218602721842L112.94117647058823,386.02188257983704C107.64705882352942,386.02188257983704 107.64705882352942,479.5900948434789 102.3529411764706,479.5900948434789Z" style="stroke: rgb(0, 255, 0); stroke-opacity: 0; fill: rgb(0, 255, 0); fill-opacity: 0; stroke-width: 1; opacity: 1;"/><path class="sankey-link" d="M102.3529411764706,479.5900948434789C107.64705882352942,479.5900948434789 107.64705882352942,386.02188257983704 112.94117647058823,386.02188257983704L123.52941176470588,386.0219048874899L112.94117647058823,386.0219271951427C107.64705882352942,386.0219271951427 107.64705882352942,479.59013945878456 102.3529411764706,479.59013945878456Z" style="stroke: rgb(0, 255, 0); stroke-opacity: 0; fill: rgb(0, 255, 0); fill-opacity: 0; stroke-width: 1; opacity: 1;"/><path class="sankey-link" d="M102.3529411764706,479.59013945878456C107.64705882352942,479.59013945878456 107.64705882352942,386.0219271951427 112.94117647058823,386.0219271951427L123.52941176470588,386.02194950279556L112.94117647058823,386.0219718104484C107.64705882352942,386.0219718104484 107.64705882352942,479.59018407409025 102.3529411764706,479.59018407409025Z" style="stroke: rgb(0, 255, 0); stroke-opacity: 0; fill: rgb(0, 255, 0); fill-opacity: 0; stroke-width: 1; opacity: 1;"/><path class="sankey-link" d="M102.3529411764706,479.59018407409025C107.64705882352942,479.59018407409025 107.64705882352942,386.0219718104484 112.94117647058823,386.0219718104484L123.52941176470588,386.02199411810125L112.94117647058823,386.0220164257541C107.64705882352942,386.0220164257541 107.64705882352942,479.59022868939593 102.3529411764706,479.59022868939593Z" style="stroke: rgb(0, 255, 0); stroke-opacity: 0; fill: rgb(0, 255, 0); fill-opacity: 0; stroke-width: 1; opacity: 1;"/><path class="sankey-link" d="M102.3529411764706,479.59022868939593C107.64705882352942,479.59022868939593 107.64705882352942,386.0220164257541 112.94117647058823,386.0220164257541L123.52941176470588,386.02203873340693L112.94117647058823,386.02206104105977C107.64705882352942,386.02206104105977 107.64705882352942,479.5902733047016 102.3529411764706,479.5902733047016Z" style="stroke: rgb(0, 255, 0); stroke-opacity: 0; fill: rgb(0, 255, 0); fill-opacity: 0; stroke-width: 1; opacity: 1;"/><path class="sankey-link" d="M102.3529411764706,479.5902733047016C107.64705882352942,479.5902733047016 107.64705882352942,386.02206104105977 112.94117647058823,386.02206104105977L123.52941176470588,386.0220833487126L112.94117647058823,386.02210565636545C107.64705882352942,386.02210565636545 107.64705882352942,479.5903179200073 102.3529411764706,479.5903179200073Z" style="stroke: rgb(0, 255, 0); stroke-opacity: 0; fill: rgb(0, 255, 0); fill-opacity: 0; stroke-width: 1; opacity: 1;"/><path class="sankey-link" d="M143.52941176470588,386.0216595033086C148.8235294117647,386.0216595033086 148.8235294117647,381.71463380267375 154.11764705882354,381.71463380267375L164.7058823529412,381.7146561103266L154.11764705882354,381.7146784179794C148.8235294117647,381.7146784179794 148.8235294117647,386.0217041186143 143.52941176470588,386.0217041186143Z" style="stroke: rgb(0, 255, 0); stroke-opacity: 0; fill: rgb(0, 255, 0); fill-opacity: 0; stroke-width: 1; opacity: 1;"/><path class="sankey-link" d="M143.52941176470588,386.0217041186143C148.8235294117647,386.0217041186143 148.8235294117647,381.7146784179794 154.11764705882354,381.7146784179794L164.7058823529412,381.71470072563227L154.11764705882354,381.7147230332851C148.8235294117647,381.7147230332851 148.8235294117647,386.02174873392 143.52941176470588,386.02174873392Z" style="stroke: rgb(0, 255, 0); stroke-opacity: 0; fill: rgb(0, 255, 0); fill-opacity: 0; stroke-width: 1; opacity: 1;"/><path class="sankey-link" d="M184.7058823529412,381.71463380267375C190,381.71463380267375 190,377.3000271771851 195.29411764705884,377.3000271771851L205.8823529411765,377.3000494848379L195.29411764705884,377.30007179249077C190,377.30007179249077 190,381.7146784179794 184.7058823529412,381.7146784179794Z" style="stroke: rgb(0, 255, 0); stroke-opacity: 0; fill: rgb(0, 255, 0); fill-opacity: 0; stroke-width: 1; opacity: 1;"/><path class="sankey-link" d="M184.7058823529412,381.7146784179794C190,381.7146784179794 190,377.30007179249077 195.29411764705884,377.30007179249077L205.8823529411765,377.3000941001436L195.29411764705884,377.30011640779645C190,377.30011640779645 190,381.7147230332851 184.7058823529412,381.7147230332851Z" style="stroke: rgb(0, 255, 0); stroke-opacity: 0; fill: rgb(0, 255, 0); fill-opacity: 0; stroke-width: 1; opacity: 1;"/><path class="sankey-link" d="M225.8823529411765,377.3000271771851C231.1764705882353,377.3000271771851 231.1764705882353,372.7644711170744 236.47058823529414,372.7644711170744L247.05882352941177,372.7644934247272L236.47058823529414,372.76451573238006C231.1764705882353,372.76451573238006 231.1764705882353,377.30007179249077 225.8823529411765,377.30007179249077Z" style="stroke: rgb(0, 255, 0); stroke-opacity: 0; fill: rgb(0, 255, 0); fill-opacity: 0; stroke-width: 1; opacity: 1;"/><path class="sankey-link" d="M225.8823529411765,377.30007179249077C231.1764705882353,377.30007179249077 231.1764705882353,372.76451573238006 236.47058823529414,372.76451573238006L247.05882352941177,372.7645380400329L236.47058823529414,372.76456034768574C231.1764705882353,372.76456034768574 231.1764705882353,377.30011640779645 225.8823529411765,377.30011640779645Z" style="stroke: rgb(0, 255, 0); stroke-opacity: 0; fill: rgb(0, 255, 0); fill-opacity: 0; stroke-width: 1; opacity: 1;"/><path class="sankey-link" d="M267.05882352941177,372.7644711170744C272.3529411764706,372.7644711170744 272.3529411764706,368.0935036592478 277.6470588235294,368.0935036592478L288.2352941176471,368.09352596690064L277.6470588235294,368.0935482745535C272.3529411764706,368.0935482745535 272.3529411764706,372.76451573238006 267.05882352941177,372.76451573238006Z" style="stroke: rgb(0, 255, 0); stroke-opacity: 0; fill: rgb(0, 255, 0); fill-opacity: 0; stroke-width: 1; opacity: 1;"/><path class="sankey-link" d="M267.05882352941177,372.76451573238006C272.3529411764706,372.76451573238006 272.3529411764706,368.0935482745535 277.6470588235294,368.0935482745535L288.2352941176471,368.0935705822063L277.6470588235294,368.09359288985917C272.3529411764706,368.09359288985917 272.3529411764706,372.76456034768574 267.05882352941177,372.76456034768574Z" style="stroke: rgb(0, 255, 0); stroke-opacity: 0; fill: rgb(0, 255, 0); fill-opacity: 0; stroke-width: 1; opacity: 1;"/><path class="sankey-link" d="M308.2352941176471,368.0935036592478C313.5294117647059,368.0935036592478 313.5294117647059,309.7443273218433 318.82352941176475,309.7443273218433L329.41176470588243,309.7443496294961L318.82352941176475,309.74437193714897C313.5294117647059,309.74437193714897 313.5294117647059,368.0935482745535 308.2352941176471,368.0935482745535Z" style="stroke: rgb(0, 255, 0); stroke-opacity: 0; fill: rgb(0, 255, 0); fill-opacity: 0; stroke-width: 1; opacity: 1;"/><path class="sankey-link" d="M308.2352941176471,368.0935482745535C313.5294117647059,368.0935482745535 313.5294117647059,309.74437193714897 318.82352941176475,309.74437193714897L329.41176470588243,309.7443942448018L318.82352941176475,309.74441655245465C313.5294117647059,309.74441655245465 313.5294117647059,368.09359288985917 308.2352941176471,368.09359288985917Z" style="stroke: rgb(0, 255, 0); stroke-opacity: 0; fill: rgb(0, 255, 0); fill-opacity: 0; stroke-width: 1; opacity: 1;"/><path class="sankey-link" d="M308.2352941176471,368.09359288985917C313.5294117647059,368.09359288985917 313.5294117647059,309.74441655245465 318.82352941176475,309.74441655245465L329.41176470588243,309.7444388601075L318.82352941176475,309.74446116776033C313.5294117647059,309.74446116776033 313.5294117647059,368.09363750516485 308.2352941176471,368.09363750516485Z" style="stroke: rgb(0, 255, 0); stroke-opacity: 0; fill: rgb(0, 255, 0); fill-opacity: 0; stroke-width: 1; opacity: 1;"/><path class="sankey-link" d="M308.2352941176471,368.09363750516485C313.5294117647059,368.09363750516485 313.5294117647059,309.74446116776033 318.82352941176475,309.74446116776033L329.41176470588243,309.7444834754132L318.82352941176475,309.744505783066C313.5294117647059,309.744505783066 313.5294117647059,368.09368212047053 308.2352941176471,368.09368212047053Z" style="stroke: rgb(0, 255, 0); stroke-opacity: 0; fill: rgb(0, 255, 0); fill-opacity: 0; stroke-width: 1; opacity: 1;"/><path class="sankey-link" d="M308.2352941176471,368.09368212047053C313.5294117647059,368.09368212047053 313.5294117647059,309.744505783066 318.82352941176475,309.744505783066L329.41176470588243,309.74452809071886L318.82352941176475,309.7445503983717C313.5294117647059,309.7445503983717 313.5294117647059,368.0937267357762 308.2352941176471,368.0937267357762Z" style="stroke: rgb(0, 255, 0); stroke-opacity: 0; fill: rgb(0, 255, 0); fill-opacity: 0; stroke-width: 1; opacity: 1;"/><path class="sankey-link" d="M308.2352941176471,368.0937267357762C313.5294117647059,368.0937267357762 313.5294117647059,309.7445503983717 318.82352941176475,309.7445503983717L329.41176470588243,309.74457270602454L318.82352941176475,309.7445950136774C313.5294117647059,309.7445950136774 313.5294117647059,368.0937713510819 308.2352941176471,368.0937713510819Z" style="stroke: rgb(0, 255, 0); stroke-opacity: 0; fill: rgb(0, 255, 0); fill-opacity: 0; stroke-width: 1; opacity: 1;"/><path class="sankey-link" d="M308.2352941176471,368.0937713510819C313.5294117647059,368.0937713510819 313.5294117647059,309.7445950136774 318.82352941176475,309.7445950136774L329.41176470588243,309.7446173213302L318.82352941176475,309.74463962898307C313.5294117647059,309.74463962898307 313.5294117647059,368.0938159663876 308.2352941176471,368.0938159663876Z" style="stroke: rgb(0, 255, 0); stroke-opacity: 0; fill: rgb(0, 255, 0); fill-opacity: 0; stroke-width: 1; opacity: 1;"/><path class="sankey-link" d="M349.4117647058824,398.9749386830693C354.7058823529412,398.9749386830693 354.7058823529412,398.7981447635975 360,398.7981447635975L370.5882352941177,398.79816707125036L360,398.7981893789032C354.7058823529412,398.7981893789032 354.7058823529412,398.974983298375 349.4117647058824,398.974983298375Z" style="stroke: rgb(0, 255, 0); stroke-opacity: 0; fill: rgb(0, 255, 0); fill-opacity: 0; stroke-width: 1; opacity: 1;"/><path class="sankey-link" d="M349.4117647058824,398.974983298375C354.7058823529412,398.974983298375 354.7058823529412,398.7981893789032 360,398.7981893789032L370.5882352941177,398.79821168655604L360,398.7982339942089C354.7058823529412,398.7982339942089 354.7058823529412,398.97502791368066 349.4117647058824,398.97502791368066Z" style="stroke: rgb(0, 255, 0); stroke-opacity: 0; fill: rgb(0, 255, 0); fill-opacity: 0; stroke-width: 1; opacity: 1;"/><path class="sankey-link" d="M349.4117647058824,398.97502791368066C354.7058823529412,398.97502791368066 354.7058823529412,398.7982339942089 360,398.7982339942089L370.5882352941177,398.7982563018617L360,398.79827860951457C354.7058823529412,398.79827860951457 354.7058823529412,398.97507252898635 349.4117647058824,398.97507252898635Z" style="stroke: rgb(0, 255, 0); stroke-opacity: 0; fill: rgb(0, 255, 0); fill-opacity: 0; stroke-width: 1; opacity: 1;"/><path class="sankey-link" d="M349.4117647058824,398.97507252898635C354.7058823529412,398.97507252898635 354.7058823529412,398.79827860951457 360,398.79827860951457L370.5882352941177,398.7983009171674L360,398.79832322482025C354.7058823529412,398.79832322482025 354.7058823529412,398.975117144292 349.4117647058824,398.975117144292Z" style="stroke: rgb(0, 255, 0); stroke-opacity: 0; fill: rgb(0, 255, 0); fill-opacity: 0; stroke-width: 1; opacity: 1;"/><path class="sankey-link" d="M349.4117647058824,398.975117144292C354.7058823529412,398.975117144292 354.7058823529412,398.79832322482025 360,398.79832322482025L370.5882352941177,398.7983455324731L360,398.79836784012593C354.7058823529412,398.79836784012593 354.7058823529412,398.9751617595977 349.4117647058824,398.9751617595977Z" style="stroke: rgb(0, 255, 0); stroke-opacity: 0; fill: rgb(0, 255, 0); fill-opacity: 0; stroke-width: 1; opacity: 1;"/><path class="sankey-link" d="M349.4117647058824,398.9751617595977C354.7058823529412,398.9751617595977 354.7058823529412,398.79836784012593 360,398.79836784012593L370.5882352941177,398.7983901477788L360,398.7984124554316C354.7058823529412,398.7984124554316 354.7058823529412,398.9752063749034 349.4117647058824,398.9752063749034Z" style="stroke: rgb(0, 255, 0); stroke-opacity: 0; fill: rgb(0, 255, 0); fill-opacity: 0; stroke-width: 1; opacity: 1;"/><path class="sankey-link" d="M349.4117647058824,398.9752063749034C354.7058823529412,398.9752063749034 354.7058823529412,398.7984124554316 360,398.7984124554316L370.5882352941177,398.79843476308446L360,398.7984570707373C354.7058823529412,398.7984570707373 354.7058823529412,398.9752509902091 349.4117647058824,398.9752509902091Z" style="stroke: rgb(0, 255, 0); stroke-opacity: 0; fill: rgb(0, 255, 0); fill-opacity: 0; stroke-width: 1; opacity: 1;"/><path class="sankey-link" d="M349.4117647058824,398.9752509902091C354.7058823529412,398.9752509902091 354.7058823529412,398.7984570707373 360,398.7984570707373L370.5882352941177,398.79847937839014L360,398.798501686043C354.7058823529412,398.798501686043 354.7058823529412,398.97529560551476 349.4117647058824,398.97529560551476Z" style="stroke: rgb(0, 255, 0); stroke-opacity: 0; fill: rgb(0, 255, 0); fill-opacity: 0; stroke-width: 1; opacity: 1;"/><path class="sankey-link" d="M349.4117647058824,398.97529560551476C354.7058823529412,398.97529560551476 354.7058823529412,398.798501686043 360,398.798501686043L370.5882352941177,398.7985239936958L360,398.79854630134867C354.7058823529412,398.79854630134867 354.7058823529412,398.97534022082044 349.4117647058824,398.97534022082044Z" style="stroke: rgb(0, 255, 0); stroke-opacity: 0; fill: rgb(0, 255, 0); fill-opacity: 0; stroke-width: 1; opacity: 1;"/><path class="sankey-link" d="M349.4117647058824,398.97534022082044C354.7058823529412,398.97534022082044 354.7058823529412,398.79854630134867 360,398.79854630134867L370.5882352941177,398.7985686090015L360,398.79859091665435C354.7058823529412,398.79859091665435 354.7058823529412,398.9753848361261 349.4117647058824,398.9753848361261Z" style="stroke: rgb(0, 255, 0); stroke-opacity: 0; fill: rgb(0, 255, 0); fill-opacity: 0; stroke-width: 1; opacity: 1;"/><path class="sankey-link" d="M349.4117647058824,398.9753848361261C354.7058823529412,398.9753848361261 354.7058823529412,398.79859091665435 360,398.79859091665435L370.5882352941177,398.7986132243072L360,398.79863553196003C354.7058823529412,398.79863553196003 354.7058823529412,398.9754294514318 349.4117647058824,398.9754294514318Z" style="stroke: rgb(0, 255, 0); stroke-opacity: 0; fill: rgb(0, 255, 0); fill-opacity: 0; stroke-width: 1; opacity: 1;"/><path class="sankey-link" d="M390.5882352941177,443.4134504442105C395.8823529411765,443.4134504442105 395.8823529411765,331.9167349199116 401.17647058823536,331.9167349199116L411.76470588235304,331.91675722756446L401.17647058823536,331.9167795352173C395.8823529411765,331.9167795352173 395.8823529411765,443.4134950595162 390.5882352941177,443.4134950595162Z" style="stroke: rgb(0, 255, 0); stroke-opacity: 0; fill: rgb(0, 255, 0); fill-opacity: 0; stroke-width: 1; opacity: 1;"/><path class="sankey-link" d="M390.5882352941177,443.4134950595162C395.8823529411765,443.4134950595162 395.8823529411765,331.9167795352173 401.17647058823536,331.9167795352173L411.76470588235304,331.91680184287014L401.17647058823536,331.916824150523C395.8823529411765,331.916824150523 395.8823529411765,443.4135396748219 390.5882352941177,443.4135396748219Z" style="stroke: rgb(0, 255, 0); stroke-opacity: 0; fill: rgb(0, 255, 0); fill-opacity: 0; stroke-width: 1; opacity: 1;"/><path class="sankey-link" d="M390.5882352941177,443.4135396748219C395.8823529411765,443.4135396748219 395.8823529411765,331.916824150523 401.17647058823536,331.916824150523L411.76470588235304,331.9168464581758L401.17647058823536,331.91686876582867C395.8823529411765,331.91686876582867 395.8823529411765,443.4135842901276 390.5882352941177,443.4135842901276Z" style="stroke: rgb(0, 255, 0); stroke-opacity: 0; fill: rgb(0, 255, 0); fill-opacity: 0; stroke-width: 1; opacity: 1;"/><path class="sankey-link" d="M390.5882352941177,443.4135842901276C395.8823529411765,443.4135842901276 395.8823529411765,331.91686876582867 401.17647058823536,331.91686876582867L411.76470588235304,331.9168910734815L401.17647058823536,331.91691338113435C395.8823529411765,331.91691338113435 395.8823529411765,443.41362890543326 390.5882352941177,443.41362890543326Z" style="stroke: rgb(0, 255, 0); stroke-opacity: 0; fill: rgb(0, 255, 0); fill-opacity: 0; stroke-width: 1; opacity: 1;"/><path class="sankey-link" d="M390.5882352941177,443.41362890543326C395.8823529411765,443.41362890543326 395.8823529411765,331.91691338113435 401.17647058823536,331.91691338113435L411.76470588235304,331.9169356887872L401.17647058823536,331.91695799644003C395.8823529411765,331.91695799644003 395.8823529411765,443.41367352073894 390.5882352941177,443.41367352073894Z" style="stroke: rgb(0, 255, 0); stroke-opacity: 0; fill: rgb(0, 255, 0); fill-opacity: 0; stroke-width: 1; opacity: 1;"/><path class="sankey-link" d="M390.5882352941177,443.41367352073894C395.8823529411765,443.41367352073894 395.8823529411765,331.91695799644003 401.17647058823536,331.91695799644003L411.76470588235304,331.9169803040929L401.17647058823536,331.9170026117457C395.8823529411765,331.9170026117457 395.8823529411765,443.4137181360446 390.5882352941177,443.4137181360446Z" style="stroke: rgb(0, 255, 0); stroke-opacity: 0; fill: rgb(0, 255, 0); fill-opacity: 0; stroke-width: 1; opacity: 1;"/><path class="sankey-link" d="M431.764705882353,376.5320406005246C437.0588235294118,376.5320406005246 437.0588235294118,412.300873980185 442.3529411764706,412.300873980185L452.9411764705883,412.3008962878378L442.3529411764706,412.30091859549066C437.0588235294118,412.30091859549066 437.0588235294118,376.5320852158303 431.764705882353,376.5320852158303Z" style="stroke: rgb(0, 255, 0); stroke-opacity: 0; fill: rgb(0, 255, 0); fill-opacity: 0; stroke-width: 1; opacity: 1;"/><path class="sankey-link" d="M431.764705882353,376.5320852158303C437.0588235294118,376.5320852158303 437.0588235294118,412.30091859549066 442.3529411764706,412.30091859549066L452.9411764705883,412.3009409031435L442.3529411764706,412.30096321079634C437.0588235294118,412.30096321079634 437.0588235294118,376.532129831136 431.764705882353,376.532129831136Z" style="stroke: rgb(0, 255, 0); stroke-opacity: 0; fill: rgb(0, 255, 0); fill-opacity: 0; stroke-width: 1; opacity: 1;"/><path class="sankey-link" d="M431.764705882353,376.532129831136C437.0588235294118,376.532129831136 437.0588235294118,412.30096321079634 442.3529411764706,412.30096321079634L452.9411764705883,412.3009855184492L442.3529411764706,412.301007826102C437.0588235294118,412.301007826102 437.0588235294118,376.5321744464417 431.764705882353,376.5321744464417Z" style="stroke: rgb(0, 255, 0); stroke-opacity: 0; fill: rgb(0, 255, 0); fill-opacity: 0; stroke-width: 1; opacity: 1;"/><path class="sankey-link" d="M472.9411764705883,412.300873980185C478.2352941176471,412.300873980185 478.2352941176471,403.8140861526527 483.5294117647059,403.8140861526527L494.11764705882354,403.81410846030553L483.5294117647059,403.8141307679584C478.2352941176471,403.8141307679584 478.2352941176471,412.30091859549066 472.9411764705883,412.30091859549066Z" style="stroke: rgb(0, 255, 0); stroke-opacity: 0; fill: rgb(0, 255, 0); fill-opacity: 0; stroke-width: 1; opacity: 1;"/><path class="sankey-link" d="M472.9411764705883,412.30091859549066C478.2352941176471,412.30091859549066 478.2352941176471,403.8141307679584 483.5294117647059,403.8141307679584L494.11764705882354,403.8141530756112L483.5294117647059,403.81417538326406C478.2352941176471,403.81417538326406 478.2352941176471,412.30096321079634 472.9411764705883,412.30096321079634Z" style="stroke: rgb(0, 255, 0); stroke-opacity: 0; fill: rgb(0, 255, 0); fill-opacity: 0; stroke-width: 1; opacity: 1;"/><path class="sankey-link" d="M472.9411764705883,412.30096321079634C478.2352941176471,412.30096321079634 478.2352941176471,403.81417538326406 483.5294117647059,403.81417538326406L494.11764705882354,403.8141976909169L483.5294117647059,403.81421999856974C478.2352941176471,403.81421999856974 478.2352941176471,412.301007826102 472.9411764705883,412.301007826102Z" style="stroke: rgb(0, 255, 0); stroke-opacity: 0; fill: rgb(0, 255, 0); fill-opacity: 0; stroke-width: 1; opacity: 1;"/><path class="sankey-link" d="M472.9411764705883,412.301007826102C478.2352941176471,412.301007826102 478.2352941176471,403.81421999856974 483.5294117647059,403.81421999856974L494.11764705882354,403.8142423062226L483.5294117647059,403.8142646138754C478.2352941176471,403.8142646138754 478.2352941176471,412.3010524414077 472.9411764705883,412.3010524414077Z" style="stroke: rgb(0, 255, 0); stroke-opacity: 0; fill: rgb(0, 255, 0); fill-opacity: 0; stroke-width: 1; opacity: 1;"/><path class="sankey-link" d="M472.9411764705883,412.3010524414077C478.2352941176471,412.3010524414077 478.2352941176471,403.8142646138754 483.5294117647059,403.8142646138754L494.11764705882354,403.81428692152826L483.5294117647059,403.8143092291811C478.2352941176471,403.8143092291811 478.2352941176471,412.3010970567134 472.9411764705883,412.3010970567134Z" style="stroke: rgb(0, 255, 0); stroke-opacity: 0; fill: rgb(0, 255, 0); fill-opacity: 0; stroke-width: 1; opacity: 1;"/><path class="sankey-link" d="M472.9411764705883,412.3010970567134C478.2352941176471,412.3010970567134 478.2352941176471,403.8143092291811 483.5294117647059,403.8143092291811L494.11764705882354,403.81433153683395L483.5294117647059,403.8143538444868C478.2352941176471,403.8143538444868 478.2352941176471,412.30114167201907 472.9411764705883,412.30114167201907Z" style="stroke: rgb(0, 255, 0); stroke-opacity: 0; fill: rgb(0, 255, 0); fill-opacity: 0; stroke-width: 1; opacity: 1;"/><path class="sankey-link" d="M514.1176470588235,403.8140861526527C519.4117647058824,403.8140861526527 519.4117647058824,267.6918340836778 524.7058823529412,267.6918340836778L535.2941176470589,267.69185639133065L524.7058823529412,267.6918786989835C519.4117647058824,267.6918786989835 519.4117647058824,403.8141307679584 514.1176470588235,403.8141307679584Z" style="stroke: rgb(0, 255, 0); stroke-opacity: 0; fill: rgb(0, 255, 0); fill-opacity: 0; stroke-width: 1; opacity: 1;"/><path class="sankey-link" d="M514.1176470588235,403.8141307679584C519.4117647058824,403.8141307679584 519.4117647058824,267.6918786989835 524.7058823529412,267.6918786989835L535.2941176470589,267.69190100663633L524.7058823529412,267.69192331428917C519.4117647058824,267.69192331428917 519.4117647058824,403.81417538326406 514.1176470588235,403.81417538326406Z" style="stroke: rgb(0, 255, 0); stroke-opacity: 0; fill: rgb(0, 255, 0); fill-opacity: 0; stroke-width: 1; opacity: 1;"/><path class="sankey-link" d="M514.1176470588235,403.81417538326406C519.4117647058824,403.81417538326406 519.4117647058824,267.69192331428917 524.7058823529412,267.69192331428917L535.2941176470589,267.691945621942L524.7058823529412,267.69196792959485C519.4117647058824,267.69196792959485 519.4117647058824,403.81421999856974 514.1176470588235,403.81421999856974Z" style="stroke: rgb(0, 255, 0); stroke-opacity: 0; fill: rgb(0, 255, 0); fill-opacity: 0; stroke-width: 1; opacity: 1;"/><path class="sankey-link" d="M514.1176470588235,403.81421999856974C519.4117647058824,403.81421999856974 519.4117647058824,267.69196792959485 524.7058823529412,267.69196792959485L535.2941176470589,267.6919902372477L524.7058823529412,267.69201254490054C519.4117647058824,267.69201254490054 519.4117647058824,403.8142646138754 514.1176470588235,403.8142646138754Z" style="stroke: rgb(0, 255, 0); stroke-opacity: 0; fill: rgb(0, 255, 0); fill-opacity: 0; stroke-width: 1; opacity: 1;"/><path class="sankey-link" d="M514.1176470588235,403.8142646138754C519.4117647058824,403.8142646138754 519.4117647058824,267.69201254490054 524.7058823529412,267.69201254490054L535.2941176470589,267.6920348525534L524.7058823529412,267.6920571602062C519.4117647058824,267.6920571602062 519.4117647058824,403.8143092291811 514.1176470588235,403.8143092291811Z" style="stroke: rgb(0, 255, 0); stroke-opacity: 0; fill: rgb(0, 255, 0); fill-opacity: 0; stroke-width: 1; opacity: 1;"/><path class="sankey-link" d="M514.1176470588235,403.8147999975436C519.4117647058824,403.8147999975436 519.4117647058824,530.7690763316343 524.7058823529412,530.7690763316343L535.2941176470589,530.7690986392871L524.7058823529412,530.7691209469399C519.4117647058824,530.7691209469399 519.4117647058824,403.8148446128493 514.1176470588235,403.8148446128493Z" style="stroke: rgb(0, 255, 0); stroke-opacity: 0; fill: rgb(0, 255, 0); fill-opacity: 0; stroke-width: 1; opacity: 1;"/><path class="sankey-link" d="M514.1176470588235,403.8148446128493C519.4117647058824,403.8148446128493 519.4117647058824,530.76912094694 524.7058823529412,530.76912094694L535.2941176470589,530.7691432545928L524.7058823529412,530.7691655622456C519.4117647058824,530.7691655622456 519.4117647058824,403.814889228155 514.1176470588235,403.814889228155Z" style="stroke: rgb(0, 255, 0); stroke-opacity: 0; fill: rgb(0, 255, 0); fill-opacity: 0; stroke-width: 1; opacity: 1;"/><path class="sankey-link" d="M514.1176470588235,403.8143092291811C519.4117647058824,403.8143092291811 519.4117647058824,267.6920571602062 524.7058823529412,267.6920571602062L535.2941176470589,267.69207946785906L524.7058823529412,267.6921017755119C519.4117647058824,267.6921017755119 519.4117647058824,403.8143538444868 514.1176470588235,403.8143538444868Z" style="stroke: rgb(0, 255, 0); stroke-opacity: 0; fill: rgb(0, 255, 0); fill-opacity: 0; stroke-width: 1; opacity: 1;"/><path class="sankey-link" d="M514.1176470588235,403.814889228155C519.4117647058824,403.814889228155 519.4117647058824,530.7691655622457 524.7058823529412,530.7691655622457L535.2941176470589,530.7691878698985L524.7058823529412,530.7692101775513C519.4117647058824,530.7692101775513 519.4117647058824,403.81493384346066 514.1176470588235,403.81493384346066Z" style="stroke: rgb(0, 255, 0); stroke-opacity: 0; fill: rgb(0, 255, 0); fill-opacity: 0; stroke-width: 1; opacity: 1;"/><path class="sankey-link" d="M514.1176470588235,403.81497845876635C519.4117647058824,403.81497845876635 519.4117647058824,595.3845604734701 524.7058823529412,595.3845604734701L535.2941176470589,595.3845827811228L524.7058823529412,595.3846050887756C519.4117647058824,595.3846050887756 519.4117647058824,403.81502307407203 514.1176470588235,403.81502307407203Z" style="stroke: rgb(0, 255, 0); stroke-opacity: 0; fill: rgb(0, 255, 0); fill-opacity: 0; stroke-width: 1; opacity: 1;"/><path class="sankey-link" d="M514.1176470588235,403.81502307407203C519.4117647058824,403.81502307407203 519.4117647058824,595.3846050887757 524.7058823529412,595.3846050887757L535.2941176470589,595.3846273964285L524.7058823529412,595.3846497040813C519.4117647058824,595.3846497040813 519.4117647058824,403.8150676893777 514.1176470588235,403.8150676893777Z" style="stroke: rgb(0, 255, 0); stroke-opacity: 0; fill: rgb(0, 255, 0); fill-opacity: 0; stroke-width: 1; opacity: 1;"/><path class="sankey-link" d="M514.1176470588235,403.81466615162657C519.4117647058824,403.81466615162657 519.4117647058824,376.92302544387815 524.7058823529412,376.92302544387815L535.2941176470589,376.923047751531L524.7058823529412,376.92307005918383C519.4117647058824,376.92307005918383 519.4117647058824,403.81471076693225 514.1176470588235,403.81471076693225Z" style="stroke: rgb(0, 255, 0); stroke-opacity: 0; fill: rgb(0, 255, 0); fill-opacity: 0; stroke-width: 1; opacity: 1;"/><path class="sankey-link" d="M514.1176470588235,403.8143538444868C519.4117647058824,403.8143538444868 519.4117647058824,267.6921017755119 524.7058823529412,267.6921017755119L535.2941176470589,267.69212408316474L524.7058823529412,267.6921463908176C519.4117647058824,267.6921463908176 519.4117647058824,403.81439845979247 514.1176470588235,403.81439845979247Z" style="stroke: rgb(0, 255, 0); stroke-opacity: 0; fill: rgb(0, 255, 0); fill-opacity: 0; stroke-width: 1; opacity: 1;"/><path class="sankey-link" d="M514.1176470588235,403.81493384346066C519.4117647058824,403.81493384346066 519.4117647058824,530.7692101775514 524.7058823529412,530.7692101775514L535.2941176470589,530.7692324852042L524.7058823529412,530.7692547928569C519.4117647058824,530.7692547928569 519.4117647058824,403.81497845876635 514.1176470588235,403.81497845876635Z" style="stroke: rgb(0, 255, 0); stroke-opacity: 0; fill: rgb(0, 255, 0); fill-opacity: 0; stroke-width: 1; opacity: 1;"/><path class="sankey-link" d="M514.1176470588235,403.81439845979247C519.4117647058824,403.81439845979247 519.4117647058824,267.6921463908176 524.7058823529412,267.6921463908176L535.2941176470589,267.6921686984704L524.7058823529412,267.69219100612327C519.4117647058824,267.69219100612327 519.4117647058824,403.81444307509815 514.1176470588235,403.81444307509815Z" style="stroke: rgb(0, 255, 0); stroke-opacity: 0; fill: rgb(0, 255, 0); fill-opacity: 0; stroke-width: 1; opacity: 1;"/><path class="sankey-link" d="M514.1176470588235,403.81471076693225C519.4117647058824,403.81471076693225 519.4117647058824,376.92307005918383 524.7058823529412,376.92307005918383L535.2941176470589,376.92309236683667L524.7058823529412,376.9231146744895C519.4117647058824,376.9231146744895 519.4117647058824,403.81475538223793 514.1176470588235,403.81475538223793Z" style="stroke: rgb(0, 255, 0); stroke-opacity: 0; fill: rgb(0, 255, 0); fill-opacity: 0; stroke-width: 1; opacity: 1;"/><path class="sankey-link" d="M514.1176470588235,403.8150676893777C519.4117647058824,403.8150676893777 519.4117647058824,595.3846497040814 524.7058823529412,595.3846497040814L535.2941176470589,595.3846720117342L524.7058823529412,595.384694319387C519.4117647058824,595.384694319387 519.4117647058824,403.8151123046834 514.1176470588235,403.8151123046834Z" style="stroke: rgb(0, 255, 0); stroke-opacity: 0; fill: rgb(0, 255, 0); fill-opacity: 0; stroke-width: 1; opacity: 1;"/><path class="sankey-link" d="M514.1176470588235,403.81444307509815C519.4117647058824,403.81444307509815 519.4117647058824,267.69219100612327 524.7058823529412,267.69219100612327L535.2941176470589,267.6922133137761L524.7058823529412,267.69223562142895C519.4117647058824,267.69223562142895 519.4117647058824,403.81448769040384 514.1176470588235,403.81448769040384Z" style="stroke: rgb(0, 255, 0); stroke-opacity: 0; fill: rgb(0, 255, 0); fill-opacity: 0; stroke-width: 1; opacity: 1;"/><path class="sankey-link" d="M514.1176470588235,403.81448769040384C519.4117647058824,403.81448769040384 519.4117647058824,267.69223562142895 524.7058823529412,267.69223562142895L535.2941176470589,267.6922579290818L524.7058823529412,267.69228023673463C519.4117647058824,267.69228023673463 519.4117647058824,403.8145323057095 514.1176470588235,403.8145323057095Z" style="stroke: rgb(0, 255, 0); stroke-opacity: 0; fill: rgb(0, 255, 0); fill-opacity: 0; stroke-width: 1; opacity: 1;"/><path class="sankey-link" d="M514.1176470588235,403.8145323057095C519.4117647058824,403.8145323057095 519.4117647058824,267.69228023673463 524.7058823529412,267.69228023673463L535.2941176470589,267.6923025443875L524.7058823529412,267.6923248520403C519.4117647058824,267.6923248520403 519.4117647058824,403.8145769210152 514.1176470588235,403.8145769210152Z" style="stroke: rgb(0, 255, 0); stroke-opacity: 0; fill: rgb(0, 255, 0); fill-opacity: 0; stroke-width: 1; opacity: 1;"/><path class="sankey-link" d="M514.1176470588235,403.81475538223793C519.4117647058824,403.81475538223793 519.4117647058824,376.9231146744895 524.7058823529412,376.9231146744895L535.2941176470589,376.92313698214235L524.7058823529412,376.9231592897952C519.4117647058824,376.9231592897952 519.4117647058824,403.8147999975436 514.1176470588235,403.8147999975436Z" style="stroke: rgb(0, 255, 0); stroke-opacity: 0; fill: rgb(0, 255, 0); fill-opacity: 0; stroke-width: 1; opacity: 1;"/><path class="sankey-link" d="M514.1176470588235,403.8145769210152C519.4117647058824,403.8145769210152 519.4117647058824,267.6923248520403 524.7058823529412,267.6923248520403L535.2941176470589,267.69234715969316L524.7058823529412,267.692369467346C519.4117647058824,267.692369467346 519.4117647058824,403.8146215363209 514.1176470588235,403.8146215363209Z" style="stroke: rgb(0, 255, 0); stroke-opacity: 0; fill: rgb(0, 255, 0); fill-opacity: 0; stroke-width: 1; opacity: 1;"/><path class="sankey-link" d="M514.1176470588235,403.8146215363209C519.4117647058824,403.8146215363209 519.4117647058824,267.692369467346 524.7058823529412,267.692369467346L535.2941176470589,267.69239177499884L524.7058823529412,267.6924140826517C519.4117647058824,267.6924140826517 519.4117647058824,403.81466615162657 514.1176470588235,403.81466615162657Z" style="stroke: rgb(0, 255, 0); stroke-opacity: 0; fill: rgb(0, 255, 0); fill-opacity: 0; stroke-width: 1; opacity: 1;"/><path class="sankey-link" d="M555.2941176470589,89.23061136122578C560.5882352941178,89.23061136122578 560.5882352941178,363.56580175143466 565.8823529411766,363.56580175143466L576.4705882352941,363.5658240590875L565.8823529411766,363.56584636674035C560.5882352941178,363.56584636674035 560.5882352941178,89.23065597653147 555.2941176470589,89.23065597653147Z" style="stroke: rgb(0, 255, 0); stroke-opacity: 0; fill: rgb(0, 255, 0); fill-opacity: 0; stroke-width: 1; opacity: 1;"/><path class="sankey-link" d="M555.2941176470589,530.7690763316343C560.5882352941178,530.7690763316343 560.5882352941178,363.56638175040854 565.8823529411766,363.56638175040854L576.4705882352941,363.5664040580614L565.8823529411766,363.5664263657142C560.5882352941178,363.5664263657142 560.5882352941178,530.7691209469399 555.2941176470589,530.7691209469399Z" style="stroke: rgb(0, 255, 0); stroke-opacity: 0; fill: rgb(0, 255, 0); fill-opacity: 0; stroke-width: 1; opacity: 1;"/><path class="sankey-link" d="M555.2941176470589,530.76912094694C560.5882352941178,530.76912094694 560.5882352941178,363.5664263657142 565.8823529411766,363.5664263657142L576.4705882352941,363.56644867336706L565.8823529411766,363.5664709810199C560.5882352941178,363.5664709810199 560.5882352941178,530.7691655622456 555.2941176470589,530.7691655622456Z" style="stroke: rgb(0, 255, 0); stroke-opacity: 0; fill: rgb(0, 255, 0); fill-opacity: 0; stroke-width: 1; opacity: 1;"/><path class="sankey-link" d="M555.2941176470589,89.23065597653147C560.5882352941178,89.23065597653147 560.5882352941178,363.56584636674035 565.8823529411766,363.56584636674035L576.4705882352941,363.5658686743932L565.8823529411766,363.565890982046C560.5882352941178,363.565890982046 560.5882352941178,89.23070059183715 555.2941176470589,89.23070059183715Z" style="stroke: rgb(0, 255, 0); stroke-opacity: 0; fill: rgb(0, 255, 0); fill-opacity: 0; stroke-width: 1; opacity: 1;"/><path class="sankey-link" d="M555.2941176470589,530.7691655622457C560.5882352941178,530.7691655622457 560.5882352941178,363.5664709810199 565.8823529411766,363.5664709810199L576.4705882352941,363.56649328867275L565.8823529411766,363.5665155963256C560.5882352941178,363.5665155963256 560.5882352941178,530.7692101775513 555.2941176470589,530.7692101775513Z" style="stroke: rgb(0, 255, 0); stroke-opacity: 0; fill: rgb(0, 255, 0); fill-opacity: 0; stroke-width: 1; opacity: 1;"/><path class="sankey-link" d="M555.2941176470589,639.9998661540831C560.5882352941178,639.9998661540831 560.5882352941178,363.56656021163127 565.8823529411766,363.56656021163127L576.4705882352941,363.5665825192841L565.8823529411766,363.56660482693695C560.5882352941178,363.56660482693695 560.5882352941178,639.9999107693886 555.2941176470589,639.9999107693886Z" style="stroke: rgb(0, 255, 0); stroke-opacity: 0; fill: rgb(0, 255, 0); fill-opacity: 0; stroke-width: 1; opacity: 1;"/><path class="sankey-link" d="M555.2941176470589,639.9999107693887C560.5882352941178,639.9999107693887 560.5882352941178,363.56660482693695 565.8823529411766,363.56660482693695L576.4705882352941,363.5666271345898L565.8823529411766,363.56664944224264C560.5882352941178,363.56664944224264 560.5882352941178,639.9999553846943 555.2941176470589,639.9999553846943Z" style="stroke: rgb(0, 255, 0); stroke-opacity: 0; fill: rgb(0, 255, 0); fill-opacity: 0; stroke-width: 1; opacity: 1;"/><path class="sankey-link" d="M555.2941176470589,421.53833112449115C560.5882352941178,421.53833112449115 560.5882352941178,363.5662479044915 565.8823529411766,363.5662479044915L576.4705882352941,363.56627021214433L565.8823529411766,363.5662925197972C560.5882352941178,363.5662925197972 560.5882352941178,421.53837573979683 555.2941176470589,421.53837573979683Z" style="stroke: rgb(0, 255, 0); stroke-opacity: 0; fill: rgb(0, 255, 0); fill-opacity: 0; stroke-width: 1; opacity: 1;"/><path class="sankey-link" d="M555.2941176470589,89.23070059183715C560.5882352941178,89.23070059183715 560.5882352941178,363.565890982046 565.8823529411766,363.565890982046L576.4705882352941,363.56591328969887L565.8823529411766,363.5659355973517C560.5882352941178,363.5659355973517 560.5882352941178,89.23074520714283 555.2941176470589,89.23074520714283Z" style="stroke: rgb(0, 255, 0); stroke-opacity: 0; fill: rgb(0, 255, 0); fill-opacity: 0; stroke-width: 1; opacity: 1;"/><path class="sankey-link" d="M555.2941176470589,530.7692101775514C560.5882352941178,530.7692101775514 560.5882352941178,363.5665155963256 565.8823529411766,363.5665155963256L576.4705882352941,363.5665379039784L565.8823529411766,363.56656021163127C560.5882352941178,363.56656021163127 560.5882352941178,530.7692547928569 555.2941176470589,530.7692547928569Z" style="stroke: rgb(0, 255, 0); stroke-opacity: 0; fill: rgb(0, 255, 0); fill-opacity: 0; stroke-width: 1; opacity: 1;"/><path class="sankey-link" d="M555.2941176470589,89.23074520714283C560.5882352941178,89.23074520714283 560.5882352941178,363.5659355973517 565.8823529411766,363.5659355973517L576.4705882352941,363.56595790500455L565.8823529411766,363.5659802126574C560.5882352941178,363.5659802126574 560.5882352941178,89.23078982244851 555.2941176470589,89.23078982244851Z" style="stroke: rgb(0, 255, 0); stroke-opacity: 0; fill: rgb(0, 255, 0); fill-opacity: 0; stroke-width: 1; opacity: 1;"/><path class="sankey-link" d="M555.2941176470589,421.53837573979683C560.5882352941178,421.53837573979683 560.5882352941178,363.5662925197972 565.8823529411766,363.5662925197972L576.4705882352941,363.56631482745L565.8823529411766,363.56633713510286C560.5882352941178,363.56633713510286 560.5882352941178,421.5384203551025 555.2941176470589,421.5384203551025Z" style="stroke: rgb(0, 255, 0); stroke-opacity: 0; fill: rgb(0, 255, 0); fill-opacity: 0; stroke-width: 1; opacity: 1;"/><path class="sankey-link" d="M555.2941176470589,639.9999553846944C560.5882352941178,639.9999553846944 560.5882352941178,363.56664944224264 565.8823529411766,363.56664944224264L576.4705882352941,363.5666717498955L565.8823529411766,363.5666940575483C560.5882352941178,363.5666940575483 560.5882352941178,640 555.2941176470589,640Z" style="stroke: rgb(0, 255, 0); stroke-opacity: 0; fill: rgb(0, 255, 0); fill-opacity: 0; stroke-width: 1; opacity: 1;"/><path class="sankey-link" d="M555.2941176470589,89.23078982244851C560.5882352941178,89.23078982244851 560.5882352941178,363.5659802126574 565.8823529411766,363.5659802126574L576.4705882352941,363.56600252031024L565.8823529411766,363.5660248279631C560.5882352941178,363.5660248279631 560.5882352941178,89.2308344377542 555.2941176470589,89.2308344377542Z" style="stroke: rgb(0, 255, 0); stroke-opacity: 0; fill: rgb(0, 255, 0); fill-opacity: 0; stroke-width: 1; opacity: 1;"/><path class="sankey-link" d="M555.2941176470589,89.2308344377542C560.5882352941178,89.2308344377542 560.5882352941178,363.5660248279631 565.8823529411766,363.5660248279631L576.4705882352941,363.5660471356159L565.8823529411766,363.56606944326876C560.5882352941178,363.56606944326876 560.5882352941178,89.23087905305988 555.2941176470589,89.23087905305988Z" style="stroke: rgb(0, 255, 0); stroke-opacity: 0; fill: rgb(0, 255, 0); fill-opacity: 0; stroke-width: 1; opacity: 1;"/><path class="sankey-link" d="M555.2941176470589,89.23087905305988C560.5882352941178,89.23087905305988 560.5882352941178,363.56606944326876 565.8823529411766,363.56606944326876L576.4705882352941,363.5660917509216L565.8823529411766,363.56611405857444C560.5882352941178,363.56611405857444 560.5882352941178,89.23092366836556 555.2941176470589,89.23092366836556Z" style="stroke: rgb(0, 255, 0); stroke-opacity: 0; fill: rgb(0, 255, 0); fill-opacity: 0; stroke-width: 1; opacity: 1;"/><path class="sankey-link" d="M555.2941176470589,421.5384203551025C560.5882352941178,421.5384203551025 560.5882352941178,363.56633713510286 565.8823529411766,363.56633713510286L576.4705882352941,363.5663594427557L565.8823529411766,363.56638175040854C560.5882352941178,363.56638175040854 560.5882352941178,421.5384649704082 555.2941176470589,421.5384649704082Z" style="stroke: rgb(0, 255, 0); stroke-opacity: 0; fill: rgb(0, 255, 0); fill-opacity: 0; stroke-width: 1; opacity: 1;"/><path class="sankey-link" d="M555.2941176470589,89.23092366836556C560.5882352941178,89.23092366836556 560.5882352941178,363.56611405857444 565.8823529411766,363.56611405857444L576.4705882352941,363.5661363662273L565.8823529411766,363.5661586738801C560.5882352941178,363.5661586738801 560.5882352941178,89.23096828367125 555.2941176470589,89.23096828367125Z" style="stroke: rgb(0, 255, 0); stroke-opacity: 0; fill: rgb(0, 255, 0); fill-opacity: 0; stroke-width: 1; opacity: 1;"/><path class="sankey-link" d="M555.2941176470589,89.23096828367125C560.5882352941178,89.23096828367125 560.5882352941178,363.5661586738801 565.8823529411766,363.5661586738801L576.4705882352941,363.56618098153297L565.8823529411766,363.5662032891858C560.5882352941178,363.5662032891858 560.5882352941178,89.23101289897693 555.2941176470589,89.23101289897693Z" style="stroke: rgb(0, 255, 0); stroke-opacity: 0; fill: rgb(0, 255, 0); fill-opacity: 0; stroke-width: 1; opacity: 1;"/><path class="sankey-link" d="M555.2941176470589,89.23101289897693C560.5882352941178,89.23101289897693 560.5882352941178,363.5662032891858 565.8823529411766,363.5662032891858L576.4705882352941,363.56622559683865L565.8823529411766,363.5662479044915C560.5882352941178,363.5662479044915 560.5882352941178,89.23105751428261 555.2941176470589,89.23105751428261Z" style="stroke: rgb(0, 255, 0); stroke-opacity: 0; fill: rgb(0, 255, 0); fill-opacity: 0; stroke-width: 1; opacity: 1;"/><path class="sankey-link" d="M596.4705882352941,363.56580175143466C601.7647058823529,363.56580175143466 601.7647058823529,370.86996531758007 607.0588235294118,370.86996531758007L617.6470588235295,370.8699876252329L607.0588235294118,370.87000993288575C601.7647058823529,370.87000993288575 601.7647058823529,363.56584636674035 596.4705882352941,363.56584636674035Z" style="stroke: rgb(0, 255, 0); stroke-opacity: 0; fill: rgb(0, 255, 0); fill-opacity: 0; stroke-width: 1; opacity: 1;"/><path class="sankey-link" d="M596.4705882352941,363.56584636674035C601.7647058823529,363.56584636674035 601.7647058823529,370.87000993288575 607.0588235294118,370.87000993288575L617.6470588235295,370.8700322405386L607.0588235294118,370.87005454819143C601.7647058823529,370.87005454819143 601.7647058823529,363.565890982046 596.4705882352941,363.565890982046Z" style="stroke: rgb(0, 255, 0); stroke-opacity: 0; fill: rgb(0, 255, 0); fill-opacity: 0; stroke-width: 1; opacity: 1;"/><path class="sankey-link" d="M637.6470588235295,370.86996531758007C642.9411764705883,370.86996531758007 642.9411764705883,411.0504258802779 648.2352941176471,411.0504258802779L658.8235294117646,411.0504481879307L648.2352941176471,411.05047049558357C642.9411764705883,411.05047049558357 642.9411764705883,370.87000993288575 637.6470588235295,370.87000993288575Z" style="stroke: rgb(0, 255, 0); stroke-opacity: 0; fill: rgb(0, 255, 0); fill-opacity: 0; stroke-width: 1; opacity: 1;"/><path class="sankey-link" d="M637.6470588235295,370.87000993288575C642.9411764705883,370.87000993288575 642.9411764705883,411.05047049558357 648.2352941176471,411.05047049558357L658.8235294117646,411.0504928032364L648.2352941176471,411.05051511088925C642.9411764705883,411.05051511088925 642.9411764705883,370.87005454819143 637.6470588235295,370.87005454819143Z" style="stroke: rgb(0, 255, 0); stroke-opacity: 0; fill: rgb(0, 255, 0); fill-opacity: 0; stroke-width: 1; opacity: 1;"/><path class="sankey-link" d="M637.6470588235295,370.87005454819143C642.9411764705883,370.87005454819143 642.9411764705883,411.05051511088925 648.2352941176471,411.05051511088925L658.8235294117646,411.0505374185421L648.2352941176471,411.05055972619493C642.9411764705883,411.05055972619493 642.9411764705883,370.8700991634971 637.6470588235295,370.8700991634971Z" style="stroke: rgb(0, 255, 0); stroke-opacity: 0; fill: rgb(0, 255, 0); fill-opacity: 0; stroke-width: 1; opacity: 1;"/><path class="sankey-link" d="M637.6470588235295,370.8700991634971C642.9411764705883,370.8700991634971 642.9411764705883,411.05055972619493 648.2352941176471,411.05055972619493L658.8235294117646,411.0505820338478L648.2352941176471,411.0506043415006C642.9411764705883,411.0506043415006 642.9411764705883,370.8701437788028 637.6470588235295,370.8701437788028Z" style="stroke: rgb(0, 255, 0); stroke-opacity: 0; fill: rgb(0, 255, 0); fill-opacity: 0; stroke-width: 1; opacity: 1;"/><path class="sankey-link" d="M637.6470588235295,370.8701437788028C642.9411764705883,370.8701437788028 642.9411764705883,411.0506043415006 648.2352941176471,411.0506043415006L658.8235294117646,411.05062664915346L648.2352941176471,411.0506489568063C642.9411764705883,411.0506489568063 642.9411764705883,370.8701883941085 637.6470588235295,370.8701883941085Z" style="stroke: rgb(0, 255, 0); stroke-opacity: 0; fill: rgb(0, 255, 0); fill-opacity: 0; stroke-width: 1; opacity: 1;"/><path class="sankey-link" d="M637.6470588235295,370.8701883941085C642.9411764705883,370.8701883941085 642.9411764705883,411.0506489568063 648.2352941176471,411.0506489568063L658.8235294117646,411.05067126445914L648.2352941176471,411.050693572112C642.9411764705883,411.050693572112 642.9411764705883,370.87023300941416 637.6470588235295,370.87023300941416Z" style="stroke: rgb(0, 255, 0); stroke-opacity: 0; fill: rgb(0, 255, 0); fill-opacity: 0; stroke-width: 1; opacity: 1;"/><path class="sankey-link" d="M637.6470588235295,370.87023300941416C642.9411764705883,370.87023300941416 642.9411764705883,411.050693572112 648.2352941176471,411.050693572112L658.8235294117646,411.0507158797648L648.2352941176471,411.05073818741766C642.9411764705883,411.05073818741766 642.9411764705883,370.87027762471985 637.6470588235295,370.87027762471985Z" style="stroke: rgb(0, 255, 0); stroke-opacity: 0; fill: rgb(0, 255, 0); fill-opacity: 0; stroke-width: 1; opacity: 1;"/><path class="sankey-link" d="M678.8235294117648,321.8198145190519C684.1176470588236,321.8198145190519 684.1176470588236,321.99798493385316 689.4117647058824,321.99798493385316L700,321.998007241506L689.4117647058824,321.99802954915884C684.1176470588236,321.99802954915884 684.1176470588236,321.81985913435756 678.8235294117648,321.81985913435756Z" style="stroke: rgb(0, 255, 0); stroke-opacity: 0; fill: rgb(0, 255, 0); fill-opacity: 0; stroke-width: 1; opacity: 1;"/><path class="sankey-link" d="M678.8235294117648,321.81985913435756C684.1176470588236,321.81985913435756 684.1176470588236,321.99802954915884 689.4117647058824,321.99802954915884L700,321.9980518568117L689.4117647058824,321.9980741644645C684.1176470588236,321.9980741644645 684.1176470588236,321.81990374966324 678.8235294117648,321.81990374966324Z" style="stroke: rgb(0, 255, 0); stroke-opacity: 0; fill: rgb(0, 255, 0); fill-opacity: 0; stroke-width: 1; opacity: 1;"/><path class="sankey-link" d="M678.8235294117648,321.81990374966324C684.1176470588236,321.81990374966324 684.1176470588236,321.9980741644645 689.4117647058824,321.9980741644645L700,321.99809647211737L689.4117647058824,321.9981187797702C684.1176470588236,321.9981187797702 684.1176470588236,321.8199483649689 678.8235294117648,321.8199483649689Z" style="stroke: rgb(0, 255, 0); stroke-opacity: 0; fill: rgb(0, 255, 0); fill-opacity: 0; stroke-width: 1; opacity: 1;"/><path class="sankey-link" d="M678.8235294117648,321.8199483649689C684.1176470588236,321.8199483649689 684.1176470588236,321.9981187797702 689.4117647058824,321.9981187797702L700,321.99814108742305L689.4117647058824,321.9981633950759C684.1176470588236,321.9981633950759 684.1176470588236,321.8199929802746 678.8235294117648,321.8199929802746Z" style="stroke: rgb(0, 255, 0); stroke-opacity: 0; fill: rgb(0, 255, 0); fill-opacity: 0; stroke-width: 1; opacity: 1;"/><path class="sankey-link" d="M678.8235294117648,321.8199929802746C684.1176470588236,321.8199929802746 684.1176470588236,321.9981633950759 689.4117647058824,321.9981633950759L700,321.99818570272873L689.4117647058824,321.9982080103816C684.1176470588236,321.9982080103816 684.1176470588236,321.8200375955803 678.8235294117648,321.8200375955803Z" style="stroke: rgb(0, 255, 0); stroke-opacity: 0; fill: rgb(0, 255, 0); fill-opacity: 0; stroke-width: 1; opacity: 1;"/><path class="sankey-link" d="M678.8235294117648,321.8200375955803C684.1176470588236,321.8200375955803 684.1176470588236,321.9982080103816 689.4117647058824,321.9982080103816L700,321.9982303180344L689.4117647058824,321.99825262568726C684.1176470588236,321.99825262568726 684.1176470588236,321.82008221088597 678.8235294117648,321.82008221088597Z" style="stroke: rgb(0, 255, 0); stroke-opacity: 0; fill: rgb(0, 255, 0); fill-opacity: 0; stroke-width: 1; opacity: 1;"/><path class="sankey-link" d="M678.8235294117648,321.82008221088597C684.1176470588236,321.82008221088597 684.1176470588236,321.99825262568726 689.4117647058824,321.99825262568726L700,321.9982749333401L689.4117647058824,321.99829724099294C684.1176470588236,321.99829724099294 684.1176470588236,321.82012682619165 678.8235294117648,321.82012682619165Z" style="stroke: rgb(0, 255, 0); stroke-opacity: 0; fill: rgb(0, 255, 0); fill-opacity: 0; stroke-width: 1; opacity: 1;"/><path class="sankey-link" d="M678.8235294117648,321.82012682619165C684.1176470588236,321.82012682619165 684.1176470588236,321.99829724099294 689.4117647058824,321.99829724099294L700,321.9983195486458L689.4117647058824,321.9983418562986C684.1176470588236,321.9983418562986 684.1176470588236,321.82017144149734 678.8235294117648,321.82017144149734Z" style="stroke: rgb(0, 255, 0); stroke-opacity: 0; fill: rgb(0, 255, 0); fill-opacity: 0; stroke-width: 1; opacity: 1;"/><path class="sankey-link" d="M678.8235294117648,321.82017144149734C684.1176470588236,321.82017144149734 684.1176470588236,321.9983418562986 689.4117647058824,321.9983418562986L700,321.99836416395146L689.4117647058824,321.9983864716043C684.1176470588236,321.9983864716043 684.1176470588236,321.820216056803 678.8235294117648,321.820216056803Z" style="stroke: rgb(0, 255, 0); stroke-opacity: 0; fill: rgb(0, 255, 0); fill-opacity: 0; stroke-width: 1; opacity: 1;"/><path class="sankey-link" d="M678.8235294117648,321.820216056803C684.1176470588236,321.820216056803 684.1176470588236,321.9983864716043 689.4117647058824,321.9983864716043L700,321.99840877925715L689.4117647058824,321.99843108691C684.1176470588236,321.99843108691 684.1176470588236,321.8202606721087 678.8235294117648,321.8202606721087Z" style="stroke: rgb(0, 255, 0); stroke-opacity: 0; fill: rgb(0, 255, 0); fill-opacity: 0; stroke-width: 1; opacity: 1;"/><path class="sankey-link" d="M678.8235294117648,321.8202606721087C684.1176470588236,321.8202606721087 684.1176470588236,321.99843108691 689.4117647058824,321.99843108691L700,321.99845339456283L689.4117647058824,321.99847570221567C684.1176470588236,321.99847570221567 684.1176470588236,321.8203052874144 678.8235294117648,321.8203052874144Z" style="stroke: rgb(0, 255, 0); stroke-opacity: 0; fill: rgb(0, 255, 0); fill-opacity: 0; stroke-width: 1; opacity: 1;"/><path class="sankey-link" d="M678.8235294117648,321.8203052874144C684.1176470588236,321.8203052874144 684.1176470588236,321.99847570221567 689.4117647058824,321.99847570221567L700,321.9984980098685L689.4117647058824,321.99852031752135C684.1176470588236,321.99852031752135 684.1176470588236,321.82034990272007 678.8235294117648,321.82034990272007Z" style="stroke: rgb(0, 255, 0); stroke-opacity: 0; fill: rgb(0, 255, 0); fill-opacity: 0; stroke-width: 1; opacity: 1;"/><path class="sankey-link" d="M678.8235294117648,321.82034990272007C684.1176470588236,321.82034990272007 684.1176470588236,321.99852031752135 689.4117647058824,321.99852031752135L700,321.9985426251742L689.4117647058824,321.99856493282704C684.1176470588236,321.99856493282704 684.1176470588236,321.82039451802575 678.8235294117648,321.82039451802575Z" style="stroke: rgb(0, 255, 0); stroke-opacity: 0; fill: rgb(0, 255, 0); fill-opacity: 0; stroke-width: 1; opacity: 1;"/></g><g class="sankey-node-set" style="cursor: ns-resize;"><g class="sankey-node" transform="translate(205.882,377.300)" style="opacity: 1;"><rect class="node-rect" width="20" height="0.5" style="stroke-width: 0; stroke: rgb(68, 68, 68); stroke-opacity: 1; fill: rgb(0, 0, 0); fill-opacity: 0;"/><text class="node-label" data-notex="1" x="0" y="0" text-anchor="start" transform="translate(16.65,3)scale(-1,1)rotate(90)" style="cursor: default; font-family: 'Open Sans', verdana, arial, sans-serif; font-size: 19px; fill: rgb(42, 63, 95); fill-opacity: 1; text-shadow: rgb(255, 255, 255) 1px 1px 1px, rgb(255, 255, 255) -1px -1px 1px, rgb(255, 255, 255) 1px -1px 1px, rgb(255, 255, 255) -1px 1px 1px; white-space: pre;"></text></g><g class="sankey-node" transform="translate(288.235,368.094)" style="opacity: 1;"><rect class="node-rect" width="20" height="0.5" style="stroke-width: 0; stroke: rgb(68, 68, 68); stroke-opacity: 1; fill: rgb(0, 0, 0); fill-opacity: 0;"/><text class="node-label" data-notex="1" x="0" y="0" text-anchor="start" transform="translate(16.65,3)scale(-1,1)rotate(90)" style="cursor: default; font-family: 'Open Sans', verdana, arial, sans-serif; font-size: 19px; fill: rgb(42, 63, 95); fill-opacity: 1; text-shadow: rgb(255, 255, 255) 1px 1px 1px, rgb(255, 255, 255) -1px -1px 1px, rgb(255, 255, 255) 1px -1px 1px, rgb(255, 255, 255) -1px 1px 1px; white-space: pre;"></text></g><g class="sankey-node" transform="translate(617.647,370.870)" style="opacity: 1;"><rect class="node-rect" width="20" height="0.5" style="stroke-width: 0; stroke: rgb(68, 68, 68); stroke-opacity: 1; fill: rgb(0, 0, 0); fill-opacity: 0;"/><text class="node-label" data-notex="1" x="0" y="0" text-anchor="start" transform="translate(16.65,3)scale(-1,1)rotate(90)" style="cursor: default; font-family: 'Open Sans', verdana, arial, sans-serif; font-size: 19px; fill: rgb(42, 63, 95); fill-opacity: 1; text-shadow: rgb(255, 255, 255) 1px 1px 1px, rgb(255, 255, 255) -1px -1px 1px, rgb(255, 255, 255) 1px -1px 1px, rgb(255, 255, 255) -1px 1px 1px; white-space: pre;"></text></g><g class="sankey-node" transform="translate(123.529,386.022)" style="opacity: 1;"><rect class="node-rect" width="20" height="0.5" style="stroke-width: 0; stroke: rgb(68, 68, 68); stroke-opacity: 1; fill: rgb(0, 0, 0); fill-opacity: 0;"/><text class="node-label" data-notex="1" x="0" y="0" text-anchor="start" transform="translate(16.65,3)scale(-1,1)rotate(90)" style="cursor: default; font-family: 'Open Sans', verdana, arial, sans-serif; font-size: 19px; fill: rgb(42, 63, 95); fill-opacity: 1; text-shadow: rgb(255, 255, 255) 1px 1px 1px, rgb(255, 255, 255) -1px -1px 1px, rgb(255, 255, 255) 1px -1px 1px, rgb(255, 255, 255) -1px 1px 1px; white-space: pre;"></text></g><g class="sankey-node" transform="translate(700.000,232.767)" style="opacity: 1;"><rect class="node-rect" width="20" height="312.30771976326486" style="stroke-width: 0; stroke: rgb(68, 68, 68); stroke-opacity: 1; fill: rgb(222, 222, 0); fill-opacity: 1;"/><text class="node-label" data-notex="1" x="0" y="0" text-anchor="start" transform="translate(16.65,3)scale(-1,1)rotate(90)" style="cursor: default; font-family: 'Open Sans', verdana, arial, sans-serif; font-size: 19px; fill: rgb(42, 63, 95); fill-opacity: 1; text-shadow: rgb(255, 255, 255) 1px 1px 1px, rgb(255, 255, 255) -1px -1px 1px, rgb(255, 255, 255) 1px -1px 1px, rgb(255, 255, 255) -1px 1px 1px; white-space: pre;">Unembed</text></g><g class="sankey-node" transform="translate(41.176,390.441)" style="opacity: 1;"><rect class="node-rect" width="20" height="0.5" style="stroke-width: 0; stroke: rgb(68, 68, 68); stroke-opacity: 1; fill: rgb(0, 0, 0); fill-opacity: 0;"/><text class="node-label" data-notex="1" x="0" y="0" text-anchor="start" transform="translate(16.65,3)scale(-1,1)rotate(90)" style="cursor: default; font-family: 'Open Sans', verdana, arial, sans-serif; font-size: 19px; fill: rgb(42, 63, 95); fill-opacity: 1; text-shadow: rgb(255, 255, 255) 1px 1px 1px, rgb(255, 255, 255) -1px -1px 1px, rgb(255, 255, 255) 1px -1px 1px, rgb(255, 255, 255) -1px 1px 1px; white-space: pre;"></text></g><g class="sankey-node" transform="translate(247.059,372.764)" style="opacity: 1;"><rect class="node-rect" width="20" height="0.5" style="stroke-width: 0; stroke: rgb(68, 68, 68); stroke-opacity: 1; fill: rgb(0, 0, 0); fill-opacity: 0;"/><text class="node-label" data-notex="1" x="0" y="0" text-anchor="start" transform="translate(16.65,3)scale(-1,1)rotate(90)" style="cursor: default; font-family: 'Open Sans', verdana, arial, sans-serif; font-size: 19px; fill: rgb(42, 63, 95); fill-opacity: 1; text-shadow: rgb(255, 255, 255) 1px 1px 1px, rgb(255, 255, 255) -1px -1px 1px, rgb(255, 255, 255) 1px -1px 1px, rgb(255, 255, 255) -1px 1px 1px; white-space: pre;"></text></g><g class="sankey-node" transform="translate(576.471,363.566)" style="opacity: 1;"><rect class="node-rect" width="20" height="0.5" style="stroke-width: 0; stroke: rgb(68, 68, 68); stroke-opacity: 1; fill: rgb(0, 0, 0); fill-opacity: 0;"/><text class="node-label" data-notex="1" x="0" y="0" text-anchor="start" transform="translate(16.65,3)scale(-1,1)rotate(90)" style="cursor: default; font-family: 'Open Sans', verdana, arial, sans-serif; font-size: 19px; fill: rgb(42, 63, 95); fill-opacity: 1; text-shadow: rgb(255, 255, 255) 1px 1px 1px, rgb(255, 255, 255) -1px -1px 1px, rgb(255, 255, 255) 1px -1px 1px, rgb(255, 255, 255) -1px 1px 1px; white-space: pre;"></text></g><g class="sankey-node" transform="translate(535.294,332.308)" style="opacity: 1;"><rect class="node-rect" width="20" height="89.23074520714317" style="stroke-width: 0; stroke: rgb(68, 68, 68); stroke-opacity: 1; fill: rgb(222, 222, 0); fill-opacity: 1;"/><text class="node-label" data-notex="1" x="0" y="0" text-anchor="start" transform="translate(16.65,3)scale(-1,1)rotate(90)" style="cursor: default; font-family: 'Open Sans', verdana, arial, sans-serif; font-size: 19px; fill: rgb(42, 63, 95); fill-opacity: 1; text-shadow: rgb(255, 255, 255) 1px 1px 1px, rgb(255, 255, 255) -1px -1px 1px, rgb(255, 255, 255) 1px -1px 1px, rgb(255, 255, 255) -1px 1px 1px; white-space: pre;">A6.15</text></g><g class="sankey-node" transform="translate(535.294,-0.000)" style="opacity: 1;"><rect class="node-rect" width="20" height="312.30771976326537" style="stroke-width: 0; stroke: rgb(68, 68, 68); stroke-opacity: 1; fill: rgb(77, 175, 74); fill-opacity: 1;"/><text class="node-label" data-notex="1" x="0" y="0" text-anchor="start" transform="translate(16.65,3)scale(-1,1)rotate(90)" style="cursor: default; font-family: 'Open Sans', verdana, arial, sans-serif; font-size: 19px; fill: rgb(42, 63, 95); fill-opacity: 1; text-shadow: rgb(255, 255, 255) 1px 1px 1px, rgb(255, 255, 255) -1px -1px 1px, rgb(255, 255, 255) 1px -1px 1px, rgb(255, 255, 255) -1px 1px 1px; white-space: pre;">A6.5</text></g><g class="sankey-node" transform="translate(329.412,265.129)" style="opacity: 1;"><rect class="node-rect" width="20" height="223.0770191714276" style="stroke-width: 0; stroke: rgb(68, 68, 68); stroke-opacity: 1; fill: rgb(77, 175, 74); fill-opacity: 1;"/><text class="node-label" data-notex="1" x="0" y="0" text-anchor="start" transform="translate(16.65,3)scale(-1,1)rotate(90)" style="cursor: default; font-family: 'Open Sans', verdana, arial, sans-serif; font-size: 19px; fill: rgb(42, 63, 95); fill-opacity: 1; text-shadow: rgb(255, 255, 255) 1px 1px 1px, rgb(255, 255, 255) -1px -1px 1px, rgb(255, 255, 255) 1px -1px 1px, rgb(255, 255, 255) -1px 1px 1px; white-space: pre;">MLP 3</text></g><g class="sankey-node" transform="translate(411.765,331.917)" style="opacity: 1;"><rect class="node-rect" width="20" height="44.615439526530054" style="stroke-width: 0; stroke: rgb(68, 68, 68); stroke-opacity: 1; fill: rgb(152, 78, 163); fill-opacity: 1;"/><text class="node-label" data-notex="1" x="0" y="0" text-anchor="start" transform="translate(16.65,3)scale(-1,1)rotate(90)" style="cursor: default; font-family: 'Open Sans', verdana, arial, sans-serif; font-size: 19px; fill: rgb(42, 63, 95); fill-opacity: 1; text-shadow: rgb(255, 255, 255) 1px 1px 1px, rgb(255, 255, 255) -1px -1px 1px, rgb(255, 255, 255) 1px -1px 1px, rgb(255, 255, 255) -1px 1px 1px; white-space: pre;">MLP 4</text></g><g class="sankey-node" transform="translate(535.294,441.538)" style="opacity: 1;"><rect class="node-rect" width="20" height="89.23078982244874" style="stroke-width: 0; stroke: rgb(68, 68, 68); stroke-opacity: 1; fill: rgb(166, 86, 40); fill-opacity: 1;"/><text class="node-label" data-notex="1" x="0" y="0" text-anchor="start" transform="translate(16.65,3)scale(-1,1)rotate(90)" style="cursor: default; font-family: 'Open Sans', verdana, arial, sans-serif; font-size: 19px; fill: rgb(42, 63, 95); fill-opacity: 1; text-shadow: rgb(255, 255, 255) 1px 1px 1px, rgb(255, 255, 255) -1px -1px 1px, rgb(255, 255, 255) 1px -1px 1px, rgb(255, 255, 255) -1px 1px 1px; white-space: pre;">A6.8</text></g><g class="sankey-node" transform="translate(535.294,550.769)" style="opacity: 1;"><rect class="node-rect" width="20" height="89.23074520714295" style="stroke-width: 0; stroke: rgb(68, 68, 68); stroke-opacity: 1; fill: rgb(55, 126, 184); fill-opacity: 1;"/><text class="node-label" data-notex="1" x="0" y="0" text-anchor="start" transform="translate(16.65,3)scale(-1,1)rotate(90)" style="cursor: default; font-family: 'Open Sans', verdana, arial, sans-serif; font-size: 19px; fill: rgb(42, 63, 95); fill-opacity: 1; text-shadow: rgb(255, 255, 255) 1px 1px 1px, rgb(255, 255, 255) -1px -1px 1px, rgb(255, 255, 255) 1px -1px 1px, rgb(255, 255, 255) -1px 1px 1px; white-space: pre;">A6.3</text></g><g class="sankey-node" transform="translate(370.588,309.568)" style="opacity: 1;"><rect class="node-rect" width="20" height="133.8461847336731" style="stroke-width: 0; stroke: rgb(68, 68, 68); stroke-opacity: 1; fill: rgb(228, 26, 28); fill-opacity: 1;"/><text class="node-label" data-notex="1" x="0" y="0" text-anchor="start" transform="translate(16.65,3)scale(-1,1)rotate(90)" style="cursor: default; font-family: 'Open Sans', verdana, arial, sans-serif; font-size: 19px; fill: rgb(42, 63, 95); fill-opacity: 1; text-shadow: rgb(255, 255, 255) 1px 1px 1px, rgb(255, 255, 255) -1px -1px 1px, rgb(255, 255, 255) 1px -1px 1px, rgb(255, 255, 255) -1px 1px 1px; white-space: pre;">A4.11</text></g><g class="sankey-node" transform="translate(658.824,277.205)" style="opacity: 1;"><rect class="node-rect" width="20" height="223.07684071020492" style="stroke-width: 0; stroke: rgb(68, 68, 68); stroke-opacity: 1; fill: rgb(255, 127, 0); fill-opacity: 1;"/><text class="node-label" data-notex="1" x="0" y="0" text-anchor="start" transform="translate(16.65,3)scale(-1,1)rotate(90)" style="cursor: default; font-family: 'Open Sans', verdana, arial, sans-serif; font-size: 19px; fill: rgb(42, 63, 95); fill-opacity: 1; text-shadow: rgb(255, 255, 255) 1px 1px 1px, rgb(255, 255, 255) -1px -1px 1px, rgb(255, 255, 255) 1px -1px 1px, rgb(255, 255, 255) -1px 1px 1px; white-space: pre;">MLP 7</text></g><g class="sankey-node" transform="translate(494.118,314.583)" style="opacity: 1;"><rect class="node-rect" width="20" height="89.23163751325683" style="stroke-width: 0; stroke: rgb(68, 68, 68); stroke-opacity: 1; fill: rgb(55, 126, 184); fill-opacity: 1;"/><text class="node-label" data-notex="1" x="0" y="0" text-anchor="start" transform="translate(16.65,3)scale(-1,1)rotate(90)" style="cursor: default; font-family: 'Open Sans', verdana, arial, sans-serif; font-size: 19px; fill: rgb(42, 63, 95); fill-opacity: 1; text-shadow: rgb(255, 255, 255) 1px 1px 1px, rgb(255, 255, 255) -1px -1px 1px, rgb(255, 255, 255) 1px -1px 1px, rgb(255, 255, 255) -1px 1px 1px; white-space: pre;">MLP 5</text></g><g class="sankey-node" transform="translate(452.941,367.686)" style="opacity: 1;"><rect class="node-rect" width="20" height="44.6155733724471" style="stroke-width: 0; stroke: rgb(68, 68, 68); stroke-opacity: 1; fill: rgb(255, 127, 0); fill-opacity: 1;"/><text class="node-label" data-notex="1" x="0" y="0" text-anchor="start" transform="translate(16.65,3)scale(-1,1)rotate(90)" style="cursor: default; font-family: 'Open Sans', verdana, arial, sans-serif; font-size: 19px; fill: rgb(42, 63, 95); fill-opacity: 1; text-shadow: rgb(255, 255, 255) 1px 1px 1px, rgb(255, 255, 255) -1px -1px 1px, rgb(255, 255, 255) 1px -1px 1px, rgb(255, 255, 255) -1px 1px 1px; white-space: pre;">A5.12</text></g><g class="sankey-node" transform="translate(164.706,381.715)" style="opacity: 1;"><rect class="node-rect" width="20" height="0.5" style="stroke-width: 0; stroke: rgb(68, 68, 68); stroke-opacity: 1; fill: rgb(0, 0, 0); fill-opacity: 0;"/><text class="node-label" data-notex="1" x="0" y="0" text-anchor="start" transform="translate(16.65,3)scale(-1,1)rotate(90)" style="cursor: default; font-family: 'Open Sans', verdana, arial, sans-serif; font-size: 19px; fill: rgb(42, 63, 95); fill-opacity: 1; text-shadow: rgb(255, 255, 255) 1px 1px 1px, rgb(255, 255, 255) -1px -1px 1px, rgb(255, 255, 255) 1px -1px 1px, rgb(255, 255, 255) -1px 1px 1px; white-space: pre;"></text></g><g class="sankey-node" transform="translate(0.000,368.133)" style="opacity: 1;"><rect class="node-rect" width="20" height="44.61539491122437" style="stroke-width: 0; stroke: rgb(68, 68, 68); stroke-opacity: 1; fill: rgb(166, 86, 40); fill-opacity: 1;"/><text class="node-label" data-notex="1" x="0" y="0" text-anchor="start" transform="translate(16.65,3)scale(-1,1)rotate(90)" style="cursor: default; font-family: 'Open Sans', verdana, arial, sans-serif; font-size: 19px; fill: rgb(42, 63, 95); fill-opacity: 1; text-shadow: rgb(255, 255, 255) 1px 1px 1px, rgb(255, 255, 255) -1px -1px 1px, rgb(255, 255, 255) 1px -1px 1px, rgb(255, 255, 255) -1px 1px 1px; white-space: pre;">Embed</text></g><g class="sankey-node" transform="translate(82.353,211.898)" style="opacity: 1;"><rect class="node-rect" width="20" height="356.92289159796155" style="stroke-width: 0; stroke: rgb(68, 68, 68); stroke-opacity: 1; fill: rgb(55, 126, 184); fill-opacity: 1;"/><text class="node-label" data-notex="1" x="0" y="0" text-anchor="start" transform="translate(16.65,3)scale(-1,1)rotate(90)" style="cursor: default; font-family: 'Open Sans', verdana, arial, sans-serif; font-size: 19px; fill: rgb(42, 63, 95); fill-opacity: 1; text-shadow: rgb(255, 255, 255) 1px 1px 1px, rgb(255, 255, 255) -1px -1px 1px, rgb(255, 255, 255) 1px -1px 1px, rgb(255, 255, 255) -1px 1px 1px; white-space: pre;">MLP 0</text></g></g></g><defs id="topdefs-7a7946"><g class="clips"/></defs><g class="layer-above"><g class="imagelayer"/><g class="shapelayer"/></g><g class="infolayer"><g class="g-gtitle"/><g class="first-render"/></g></svg>