<svg class="main-svg" xmlns="http://www.w3.org/2000/svg" xmlns:xlink="http://www.w3.org/1999/xlink" width="800" height="900" style="" viewBox="0 0 800 900"><rect x="0" y="0" width="800" height="900" style="fill: rgb(255, 255, 255); fill-opacity: 1;"/><defs id="defs-e6aa31"><g class="clips"/><g class="gradients"/><g class="patterns"/></defs><g class="bglayer"/><g class="layer-below"><g class="imagelayer"/><g class="shapelayer"/></g><g class="cartesianlayer"/><g class="polarlayer"/><g class="smithlayer"/><g class="ternarylayer"/><g class="geolayer"/><g class="funnelarealayer"/><g class="pielayer"/><g class="iciclelayer"/><g class="treemaplayer"/><g class="sunburstlayer"/><g class="glimages"/><g class="sankey" transform="translate(80,100)matrix(0 1 1 0 0 0)" style="box-sizing: content-box; position: absolute; left: 0px; shape-rendering: geometricprecision; pointer-events: none;"><g class="sankey-links" style="fill: none;"><path class="sankey-link" d="M102.3529411764706,304.0099935654737C244.5588235294118,304.0099935654737 244.5588235294118,270.6316775289259 386.764705882353,270.6316775289259L411.764705882353,294.79829787623686L386.764705882353,318.96491822354784C244.5588235294118,318.96491822354784 244.5588235294118,352.34323426009564 102.3529411764706,352.34323426009564Z" style="stroke: rgb(68, 68, 68); stroke-opacity: 1; fill: rgb(0, 0, 255); fill-opacity: 0.3; stroke-width: 0; opacity: 1;"/><path class="sankey-link" d="M390.5882352941177,287.51578645422586C532.7941176470588,287.51578645422586 532.7941176470588,267.95807587847116 675,267.95807587847116L700,292.12469622578215L675,316.2913165730931C532.7941176470588,316.2913165730931 532.7941176470588,335.8490271488478 390.5882352941177,335.8490271488478Z" style="stroke: rgb(68, 68, 68); stroke-opacity: 1; fill: rgb(0, 0, 255); fill-opacity: 0.3; stroke-width: 0; opacity: 1;"/><path class="sankey-link" d="M555.2941176470589,48.33324069462179C594.5588235294118,48.33324069462179 594.5588235294118,233.7186040477406 633.8235294117648,233.7186040477406L658.8235294117648,257.8852243950516L633.8235294117648,282.05184474236256C594.5588235294118,282.05184474236256 594.5588235294118,96.66648138924378 555.2941176470589,96.66648138924378Z" style="stroke: rgb(68, 68, 68); stroke-opacity: 1; fill: rgb(0, 0, 255); fill-opacity: 0.3; stroke-width: 0; opacity: 1;"/><path class="sankey-link" d="M349.4117647058824,171.36072437677194C429.8529411764706,171.36072437677194 429.8529411764706,48.33324069462179 510.2941176470589,48.33324069462179L535.2941176470589,72.49986104193279L510.2941176470589,96.66648138924378C429.8529411764706,96.66648138924378 429.8529411764706,219.6939650713939 349.4117647058824,219.6939650713939Z" style="stroke: rgb(68, 68, 68); stroke-opacity: 1; fill: rgb(0, 0, 255); fill-opacity: 0.3; stroke-width: 0; opacity: 1;"/><path class="sankey-link" d="M349.4117647058824,316.36107479276654C409.2647058823529,316.36107479276654 409.2647058823529,288.15379942566744 469.11764705882354,288.15379942566744L494.11764705882354,312.3204197729784L469.11764705882354,336.4870401202894C409.2647058823529,336.4870401202894 409.2647058823529,364.6943154873885 349.4117647058824,364.6943154873885Z" style="stroke: rgb(68, 68, 68); stroke-opacity: 1; fill: rgb(0, 0, 255); fill-opacity: 0.3; stroke-width: 0; opacity: 1;"/><path class="sankey-link" d="M555.2941176470589,474.99998791668986C615.1470588235295,474.99998791668986 615.1470588235295,412.95779796233705 675,412.95779796233705L700,437.12441830964804L675,461.291038656959C615.1470588235295,461.291038656959 615.1470588235295,523.3332286113118 555.2941176470589,523.3332286113118Z" style="stroke: rgb(68, 68, 68); stroke-opacity: 1; fill: rgb(0, 0, 255); fill-opacity: 0.3; stroke-width: 0; opacity: 1;"/><path class="sankey-link" d="M102.3529411764706,207.34351217622975C223.97058823529414,207.34351217622975 223.97058823529414,239.1825457596039 345.5882352941177,239.1825457596039L370.5882352941177,263.3491661069149L345.5882352941177,287.51578645422586C223.97058823529414,287.51578645422586 223.97058823529414,255.67675287085171 102.3529411764706,255.67675287085171Z" style="stroke: rgb(68, 68, 68); stroke-opacity: 1; fill: rgb(0, 0, 255); fill-opacity: 0.3; stroke-width: 0; opacity: 1;"/><path class="sankey-link" d="M555.2941176470589,591.6666626388967C615.1470588235295,591.6666626388967 615.1470588235295,461.291038656959 675,461.291038656959L700,485.45765900427L675,509.624279351581C615.1470588235295,509.624279351581 615.1470588235295,639.9999033335187 555.2941176470589,639.9999033335187Z" style="stroke: rgb(68, 68, 68); stroke-opacity: 1; fill: rgb(0, 0, 255); fill-opacity: 0.3; stroke-width: 0; opacity: 1;"/><path class="sankey-link" d="M102.3529411764706,159.01027148160773C203.3823529411765,159.01027148160773 203.3823529411765,171.36072437677194 304.4117647058824,171.36072437677194L329.4117647058824,195.52734472408292L304.4117647058824,219.6939650713939C203.3823529411765,219.6939650713939 203.3823529411765,207.3435121762297 102.3529411764706,207.3435121762297Z" style="stroke: rgb(68, 68, 68); stroke-opacity: 1; fill: rgb(0, 0, 255); fill-opacity: 0.3; stroke-width: 0; opacity: 1;"/><path class="sankey-link" d="M678.8235294117648,233.7186040477406C684.1176470588236,233.7186040477406 684.1176470588236,219.62425518496116 689.4117647058824,219.62425518496116L700,243.79087553227214L689.4117647058824,267.9574958795831C684.1176470588236,267.9574958795831 684.1176470588236,282.05184474236256 678.8235294117648,282.05184474236256Z" style="stroke: rgb(68, 68, 68); stroke-opacity: 1; fill: rgb(0, 0, 255); fill-opacity: 0.3; stroke-width: 0; opacity: 1;"/><path class="sankey-link" d="M349.4117647058824,413.02755618201047C429.8529411764706,413.02755618201047 429.8529411764706,591.6666626388967 510.2941176470589,591.6666626388967L535.2941176470589,615.8332829862077L510.2941176470589,639.9999033335187C429.8529411764706,639.9999033335187 429.8529411764706,461.36079687663243 349.4117647058824,461.36079687663243Z" style="stroke: rgb(68, 68, 68); stroke-opacity: 1; fill: rgb(0, 0, 255); fill-opacity: 0.3; stroke-width: 0; opacity: 1;"/><path class="sankey-link" d="M184.7058823529412,287.1057496308705C244.55882352941177,287.1057496308705 244.55882352941177,219.6939650713939 304.4117647058824,219.6939650713939L329.4117647058824,243.8605854187049L304.4117647058824,268.02720576601587C244.55882352941177,268.02720576601587 244.55882352941177,335.43899032549245 184.7058823529412,335.43899032549245Z" style="stroke: rgb(68, 68, 68); stroke-opacity: 1; fill: rgb(0, 0, 255); fill-opacity: 0.3; stroke-width: 0; opacity: 1;"/><path class="sankey-link" d="M349.4117647058824,219.6939650713939C429.8529411764706,219.6939650713939 429.8529411764706,96.66648138924378 510.2941176470589,96.66648138924378L535.2941176470589,120.83310173655478L510.2941176470589,144.99972208386578C429.8529411764706,144.99972208386578 429.8529411764706,268.02720576601587 349.4117647058824,268.02720576601587Z" style="stroke: rgb(68, 68, 68); stroke-opacity: 1; fill: rgb(0, 0, 255); fill-opacity: 0.3; stroke-width: 0; opacity: 1;"/><path class="sankey-link" d="M349.4117647058824,268.02720576601587C354.7058823529412,268.02720576601587 354.7058823529412,287.51578645422586 360,287.51578645422586L370.5882352941177,311.68240680153684L360,335.8490271488478C354.7058823529412,335.8490271488478 354.7058823529412,316.36044646063783 349.4117647058824,316.36044646063783Z" style="stroke: rgb(68, 68, 68); stroke-opacity: 1; fill: rgb(0, 0, 255); fill-opacity: 0.3; stroke-width: 0; opacity: 1;"/><path class="sankey-link" d="M102.3529411764706,352.34323426009564C121.02941176470588,352.34323426009564 121.02941176470588,287.1057496308705 139.7058823529412,287.1057496308705L164.7058823529412,311.2723699781815L139.7058823529412,335.43899032549245C121.02941176470588,335.43899032549245 121.02941176470588,400.6764749547176 102.3529411764706,400.6764749547176Z" style="stroke: rgb(68, 68, 68); stroke-opacity: 1; fill: rgb(0, 0, 255); fill-opacity: 0.3; stroke-width: 0; opacity: 1;"/><path class="sankey-link" d="M555.2941176470589,-1.9895196601282805e-13C615.1470588235295,-1.9895196601282805e-13 615.1470588235295,171.2910144903392 675,171.2910144903392L700,195.45763483765018L675,219.62425518496116C615.1470588235295,219.62425518496116 615.1470588235295,48.33324069462179 555.2941176470589,48.33324069462179Z" style="stroke: rgb(68, 68, 68); stroke-opacity: 1; fill: rgb(0, 0, 255); fill-opacity: 0.3; stroke-width: 0; opacity: 1;"/><path class="sankey-link" d="M390.5882352941177,335.8490271488479C512.2058823529412,335.8490271488479 512.2058823529412,282.05184474236256 633.8235294117648,282.05184474236256L658.8235294117648,306.21846508967354L633.8235294117648,330.3850854369845C512.2058823529412,330.3850854369845 512.2058823529412,384.18226784346984 390.5882352941177,384.18226784346984Z" style="stroke: rgb(68, 68, 68); stroke-opacity: 1; fill: rgb(0, 0, 255); fill-opacity: 0.3; stroke-width: 0; opacity: 1;"/><path class="sankey-link" d="M514.1176470588235,336.4878617853808C519.4117647058824,336.4878617853808 519.4117647058824,523.3332286113118 524.7058823529412,523.3332286113118L535.2941176470589,547.4998489586228L524.7058823529412,571.6664693059338C519.4117647058824,571.6664693059338 519.4117647058824,384.82110248000276 514.1176470588235,384.82110248000276Z" style="stroke: rgb(68, 68, 68); stroke-opacity: 1; fill: rgb(0, 0, 255); fill-opacity: 0.3; stroke-width: 0; opacity: 1;"/><path class="sankey-link" d="M102.3529411764706,110.67703078698575C306.32352941176475,110.67703078698575 306.32352941176475,-1.9895196601282805e-13 510.2941176470589,-1.9895196601282805e-13L535.2941176470589,24.166620347310797L510.2941176470589,48.33324069462179C306.32352941176475,48.33324069462179 306.32352941176475,159.01027148160773 102.3529411764706,159.01027148160773Z" style="stroke: rgb(68, 68, 68); stroke-opacity: 1; fill: rgb(0, 0, 255); fill-opacity: 0.3; stroke-width: 0; opacity: 1;"/><path class="sankey-link" d="M102.3529411764706,449.01019898174627C306.32352941176475,449.01019898174627 306.32352941176475,358.3333615277237 510.2941176470589,358.3333615277237L535.2941176470589,382.4999818750347L510.2941176470589,406.66660222234566C306.32352941176475,406.66660222234566 306.32352941176475,497.34343967636823 102.3529411764706,497.34343967636823Z" style="stroke: rgb(68, 68, 68); stroke-opacity: 1; fill: rgb(0, 0, 255); fill-opacity: 0.3; stroke-width: 0; opacity: 1;"/><path class="sankey-link" d="M555.2941176470589,523.3332286113118C594.5588235294118,523.3332286113118 594.5588235294118,378.71861613105057 633.8235294117648,378.71861613105057L658.8235294117648,402.88523647836155L633.8235294117648,427.05185682567253C594.5588235294118,427.05185682567253 594.5588235294118,571.6664693059338 555.2941176470589,571.6664693059338Z" style="stroke: rgb(68, 68, 68); stroke-opacity: 1; fill: rgb(0, 0, 255); fill-opacity: 0.3; stroke-width: 0; opacity: 1;"/><path class="sankey-link" d="M20,279.7821542303438C38.6764705882353,279.7821542303438 38.6764705882353,110.67703078698575 57.352941176470594,110.67703078698575L82.3529411764706,134.84365113429675L57.352941176470594,159.01027148160773C38.6764705882353,159.01027148160773 38.6764705882353,328.11539492496576 20,328.11539492496576Z" style="stroke: rgb(68, 68, 68); stroke-opacity: 1; fill: rgb(0, 0, 255); fill-opacity: 0.3; stroke-width: 0; opacity: 1;"/><path class="sankey-link" d="M102.3529411764706,255.67675287085171C285.7352941176471,255.67675287085171 285.7352941176471,239.82055873104548 469.11764705882354,239.82055873104548L494.11764705882354,263.98717907835646L469.11764705882354,288.15379942566744C285.7352941176471,288.15379942566744 285.7352941176471,304.0099935654737 102.3529411764706,304.0099935654737Z" style="stroke: rgb(68, 68, 68); stroke-opacity: 1; fill: rgb(0, 0, 255); fill-opacity: 0.3; stroke-width: 0; opacity: 1;"/><path class="sankey-link" d="M555.2941176470589,358.3333615277237C615.1470588235295,358.3333615277237 615.1470588235295,364.6245572677151 675,364.6245572677151L700,388.7911776150261L675,412.95779796233705C615.1470588235295,412.95779796233705 615.1470588235295,406.66660222234566 555.2941176470589,406.66660222234566Z" style="stroke: rgb(68, 68, 68); stroke-opacity: 1; fill: rgb(0, 0, 255); fill-opacity: 0.3; stroke-width: 0; opacity: 1;"/><path class="sankey-link" d="M431.764705882353,270.6316775289259C471.02941176470597,270.6316775289259 471.02941176470597,290.00012083310116 510.2941176470589,290.00012083310116L535.2941176470589,314.16674118041215L510.2941176470589,338.3333615277231C471.02941176470597,338.3333615277231 471.02941176470597,318.96491822354784 431.764705882353,318.96491822354784Z" style="stroke: rgb(68, 68, 68); stroke-opacity: 1; fill: rgb(0, 0, 255); fill-opacity: 0.3; stroke-width: 0; opacity: 1;"/><path class="sankey-link" d="M514.1176470588235,239.82055873104548C519.4117647058824,239.82055873104548 519.4117647058824,193.3329627784878 524.7058823529412,193.3329627784878L535.2941176470589,217.49958312579878L524.7058823529412,241.66620347310976C519.4117647058824,241.66620347310976 519.4117647058824,288.15379942566744 514.1176470588235,288.15379942566744Z" style="stroke: rgb(68, 68, 68); stroke-opacity: 1; fill: rgb(0, 0, 255); fill-opacity: 0.3; stroke-width: 0; opacity: 1;"/><path class="sankey-link" d="M514.1176470588235,288.15379942566744C519.4117647058824,288.15379942566744 519.4117647058824,241.66620347310976 524.7058823529412,241.66620347310976L535.2941176470589,265.83282382042074L524.7058823529412,289.9994441677317C519.4117647058824,289.9994441677317 519.4117647058824,336.4870401202894 514.1176470588235,336.4870401202894Z" style="stroke: rgb(68, 68, 68); stroke-opacity: 1; fill: rgb(0, 0, 255); fill-opacity: 0.3; stroke-width: 0; opacity: 1;"/><path class="sankey-link" d="M555.2941176470589,406.66660222234566C594.5588235294118,406.66660222234566 594.5588235294118,330.3853754364286 633.8235294117648,330.3853754364286L658.8235294117648,354.5519957837396L633.8235294117648,378.71861613105057C594.5588235294118,378.71861613105057 594.5588235294118,454.9998429169676 555.2941176470589,454.9998429169676Z" style="stroke: rgb(68, 68, 68); stroke-opacity: 1; fill: rgb(0, 0, 255); fill-opacity: 0.3; stroke-width: 0; opacity: 1;"/><path class="sankey-link" d="M472.9411764705883,289.93497719248575C573.9705882352941,289.93497719248575 573.9705882352941,316.2913165730931 675,316.2913165730931L700,340.4579369204041L675,364.6245572677151C573.9705882352941,364.6245572677151 573.9705882352941,338.2682178871077 472.9411764705883,338.2682178871077Z" style="stroke: rgb(68, 68, 68); stroke-opacity: 1; fill: rgb(0, 0, 255); fill-opacity: 0.3; stroke-width: 0; opacity: 1;"/><path class="sankey-link" d="M102.3529411764706,400.6764749547176C265.14705882352945,400.6764749547176 265.14705882352945,289.93497719248575 427.9411764705883,289.93497719248575L452.9411764705883,314.1015975397967L427.9411764705883,338.2682178871077C265.14705882352945,338.2682178871077 265.14705882352945,449.00971564933957 102.3529411764706,449.00971564933957Z" style="stroke: rgb(68, 68, 68); stroke-opacity: 1; fill: rgb(0, 0, 255); fill-opacity: 0.3; stroke-width: 0; opacity: 1;"/><path class="sankey-link" d="M349.4117647058824,364.6943154873885C429.8529411764706,364.6943154873885 429.8529411764706,474.99998791668986 510.2941176470589,474.99998791668986L535.2941176470589,499.16660826400084L510.2941176470589,523.3332286113118C429.8529411764706,523.3332286113118 429.8529411764706,413.02755618201047 349.4117647058824,413.02755618201047Z" style="stroke: rgb(68, 68, 68); stroke-opacity: 1; fill: rgb(0, 0, 255); fill-opacity: 0.3; stroke-width: 0; opacity: 1;"/><path class="sankey-link" d="M390.5882352941177,239.1825457596039C450.4411764705883,239.1825457596039 450.4411764705883,144.99972208386578 510.2941176470589,144.99972208386578L535.2941176470589,169.16634243117676L510.2941176470589,193.33296277848774C450.4411764705883,193.33296277848774 450.4411764705883,287.51578645422586 390.5882352941177,287.51578645422586Z" style="stroke: rgb(68, 68, 68); stroke-opacity: 1; fill: rgb(0, 0, 255); fill-opacity: 0.3; stroke-width: 0; opacity: 1;"/><path class="sankey-link" d="M20,328.1153949249658C25.294117647058826,328.1153949249658 25.294117647058826,303.9485813327572 30.58823529411765,303.9485813327572L41.1764705882353,303.94860549937755L30.58823529411765,303.9486296659979C25.294117647058826,303.9486296659979 25.294117647058826,328.1154432582065 20,328.1154432582065Z" style="stroke: rgb(0, 255, 0); stroke-opacity: 0; fill: rgb(0, 255, 0); fill-opacity: 0; stroke-width: 1; opacity: 1;"/><path class="sankey-link" d="M20,328.1154432582065C25.294117647058826,328.1154432582065 25.294117647058826,303.9486296659979 30.58823529411765,303.9486296659979L41.1764705882353,303.9486538326182L30.58823529411765,303.94867799923856C25.294117647058826,303.94867799923856 25.294117647058826,328.11549159144715 20,328.11549159144715Z" style="stroke: rgb(0, 255, 0); stroke-opacity: 0; fill: rgb(0, 255, 0); fill-opacity: 0; stroke-width: 1; opacity: 1;"/><path class="sankey-link" d="M61.1764705882353,303.9485813327572C66.47058823529412,303.9485813327572 66.47058823529412,159.01027148160773 71.76470588235294,159.01027148160773L82.3529411764706,159.01029564822807L71.76470588235294,159.0103198148484C66.47058823529412,159.0103198148484 66.47058823529412,303.9486296659979 61.1764705882353,303.9486296659979Z" style="stroke: rgb(0, 255, 0); stroke-opacity: 0; fill: rgb(0, 255, 0); fill-opacity: 0; stroke-width: 1; opacity: 1;"/><path class="sankey-link" d="M61.1764705882353,303.9486296659979C66.47058823529412,303.9486296659979 66.47058823529412,159.01031981484843 71.76470588235294,159.01031981484843L82.3529411764706,159.01034398146876L71.76470588235294,159.0103681480891C66.47058823529412,159.0103681480891 66.47058823529412,303.94867799923856 61.1764705882353,303.94867799923856Z" style="stroke: rgb(0, 255, 0); stroke-opacity: 0; fill: rgb(0, 255, 0); fill-opacity: 0; stroke-width: 1; opacity: 1;"/><path class="sankey-link" d="M61.1764705882353,303.94867799923856C66.47058823529412,303.94867799923856 66.47058823529412,159.01036814808913 71.76470588235294,159.01036814808913L82.3529411764706,159.01039231470946L71.76470588235294,159.0104164813298C66.47058823529412,159.0104164813298 66.47058823529412,303.9487263324792 61.1764705882353,303.9487263324792Z" style="stroke: rgb(0, 255, 0); stroke-opacity: 0; fill: rgb(0, 255, 0); fill-opacity: 0; stroke-width: 1; opacity: 1;"/><path class="sankey-link" d="M61.1764705882353,303.9487263324792C66.47058823529412,303.9487263324792 66.47058823529412,159.01041648132983 71.76470588235294,159.01041648132983L82.3529411764706,159.01044064795016L71.76470588235294,159.0104648145705C66.47058823529412,159.0104648145705 66.47058823529412,303.9487746657199 61.1764705882353,303.9487746657199Z" style="stroke: rgb(0, 255, 0); stroke-opacity: 0; fill: rgb(0, 255, 0); fill-opacity: 0; stroke-width: 1; opacity: 1;"/><path class="sankey-link" d="M61.1764705882353,303.9487746657199C66.47058823529412,303.9487746657199 66.47058823529412,159.01046481457053 71.76470588235294,159.01046481457053L82.3529411764706,159.01048898119086L71.76470588235294,159.0105131478112C66.47058823529412,159.0105131478112 66.47058823529412,303.94882299896057 61.1764705882353,303.94882299896057Z" style="stroke: rgb(0, 255, 0); stroke-opacity: 0; fill: rgb(0, 255, 0); fill-opacity: 0; stroke-width: 1; opacity: 1;"/><path class="sankey-link" d="M61.1764705882353,303.94882299896057C66.47058823529412,303.94882299896057 66.47058823529412,159.01051314781122 71.76470588235294,159.01051314781122L82.3529411764706,159.01053731443156L71.76470588235294,159.0105614810519C66.47058823529412,159.0105614810519 66.47058823529412,303.94887133220124 61.1764705882353,303.94887133220124Z" style="stroke: rgb(0, 255, 0); stroke-opacity: 0; fill: rgb(0, 255, 0); fill-opacity: 0; stroke-width: 1; opacity: 1;"/><path class="sankey-link" d="M61.1764705882353,303.94887133220124C66.47058823529412,303.94887133220124 66.47058823529412,159.01056148105192 71.76470588235294,159.01056148105192L82.3529411764706,159.01058564767226L71.76470588235294,159.0106098142926C66.47058823529412,159.0106098142926 66.47058823529412,303.9489196654419 61.1764705882353,303.9489196654419Z" style="stroke: rgb(0, 255, 0); stroke-opacity: 0; fill: rgb(0, 255, 0); fill-opacity: 0; stroke-width: 1; opacity: 1;"/><path class="sankey-link" d="M61.1764705882353,303.9489196654419C66.47058823529412,303.9489196654419 66.47058823529412,159.01060981429262 71.76470588235294,159.01060981429262L82.3529411764706,159.01063398091296L71.76470588235294,159.0106581475333C66.47058823529412,159.0106581475333 66.47058823529412,303.9489679986826 61.1764705882353,303.9489679986826Z" style="stroke: rgb(0, 255, 0); stroke-opacity: 0; fill: rgb(0, 255, 0); fill-opacity: 0; stroke-width: 1; opacity: 1;"/><path class="sankey-link" d="M61.1764705882353,303.9489679986826C66.47058823529412,303.9489679986826 66.47058823529412,159.01065814753332 71.76470588235294,159.01065814753332L82.3529411764706,159.01068231415366L71.76470588235294,159.010706480774C66.47058823529412,159.010706480774 66.47058823529412,303.94901633192325 61.1764705882353,303.94901633192325Z" style="stroke: rgb(0, 255, 0); stroke-opacity: 0; fill: rgb(0, 255, 0); fill-opacity: 0; stroke-width: 1; opacity: 1;"/><path class="sankey-link" d="M61.1764705882353,303.94901633192325C66.47058823529412,303.94901633192325 66.47058823529412,159.01070648077402 71.76470588235294,159.01070648077402L82.3529411764706,159.01073064739435L71.76470588235294,159.0107548140147C66.47058823529412,159.0107548140147 66.47058823529412,303.9490646651639 61.1764705882353,303.9490646651639Z" style="stroke: rgb(0, 255, 0); stroke-opacity: 0; fill: rgb(0, 255, 0); fill-opacity: 0; stroke-width: 1; opacity: 1;"/><path class="sankey-link" d="M102.3529411764706,449.00971564933957C107.64705882352942,449.00971564933957 107.64705882352942,309.1887757752079 112.94117647058823,309.1887757752079L123.52941176470588,309.1887999418282L112.94117647058823,309.18882410844856C107.64705882352942,309.18882410844856 107.64705882352942,449.00976398258024 102.3529411764706,449.00976398258024Z" style="stroke: rgb(0, 255, 0); stroke-opacity: 0; fill: rgb(0, 255, 0); fill-opacity: 0; stroke-width: 1; opacity: 1;"/><path class="sankey-link" d="M102.3529411764706,449.00976398258024C107.64705882352942,449.00976398258024 107.64705882352942,309.18882410844856 112.94117647058823,309.18882410844856L123.52941176470588,309.1888482750689L112.94117647058823,309.1888724416892C107.64705882352942,309.1888724416892 107.64705882352942,449.0098123158209 102.3529411764706,449.0098123158209Z" style="stroke: rgb(0, 255, 0); stroke-opacity: 0; fill: rgb(0, 255, 0); fill-opacity: 0; stroke-width: 1; opacity: 1;"/><path class="sankey-link" d="M102.3529411764706,449.0098123158209C107.64705882352942,449.0098123158209 107.64705882352942,309.1888724416892 112.94117647058823,309.1888724416892L123.52941176470588,309.18889660830956L112.94117647058823,309.1889207749299C107.64705882352942,309.1889207749299 107.64705882352942,449.0098606490616 102.3529411764706,449.0098606490616Z" style="stroke: rgb(0, 255, 0); stroke-opacity: 0; fill: rgb(0, 255, 0); fill-opacity: 0; stroke-width: 1; opacity: 1;"/><path class="sankey-link" d="M102.3529411764706,449.0098606490616C107.64705882352942,449.0098606490616 107.64705882352942,309.1889207749299 112.94117647058823,309.1889207749299L123.52941176470588,309.18894494155023L112.94117647058823,309.18896910817057C107.64705882352942,309.18896910817057 107.64705882352942,449.00990898230225 102.3529411764706,449.00990898230225Z" style="stroke: rgb(0, 255, 0); stroke-opacity: 0; fill: rgb(0, 255, 0); fill-opacity: 0; stroke-width: 1; opacity: 1;"/><path class="sankey-link" d="M102.3529411764706,449.00990898230225C107.64705882352942,449.00990898230225 107.64705882352942,309.18896910817057 112.94117647058823,309.18896910817057L123.52941176470588,309.1889932747909L112.94117647058823,309.18901744141124C107.64705882352942,309.18901744141124 107.64705882352942,449.0099573155429 102.3529411764706,449.0099573155429Z" style="stroke: rgb(0, 255, 0); stroke-opacity: 0; fill: rgb(0, 255, 0); fill-opacity: 0; stroke-width: 1; opacity: 1;"/><path class="sankey-link" d="M102.3529411764706,449.0099573155429C107.64705882352942,449.0099573155429 107.64705882352942,309.18901744141124 112.94117647058823,309.18901744141124L123.52941176470588,309.1890416080316L112.94117647058823,309.1890657746519C107.64705882352942,309.1890657746519 107.64705882352942,449.0100056487836 102.3529411764706,449.0100056487836Z" style="stroke: rgb(0, 255, 0); stroke-opacity: 0; fill: rgb(0, 255, 0); fill-opacity: 0; stroke-width: 1; opacity: 1;"/><path class="sankey-link" d="M102.3529411764706,449.0100056487836C107.64705882352942,449.0100056487836 107.64705882352942,309.1890657746519 112.94117647058823,309.1890657746519L123.52941176470588,309.18908994127224L112.94117647058823,309.1891141078926C107.64705882352942,309.1891141078926 107.64705882352942,449.01005398202426 102.3529411764706,449.01005398202426Z" style="stroke: rgb(0, 255, 0); stroke-opacity: 0; fill: rgb(0, 255, 0); fill-opacity: 0; stroke-width: 1; opacity: 1;"/><path class="sankey-link" d="M102.3529411764706,449.01005398202426C107.64705882352942,449.01005398202426 107.64705882352942,309.1891141078926 112.94117647058823,309.1891141078926L123.52941176470588,309.1891382745129L112.94117647058823,309.18916244113325C107.64705882352942,309.18916244113325 107.64705882352942,449.01010231526493 102.3529411764706,449.01010231526493Z" style="stroke: rgb(0, 255, 0); stroke-opacity: 0; fill: rgb(0, 255, 0); fill-opacity: 0; stroke-width: 1; opacity: 1;"/><path class="sankey-link" d="M102.3529411764706,449.01010231526493C107.64705882352942,449.01010231526493 107.64705882352942,309.18916244113325 112.94117647058823,309.18916244113325L123.52941176470588,309.1891866077536L112.94117647058823,309.1892107743739C107.64705882352942,309.1892107743739 107.64705882352942,449.0101506485056 102.3529411764706,449.0101506485056Z" style="stroke: rgb(0, 255, 0); stroke-opacity: 0; fill: rgb(0, 255, 0); fill-opacity: 0; stroke-width: 1; opacity: 1;"/><path class="sankey-link" d="M102.3529411764706,449.0101506485056C107.64705882352942,449.0101506485056 107.64705882352942,309.1892107743739 112.94117647058823,309.1892107743739L123.52941176470588,309.18923494099425L112.94117647058823,309.1892591076146C107.64705882352942,309.1892591076146 107.64705882352942,449.01019898174627 102.3529411764706,449.01019898174627Z" style="stroke: rgb(0, 255, 0); stroke-opacity: 0; fill: rgb(0, 255, 0); fill-opacity: 0; stroke-width: 1; opacity: 1;"/><path class="sankey-link" d="M143.52941176470588,309.1887757752079C148.8235294117647,309.1887757752079 148.8235294117647,335.43899032549245 154.11764705882354,335.43899032549245L164.7058823529412,335.4390144921128L154.11764705882354,335.4390386587331C148.8235294117647,335.4390386587331 148.8235294117647,309.18882410844856 143.52941176470588,309.18882410844856Z" style="stroke: rgb(0, 255, 0); stroke-opacity: 0; fill: rgb(0, 255, 0); fill-opacity: 0; stroke-width: 1; opacity: 1;"/><path class="sankey-link" d="M143.52941176470588,309.18882410844856C148.8235294117647,309.18882410844856 148.8235294117647,335.4390386587331 154.11764705882354,335.4390386587331L164.7058823529412,335.43906282535346L154.11764705882354,335.4390869919738C148.8235294117647,335.4390869919738 148.8235294117647,309.1888724416892 143.52941176470588,309.1888724416892Z" style="stroke: rgb(0, 255, 0); stroke-opacity: 0; fill: rgb(0, 255, 0); fill-opacity: 0; stroke-width: 1; opacity: 1;"/><path class="sankey-link" d="M143.52941176470588,309.1888724416892C148.8235294117647,309.1888724416892 148.8235294117647,335.4390869919738 154.11764705882354,335.4390869919738L164.7058823529412,335.43911115859413L154.11764705882354,335.43913532521447C148.8235294117647,335.43913532521447 148.8235294117647,309.1889207749299 143.52941176470588,309.1889207749299Z" style="stroke: rgb(0, 255, 0); stroke-opacity: 0; fill: rgb(0, 255, 0); fill-opacity: 0; stroke-width: 1; opacity: 1;"/><path class="sankey-link" d="M184.7058823529412,335.43899032549245C190,335.43899032549245 190,314.40453355248917 195.29411764705884,314.40453355248917L205.8823529411765,314.4045577191095L195.29411764705884,314.40458188572984C190,314.40458188572984 190,335.4390386587331 184.7058823529412,335.4390386587331Z" style="stroke: rgb(0, 255, 0); stroke-opacity: 0; fill: rgb(0, 255, 0); fill-opacity: 0; stroke-width: 1; opacity: 1;"/><path class="sankey-link" d="M184.7058823529412,335.4390386587331C190,335.4390386587331 190,314.40458188572984 195.29411764705884,314.40458188572984L205.8823529411765,314.4046060523502L195.29411764705884,314.4046302189705C190,314.4046302189705 190,335.4390869919738 184.7058823529412,335.4390869919738Z" style="stroke: rgb(0, 255, 0); stroke-opacity: 0; fill: rgb(0, 255, 0); fill-opacity: 0; stroke-width: 1; opacity: 1;"/><path class="sankey-link" d="M184.7058823529412,335.4390869919738C190,335.4390869919738 190,314.4046302189705 195.29411764705884,314.4046302189705L205.8823529411765,314.40465438559085L195.29411764705884,314.4046785522112C190,314.4046785522112 190,335.43913532521447 184.7058823529412,335.43913532521447Z" style="stroke: rgb(0, 255, 0); stroke-opacity: 0; fill: rgb(0, 255, 0); fill-opacity: 0; stroke-width: 1; opacity: 1;"/><path class="sankey-link" d="M225.8823529411765,314.40453355248917C231.1764705882353,314.40453355248917 231.1764705882353,317.6307635840272 236.47058823529414,317.6307635840272L247.05882352941177,317.6307877506475L236.47058823529414,317.63081191726786C231.1764705882353,317.63081191726786 231.1764705882353,314.40458188572984 225.8823529411765,314.40458188572984Z" style="stroke: rgb(0, 255, 0); stroke-opacity: 0; fill: rgb(0, 255, 0); fill-opacity: 0; stroke-width: 1; opacity: 1;"/><path class="sankey-link" d="M225.8823529411765,314.40458188572984C231.1764705882353,314.40458188572984 231.1764705882353,317.63081191726786 236.47058823529414,317.63081191726786L247.05882352941177,317.6308360838882L236.47058823529414,317.63086025050853C231.1764705882353,317.63086025050853 231.1764705882353,314.4046302189705 225.8823529411765,314.4046302189705Z" style="stroke: rgb(0, 255, 0); stroke-opacity: 0; fill: rgb(0, 255, 0); fill-opacity: 0; stroke-width: 1; opacity: 1;"/><path class="sankey-link" d="M267.05882352941177,317.6307635840272C272.3529411764706,317.6307635840272 272.3529411764706,320.9565111951339 277.6470588235294,320.9565111951339L288.2352941176471,320.9565353617542L277.6470588235294,320.95655952837456C272.3529411764706,320.95655952837456 272.3529411764706,317.63081191726786 267.05882352941177,317.63081191726786Z" style="stroke: rgb(0, 255, 0); stroke-opacity: 0; fill: rgb(0, 255, 0); fill-opacity: 0; stroke-width: 1; opacity: 1;"/><path class="sankey-link" d="M267.05882352941177,317.63081191726786C272.3529411764706,317.63081191726786 272.3529411764706,320.95655952837456 277.6470588235294,320.95655952837456L288.2352941176471,320.9565836949949L277.6470588235294,320.9566078616152C272.3529411764706,320.9566078616152 272.3529411764706,317.63086025050853 267.05882352941177,317.63086025050853Z" style="stroke: rgb(0, 255, 0); stroke-opacity: 0; fill: rgb(0, 255, 0); fill-opacity: 0; stroke-width: 1; opacity: 1;"/><path class="sankey-link" d="M308.2352941176471,320.9565111951339C313.5294117647059,320.9565111951339 313.5294117647059,268.02720576601587 318.82352941176475,268.02720576601587L329.41176470588243,268.0272299326362L318.82352941176475,268.02725409925654C313.5294117647059,268.02725409925654 313.5294117647059,320.95655952837456 308.2352941176471,320.95655952837456Z" style="stroke: rgb(0, 255, 0); stroke-opacity: 0; fill: rgb(0, 255, 0); fill-opacity: 0; stroke-width: 1; opacity: 1;"/><path class="sankey-link" d="M308.2352941176471,320.95655952837456C313.5294117647059,320.95655952837456 313.5294117647059,268.02725409925654 318.82352941176475,268.02725409925654L329.41176470588243,268.0272782658769L318.82352941176475,268.0273024324972C313.5294117647059,268.0273024324972 313.5294117647059,320.9566078616152 308.2352941176471,320.9566078616152Z" style="stroke: rgb(0, 255, 0); stroke-opacity: 0; fill: rgb(0, 255, 0); fill-opacity: 0; stroke-width: 1; opacity: 1;"/><path class="sankey-link" d="M308.2352941176471,320.9566078616152C313.5294117647059,320.9566078616152 313.5294117647059,268.0273024324972 318.82352941176475,268.0273024324972L329.41176470588243,268.02732659911754L318.82352941176475,268.0273507657379C313.5294117647059,268.0273507657379 313.5294117647059,320.9566561948559 308.2352941176471,320.9566561948559Z" style="stroke: rgb(0, 255, 0); stroke-opacity: 0; fill: rgb(0, 255, 0); fill-opacity: 0; stroke-width: 1; opacity: 1;"/><path class="sankey-link" d="M308.2352941176471,320.9566561948559C313.5294117647059,320.9566561948559 313.5294117647059,268.0273507657379 318.82352941176475,268.0273507657379L329.41176470588243,268.0273749323582L318.82352941176475,268.02739909897855C313.5294117647059,268.02739909897855 313.5294117647059,320.95670452809657 308.2352941176471,320.95670452809657Z" style="stroke: rgb(0, 255, 0); stroke-opacity: 0; fill: rgb(0, 255, 0); fill-opacity: 0; stroke-width: 1; opacity: 1;"/><path class="sankey-link" d="M308.2352941176471,320.95670452809657C313.5294117647059,320.95670452809657 313.5294117647059,268.02739909897855 318.82352941176475,268.02739909897855L329.41176470588243,268.0274232655989L318.82352941176475,268.0274474322192C313.5294117647059,268.0274474322192 313.5294117647059,320.95675286133724 308.2352941176471,320.95675286133724Z" style="stroke: rgb(0, 255, 0); stroke-opacity: 0; fill: rgb(0, 255, 0); fill-opacity: 0; stroke-width: 1; opacity: 1;"/><path class="sankey-link" d="M308.2352941176471,320.95675286133724C313.5294117647059,320.95675286133724 313.5294117647059,268.0274474322192 318.82352941176475,268.0274474322192L329.41176470588243,268.02747159883955L318.82352941176475,268.0274957654599C313.5294117647059,268.0274957654599 313.5294117647059,320.9568011945779 308.2352941176471,320.9568011945779Z" style="stroke: rgb(0, 255, 0); stroke-opacity: 0; fill: rgb(0, 255, 0); fill-opacity: 0; stroke-width: 1; opacity: 1;"/><path class="sankey-link" d="M308.2352941176471,320.9568011945779C313.5294117647059,320.9568011945779 313.5294117647059,268.0274957654599 318.82352941176475,268.0274957654599L329.41176470588243,268.0275199320802L318.82352941176475,268.02754409870056C313.5294117647059,268.02754409870056 313.5294117647059,320.9568495278186 308.2352941176471,320.9568495278186Z" style="stroke: rgb(0, 255, 0); stroke-opacity: 0; fill: rgb(0, 255, 0); fill-opacity: 0; stroke-width: 1; opacity: 1;"/><path class="sankey-link" d="M308.2352941176471,320.9568495278186C313.5294117647059,320.9568495278186 313.5294117647059,268.02754409870056 318.82352941176475,268.02754409870056L329.41176470588243,268.0275682653209L318.82352941176475,268.02759243194123C313.5294117647059,268.02759243194123 313.5294117647059,320.95689786105925 308.2352941176471,320.95689786105925Z" style="stroke: rgb(0, 255, 0); stroke-opacity: 0; fill: rgb(0, 255, 0); fill-opacity: 0; stroke-width: 1; opacity: 1;"/><path class="sankey-link" d="M308.2352941176471,320.95689786105925C313.5294117647059,320.95689786105925 313.5294117647059,268.02759243194123 318.82352941176475,268.02759243194123L329.41176470588243,268.02761659856156L318.82352941176475,268.0276407651819C313.5294117647059,268.0276407651819 313.5294117647059,320.9569461942999 308.2352941176471,320.9569461942999Z" style="stroke: rgb(0, 255, 0); stroke-opacity: 0; fill: rgb(0, 255, 0); fill-opacity: 0; stroke-width: 1; opacity: 1;"/><path class="sankey-link" d="M349.4117647058824,316.36044646063783C354.7058823529412,316.36044646063783 354.7058823529412,335.8490271488479 360,335.8490271488479L370.5882352941177,335.8490513154682L360,335.84907548208855C354.7058823529412,335.84907548208855 354.7058823529412,316.3604947938785 349.4117647058824,316.3604947938785Z" style="stroke: rgb(0, 255, 0); stroke-opacity: 0; fill: rgb(0, 255, 0); fill-opacity: 0; stroke-width: 1; opacity: 1;"/><path class="sankey-link" d="M349.4117647058824,316.3604947938785C354.7058823529412,316.3604947938785 354.7058823529412,335.84907548208855 360,335.84907548208855L370.5882352941177,335.8490996487089L360,335.8491238153292C354.7058823529412,335.8491238153292 354.7058823529412,316.3605431271192 349.4117647058824,316.3605431271192Z" style="stroke: rgb(0, 255, 0); stroke-opacity: 0; fill: rgb(0, 255, 0); fill-opacity: 0; stroke-width: 1; opacity: 1;"/><path class="sankey-link" d="M349.4117647058824,316.3605431271192C354.7058823529412,316.3605431271192 354.7058823529412,335.8491238153292 360,335.8491238153292L370.5882352941177,335.84914798194956L360,335.8491721485699C354.7058823529412,335.8491721485699 354.7058823529412,316.36059146035984 349.4117647058824,316.36059146035984Z" style="stroke: rgb(0, 255, 0); stroke-opacity: 0; fill: rgb(0, 255, 0); fill-opacity: 0; stroke-width: 1; opacity: 1;"/><path class="sankey-link" d="M349.4117647058824,316.36059146035984C354.7058823529412,316.36059146035984 354.7058823529412,335.8491721485699 360,335.8491721485699L370.5882352941177,335.8491963151902L360,335.84922048181056C354.7058823529412,335.84922048181056 354.7058823529412,316.3606397936005 349.4117647058824,316.3606397936005Z" style="stroke: rgb(0, 255, 0); stroke-opacity: 0; fill: rgb(0, 255, 0); fill-opacity: 0; stroke-width: 1; opacity: 1;"/><path class="sankey-link" d="M349.4117647058824,316.3606397936005C354.7058823529412,316.3606397936005 354.7058823529412,335.84922048181056 360,335.84922048181056L370.5882352941177,335.8492446484309L360,335.84926881505123C354.7058823529412,335.84926881505123 354.7058823529412,316.3606881268412 349.4117647058824,316.3606881268412Z" style="stroke: rgb(0, 255, 0); stroke-opacity: 0; fill: rgb(0, 255, 0); fill-opacity: 0; stroke-width: 1; opacity: 1;"/><path class="sankey-link" d="M349.4117647058824,316.3606881268412C354.7058823529412,316.3606881268412 354.7058823529412,335.84926881505123 360,335.84926881505123L370.5882352941177,335.84929298167157L360,335.8493171482919C354.7058823529412,335.8493171482919 354.7058823529412,316.36073646008185 349.4117647058824,316.36073646008185Z" style="stroke: rgb(0, 255, 0); stroke-opacity: 0; fill: rgb(0, 255, 0); fill-opacity: 0; stroke-width: 1; opacity: 1;"/><path class="sankey-link" d="M349.4117647058824,316.36073646008185C354.7058823529412,316.36073646008185 354.7058823529412,335.8493171482919 360,335.8493171482919L370.5882352941177,335.84934131491224L360,335.8493654815326C354.7058823529412,335.8493654815326 354.7058823529412,316.3607847933225 349.4117647058824,316.3607847933225Z" style="stroke: rgb(0, 255, 0); stroke-opacity: 0; fill: rgb(0, 255, 0); fill-opacity: 0; stroke-width: 1; opacity: 1;"/><path class="sankey-link" d="M349.4117647058824,316.3607847933225C354.7058823529412,316.3607847933225 354.7058823529412,335.8493654815326 360,335.8493654815326L370.5882352941177,335.8493896481529L360,335.84941381477324C354.7058823529412,335.84941381477324 354.7058823529412,316.3608331265632 349.4117647058824,316.3608331265632Z" style="stroke: rgb(0, 255, 0); stroke-opacity: 0; fill: rgb(0, 255, 0); fill-opacity: 0; stroke-width: 1; opacity: 1;"/><path class="sankey-link" d="M349.4117647058824,316.3608331265632C354.7058823529412,316.3608331265632 354.7058823529412,335.84941381477324 360,335.84941381477324L370.5882352941177,335.8494379813936L360,335.8494621480139C354.7058823529412,335.8494621480139 354.7058823529412,316.36088145980386 349.4117647058824,316.36088145980386Z" style="stroke: rgb(0, 255, 0); stroke-opacity: 0; fill: rgb(0, 255, 0); fill-opacity: 0; stroke-width: 1; opacity: 1;"/><path class="sankey-link" d="M349.4117647058824,316.36088145980386C354.7058823529412,316.36088145980386 354.7058823529412,335.8494621480139 360,335.8494621480139L370.5882352941177,335.84948631463425L360,335.8495104812546C354.7058823529412,335.8495104812546 354.7058823529412,316.36092979304453 349.4117647058824,316.36092979304453Z" style="stroke: rgb(0, 255, 0); stroke-opacity: 0; fill: rgb(0, 255, 0); fill-opacity: 0; stroke-width: 1; opacity: 1;"/><path class="sankey-link" d="M349.4117647058824,316.36092979304453C354.7058823529412,316.36092979304453 354.7058823529412,335.8495104812546 360,335.8495104812546L370.5882352941177,335.8495346478749L360,335.84955881449525C354.7058823529412,335.84955881449525 354.7058823529412,316.3609781262852 349.4117647058824,316.3609781262852Z" style="stroke: rgb(0, 255, 0); stroke-opacity: 0; fill: rgb(0, 255, 0); fill-opacity: 0; stroke-width: 1; opacity: 1;"/><path class="sankey-link" d="M349.4117647058824,316.3609781262852C354.7058823529412,316.3609781262852 354.7058823529412,335.84955881449525 360,335.84955881449525L370.5882352941177,335.8495829811156L360,335.8496071477359C354.7058823529412,335.8496071477359 354.7058823529412,316.3610264595259 349.4117647058824,316.3610264595259Z" style="stroke: rgb(0, 255, 0); stroke-opacity: 0; fill: rgb(0, 255, 0); fill-opacity: 0; stroke-width: 1; opacity: 1;"/><path class="sankey-link" d="M349.4117647058824,316.3610264595259C354.7058823529412,316.3610264595259 354.7058823529412,335.8496071477359 360,335.8496071477359L370.5882352941177,335.84963131435626L360,335.8496554809766C354.7058823529412,335.8496554809766 354.7058823529412,316.36107479276654 349.4117647058824,316.36107479276654Z" style="stroke: rgb(0, 255, 0); stroke-opacity: 0; fill: rgb(0, 255, 0); fill-opacity: 0; stroke-width: 1; opacity: 1;"/><path class="sankey-link" d="M390.5882352941177,384.18226784346984C395.8823529411765,384.18226784346984 395.8823529411765,318.9649182235479 401.17647058823536,318.9649182235479L411.76470588235304,318.96494239016823L401.17647058823536,318.96496655678857C395.8823529411765,318.96496655678857 395.8823529411765,384.1823161767105 390.5882352941177,384.1823161767105Z" style="stroke: rgb(0, 255, 0); stroke-opacity: 0; fill: rgb(0, 255, 0); fill-opacity: 0; stroke-width: 1; opacity: 1;"/><path class="sankey-link" d="M390.5882352941177,384.1823161767105C395.8823529411765,384.1823161767105 395.8823529411765,318.96496655678857 401.17647058823536,318.96496655678857L411.76470588235304,318.9649907234089L401.17647058823536,318.96501489002924C395.8823529411765,318.96501489002924 395.8823529411765,384.1823645099512 390.5882352941177,384.1823645099512Z" style="stroke: rgb(0, 255, 0); stroke-opacity: 0; fill: rgb(0, 255, 0); fill-opacity: 0; stroke-width: 1; opacity: 1;"/><path class="sankey-link" d="M390.5882352941177,384.1823645099512C395.8823529411765,384.1823645099512 395.8823529411765,318.96501489002924 401.17647058823536,318.96501489002924L411.76470588235304,318.9650390566496L401.17647058823536,318.9650632232699C395.8823529411765,318.9650632232699 395.8823529411765,384.18241284319186 390.5882352941177,384.18241284319186Z" style="stroke: rgb(0, 255, 0); stroke-opacity: 0; fill: rgb(0, 255, 0); fill-opacity: 0; stroke-width: 1; opacity: 1;"/><path class="sankey-link" d="M390.5882352941177,384.18241284319186C395.8823529411765,384.18241284319186 395.8823529411765,318.9650632232699 401.17647058823536,318.9650632232699L411.76470588235304,318.96508738989024L401.17647058823536,318.9651115565106C395.8823529411765,318.9651115565106 395.8823529411765,384.1824611764325 390.5882352941177,384.1824611764325Z" style="stroke: rgb(0, 255, 0); stroke-opacity: 0; fill: rgb(0, 255, 0); fill-opacity: 0; stroke-width: 1; opacity: 1;"/><path class="sankey-link" d="M390.5882352941177,384.1824611764325C395.8823529411765,384.1824611764325 395.8823529411765,318.9651115565106 401.17647058823536,318.9651115565106L411.76470588235304,318.9651357231309L401.17647058823536,318.96515988975125C395.8823529411765,318.96515988975125 395.8823529411765,384.1825095096732 390.5882352941177,384.1825095096732Z" style="stroke: rgb(0, 255, 0); stroke-opacity: 0; fill: rgb(0, 255, 0); fill-opacity: 0; stroke-width: 1; opacity: 1;"/><path class="sankey-link" d="M390.5882352941177,384.1825095096732C395.8823529411765,384.1825095096732 395.8823529411765,318.96515988975125 401.17647058823536,318.96515988975125L411.76470588235304,318.9651840563716L401.17647058823536,318.9652082229919C395.8823529411765,318.9652082229919 395.8823529411765,384.18255784291387 390.5882352941177,384.18255784291387Z" style="stroke: rgb(0, 255, 0); stroke-opacity: 0; fill: rgb(0, 255, 0); fill-opacity: 0; stroke-width: 1; opacity: 1;"/><path class="sankey-link" d="M390.5882352941177,384.18255784291387C395.8823529411765,384.18255784291387 395.8823529411765,318.9652082229919 401.17647058823536,318.9652082229919L411.76470588235304,318.96523238961225L401.17647058823536,318.9652565562326C395.8823529411765,318.9652565562326 395.8823529411765,384.18260617615454 390.5882352941177,384.18260617615454Z" style="stroke: rgb(0, 255, 0); stroke-opacity: 0; fill: rgb(0, 255, 0); fill-opacity: 0; stroke-width: 1; opacity: 1;"/><path class="sankey-link" d="M431.764705882353,318.9649182235479C437.0588235294118,318.9649182235479 437.0588235294118,338.26821788710777 442.3529411764706,338.26821788710777L452.9411764705883,338.2682420537281L442.3529411764706,338.26826622034844C437.0588235294118,338.26826622034844 437.0588235294118,318.96496655678857 431.764705882353,318.96496655678857Z" style="stroke: rgb(0, 255, 0); stroke-opacity: 0; fill: rgb(0, 255, 0); fill-opacity: 0; stroke-width: 1; opacity: 1;"/><path class="sankey-link" d="M431.764705882353,318.96496655678857C437.0588235294118,318.96496655678857 437.0588235294118,338.26826622034844 442.3529411764706,338.26826622034844L452.9411764705883,338.2682903869688L442.3529411764706,338.2683145535891C437.0588235294118,338.2683145535891 437.0588235294118,318.96501489002924 431.764705882353,318.96501489002924Z" style="stroke: rgb(0, 255, 0); stroke-opacity: 0; fill: rgb(0, 255, 0); fill-opacity: 0; stroke-width: 1; opacity: 1;"/><path class="sankey-link" d="M431.764705882353,318.96501489002924C437.0588235294118,318.96501489002924 437.0588235294118,338.2683145535891 442.3529411764706,338.2683145535891L452.9411764705883,338.26833872020944L442.3529411764706,338.2683628868298C437.0588235294118,338.2683628868298 437.0588235294118,318.9650632232699 431.764705882353,318.9650632232699Z" style="stroke: rgb(0, 255, 0); stroke-opacity: 0; fill: rgb(0, 255, 0); fill-opacity: 0; stroke-width: 1; opacity: 1;"/><path class="sankey-link" d="M431.764705882353,318.9650632232699C437.0588235294118,318.9650632232699 437.0588235294118,338.2683628868298 442.3529411764706,338.2683628868298L452.9411764705883,338.2683870534501L442.3529411764706,338.26841122007045C437.0588235294118,338.26841122007045 437.0588235294118,318.9651115565106 431.764705882353,318.9651115565106Z" style="stroke: rgb(0, 255, 0); stroke-opacity: 0; fill: rgb(0, 255, 0); fill-opacity: 0; stroke-width: 1; opacity: 1;"/><path class="sankey-link" d="M472.9411764705883,338.26821788710777C478.2352941176471,338.26821788710777 478.2352941176471,336.4870401202894 483.5294117647059,336.4870401202894L494.11764705882354,336.48706428690974L483.5294117647059,336.4870884535301C478.2352941176471,336.4870884535301 478.2352941176471,338.26826622034844 472.9411764705883,338.26826622034844Z" style="stroke: rgb(0, 255, 0); stroke-opacity: 0; fill: rgb(0, 255, 0); fill-opacity: 0; stroke-width: 1; opacity: 1;"/><path class="sankey-link" d="M472.9411764705883,338.26826622034844C478.2352941176471,338.26826622034844 478.2352941176471,336.4870884535301 483.5294117647059,336.4870884535301L494.11764705882354,336.4871126201504L483.5294117647059,336.48713678677075C478.2352941176471,336.48713678677075 478.2352941176471,338.2683145535891 472.9411764705883,338.2683145535891Z" style="stroke: rgb(0, 255, 0); stroke-opacity: 0; fill: rgb(0, 255, 0); fill-opacity: 0; stroke-width: 1; opacity: 1;"/><path class="sankey-link" d="M472.9411764705883,338.2683145535891C478.2352941176471,338.2683145535891 478.2352941176471,336.48713678677075 483.5294117647059,336.48713678677075L494.11764705882354,336.4871609533911L483.5294117647059,336.4871851200114C478.2352941176471,336.4871851200114 478.2352941176471,338.2683628868298 472.9411764705883,338.2683628868298Z" style="stroke: rgb(0, 255, 0); stroke-opacity: 0; fill: rgb(0, 255, 0); fill-opacity: 0; stroke-width: 1; opacity: 1;"/><path class="sankey-link" d="M472.9411764705883,338.2683628868298C478.2352941176471,338.2683628868298 478.2352941176471,336.4871851200114 483.5294117647059,336.4871851200114L494.11764705882354,336.48720928663175L483.5294117647059,336.4872334532521C478.2352941176471,336.4872334532521 478.2352941176471,338.26841122007045 472.9411764705883,338.26841122007045Z" style="stroke: rgb(0, 255, 0); stroke-opacity: 0; fill: rgb(0, 255, 0); fill-opacity: 0; stroke-width: 1; opacity: 1;"/><path class="sankey-link" d="M472.9411764705883,338.26841122007045C478.2352941176471,338.26841122007045 478.2352941176471,336.4872334532521 483.5294117647059,336.4872334532521L494.11764705882354,336.4872576198724L483.5294117647059,336.48728178649276C478.2352941176471,336.48728178649276 478.2352941176471,338.2684595533111 472.9411764705883,338.2684595533111Z" style="stroke: rgb(0, 255, 0); stroke-opacity: 0; fill: rgb(0, 255, 0); fill-opacity: 0; stroke-width: 1; opacity: 1;"/><path class="sankey-link" d="M472.9411764705883,338.2684595533111C478.2352941176471,338.2684595533111 478.2352941176471,336.48728178649276 483.5294117647059,336.48728178649276L494.11764705882354,336.4873059531131L483.5294117647059,336.48733011973343C478.2352941176471,336.48733011973343 478.2352941176471,338.2685078865518 472.9411764705883,338.2685078865518Z" style="stroke: rgb(0, 255, 0); stroke-opacity: 0; fill: rgb(0, 255, 0); fill-opacity: 0; stroke-width: 1; opacity: 1;"/><path class="sankey-link" d="M472.9411764705883,338.2685078865518C478.2352941176471,338.2685078865518 478.2352941176471,336.48733011973343 483.5294117647059,336.48733011973343L494.11764705882354,336.48735428635376L483.5294117647059,336.4873784529741C478.2352941176471,336.4873784529741 478.2352941176471,338.26855621979246 472.9411764705883,338.26855621979246Z" style="stroke: rgb(0, 255, 0); stroke-opacity: 0; fill: rgb(0, 255, 0); fill-opacity: 0; stroke-width: 1; opacity: 1;"/><path class="sankey-link" d="M514.1176470588235,336.4870401202894C519.4117647058824,336.4870401202894 519.4117647058824,289.9994441677318 524.7058823529412,289.9994441677318L535.2941176470589,289.9994683343521L524.7058823529412,289.99949250097245C519.4117647058824,289.99949250097245 519.4117647058824,336.4870884535301 514.1176470588235,336.4870884535301Z" style="stroke: rgb(0, 255, 0); stroke-opacity: 0; fill: rgb(0, 255, 0); fill-opacity: 0; stroke-width: 1; opacity: 1;"/><path class="sankey-link" d="M514.1176470588235,336.4870884535301C519.4117647058824,336.4870884535301 519.4117647058824,289.99949250097245 524.7058823529412,289.99949250097245L535.2941176470589,289.9995166675928L524.7058823529412,289.9995408342131C519.4117647058824,289.9995408342131 519.4117647058824,336.48713678677075 514.1176470588235,336.48713678677075Z" style="stroke: rgb(0, 255, 0); stroke-opacity: 0; fill: rgb(0, 255, 0); fill-opacity: 0; stroke-width: 1; opacity: 1;"/><path class="sankey-link" d="M514.1176470588235,336.48713678677075C519.4117647058824,336.48713678677075 519.4117647058824,289.9995408342131 524.7058823529412,289.9995408342131L535.2941176470589,289.99956500083346L524.7058823529412,289.9995891674538C519.4117647058824,289.9995891674538 519.4117647058824,336.4871851200114 514.1176470588235,336.4871851200114Z" style="stroke: rgb(0, 255, 0); stroke-opacity: 0; fill: rgb(0, 255, 0); fill-opacity: 0; stroke-width: 1; opacity: 1;"/><path class="sankey-link" d="M514.1176470588235,336.4871851200114C519.4117647058824,336.4871851200114 519.4117647058824,289.9995891674538 524.7058823529412,289.9995891674538L535.2941176470589,289.9996133340741L524.7058823529412,289.99963750069446C519.4117647058824,289.99963750069446 519.4117647058824,336.4872334532521 514.1176470588235,336.4872334532521Z" style="stroke: rgb(0, 255, 0); stroke-opacity: 0; fill: rgb(0, 255, 0); fill-opacity: 0; stroke-width: 1; opacity: 1;"/><path class="sankey-link" d="M514.1176470588235,336.4872334532521C519.4117647058824,336.4872334532521 519.4117647058824,289.99963750069446 524.7058823529412,289.99963750069446L535.2941176470589,289.9996616673148L524.7058823529412,289.99968583393513C519.4117647058824,289.99968583393513 519.4117647058824,336.48728178649276 514.1176470588235,336.48728178649276Z" style="stroke: rgb(0, 255, 0); stroke-opacity: 0; fill: rgb(0, 255, 0); fill-opacity: 0; stroke-width: 1; opacity: 1;"/><path class="sankey-link" d="M514.1176470588235,336.48728178649276C519.4117647058824,336.48728178649276 519.4117647058824,289.99968583393513 524.7058823529412,289.99968583393513L535.2941176470589,289.99971000055547L524.7058823529412,289.9997341671758C519.4117647058824,289.9997341671758 519.4117647058824,336.48733011973343 514.1176470588235,336.48733011973343Z" style="stroke: rgb(0, 255, 0); stroke-opacity: 0; fill: rgb(0, 255, 0); fill-opacity: 0; stroke-width: 1; opacity: 1;"/><path class="sankey-link" d="M514.1176470588235,336.48733011973343C519.4117647058824,336.48733011973343 519.4117647058824,289.9997341671758 524.7058823529412,289.9997341671758L535.2941176470589,289.99975833379614L524.7058823529412,289.9997825004165C519.4117647058824,289.9997825004165 519.4117647058824,336.4873784529741 514.1176470588235,336.4873784529741Z" style="stroke: rgb(0, 255, 0); stroke-opacity: 0; fill: rgb(0, 255, 0); fill-opacity: 0; stroke-width: 1; opacity: 1;"/><path class="sankey-link" d="M514.1176470588235,384.82110248000276C519.4117647058824,384.82110248000276 519.4117647058824,571.6664693059338 524.7058823529412,571.6664693059338L535.2941176470589,571.6664934725542L524.7058823529412,571.6665176391746C519.4117647058824,571.6665176391746 519.4117647058824,384.82115081324343 514.1176470588235,384.82115081324343Z" style="stroke: rgb(0, 255, 0); stroke-opacity: 0; fill: rgb(0, 255, 0); fill-opacity: 0; stroke-width: 1; opacity: 1;"/><path class="sankey-link" d="M514.1176470588235,384.82129581296545C519.4117647058824,384.82129581296545 519.4117647058824,639.9999033335187 524.7058823529412,639.9999033335187L535.2941176470589,639.999927500139L524.7058823529412,639.9999516667594C519.4117647058824,639.9999516667594 519.4117647058824,384.8213441462061 514.1176470588235,384.8213441462061Z" style="stroke: rgb(0, 255, 0); stroke-opacity: 0; fill: rgb(0, 255, 0); fill-opacity: 0; stroke-width: 1; opacity: 1;"/><path class="sankey-link" d="M514.1176470588235,384.8213441462061C519.4117647058824,384.8213441462061 519.4117647058824,639.9999516667593 524.7058823529412,639.9999516667593L535.2941176470589,639.9999758333797L524.7058823529412,640.0000000000001C519.4117647058824,640.0000000000001 519.4117647058824,384.8213924794468 514.1176470588235,384.8213924794468Z" style="stroke: rgb(0, 255, 0); stroke-opacity: 0; fill: rgb(0, 255, 0); fill-opacity: 0; stroke-width: 1; opacity: 1;"/><path class="sankey-link" d="M514.1176470588235,336.4873784529741C519.4117647058824,336.4873784529741 519.4117647058824,289.9997825004165 524.7058823529412,289.9997825004165L535.2941176470589,289.9998066670368L524.7058823529412,289.99983083365714C519.4117647058824,289.99983083365714 519.4117647058824,336.48742678621477 514.1176470588235,336.48742678621477Z" style="stroke: rgb(0, 255, 0); stroke-opacity: 0; fill: rgb(0, 255, 0); fill-opacity: 0; stroke-width: 1; opacity: 1;"/><path class="sankey-link" d="M514.1176470588235,336.48742678621477C519.4117647058824,336.48742678621477 519.4117647058824,289.99983083365714 524.7058823529412,289.99983083365714L535.2941176470589,289.9998550002775L524.7058823529412,289.9998791668978C519.4117647058824,289.9998791668978 519.4117647058824,336.48747511945544 514.1176470588235,336.48747511945544Z" style="stroke: rgb(0, 255, 0); stroke-opacity: 0; fill: rgb(0, 255, 0); fill-opacity: 0; stroke-width: 1; opacity: 1;"/><path class="sankey-link" d="M514.1176470588235,384.82115081324343C519.4117647058824,384.82115081324343 519.4117647058824,571.6665176391745 524.7058823529412,571.6665176391745L535.2941176470589,571.6665418057949L524.7058823529412,571.6665659724152C519.4117647058824,571.6665659724152 519.4117647058824,384.8211991464841 514.1176470588235,384.8211991464841Z" style="stroke: rgb(0, 255, 0); stroke-opacity: 0; fill: rgb(0, 255, 0); fill-opacity: 0; stroke-width: 1; opacity: 1;"/><path class="sankey-link" d="M514.1176470588235,336.48747511945544C519.4117647058824,336.48747511945544 519.4117647058824,289.9998791668978 524.7058823529412,289.9998791668978L535.2941176470589,289.99990333351815L524.7058823529412,289.9999275001385C519.4117647058824,289.9999275001385 519.4117647058824,336.4875234526961 514.1176470588235,336.4875234526961Z" style="stroke: rgb(0, 255, 0); stroke-opacity: 0; fill: rgb(0, 255, 0); fill-opacity: 0; stroke-width: 1; opacity: 1;"/><path class="sankey-link" d="M514.1176470588235,336.4877167856588C519.4117647058824,336.4877167856588 519.4117647058824,406.66660222234566 524.7058823529412,406.66660222234566L535.2941176470589,406.666626388966L524.7058823529412,406.66665055558633C519.4117647058824,406.66665055558633 519.4117647058824,336.48776511889946 514.1176470588235,336.48776511889946Z" style="stroke: rgb(0, 255, 0); stroke-opacity: 0; fill: rgb(0, 255, 0); fill-opacity: 0; stroke-width: 1; opacity: 1;"/><path class="sankey-link" d="M514.1176470588235,384.8211991464841C519.4117647058824,384.8211991464841 519.4117647058824,571.6665659724151 524.7058823529412,571.6665659724151L535.2941176470589,571.6665901390355L524.7058823529412,571.6666143056559C519.4117647058824,571.6666143056559 519.4117647058824,384.8212474797248 514.1176470588235,384.8212474797248Z" style="stroke: rgb(0, 255, 0); stroke-opacity: 0; fill: rgb(0, 255, 0); fill-opacity: 0; stroke-width: 1; opacity: 1;"/><path class="sankey-link" d="M514.1176470588235,336.48776511889946C519.4117647058824,336.48776511889946 519.4117647058824,406.66665055558633 524.7058823529412,406.66665055558633L535.2941176470589,406.66667472220666L524.7058823529412,406.666698888827C519.4117647058824,406.666698888827 519.4117647058824,336.48781345214013 514.1176470588235,336.48781345214013Z" style="stroke: rgb(0, 255, 0); stroke-opacity: 0; fill: rgb(0, 255, 0); fill-opacity: 0; stroke-width: 1; opacity: 1;"/><path class="sankey-link" d="M514.1176470588235,336.4875234526961C519.4117647058824,336.4875234526961 519.4117647058824,289.9999275001385 524.7058823529412,289.9999275001385L535.2941176470589,289.9999516667588L524.7058823529412,289.99997583337915C519.4117647058824,289.99997583337915 519.4117647058824,336.4875717859368 514.1176470588235,336.4875717859368Z" style="stroke: rgb(0, 255, 0); stroke-opacity: 0; fill: rgb(0, 255, 0); fill-opacity: 0; stroke-width: 1; opacity: 1;"/><path class="sankey-link" d="M514.1176470588235,336.4875717859368C519.4117647058824,336.4875717859368 519.4117647058824,289.99997583337915 524.7058823529412,289.99997583337915L535.2941176470589,289.9999999999995L524.7058823529412,290.0000241666198C519.4117647058824,290.0000241666198 519.4117647058824,336.48762011917745 514.1176470588235,336.48762011917745Z" style="stroke: rgb(0, 255, 0); stroke-opacity: 0; fill: rgb(0, 255, 0); fill-opacity: 0; stroke-width: 1; opacity: 1;"/><path class="sankey-link" d="M514.1176470588235,336.48762011917745C519.4117647058824,336.48762011917745 519.4117647058824,290.0000241666198 524.7058823529412,290.0000241666198L535.2941176470589,290.00004833324016L524.7058823529412,290.0000724998605C519.4117647058824,290.0000724998605 519.4117647058824,336.4876684524181 514.1176470588235,336.4876684524181Z" style="stroke: rgb(0, 255, 0); stroke-opacity: 0; fill: rgb(0, 255, 0); fill-opacity: 0; stroke-width: 1; opacity: 1;"/><path class="sankey-link" d="M514.1176470588235,336.48781345214013C519.4117647058824,336.48781345214013 519.4117647058824,406.666698888827 524.7058823529412,406.666698888827L535.2941176470589,406.66672305544733L524.7058823529412,406.66674722206767C519.4117647058824,406.66674722206767 519.4117647058824,336.4878617853808 514.1176470588235,336.4878617853808Z" style="stroke: rgb(0, 255, 0); stroke-opacity: 0; fill: rgb(0, 255, 0); fill-opacity: 0; stroke-width: 1; opacity: 1;"/><path class="sankey-link" d="M514.1176470588235,384.8212474797248C519.4117647058824,384.8212474797248 519.4117647058824,571.6666143056558 524.7058823529412,571.6666143056558L535.2941176470589,571.6666384722762L524.7058823529412,571.6666626388966C519.4117647058824,571.6666626388966 519.4117647058824,384.82129581296545 514.1176470588235,384.82129581296545Z" style="stroke: rgb(0, 255, 0); stroke-opacity: 0; fill: rgb(0, 255, 0); fill-opacity: 0; stroke-width: 1; opacity: 1;"/><path class="sankey-link" d="M514.1176470588235,336.4876684524181C519.4117647058824,336.4876684524181 519.4117647058824,290.0000724998605 524.7058823529412,290.0000724998605L535.2941176470589,290.00009666648083L524.7058823529412,290.00012083310116C519.4117647058824,290.00012083310116 519.4117647058824,336.4877167856588 514.1176470588235,336.4877167856588Z" style="stroke: rgb(0, 255, 0); stroke-opacity: 0; fill: rgb(0, 255, 0); fill-opacity: 0; stroke-width: 1; opacity: 1;"/><path class="sankey-link" d="M555.2941176470589,96.66648138924378C560.5882352941178,96.66648138924378 560.5882352941178,321.39113420950457 565.8823529411766,321.39113420950457L576.4705882352941,321.3911583761249L565.8823529411766,321.39118254274524C560.5882352941178,321.39118254274524 560.5882352941178,96.66652972248448 555.2941176470589,96.66652972248448Z" style="stroke: rgb(0, 255, 0); stroke-opacity: 0; fill: rgb(0, 255, 0); fill-opacity: 0; stroke-width: 1; opacity: 1;"/><path class="sankey-link" d="M555.2941176470589,96.66652972248448C560.5882352941178,96.66652972248448 560.5882352941178,321.39118254274524 565.8823529411766,321.39118254274524L576.4705882352941,321.3912067093656L565.8823529411766,321.3912308759859C560.5882352941178,321.3912308759859 560.5882352941178,96.66657805572518 555.2941176470589,96.66657805572518Z" style="stroke: rgb(0, 255, 0); stroke-opacity: 0; fill: rgb(0, 255, 0); fill-opacity: 0; stroke-width: 1; opacity: 1;"/><path class="sankey-link" d="M555.2941176470589,571.6664693059338C560.5882352941178,571.6664693059338 560.5882352941178,321.3917625416333 565.8823529411766,321.3917625416333L576.4705882352941,321.3917867082536L565.8823529411766,321.39181087487395C560.5882352941178,321.39181087487395 560.5882352941178,571.6665176391746 555.2941176470589,571.6665176391746Z" style="stroke: rgb(0, 255, 0); stroke-opacity: 0; fill: rgb(0, 255, 0); fill-opacity: 0; stroke-width: 1; opacity: 1;"/><path class="sankey-link" d="M555.2941176470589,639.9999033335187C560.5882352941178,639.9999033335187 560.5882352941178,321.39195587459596 565.8823529411766,321.39195587459596L576.4705882352941,321.3919800412163L565.8823529411766,321.39200420783664C560.5882352941178,321.39200420783664 560.5882352941178,639.9999516667594 555.2941176470589,639.9999516667594Z" style="stroke: rgb(0, 255, 0); stroke-opacity: 0; fill: rgb(0, 255, 0); fill-opacity: 0; stroke-width: 1; opacity: 1;"/><path class="sankey-link" d="M555.2941176470589,639.9999516667593C560.5882352941178,639.9999516667593 560.5882352941178,321.39200420783664 565.8823529411766,321.39200420783664L576.4705882352941,321.39202837445697L565.8823529411766,321.3920525410773C560.5882352941178,321.3920525410773 560.5882352941178,640.0000000000001 555.2941176470589,640.0000000000001Z" style="stroke: rgb(0, 255, 0); stroke-opacity: 0; fill: rgb(0, 255, 0); fill-opacity: 0; stroke-width: 1; opacity: 1;"/><path class="sankey-link" d="M555.2941176470589,96.66657805572518C560.5882352941178,96.66657805572518 560.5882352941178,321.3912308759859 565.8823529411766,321.3912308759859L576.4705882352941,321.39125504260625L565.8823529411766,321.3912792092266C560.5882352941178,321.3912792092266 560.5882352941178,96.66662638896588 555.2941176470589,96.66662638896588Z" style="stroke: rgb(0, 255, 0); stroke-opacity: 0; fill: rgb(0, 255, 0); fill-opacity: 0; stroke-width: 1; opacity: 1;"/><path class="sankey-link" d="M555.2941176470589,96.66662638896588C560.5882352941178,96.66662638896588 560.5882352941178,321.3912792092266 565.8823529411766,321.3912792092266L576.4705882352941,321.3913033758469L565.8823529411766,321.39132754246725C560.5882352941178,321.39132754246725 560.5882352941178,96.66667472220658 555.2941176470589,96.66667472220658Z" style="stroke: rgb(0, 255, 0); stroke-opacity: 0; fill: rgb(0, 255, 0); fill-opacity: 0; stroke-width: 1; opacity: 1;"/><path class="sankey-link" d="M555.2941176470589,571.6665176391745C560.5882352941178,571.6665176391745 560.5882352941178,321.39181087487395 565.8823529411766,321.39181087487395L576.4705882352941,321.3918350414943L565.8823529411766,321.3918592081146C560.5882352941178,321.3918592081146 560.5882352941178,571.6665659724152 555.2941176470589,571.6665659724152Z" style="stroke: rgb(0, 255, 0); stroke-opacity: 0; fill: rgb(0, 255, 0); fill-opacity: 0; stroke-width: 1; opacity: 1;"/><path class="sankey-link" d="M555.2941176470589,96.66667472220658C560.5882352941178,96.66667472220658 560.5882352941178,321.39132754246725 565.8823529411766,321.39132754246725L576.4705882352941,321.3913517090876L565.8823529411766,321.3913758757079C560.5882352941178,321.3913758757079 560.5882352941178,96.66672305544728 555.2941176470589,96.66672305544728Z" style="stroke: rgb(0, 255, 0); stroke-opacity: 0; fill: rgb(0, 255, 0); fill-opacity: 0; stroke-width: 1; opacity: 1;"/><path class="sankey-link" d="M555.2941176470589,454.9998429169676C560.5882352941178,454.9998429169676 560.5882352941178,321.3916175419113 565.8823529411766,321.3916175419113L576.4705882352941,321.3916417085316L565.8823529411766,321.39166587515194C560.5882352941178,321.39166587515194 560.5882352941178,454.9998912502083 555.2941176470589,454.9998912502083Z" style="stroke: rgb(0, 255, 0); stroke-opacity: 0; fill: rgb(0, 255, 0); fill-opacity: 0; stroke-width: 1; opacity: 1;"/><path class="sankey-link" d="M555.2941176470589,571.6665659724151C560.5882352941178,571.6665659724151 560.5882352941178,321.3918592081146 565.8823529411766,321.3918592081146L576.4705882352941,321.39188337473496L565.8823529411766,321.3919075413553C560.5882352941178,321.3919075413553 560.5882352941178,571.6666143056559 555.2941176470589,571.6666143056559Z" style="stroke: rgb(0, 255, 0); stroke-opacity: 0; fill: rgb(0, 255, 0); fill-opacity: 0; stroke-width: 1; opacity: 1;"/><path class="sankey-link" d="M555.2941176470589,454.9998912502083C560.5882352941178,454.9998912502083 560.5882352941178,321.39166587515194 565.8823529411766,321.39166587515194L576.4705882352941,321.3916900417723L565.8823529411766,321.3917142083926C560.5882352941178,321.3917142083926 560.5882352941178,454.99993958344896 555.2941176470589,454.99993958344896Z" style="stroke: rgb(0, 255, 0); stroke-opacity: 0; fill: rgb(0, 255, 0); fill-opacity: 0; stroke-width: 1; opacity: 1;"/><path class="sankey-link" d="M555.2941176470589,96.66672305544728C560.5882352941178,96.66672305544728 560.5882352941178,321.3913758757079 565.8823529411766,321.3913758757079L576.4705882352941,321.39140004232826L565.8823529411766,321.3914242089486C560.5882352941178,321.3914242089486 560.5882352941178,96.66677138868798 555.2941176470589,96.66677138868798Z" style="stroke: rgb(0, 255, 0); stroke-opacity: 0; fill: rgb(0, 255, 0); fill-opacity: 0; stroke-width: 1; opacity: 1;"/><path class="sankey-link" d="M555.2941176470589,96.66677138868798C560.5882352941178,96.66677138868798 560.5882352941178,321.3914242089486 565.8823529411766,321.3914242089486L576.4705882352941,321.3914483755689L565.8823529411766,321.39147254218926C560.5882352941178,321.39147254218926 560.5882352941178,96.66681972192868 555.2941176470589,96.66681972192868Z" style="stroke: rgb(0, 255, 0); stroke-opacity: 0; fill: rgb(0, 255, 0); fill-opacity: 0; stroke-width: 1; opacity: 1;"/><path class="sankey-link" d="M555.2941176470589,96.66681972192868C560.5882352941178,96.66681972192868 560.5882352941178,321.39147254218926 565.8823529411766,321.39147254218926L576.4705882352941,321.3914967088096L565.8823529411766,321.39152087542993C560.5882352941178,321.39152087542993 560.5882352941178,96.66686805516937 555.2941176470589,96.66686805516937Z" style="stroke: rgb(0, 255, 0); stroke-opacity: 0; fill: rgb(0, 255, 0); fill-opacity: 0; stroke-width: 1; opacity: 1;"/><path class="sankey-link" d="M555.2941176470589,454.99993958344896C560.5882352941178,454.99993958344896 560.5882352941178,321.3917142083926 565.8823529411766,321.3917142083926L576.4705882352941,321.39173837501295L565.8823529411766,321.3917625416333C560.5882352941178,321.3917625416333 560.5882352941178,454.99998791668963 555.2941176470589,454.99998791668963Z" style="stroke: rgb(0, 255, 0); stroke-opacity: 0; fill: rgb(0, 255, 0); fill-opacity: 0; stroke-width: 1; opacity: 1;"/><path class="sankey-link" d="M555.2941176470589,571.6666143056558C560.5882352941178,571.6666143056558 560.5882352941178,321.3919075413553 565.8823529411766,321.3919075413553L576.4705882352941,321.39193170797563L565.8823529411766,321.39195587459596C560.5882352941178,321.39195587459596 560.5882352941178,571.6666626388966 555.2941176470589,571.6666626388966Z" style="stroke: rgb(0, 255, 0); stroke-opacity: 0; fill: rgb(0, 255, 0); fill-opacity: 0; stroke-width: 1; opacity: 1;"/><path class="sankey-link" d="M555.2941176470589,96.66686805516937C560.5882352941178,96.66686805516937 560.5882352941178,321.39152087542993 565.8823529411766,321.39152087542993L576.4705882352941,321.39154504205027L565.8823529411766,321.3915692086706C560.5882352941178,321.3915692086706 560.5882352941178,96.66691638841007 555.2941176470589,96.66691638841007Z" style="stroke: rgb(0, 255, 0); stroke-opacity: 0; fill: rgb(0, 255, 0); fill-opacity: 0; stroke-width: 1; opacity: 1;"/><path class="sankey-link" d="M555.2941176470589,96.66691638841007C560.5882352941178,96.66691638841007 560.5882352941178,321.3915692086706 565.8823529411766,321.3915692086706L576.4705882352941,321.39159337529094L565.8823529411766,321.3916175419113C560.5882352941178,321.3916175419113 560.5882352941178,96.66696472165077 555.2941176470589,96.66696472165077Z" style="stroke: rgb(0, 255, 0); stroke-opacity: 0; fill: rgb(0, 255, 0); fill-opacity: 0; stroke-width: 1; opacity: 1;"/><path class="sankey-link" d="M596.4705882352941,321.39113420950457C601.7647058823529,321.39113420950457 601.7647058823529,325.3785579607348 607.0588235294118,325.3785579607348L617.6470588235295,325.3785821273551L607.0588235294118,325.37860629397545C601.7647058823529,325.37860629397545 601.7647058823529,321.39118254274524 596.4705882352941,321.39118254274524Z" style="stroke: rgb(0, 255, 0); stroke-opacity: 0; fill: rgb(0, 255, 0); fill-opacity: 0; stroke-width: 1; opacity: 1;"/><path class="sankey-link" d="M596.4705882352941,321.39118254274524C601.7647058823529,321.39118254274524 601.7647058823529,325.37860629397545 607.0588235294118,325.37860629397545L617.6470588235295,325.3786304605958L607.0588235294118,325.3786546272161C601.7647058823529,325.3786546272161 601.7647058823529,321.3912308759859 596.4705882352941,321.3912308759859Z" style="stroke: rgb(0, 255, 0); stroke-opacity: 0; fill: rgb(0, 255, 0); fill-opacity: 0; stroke-width: 1; opacity: 1;"/><path class="sankey-link" d="M637.6470588235295,325.3785579607348C642.9411764705883,325.3785579607348 642.9411764705883,330.3850854369846 648.2352941176471,330.3850854369846L658.8235294117646,330.3851096036049L648.2352941176471,330.38513377022525C642.9411764705883,330.38513377022525 642.9411764705883,325.37860629397545 637.6470588235295,325.37860629397545Z" style="stroke: rgb(0, 255, 0); stroke-opacity: 0; fill: rgb(0, 255, 0); fill-opacity: 0; stroke-width: 1; opacity: 1;"/><path class="sankey-link" d="M637.6470588235295,325.37860629397545C642.9411764705883,325.37860629397545 642.9411764705883,330.38513377022525 648.2352941176471,330.38513377022525L658.8235294117646,330.3851579368456L648.2352941176471,330.3851821034659C642.9411764705883,330.3851821034659 642.9411764705883,325.3786546272161 637.6470588235295,325.3786546272161Z" style="stroke: rgb(0, 255, 0); stroke-opacity: 0; fill: rgb(0, 255, 0); fill-opacity: 0; stroke-width: 1; opacity: 1;"/><path class="sankey-link" d="M637.6470588235295,325.3786546272161C642.9411764705883,325.3786546272161 642.9411764705883,330.3851821034659 648.2352941176471,330.3851821034659L658.8235294117646,330.38520627008626L648.2352941176471,330.3852304367066C642.9411764705883,330.3852304367066 642.9411764705883,325.3787029604568 637.6470588235295,325.3787029604568Z" style="stroke: rgb(0, 255, 0); stroke-opacity: 0; fill: rgb(0, 255, 0); fill-opacity: 0; stroke-width: 1; opacity: 1;"/><path class="sankey-link" d="M637.6470588235295,325.3787029604568C642.9411764705883,325.3787029604568 642.9411764705883,330.3852304367066 648.2352941176471,330.3852304367066L658.8235294117646,330.3852546033269L648.2352941176471,330.38527876994726C642.9411764705883,330.38527876994726 642.9411764705883,325.37875129369746 637.6470588235295,325.37875129369746Z" style="stroke: rgb(0, 255, 0); stroke-opacity: 0; fill: rgb(0, 255, 0); fill-opacity: 0; stroke-width: 1; opacity: 1;"/><path class="sankey-link" d="M637.6470588235295,325.37875129369746C642.9411764705883,325.37875129369746 642.9411764705883,330.38527876994726 648.2352941176471,330.38527876994726L658.8235294117646,330.3853029365676L648.2352941176471,330.38532710318793C642.9411764705883,330.38532710318793 642.9411764705883,325.37879962693813 637.6470588235295,325.37879962693813Z" style="stroke: rgb(0, 255, 0); stroke-opacity: 0; fill: rgb(0, 255, 0); fill-opacity: 0; stroke-width: 1; opacity: 1;"/><path class="sankey-link" d="M637.6470588235295,325.37879962693813C642.9411764705883,325.37879962693813 642.9411764705883,330.38532710318793 648.2352941176471,330.38532710318793L658.8235294117646,330.38535126980827L648.2352941176471,330.3853754364286C642.9411764705883,330.3853754364286 642.9411764705883,325.3788479601788 637.6470588235295,325.3788479601788Z" style="stroke: rgb(0, 255, 0); stroke-opacity: 0; fill: rgb(0, 255, 0); fill-opacity: 0; stroke-width: 1; opacity: 1;"/><path class="sankey-link" d="M678.8235294117648,282.05184474236256C684.1176470588236,282.05184474236256 684.1176470588236,267.9574958795831 689.4117647058824,267.9574958795831L700,267.95752004620346L689.4117647058824,267.9575442128238C684.1176470588236,267.9575442128238 684.1176470588236,282.05189307560323 678.8235294117648,282.05189307560323Z" style="stroke: rgb(0, 255, 0); stroke-opacity: 0; fill: rgb(0, 255, 0); fill-opacity: 0; stroke-width: 1; opacity: 1;"/><path class="sankey-link" d="M678.8235294117648,282.05189307560323C684.1176470588236,282.05189307560323 684.1176470588236,267.9575442128238 689.4117647058824,267.9575442128238L700,267.9575683794441L689.4117647058824,267.95759254606446C684.1176470588236,267.95759254606446 684.1176470588236,282.0519414088439 678.8235294117648,282.0519414088439Z" style="stroke: rgb(0, 255, 0); stroke-opacity: 0; fill: rgb(0, 255, 0); fill-opacity: 0; stroke-width: 1; opacity: 1;"/><path class="sankey-link" d="M678.8235294117648,282.0519414088439C684.1176470588236,282.0519414088439 684.1176470588236,267.95759254606446 689.4117647058824,267.95759254606446L700,267.9576167126848L689.4117647058824,267.95764087930513C684.1176470588236,267.95764087930513 684.1176470588236,282.0519897420846 678.8235294117648,282.0519897420846Z" style="stroke: rgb(0, 255, 0); stroke-opacity: 0; fill: rgb(0, 255, 0); fill-opacity: 0; stroke-width: 1; opacity: 1;"/><path class="sankey-link" d="M678.8235294117648,282.0519897420846C684.1176470588236,282.0519897420846 684.1176470588236,267.95764087930513 689.4117647058824,267.95764087930513L700,267.95766504592547L689.4117647058824,267.9576892125458C684.1176470588236,267.9576892125458 684.1176470588236,282.05203807532524 678.8235294117648,282.05203807532524Z" style="stroke: rgb(0, 255, 0); stroke-opacity: 0; fill: rgb(0, 255, 0); fill-opacity: 0; stroke-width: 1; opacity: 1;"/><path class="sankey-link" d="M678.8235294117648,282.05203807532524C684.1176470588236,282.05203807532524 684.1176470588236,267.9576892125458 689.4117647058824,267.9576892125458L700,267.95771337916614L689.4117647058824,267.9577375457865C684.1176470588236,267.9577375457865 684.1176470588236,282.0520864085659 678.8235294117648,282.0520864085659Z" style="stroke: rgb(0, 255, 0); stroke-opacity: 0; fill: rgb(0, 255, 0); fill-opacity: 0; stroke-width: 1; opacity: 1;"/><path class="sankey-link" d="M678.8235294117648,282.0520864085659C684.1176470588236,282.0520864085659 684.1176470588236,267.9577375457865 689.4117647058824,267.9577375457865L700,267.9577617124068L689.4117647058824,267.95778587902714C684.1176470588236,267.95778587902714 684.1176470588236,282.0521347418066 678.8235294117648,282.0521347418066Z" style="stroke: rgb(0, 255, 0); stroke-opacity: 0; fill: rgb(0, 255, 0); fill-opacity: 0; stroke-width: 1; opacity: 1;"/><path class="sankey-link" d="M678.8235294117648,282.0521347418066C684.1176470588236,282.0521347418066 684.1176470588236,267.95778587902714 689.4117647058824,267.95778587902714L700,267.9578100456475L689.4117647058824,267.9578342122678C684.1176470588236,267.9578342122678 684.1176470588236,282.05218307504725 678.8235294117648,282.05218307504725Z" style="stroke: rgb(0, 255, 0); stroke-opacity: 0; fill: rgb(0, 255, 0); fill-opacity: 0; stroke-width: 1; opacity: 1;"/><path class="sankey-link" d="M678.8235294117648,282.05218307504725C684.1176470588236,282.05218307504725 684.1176470588236,267.9578342122678 689.4117647058824,267.9578342122678L700,267.95785837888815L689.4117647058824,267.9578825455085C684.1176470588236,267.9578825455085 684.1176470588236,282.0522314082879 678.8235294117648,282.0522314082879Z" style="stroke: rgb(0, 255, 0); stroke-opacity: 0; fill: rgb(0, 255, 0); fill-opacity: 0; stroke-width: 1; opacity: 1;"/><path class="sankey-link" d="M678.8235294117648,282.0522314082879C684.1176470588236,282.0522314082879 684.1176470588236,267.9578825455085 689.4117647058824,267.9578825455085L700,267.9579067121288L689.4117647058824,267.95793087874915C684.1176470588236,267.95793087874915 684.1176470588236,282.0522797415286 678.8235294117648,282.0522797415286Z" style="stroke: rgb(0, 255, 0); stroke-opacity: 0; fill: rgb(0, 255, 0); fill-opacity: 0; stroke-width: 1; opacity: 1;"/><path class="sankey-link" d="M678.8235294117648,282.0522797415286C684.1176470588236,282.0522797415286 684.1176470588236,267.95793087874915 689.4117647058824,267.95793087874915L700,267.9579550453695L689.4117647058824,267.9579792119898C684.1176470588236,267.9579792119898 684.1176470588236,282.05232807476926 678.8235294117648,282.05232807476926Z" style="stroke: rgb(0, 255, 0); stroke-opacity: 0; fill: rgb(0, 255, 0); fill-opacity: 0; stroke-width: 1; opacity: 1;"/><path class="sankey-link" d="M678.8235294117648,282.05232807476926C684.1176470588236,282.05232807476926 684.1176470588236,267.9579792119898 689.4117647058824,267.9579792119898L700,267.95800337861016L689.4117647058824,267.9580275452305C684.1176470588236,267.9580275452305 684.1176470588236,282.05237640800993 678.8235294117648,282.05237640800993Z" style="stroke: rgb(0, 255, 0); stroke-opacity: 0; fill: rgb(0, 255, 0); fill-opacity: 0; stroke-width: 1; opacity: 1;"/><path class="sankey-link" d="M678.8235294117648,282.05237640800993C684.1176470588236,282.05237640800993 684.1176470588236,267.9580275452305 689.4117647058824,267.9580275452305L700,267.9580517118508L689.4117647058824,267.95807587847116C684.1176470588236,267.95807587847116 684.1176470588236,282.0524247412506 678.8235294117648,282.0524247412506Z" style="stroke: rgb(0, 255, 0); stroke-opacity: 0; fill: rgb(0, 255, 0); fill-opacity: 0; stroke-width: 1; opacity: 1;"/></g><g class="sankey-node-set" style="cursor: ns-resize;"><g class="sankey-node" transform="translate(617.647,325.379)" style="opacity: 1;"><rect class="node-rect" width="20" height="0.5" style="stroke-width: 0; stroke: rgb(68, 68, 68); stroke-opacity: 1; fill: rgb(0, 0, 0); fill-opacity: 0;"/><text class="node-label" data-notex="1" x="0" y="0" text-anchor="start" transform="translate(16.65,3)scale(-1,1)rotate(90)" style="cursor: default; font-family: 'Open Sans', verdana, arial, sans-serif; font-size: 19px; fill: rgb(42, 63, 95); fill-opacity: 1; text-shadow: rgb(255, 255, 255) 1px 1px 1px, rgb(255, 255, 255) -1px -1px 1px, rgb(255, 255, 255) 1px -1px 1px, rgb(255, 255, 255) -1px 1px 1px; white-space: pre;"></text></g><g class="sankey-node" transform="translate(41.176,303.949)" style="opacity: 1;"><rect class="node-rect" width="20" height="0.5" style="stroke-width: 0; stroke: rgb(68, 68, 68); stroke-opacity: 1; fill: rgb(0, 0, 0); fill-opacity: 0;"/><text class="node-label" data-notex="1" x="0" y="0" text-anchor="start" transform="translate(16.65,3)scale(-1,1)rotate(90)" style="cursor: default; font-family: 'Open Sans', verdana, arial, sans-serif; font-size: 19px; fill: rgb(42, 63, 95); fill-opacity: 1; text-shadow: rgb(255, 255, 255) 1px 1px 1px, rgb(255, 255, 255) -1px -1px 1px, rgb(255, 255, 255) 1px -1px 1px, rgb(255, 255, 255) -1px 1px 1px; white-space: pre;"></text></g><g class="sankey-node" transform="translate(288.235,320.957)" style="opacity: 1;"><rect class="node-rect" width="20" height="0.5" style="stroke-width: 0; stroke: rgb(68, 68, 68); stroke-opacity: 1; fill: rgb(0, 0, 0); fill-opacity: 0;"/><text class="node-label" data-notex="1" x="0" y="0" text-anchor="start" transform="translate(16.65,3)scale(-1,1)rotate(90)" style="cursor: default; font-family: 'Open Sans', verdana, arial, sans-serif; font-size: 19px; fill: rgb(42, 63, 95); fill-opacity: 1; text-shadow: rgb(255, 255, 255) 1px 1px 1px, rgb(255, 255, 255) -1px -1px 1px, rgb(255, 255, 255) 1px -1px 1px, rgb(255, 255, 255) -1px 1px 1px; white-space: pre;"></text></g><g class="sankey-node" transform="translate(123.529,309.189)" style="opacity: 1;"><rect class="node-rect" width="20" height="0.5" style="stroke-width: 0; stroke: rgb(68, 68, 68); stroke-opacity: 1; fill: rgb(0, 0, 0); fill-opacity: 0;"/><text class="node-label" data-notex="1" x="0" y="0" text-anchor="start" transform="translate(16.65,3)scale(-1,1)rotate(90)" style="cursor: default; font-family: 'Open Sans', verdana, arial, sans-serif; font-size: 19px; fill: rgb(42, 63, 95); fill-opacity: 1; text-shadow: rgb(255, 255, 255) 1px 1px 1px, rgb(255, 255, 255) -1px -1px 1px, rgb(255, 255, 255) 1px -1px 1px, rgb(255, 255, 255) -1px 1px 1px; white-space: pre;"></text></g><g class="sankey-node" transform="translate(535.294,358.333)" style="opacity: 1;"><rect class="node-rect" width="20" height="96.66662638896616" style="stroke-width: 0; stroke: rgb(68, 68, 68); stroke-opacity: 1; fill: rgb(55, 126, 184); fill-opacity: 1;"/><text class="node-label" data-notex="1" x="0" y="0" text-anchor="start" transform="translate(16.65,3)scale(-1,1)rotate(90)" style="cursor: default; font-family: 'Open Sans', verdana, arial, sans-serif; font-size: 19px; fill: rgb(42, 63, 95); fill-opacity: 1; text-shadow: rgb(255, 255, 255) 1px 1px 1px, rgb(255, 255, 255) -1px -1px 1px, rgb(255, 255, 255) 1px -1px 1px, rgb(255, 255, 255) -1px 1px 1px; white-space: pre;">A6.15</text></g><g class="sankey-node" transform="translate(205.882,314.405)" style="opacity: 1;"><rect class="node-rect" width="20" height="0.5" style="stroke-width: 0; stroke: rgb(68, 68, 68); stroke-opacity: 1; fill: rgb(0, 0, 0); fill-opacity: 0;"/><text class="node-label" data-notex="1" x="0" y="0" text-anchor="start" transform="translate(16.65,3)scale(-1,1)rotate(90)" style="cursor: default; font-family: 'Open Sans', verdana, arial, sans-serif; font-size: 19px; fill: rgb(42, 63, 95); fill-opacity: 1; text-shadow: rgb(255, 255, 255) 1px 1px 1px, rgb(255, 255, 255) -1px -1px 1px, rgb(255, 255, 255) 1px -1px 1px, rgb(255, 255, 255) -1px 1px 1px; white-space: pre;"></text></g><g class="sankey-node" transform="translate(700.000,171.291)" style="opacity: 1;"><rect class="node-rect" width="20" height="338.33326486124236" style="stroke-width: 0; stroke: rgb(68, 68, 68); stroke-opacity: 1; fill: rgb(255, 127, 0); fill-opacity: 1;"/><text class="node-label" data-notex="1" x="0" y="0" text-anchor="start" transform="translate(16.65,3)scale(-1,1)rotate(90)" style="cursor: default; font-family: 'Open Sans', verdana, arial, sans-serif; font-size: 19px; fill: rgb(42, 63, 95); fill-opacity: 1; text-shadow: rgb(255, 255, 255) 1px 1px 1px, rgb(255, 255, 255) -1px -1px 1px, rgb(255, 255, 255) 1px -1px 1px, rgb(255, 255, 255) -1px 1px 1px; white-space: pre;">Unembed</text></g><g class="sankey-node" transform="translate(576.471,321.391)" style="opacity: 1;"><rect class="node-rect" width="20" height="0.5" style="stroke-width: 0; stroke: rgb(68, 68, 68); stroke-opacity: 1; fill: rgb(0, 0, 0); fill-opacity: 0;"/><text class="node-label" data-notex="1" x="0" y="0" text-anchor="start" transform="translate(16.65,3)scale(-1,1)rotate(90)" style="cursor: default; font-family: 'Open Sans', verdana, arial, sans-serif; font-size: 19px; fill: rgb(42, 63, 95); fill-opacity: 1; text-shadow: rgb(255, 255, 255) 1px 1px 1px, rgb(255, 255, 255) -1px -1px 1px, rgb(255, 255, 255) 1px -1px 1px, rgb(255, 255, 255) -1px 1px 1px; white-space: pre;"></text></g><g class="sankey-node" transform="translate(82.353,110.677)" style="opacity: 1;"><rect class="node-rect" width="20" height="386.6664088893826" style="stroke-width: 0; stroke: rgb(68, 68, 68); stroke-opacity: 1; fill: rgb(77, 175, 74); fill-opacity: 1;"/><text class="node-label" data-notex="1" x="0" y="0" text-anchor="start" transform="translate(16.65,3)scale(-1,1)rotate(90)" style="cursor: default; font-family: 'Open Sans', verdana, arial, sans-serif; font-size: 19px; fill: rgb(42, 63, 95); fill-opacity: 1; text-shadow: rgb(255, 255, 255) 1px 1px 1px, rgb(255, 255, 255) -1px -1px 1px, rgb(255, 255, 255) 1px -1px 1px, rgb(255, 255, 255) -1px 1px 1px; white-space: pre;">MLP 0</text></g><g class="sankey-node" transform="translate(535.294,591.667)" style="opacity: 1;"><rect class="node-rect" width="20" height="48.333337361103304" style="stroke-width: 0; stroke: rgb(68, 68, 68); stroke-opacity: 1; fill: rgb(255, 127, 0); fill-opacity: 1;"/><text class="node-label" data-notex="1" x="0" y="0" text-anchor="start" transform="translate(16.65,3)scale(-1,1)rotate(90)" style="cursor: default; font-family: 'Open Sans', verdana, arial, sans-serif; font-size: 19px; fill: rgb(42, 63, 95); fill-opacity: 1; text-shadow: rgb(255, 255, 255) 1px 1px 1px, rgb(255, 255, 255) -1px -1px 1px, rgb(255, 255, 255) 1px -1px 1px, rgb(255, 255, 255) -1px 1px 1px; white-space: pre;">A6.3</text></g><g class="sankey-node" transform="translate(164.706,287.106)" style="opacity: 1;"><rect class="node-rect" width="20" height="48.33338569434409" style="stroke-width: 0; stroke: rgb(68, 68, 68); stroke-opacity: 1; fill: rgb(152, 78, 163); fill-opacity: 1;"/><text class="node-label" data-notex="1" x="0" y="0" text-anchor="start" transform="translate(16.65,3)scale(-1,1)rotate(90)" style="cursor: default; font-family: 'Open Sans', verdana, arial, sans-serif; font-size: 19px; fill: rgb(42, 63, 95); fill-opacity: 1; text-shadow: rgb(255, 255, 255) 1px 1px 1px, rgb(255, 255, 255) -1px -1px 1px, rgb(255, 255, 255) 1px -1px 1px, rgb(255, 255, 255) -1px 1px 1px; white-space: pre;">MLP 1</text></g><g class="sankey-node" transform="translate(411.765,270.632)" style="opacity: 1;"><rect class="node-rect" width="20" height="48.33357902730677" style="stroke-width: 0; stroke: rgb(68, 68, 68); stroke-opacity: 1; fill: rgb(166, 86, 40); fill-opacity: 1;"/><text class="node-label" data-notex="1" x="0" y="0" text-anchor="start" transform="translate(16.65,3)scale(-1,1)rotate(90)" style="cursor: default; font-family: 'Open Sans', verdana, arial, sans-serif; font-size: 19px; fill: rgb(42, 63, 95); fill-opacity: 1; text-shadow: rgb(255, 255, 255) 1px 1px 1px, rgb(255, 255, 255) -1px -1px 1px, rgb(255, 255, 255) 1px -1px 1px, rgb(255, 255, 255) -1px 1px 1px; white-space: pre;">MLP 4</text></g><g class="sankey-node" transform="translate(370.588,239.183)" style="opacity: 1;"><rect class="node-rect" width="20" height="145.00006041655095" style="stroke-width: 0; stroke: rgb(68, 68, 68); stroke-opacity: 1; fill: rgb(228, 26, 28); fill-opacity: 1;"/><text class="node-label" data-notex="1" x="0" y="0" text-anchor="start" transform="translate(16.65,3)scale(-1,1)rotate(90)" style="cursor: default; font-family: 'Open Sans', verdana, arial, sans-serif; font-size: 19px; fill: rgb(42, 63, 95); fill-opacity: 1; text-shadow: rgb(255, 255, 255) 1px 1px 1px, rgb(255, 255, 255) -1px -1px 1px, rgb(255, 255, 255) 1px -1px 1px, rgb(255, 255, 255) -1px 1px 1px; white-space: pre;">A4.11</text></g><g class="sankey-node" transform="translate(535.294,-0.000)" style="opacity: 1;"><rect class="node-rect" width="20" height="338.3333615277239" style="stroke-width: 0; stroke: rgb(68, 68, 68); stroke-opacity: 1; fill: rgb(228, 26, 28); fill-opacity: 1;"/><text class="node-label" data-notex="1" x="0" y="0" text-anchor="start" transform="translate(16.65,3)scale(-1,1)rotate(90)" style="cursor: default; font-family: 'Open Sans', verdana, arial, sans-serif; font-size: 19px; fill: rgb(42, 63, 95); fill-opacity: 1; text-shadow: rgb(255, 255, 255) 1px 1px 1px, rgb(255, 255, 255) -1px -1px 1px, rgb(255, 255, 255) 1px -1px 1px, rgb(255, 255, 255) -1px 1px 1px; white-space: pre;">A6.5</text></g><g class="sankey-node" transform="translate(494.118,239.821)" style="opacity: 1;"><rect class="node-rect" width="20" height="145.00083374840213" style="stroke-width: 0; stroke: rgb(68, 68, 68); stroke-opacity: 1; fill: rgb(222, 222, 0); fill-opacity: 1;"/><text class="node-label" data-notex="1" x="0" y="0" text-anchor="start" transform="translate(16.65,3)scale(-1,1)rotate(90)" style="cursor: default; font-family: 'Open Sans', verdana, arial, sans-serif; font-size: 19px; fill: rgb(42, 63, 95); fill-opacity: 1; text-shadow: rgb(255, 255, 255) 1px 1px 1px, rgb(255, 255, 255) -1px -1px 1px, rgb(255, 255, 255) 1px -1px 1px, rgb(255, 255, 255) -1px 1px 1px; white-space: pre;">MLP 5</text></g><g class="sankey-node" transform="translate(658.824,233.719)" style="opacity: 1;"><rect class="node-rect" width="20" height="193.33325277793196" style="stroke-width: 0; stroke: rgb(68, 68, 68); stroke-opacity: 1; fill: rgb(55, 126, 184); fill-opacity: 1;"/><text class="node-label" data-notex="1" x="0" y="0" text-anchor="start" transform="translate(16.65,3)scale(-1,1)rotate(90)" style="cursor: default; font-family: 'Open Sans', verdana, arial, sans-serif; font-size: 19px; fill: rgb(42, 63, 95); fill-opacity: 1; text-shadow: rgb(255, 255, 255) 1px 1px 1px, rgb(255, 255, 255) -1px -1px 1px, rgb(255, 255, 255) 1px -1px 1px, rgb(255, 255, 255) -1px 1px 1px; white-space: pre;">MLP 7</text></g><g class="sankey-node" transform="translate(535.294,475.000)" style="opacity: 1;"><rect class="node-rect" width="20" height="96.66667472220684" style="stroke-width: 0; stroke: rgb(68, 68, 68); stroke-opacity: 1; fill: rgb(247, 129, 191); fill-opacity: 1;"/><text class="node-label" data-notex="1" x="0" y="0" text-anchor="start" transform="translate(16.65,3)scale(-1,1)rotate(90)" style="cursor: default; font-family: 'Open Sans', verdana, arial, sans-serif; font-size: 19px; fill: rgb(42, 63, 95); fill-opacity: 1; text-shadow: rgb(255, 255, 255) 1px 1px 1px, rgb(255, 255, 255) -1px -1px 1px, rgb(255, 255, 255) 1px -1px 1px, rgb(255, 255, 255) -1px 1px 1px; white-space: pre;">A6.8</text></g><g class="sankey-node" transform="translate(452.941,289.935)" style="opacity: 1;"><rect class="node-rect" width="20" height="48.33357902730688" style="stroke-width: 0; stroke: rgb(68, 68, 68); stroke-opacity: 1; fill: rgb(77, 175, 74); fill-opacity: 1;"/><text class="node-label" data-notex="1" x="0" y="0" text-anchor="start" transform="translate(16.65,3)scale(-1,1)rotate(90)" style="cursor: default; font-family: 'Open Sans', verdana, arial, sans-serif; font-size: 19px; fill: rgb(42, 63, 95); fill-opacity: 1; text-shadow: rgb(255, 255, 255) 1px 1px 1px, rgb(255, 255, 255) -1px -1px 1px, rgb(255, 255, 255) 1px -1px 1px, rgb(255, 255, 255) -1px 1px 1px; white-space: pre;">A5.12</text></g><g class="sankey-node" transform="translate(329.412,171.361)" style="opacity: 1;"><rect class="node-rect" width="20" height="290.00007249986106" style="stroke-width: 0; stroke: rgb(68, 68, 68); stroke-opacity: 1; fill: rgb(247, 129, 191); fill-opacity: 1;"/><text class="node-label" data-notex="1" x="0" y="0" text-anchor="start" transform="translate(16.65,3)scale(-1,1)rotate(90)" style="cursor: default; font-family: 'Open Sans', verdana, arial, sans-serif; font-size: 19px; fill: rgb(42, 63, 95); fill-opacity: 1; text-shadow: rgb(255, 255, 255) 1px 1px 1px, rgb(255, 255, 255) -1px -1px 1px, rgb(255, 255, 255) 1px -1px 1px, rgb(255, 255, 255) -1px 1px 1px; white-space: pre;">MLP 3</text></g><g class="sankey-node" transform="translate(247.059,317.631)" style="opacity: 1;"><rect class="node-rect" width="20" height="0.5" style="stroke-width: 0; stroke: rgb(68, 68, 68); stroke-opacity: 1; fill: rgb(0, 0, 0); fill-opacity: 0;"/><text class="node-label" data-notex="1" x="0" y="0" text-anchor="start" transform="translate(16.65,3)scale(-1,1)rotate(90)" style="cursor: default; font-family: 'Open Sans', verdana, arial, sans-serif; font-size: 19px; fill: rgb(42, 63, 95); fill-opacity: 1; text-shadow: rgb(255, 255, 255) 1px 1px 1px, rgb(255, 255, 255) -1px -1px 1px, rgb(255, 255, 255) 1px -1px 1px, rgb(255, 255, 255) -1px 1px 1px; white-space: pre;"></text></g><g class="sankey-node" transform="translate(0.000,279.782)" style="opacity: 1;"><rect class="node-rect" width="20" height="48.333337361103304" style="stroke-width: 0; stroke: rgb(68, 68, 68); stroke-opacity: 1; fill: rgb(247, 129, 191); fill-opacity: 1;"/><text class="node-label" data-notex="1" x="0" y="0" text-anchor="start" transform="translate(16.65,3)scale(-1,1)rotate(90)" style="cursor: default; font-family: 'Open Sans', verdana, arial, sans-serif; font-size: 19px; fill: rgb(42, 63, 95); fill-opacity: 1; text-shadow: rgb(255, 255, 255) 1px 1px 1px, rgb(255, 255, 255) -1px -1px 1px, rgb(255, 255, 255) 1px -1px 1px, rgb(255, 255, 255) -1px 1px 1px; white-space: pre;">Embed</text></g></g></g><defs id="topdefs-e6aa31"><g class="clips"/></defs><g class="layer-above"><g class="imagelayer"/><g class="shapelayer"/></g><g class="infolayer"><g class="g-gtitle"/><g class="first-render"/></g></svg>