<svg class="main-svg" xmlns="http://www.w3.org/2000/svg" xmlns:xlink="http://www.w3.org/1999/xlink" width="800" height="900" style="" viewBox="0 0 800 900"><rect x="0" y="0" width="800" height="900" style="fill: rgb(255, 255, 255); fill-opacity: 1;"/><defs id="defs-4b6421"><g class="clips"/><g class="gradients"/><g class="patterns"/></defs><g class="bglayer"/><g class="layer-below"><g class="imagelayer"/><g class="shapelayer"/></g><g class="cartesianlayer"/><g class="polarlayer"/><g class="smithlayer"/><g class="ternarylayer"/><g class="geolayer"/><g class="funnelarealayer"/><g class="pielayer"/><g class="iciclelayer"/><g class="treemaplayer"/><g class="sunburstlayer"/><g class="glimages"/><g class="sankey" transform="translate(80,100)matrix(0 1 1 0 0 0)" style="box-sizing: content-box; position: absolute; left: 0px; shape-rendering: geometricprecision; pointer-events: none;"><g class="sankey-links" style="fill: none;"><path class="sankey-link" d="M637.6470588235295,-2.2737367544323206e-13C656.3235294117648,-2.2737367544323206e-13 656.3235294117648,97.50010656232709 675,97.50010656232709L700,136.2500435936794L675,174.99998062503172C656.3235294117648,174.99998062503172 656.3235294117648,77.4998740627044 637.6470588235295,77.4998740627044Z" style="stroke: rgb(68, 68, 68); stroke-opacity: 1; fill: rgb(0, 0, 255); fill-opacity: 0.3; stroke-width: 0; opacity: 1;"/><path class="sankey-link" d="M184.7058823529412,427.33186796107213C203.38235294117646,427.33186796107213 203.38235294117646,252.5000096874843 222.05882352941177,252.5000096874843L247.05882352941177,291.2499467188366L222.05882352941177,329.9998837501889C203.38235294117646,329.9998837501889 203.38235294117646,504.83174202377677 184.7058823529412,504.83174202377677Z" style="stroke: rgb(68, 68, 68); stroke-opacity: 1; fill: rgb(0, 0, 255); fill-opacity: 0.3; stroke-width: 0; opacity: 1;"/><path class="sankey-link" d="M555.2941176470589,192.50000968748435C615.1470588235295,192.50000968748435 615.1470588235295,174.9999806250317 675,174.9999806250317L700,213.749917656384L675,252.49985468773633C615.1470588235295,252.49985468773633 615.1470588235295,269.999883750189 555.2941176470589,269.999883750189Z" style="stroke: rgb(68, 68, 68); stroke-opacity: 1; fill: rgb(0, 0, 255); fill-opacity: 0.3; stroke-width: 0; opacity: 1;"/><path class="sankey-link" d="M514.1176470588235,343.346152941403C553.3823529411766,343.346152941403 553.3823529411766,77.49987406270438 592.6470588235295,77.49987406270438L617.6470588235295,116.2498110940567L592.6470588235295,154.999748125409C553.3823529411766,154.999748125409 553.3823529411766,420.8460270041076 514.1176470588235,420.8460270041076Z" style="stroke: rgb(68, 68, 68); stroke-opacity: 1; fill: rgb(0, 0, 255); fill-opacity: 0.3; stroke-width: 0; opacity: 1;"/><path class="sankey-link" d="M637.6470588235295,77.49987406270438C642.9411764705883,77.49987406270438 642.9411764705883,315.3908686091589 648.2352941176471,315.3908686091589L658.8235294117646,354.1408056405112L648.2352941176471,392.8907426718635C642.9411764705883,392.8907426718635 642.9411764705883,154.999748125409 637.6470588235295,154.999748125409Z" style="stroke: rgb(68, 68, 68); stroke-opacity: 1; fill: rgb(0, 0, 255); fill-opacity: 0.3; stroke-width: 0; opacity: 1;"/><path class="sankey-link" d="M431.764705882353,366.3284378045366C512.2058823529412,366.3284378045366 512.2058823529412,310.0001162498108 592.6470588235295,310.0001162498108L617.6470588235295,348.7500532811631L592.6470588235295,387.4999903125154C512.2058823529412,387.4999903125154 512.2058823529412,443.8283118672412 431.764705882353,443.8283118672412Z" style="stroke: rgb(68, 68, 68); stroke-opacity: 1; fill: rgb(0, 0, 255); fill-opacity: 0.3; stroke-width: 0; opacity: 1;"/><path class="sankey-link" d="M637.6470588235295,407.4999903125158C656.3235294117648,407.4999903125158 656.3235294117648,407.50037781188627 675,407.50037781188627L700,446.2503148432386L675,485.0002518745909C656.3235294117648,485.0002518745909 656.3235294117648,484.99986437522045 637.6470588235295,484.99986437522045Z" style="stroke: rgb(68, 68, 68); stroke-opacity: 1; fill: rgb(0, 0, 255); fill-opacity: 0.3; stroke-width: 0; opacity: 1;"/><path class="sankey-link" d="M61.1764705882353,367.49968031302C100.44117647058825,367.49968031302 100.44117647058825,349.8319938983675 139.7058823529412,349.8319938983675L164.7058823529412,388.5819309297198L139.7058823529412,427.33186796107213C100.44117647058825,427.33186796107213 100.44117647058825,444.99955437572464 61.1764705882353,444.99955437572464Z" style="stroke: rgb(68, 68, 68); stroke-opacity: 1; fill: rgb(0, 0, 255); fill-opacity: 0.3; stroke-width: 0; opacity: 1;"/><path class="sankey-link" d="M61.1764705882353,562.4999709375477C141.61764705882354,562.4999709375477 141.61764705882354,330.00050374918146 222.05882352941177,330.00050374918146L247.05882352941177,368.7504407805338L222.05882352941177,407.5003778118861C141.61764705882354,407.5003778118861 141.61764705882354,639.9998450002522 61.1764705882353,639.9998450002522Z" style="stroke: rgb(68, 68, 68); stroke-opacity: 1; fill: rgb(0, 0, 255); fill-opacity: 0.3; stroke-width: 0; opacity: 1;"/><path class="sankey-link" d="M555.2941176470589,465.0000193749688C615.1470588235295,465.0000193749688 615.1470588235295,485.0002518745909 675,485.0002518745909L700,523.7501889059432L675,562.5001259372955C615.1470588235295,562.5001259372955 615.1470588235295,542.4998934376734 555.2941176470589,542.4998934376734Z" style="stroke: rgb(68, 68, 68); stroke-opacity: 1; fill: rgb(0, 0, 255); fill-opacity: 0.3; stroke-width: 0; opacity: 1;"/><path class="sankey-link" d="M555.2941176470589,270.00019374968525C573.9705882352941,270.00019374968525 573.9705882352941,407.4999903125158 592.6470588235295,407.4999903125158L617.6470588235295,446.24992734386814L592.6470588235295,484.99986437522045C573.9705882352941,484.99986437522045 573.9705882352941,347.5000678123899 555.2941176470589,347.5000678123899Z" style="stroke: rgb(68, 68, 68); stroke-opacity: 1; fill: rgb(0, 0, 255); fill-opacity: 0.3; stroke-width: 0; opacity: 1;"/><path class="sankey-link" d="M267.05882352941177,329.9998837501889C388.67647058823536,329.9998837501889 388.67647058823536,192.50000968748435 510.2941176470589,192.50000968748435L535.2941176470589,231.24994671883667L510.2941176470589,269.999883750189C388.67647058823536,269.999883750189 388.67647058823536,407.49975781289356 267.05882352941177,407.49975781289356Z" style="stroke: rgb(68, 68, 68); stroke-opacity: 1; fill: rgb(0, 0, 255); fill-opacity: 0.3; stroke-width: 0; opacity: 1;"/><path class="sankey-link" d="M267.05882352941177,252.5000096874843C429.8529411764706,252.5000096874843 429.8529411764706,-2.2737367544323206e-13 592.6470588235295,-2.2737367544323206e-13L617.6470588235295,38.74993703135208L592.6470588235295,77.4998740627044C429.8529411764706,77.4998740627044 429.8529411764706,329.9998837501889 267.05882352941177,329.9998837501889Z" style="stroke: rgb(68, 68, 68); stroke-opacity: 1; fill: rgb(0, 0, 255); fill-opacity: 0.3; stroke-width: 0; opacity: 1;"/><path class="sankey-link" d="M267.05882352941177,484.99963187559814C429.8529411764706,484.99963187559814 429.8529411764706,484.9998643752204 592.6470588235295,484.9998643752204L617.6470588235295,523.7498014065727L592.6470588235295,562.499738437925C429.8529411764706,562.499738437925 429.8529411764706,562.4995059383027 267.05882352941177,562.4995059383027Z" style="stroke: rgb(68, 68, 68); stroke-opacity: 1; fill: rgb(0, 0, 255); fill-opacity: 0.3; stroke-width: 0; opacity: 1;"/><path class="sankey-link" d="M20,500.08094051820507C25.294117647058826,500.08094051820507 25.294117647058826,562.4999709375477 30.58823529411765,562.4999709375477L41.1764705882353,601.2499079689L30.58823529411765,639.9998450002522C25.294117647058826,639.9998450002522 25.294117647058826,577.5808145809096 20,577.5808145809096Z" style="stroke: rgb(68, 68, 68); stroke-opacity: 1; fill: rgb(0, 0, 255); fill-opacity: 0.3; stroke-width: 0; opacity: 1;"/><path class="sankey-link" d="M431.764705882353,443.8283118672412C512.2058823529412,443.8283118672412 512.2058823529412,562.5001259372951 592.6470588235295,562.5001259372951L617.6470588235295,601.2500629686474L592.6470588235295,639.9999999999997C512.2058823529412,639.9999999999997 512.2058823529412,521.3281859299458 431.764705882353,521.3281859299458Z" style="stroke: rgb(68, 68, 68); stroke-opacity: 1; fill: rgb(0, 0, 255); fill-opacity: 0.3; stroke-width: 0; opacity: 1;"/><path class="sankey-link" d="M61.1764705882353,464.9999418750949C100.44117647058825,464.9999418750949 100.44117647058825,427.33225546044247 139.7058823529412,427.33225546044247L164.7058823529412,466.0821924917948L139.7058823529412,504.8321295231471C100.44117647058825,504.8321295231471 100.44117647058825,542.4998159377996 61.1764705882353,542.4998159377996Z" style="stroke: rgb(68, 68, 68); stroke-opacity: 1; fill: rgb(0, 0, 255); fill-opacity: 0.3; stroke-width: 0; opacity: 1;"/><path class="sankey-link" d="M20,422.58091145575236C25.294117647058826,422.58091145575236 25.294117647058826,464.9999418750949 30.58823529411765,464.9999418750949L41.1764705882353,503.74987890644724L30.58823529411765,542.4998159377996C25.294117647058826,542.4998159377996 25.294117647058826,500.080785518457 20,500.080785518457Z" style="stroke: rgb(68, 68, 68); stroke-opacity: 1; fill: rgb(0, 0, 255); fill-opacity: 0.3; stroke-width: 0; opacity: 1;"/><path class="sankey-link" d="M267.05882352941177,562.5001259372949C388.67647058823536,562.5001259372949 388.67647058823536,562.4999709375475 510.2941176470589,562.4999709375475L535.2941176470589,601.2499079688997L510.2941176470589,639.999845000252C388.67647058823536,639.999845000252 388.67647058823536,639.9999999999994 267.05882352941177,639.9999999999994Z" style="stroke: rgb(68, 68, 68); stroke-opacity: 1; fill: rgb(0, 0, 255); fill-opacity: 0.3; stroke-width: 0; opacity: 1;"/><path class="sankey-link" d="M184.7058823529412,349.8319938983675C388.67647058823536,349.8319938983675 388.67647058823536,154.999748125409 592.6470588235295,154.999748125409L617.6470588235295,193.74968515676133L592.6470588235295,232.49962218811365C388.67647058823536,232.49962218811365 388.67647058823536,427.33186796107213 184.7058823529412,427.33186796107213Z" style="stroke: rgb(68, 68, 68); stroke-opacity: 1; fill: rgb(0, 0, 255); fill-opacity: 0.3; stroke-width: 0; opacity: 1;"/><path class="sankey-link" d="M267.05882352941177,407.49975781289356C326.9117647058824,407.49975781289356 326.9117647058824,366.3284378045366 386.764705882353,366.3284378045366L411.764705882353,405.0783748358889L386.764705882353,443.8283118672412C326.9117647058824,443.8283118672412 326.9117647058824,484.9996318755982 267.05882352941177,484.9996318755982Z" style="stroke: rgb(68, 68, 68); stroke-opacity: 1; fill: rgb(0, 0, 255); fill-opacity: 0.3; stroke-width: 0; opacity: 1;"/><path class="sankey-link" d="M555.2941176470589,367.5000678123898C615.1470588235295,367.5000678123898 615.1470588235295,330.00050374918163 675,330.00050374918163L700,368.75044078053395L675,407.50037781188627C615.1470588235295,407.50037781188627 615.1470588235295,444.9999418750944 555.2941176470589,444.9999418750944Z" style="stroke: rgb(68, 68, 68); stroke-opacity: 1; fill: rgb(0, 0, 255); fill-opacity: 0.3; stroke-width: 0; opacity: 1;"/><path class="sankey-link" d="M555.2941176470589,562.4999709375475C615.1470588235295,562.4999709375475 615.1470588235295,562.5001259372955 675,562.5001259372955L700,601.2500629686477L675,640C615.1470588235295,640 615.1470588235295,639.999845000252 555.2941176470589,639.999845000252Z" style="stroke: rgb(68, 68, 68); stroke-opacity: 1; fill: rgb(0, 0, 255); fill-opacity: 0.3; stroke-width: 0; opacity: 1;"/><path class="sankey-link" d="M20,345.0806498936774C25.294117647058826,345.0806498936774 25.294117647058826,367.49968031302 30.58823529411765,367.49968031302L41.1764705882353,406.2496173443723L30.58823529411765,444.99955437572464C25.294117647058826,444.99955437572464 25.294117647058826,422.580523956382 20,422.580523956382Z" style="stroke: rgb(68, 68, 68); stroke-opacity: 1; fill: rgb(0, 0, 255); fill-opacity: 0.3; stroke-width: 0; opacity: 1;"/><path class="sankey-link" d="M637.6470588235295,484.9998643752204C642.9411764705883,484.9998643752204 642.9411764705883,392.8915176706042 648.2352941176471,392.8915176706042L658.8235294117646,431.6414547019565L648.2352941176471,470.3913917333088C642.9411764705883,470.3913917333088 642.9411764705883,562.499738437925 637.6470588235295,562.499738437925Z" style="stroke: rgb(68, 68, 68); stroke-opacity: 1; fill: rgb(0, 0, 255); fill-opacity: 0.3; stroke-width: 0; opacity: 1;"/><path class="sankey-link" d="M596.4705882352941,355.668550044182C601.7647058823529,355.668550044182 601.7647058823529,232.49962218811362 607.0588235294118,232.49962218811362L617.6470588235295,271.24955921946594L607.0588235294118,309.99949625081825C601.7647058823529,309.99949625081825 601.7647058823529,433.1684241068866 596.4705882352941,433.1684241068866Z" style="stroke: rgb(68, 68, 68); stroke-opacity: 1; fill: rgb(0, 0, 255); fill-opacity: 0.3; stroke-width: 0; opacity: 1;"/><path class="sankey-link" d="M678.8235294117648,315.3908686091589C684.1176470588236,315.3908686091589 684.1176470588236,252.49985468773633 689.4117647058824,252.49985468773633L700,291.24979171908865L689.4117647058824,329.99972875044097C684.1176470588236,329.99972875044097 684.1176470588236,392.8907426718635 678.8235294117648,392.8907426718635Z" style="stroke: rgb(68, 68, 68); stroke-opacity: 1; fill: rgb(0, 0, 255); fill-opacity: 0.3; stroke-width: 0; opacity: 1;"/><path class="sankey-link" d="M20,422.580523956382C25.294117647058826,422.580523956382 25.294117647058826,444.99955437572464 30.58823529411765,444.99955437572464L41.1764705882353,444.99959312566165L30.58823529411765,444.99963187559865C25.294117647058826,444.99963187559865 25.294117647058826,422.58060145625603 20,422.58060145625603Z" style="stroke: rgb(0, 255, 0); stroke-opacity: 0; fill: rgb(0, 255, 0); fill-opacity: 0; stroke-width: 1; opacity: 1;"/><path class="sankey-link" d="M20,422.5806014562561C25.294117647058826,422.5806014562561 25.294117647058826,444.9996318755987 30.58823529411765,444.9996318755987L41.1764705882353,444.9996706255357L30.58823529411765,444.9997093754727C25.294117647058826,444.9997093754727 25.294117647058826,422.5806789561301 20,422.5806789561301Z" style="stroke: rgb(0, 255, 0); stroke-opacity: 0; fill: rgb(0, 255, 0); fill-opacity: 0; stroke-width: 1; opacity: 1;"/><path class="sankey-link" d="M20,422.58067895613016C25.294117647058826,422.58067895613016 25.294117647058826,444.9997093754728 30.58823529411765,444.9997093754728L41.1764705882353,444.9997481254098L30.58823529411765,444.9997868753468C25.294117647058826,444.9997868753468 25.294117647058826,422.58075645600417 20,422.58075645600417Z" style="stroke: rgb(0, 255, 0); stroke-opacity: 0; fill: rgb(0, 255, 0); fill-opacity: 0; stroke-width: 1; opacity: 1;"/><path class="sankey-link" d="M20,422.5807564560042C25.294117647058826,422.5807564560042 25.294117647058826,444.99978687534684 30.58823529411765,444.99978687534684L41.1764705882353,444.99982562528385L30.58823529411765,444.99986437522085C25.294117647058826,444.99986437522085 25.294117647058826,422.58083395587823 20,422.58083395587823Z" style="stroke: rgb(0, 255, 0); stroke-opacity: 0; fill: rgb(0, 255, 0); fill-opacity: 0; stroke-width: 1; opacity: 1;"/><path class="sankey-link" d="M20,577.5808145809098C25.294117647058826,577.5808145809098 25.294117647058826,639.9998450002523 30.58823529411765,639.9998450002523L41.1764705882353,639.9998837501894L30.58823529411765,639.9999225001264C25.294117647058826,639.9999225001264 25.294117647058826,577.5808920807839 20,577.5808920807839Z" style="stroke: rgb(0, 255, 0); stroke-opacity: 0; fill: rgb(0, 255, 0); fill-opacity: 0; stroke-width: 1; opacity: 1;"/><path class="sankey-link" d="M20,577.5808920807838C25.294117647058826,577.5808920807838 25.294117647058826,639.9999225001263 30.58823529411765,639.9999225001263L41.1764705882353,639.9999612500634L30.58823529411765,640.0000000000005C25.294117647058826,640.0000000000005 25.294117647058826,577.5809695806579 20,577.5809695806579Z" style="stroke: rgb(0, 255, 0); stroke-opacity: 0; fill: rgb(0, 255, 0); fill-opacity: 0; stroke-width: 1; opacity: 1;"/><path class="sankey-link" d="M20,500.080785518457C25.294117647058826,500.080785518457 25.294117647058826,542.4998159377996 30.58823529411765,542.4998159377996L41.1764705882353,542.4998546877366L30.58823529411765,542.4998934376737C25.294117647058826,542.4998934376737 25.294117647058826,500.080863018331 20,500.080863018331Z" style="stroke: rgb(0, 255, 0); stroke-opacity: 0; fill: rgb(0, 255, 0); fill-opacity: 0; stroke-width: 1; opacity: 1;"/><path class="sankey-link" d="M20,500.08086301833106C25.294117647058826,500.08086301833106 25.294117647058826,542.4998934376736 30.58823529411765,542.4998934376736L41.1764705882353,542.4999321876106L30.58823529411765,542.4999709375477C25.294117647058826,542.4999709375477 25.294117647058826,500.08094051820507 20,500.08094051820507Z" style="stroke: rgb(0, 255, 0); stroke-opacity: 0; fill: rgb(0, 255, 0); fill-opacity: 0; stroke-width: 1; opacity: 1;"/><path class="sankey-link" d="M20,422.5808339558783C25.294117647058826,422.5808339558783 25.294117647058826,444.9998643752209 30.58823529411765,444.9998643752209L41.1764705882353,444.9999031251579L30.58823529411765,444.9999418750949C25.294117647058826,444.9999418750949 25.294117647058826,422.5809114557523 20,422.5809114557523Z" style="stroke: rgb(0, 255, 0); stroke-opacity: 0; fill: rgb(0, 255, 0); fill-opacity: 0; stroke-width: 1; opacity: 1;"/><path class="sankey-link" d="M61.1764705882353,444.99955437572464C66.47058823529412,444.99955437572464 66.47058823529412,458.0403155668382 71.76470588235294,458.0403155668382L82.3529411764706,458.0403543167752L71.76470588235294,458.0403930667122C66.47058823529412,458.0403930667122 66.47058823529412,444.99963187559865 61.1764705882353,444.99963187559865Z" style="stroke: rgb(0, 255, 0); stroke-opacity: 0; fill: rgb(0, 255, 0); fill-opacity: 0; stroke-width: 1; opacity: 1;"/><path class="sankey-link" d="M61.1764705882353,639.9998450002523C66.47058823529412,639.9998450002523 66.47058823529412,458.04070306620855 71.76470588235294,458.04070306620855L82.3529411764706,458.04074181614556L71.76470588235294,458.04078056608256C66.47058823529412,458.04078056608256 66.47058823529412,639.9999225001264 61.1764705882353,639.9999225001264Z" style="stroke: rgb(0, 255, 0); stroke-opacity: 0; fill: rgb(0, 255, 0); fill-opacity: 0; stroke-width: 1; opacity: 1;"/><path class="sankey-link" d="M61.1764705882353,639.9999225001263C66.47058823529412,639.9999225001263 66.47058823529412,458.0407805660826 71.76470588235294,458.0407805660826L82.3529411764706,458.0408193160196L71.76470588235294,458.0408580659566C66.47058823529412,458.0408580659566 66.47058823529412,640.0000000000005 61.1764705882353,640.0000000000005Z" style="stroke: rgb(0, 255, 0); stroke-opacity: 0; fill: rgb(0, 255, 0); fill-opacity: 0; stroke-width: 1; opacity: 1;"/><path class="sankey-link" d="M61.1764705882353,542.4998159377996C66.47058823529412,542.4998159377996 66.47058823529412,458.0405480664604 71.76470588235294,458.0405480664604L82.3529411764706,458.0405868163974L71.76470588235294,458.0406255663344C66.47058823529412,458.0406255663344 66.47058823529412,542.4998934376737 61.1764705882353,542.4998934376737Z" style="stroke: rgb(0, 255, 0); stroke-opacity: 0; fill: rgb(0, 255, 0); fill-opacity: 0; stroke-width: 1; opacity: 1;"/><path class="sankey-link" d="M61.1764705882353,542.4998934376736C66.47058823529412,542.4998934376736 66.47058823529412,458.0406255663345 71.76470588235294,458.0406255663345L82.3529411764706,458.0406643162715L71.76470588235294,458.0407030662085C66.47058823529412,458.0407030662085 66.47058823529412,542.4999709375477 61.1764705882353,542.4999709375477Z" style="stroke: rgb(0, 255, 0); stroke-opacity: 0; fill: rgb(0, 255, 0); fill-opacity: 0; stroke-width: 1; opacity: 1;"/><path class="sankey-link" d="M61.1764705882353,444.9996318755987C66.47058823529412,444.9996318755987 66.47058823529412,458.0403930667123 71.76470588235294,458.0403930667123L82.3529411764706,458.0404318166493L71.76470588235294,458.0404705665863C66.47058823529412,458.0404705665863 66.47058823529412,444.9997093754727 61.1764705882353,444.9997093754727Z" style="stroke: rgb(0, 255, 0); stroke-opacity: 0; fill: rgb(0, 255, 0); fill-opacity: 0; stroke-width: 1; opacity: 1;"/><path class="sankey-link" d="M61.1764705882353,444.9997093754728C66.47058823529412,444.9997093754728 66.47058823529412,458.04047056658635 71.76470588235294,458.04047056658635L82.3529411764706,458.04050931652336L71.76470588235294,458.04054806646036C66.47058823529412,458.04054806646036 66.47058823529412,444.9997868753468 61.1764705882353,444.9997868753468Z" style="stroke: rgb(0, 255, 0); stroke-opacity: 0; fill: rgb(0, 255, 0); fill-opacity: 0; stroke-width: 1; opacity: 1;"/><path class="sankey-link" d="M102.3529411764706,458.0403155668382C107.64705882352942,458.0403155668382 107.64705882352942,421.36237870856075 112.94117647058823,421.36237870856075L123.52941176470588,421.36241745849776L112.94117647058823,421.36245620843476C107.64705882352942,421.36245620843476 107.64705882352942,458.0403930667122 102.3529411764706,458.0403930667122Z" style="stroke: rgb(0, 255, 0); stroke-opacity: 0; fill: rgb(0, 255, 0); fill-opacity: 0; stroke-width: 1; opacity: 1;"/><path class="sankey-link" d="M102.3529411764706,458.0403930667123C107.64705882352942,458.0403930667123 107.64705882352942,421.3624562084348 112.94117647058823,421.3624562084348L123.52941176470588,421.3624949583718L112.94117647058823,421.36253370830883C107.64705882352942,421.36253370830883 107.64705882352942,458.0404705665863 102.3529411764706,458.0404705665863Z" style="stroke: rgb(0, 255, 0); stroke-opacity: 0; fill: rgb(0, 255, 0); fill-opacity: 0; stroke-width: 1; opacity: 1;"/><path class="sankey-link" d="M143.52941176470588,421.36237870856075C148.8235294117647,421.36237870856075 148.8235294117647,427.33186796107213 154.11764705882354,427.33186796107213L164.7058823529412,427.33190671100914L154.11764705882354,427.33194546094614C148.8235294117647,427.33194546094614 148.8235294117647,421.36245620843476 143.52941176470588,421.36245620843476Z" style="stroke: rgb(0, 255, 0); stroke-opacity: 0; fill: rgb(0, 255, 0); fill-opacity: 0; stroke-width: 1; opacity: 1;"/><path class="sankey-link" d="M143.52941176470588,421.3624562084348C148.8235294117647,421.3624562084348 148.8235294117647,427.3319454609462 154.11764705882354,427.3319454609462L164.7058823529412,427.3319842108832L154.11764705882354,427.3320229608202C148.8235294117647,427.3320229608202 148.8235294117647,421.36253370830883 143.52941176470588,421.36253370830883Z" style="stroke: rgb(0, 255, 0); stroke-opacity: 0; fill: rgb(0, 255, 0); fill-opacity: 0; stroke-width: 1; opacity: 1;"/><path class="sankey-link" d="M143.52941176470588,421.3625337083089C148.8235294117647,421.3625337083089 148.8235294117647,427.33202296082027 154.11764705882354,427.33202296082027L164.7058823529412,427.3320617107573L154.11764705882354,427.3321004606943C148.8235294117647,427.3321004606943 148.8235294117647,421.3626112081829 143.52941176470588,421.3626112081829Z" style="stroke: rgb(0, 255, 0); stroke-opacity: 0; fill: rgb(0, 255, 0); fill-opacity: 0; stroke-width: 1; opacity: 1;"/><path class="sankey-link" d="M143.52941176470588,421.36261120818295C148.8235294117647,421.36261120818295 148.8235294117647,427.33210046069433 154.11764705882354,427.33210046069433L164.7058823529412,427.33213921063134L154.11764705882354,427.33217796056834C148.8235294117647,427.33217796056834 148.8235294117647,421.36268870805696 143.52941176470588,421.36268870805696Z" style="stroke: rgb(0, 255, 0); stroke-opacity: 0; fill: rgb(0, 255, 0); fill-opacity: 0; stroke-width: 1; opacity: 1;"/><path class="sankey-link" d="M143.52941176470588,421.362688708057C148.8235294117647,421.362688708057 148.8235294117647,427.3321779605684 154.11764705882354,427.3321779605684L164.7058823529412,427.3322167105054L154.11764705882354,427.3322554604424C148.8235294117647,427.3322554604424 148.8235294117647,421.36276620793103 143.52941176470588,421.36276620793103Z" style="stroke: rgb(0, 255, 0); stroke-opacity: 0; fill: rgb(0, 255, 0); fill-opacity: 0; stroke-width: 1; opacity: 1;"/><path class="sankey-link" d="M184.7058823529412,504.83174202377677C190,504.83174202377677 190,422.86956048191837 195.29411764705884,422.86956048191837L205.8823529411765,422.8695992318554L195.29411764705884,422.8696379817924C190,422.8696379817924 190,504.8318195236508 184.7058823529412,504.8318195236508Z" style="stroke: rgb(0, 255, 0); stroke-opacity: 0; fill: rgb(0, 255, 0); fill-opacity: 0; stroke-width: 1; opacity: 1;"/><path class="sankey-link" d="M184.7058823529412,504.83181952365084C190,504.83181952365084 190,422.86963798179244 195.29411764705884,422.86963798179244L205.8823529411765,422.86967673172944L195.29411764705884,422.86971548166645C190,422.86971548166645 190,504.83189702352485 184.7058823529412,504.83189702352485Z" style="stroke: rgb(0, 255, 0); stroke-opacity: 0; fill: rgb(0, 255, 0); fill-opacity: 0; stroke-width: 1; opacity: 1;"/><path class="sankey-link" d="M184.7058823529412,504.8318970235249C190,504.8318970235249 190,422.8697154816665 195.29411764705884,422.8697154816665L205.8823529411765,422.8697542316035L195.29411764705884,422.8697929815405C190,422.8697929815405 190,504.8319745233989 184.7058823529412,504.8319745233989Z" style="stroke: rgb(0, 255, 0); stroke-opacity: 0; fill: rgb(0, 255, 0); fill-opacity: 0; stroke-width: 1; opacity: 1;"/><path class="sankey-link" d="M184.7058823529412,504.83197452339897C190,504.83197452339897 190,422.86979298154057 195.29411764705884,422.86979298154057L205.8823529411765,422.8698317314776L195.29411764705884,422.8698704814146C190,422.8698704814146 190,504.832052023273 184.7058823529412,504.832052023273Z" style="stroke: rgb(0, 255, 0); stroke-opacity: 0; fill: rgb(0, 255, 0); fill-opacity: 0; stroke-width: 1; opacity: 1;"/><path class="sankey-link" d="M184.7058823529412,504.83205202327304C190,504.83205202327304 190,422.86987048141464 195.29411764705884,422.86987048141464L205.8823529411765,422.86990923135164L195.29411764705884,422.86994798128865C190,422.86994798128865 190,504.83212952314705 184.7058823529412,504.83212952314705Z" style="stroke: rgb(0, 255, 0); stroke-opacity: 0; fill: rgb(0, 255, 0); fill-opacity: 0; stroke-width: 1; opacity: 1;"/><path class="sankey-link" d="M225.8823529411765,422.86956048191837C231.1764705882353,422.86956048191837 231.1764705882353,329.9998837501889 236.47058823529414,329.9998837501889L247.05882352941177,329.99992250012593L236.47058823529414,329.99996125006294C231.1764705882353,329.99996125006294 231.1764705882353,422.8696379817924 225.8823529411765,422.8696379817924Z" style="stroke: rgb(0, 255, 0); stroke-opacity: 0; fill: rgb(0, 255, 0); fill-opacity: 0; stroke-width: 1; opacity: 1;"/><path class="sankey-link" d="M225.8823529411765,422.86963798179244C231.1764705882353,422.86963798179244 231.1764705882353,329.999961250063 236.47058823529414,329.999961250063L247.05882352941177,330L236.47058823529414,330.000038749937C231.1764705882353,330.000038749937 231.1764705882353,422.86971548166645 225.8823529411765,422.86971548166645Z" style="stroke: rgb(0, 255, 0); stroke-opacity: 0; fill: rgb(0, 255, 0); fill-opacity: 0; stroke-width: 1; opacity: 1;"/><path class="sankey-link" d="M225.8823529411765,422.8697154816665C231.1764705882353,422.8697154816665 231.1764705882353,330.00003874993706 236.47058823529414,330.00003874993706L247.05882352941177,330.00007749987407L236.47058823529414,330.0001162498111C231.1764705882353,330.0001162498111 231.1764705882353,422.8697929815405 225.8823529411765,422.8697929815405Z" style="stroke: rgb(0, 255, 0); stroke-opacity: 0; fill: rgb(0, 255, 0); fill-opacity: 0; stroke-width: 1; opacity: 1;"/><path class="sankey-link" d="M225.8823529411765,422.86979298154057C231.1764705882353,422.86979298154057 231.1764705882353,330.00011624981113 236.47058823529414,330.00011624981113L247.05882352941177,330.00015499974813L236.47058823529414,330.00019374968514C231.1764705882353,330.00019374968514 231.1764705882353,422.8698704814146 225.8823529411765,422.8698704814146Z" style="stroke: rgb(0, 255, 0); stroke-opacity: 0; fill: rgb(0, 255, 0); fill-opacity: 0; stroke-width: 1; opacity: 1;"/><path class="sankey-link" d="M225.8823529411765,422.86987048141464C231.1764705882353,422.86987048141464 231.1764705882353,330.0001937496852 236.47058823529414,330.0001937496852L247.05882352941177,330.0002324996222L236.47058823529414,330.0002712495592C231.1764705882353,330.0002712495592 231.1764705882353,422.86994798128865 225.8823529411765,422.86994798128865Z" style="stroke: rgb(0, 255, 0); stroke-opacity: 0; fill: rgb(0, 255, 0); fill-opacity: 0; stroke-width: 1; opacity: 1;"/><path class="sankey-link" d="M225.8823529411765,422.8699479812887C231.1764705882353,422.8699479812887 231.1764705882353,330.00027124955926 236.47058823529414,330.00027124955926L247.05882352941177,330.00030999949627L236.47058823529414,330.0003487494333C231.1764705882353,330.0003487494333 231.1764705882353,422.8700254811627 225.8823529411765,422.8700254811627Z" style="stroke: rgb(0, 255, 0); stroke-opacity: 0; fill: rgb(0, 255, 0); fill-opacity: 0; stroke-width: 1; opacity: 1;"/><path class="sankey-link" d="M225.8823529411765,422.87002548116277C231.1764705882353,422.87002548116277 231.1764705882353,330.00034874943333 236.47058823529414,330.00034874943333L247.05882352941177,330.00038749937033L236.47058823529414,330.00042624930734C231.1764705882353,330.00042624930734 231.1764705882353,422.8701029810368 225.8823529411765,422.8701029810368Z" style="stroke: rgb(0, 255, 0); stroke-opacity: 0; fill: rgb(0, 255, 0); fill-opacity: 0; stroke-width: 1; opacity: 1;"/><path class="sankey-link" d="M225.8823529411765,422.87010298103684C231.1764705882353,422.87010298103684 231.1764705882353,330.0004262493074 236.47058823529414,330.0004262493074L247.05882352941177,330.0004649992444L236.47058823529414,330.0005037491814C231.1764705882353,330.0005037491814 231.1764705882353,422.87018048091085 225.8823529411765,422.87018048091085Z" style="stroke: rgb(0, 255, 0); stroke-opacity: 0; fill: rgb(0, 255, 0); fill-opacity: 0; stroke-width: 1; opacity: 1;"/><path class="sankey-link" d="M267.05882352941177,562.4995059383028C272.3529411764706,562.4995059383028 272.3529411764706,460.27802459078015 277.6470588235294,460.27802459078015L288.2352941176471,460.27806334071715L277.6470588235294,460.27810209065416C272.3529411764706,460.27810209065416 272.3529411764706,562.499583438177 267.05882352941177,562.499583438177Z" style="stroke: rgb(0, 255, 0); stroke-opacity: 0; fill: rgb(0, 255, 0); fill-opacity: 0; stroke-width: 1; opacity: 1;"/><path class="sankey-link" d="M267.05882352941177,562.4995834381768C272.3529411764706,562.4995834381768 272.3529411764706,460.2781020906542 277.6470588235294,460.2781020906542L288.2352941176471,460.2781408405912L277.6470588235294,460.2781795905282C272.3529411764706,460.2781795905282 272.3529411764706,562.499660938051 267.05882352941177,562.499660938051Z" style="stroke: rgb(0, 255, 0); stroke-opacity: 0; fill: rgb(0, 255, 0); fill-opacity: 0; stroke-width: 1; opacity: 1;"/><path class="sankey-link" d="M267.05882352941177,562.4996609380509C272.3529411764706,562.4996609380509 272.3529411764706,460.2781795905283 277.6470588235294,460.2781795905283L288.2352941176471,460.2782183404653L277.6470588235294,460.2782570904023C272.3529411764706,460.2782570904023 272.3529411764706,562.499738437925 267.05882352941177,562.499738437925Z" style="stroke: rgb(0, 255, 0); stroke-opacity: 0; fill: rgb(0, 255, 0); fill-opacity: 0; stroke-width: 1; opacity: 1;"/><path class="sankey-link" d="M267.05882352941177,562.4997384379249C272.3529411764706,562.4997384379249 272.3529411764706,460.27825709040235 277.6470588235294,460.27825709040235L288.2352941176471,460.27829584033935L277.6470588235294,460.27833459027636C272.3529411764706,460.27833459027636 272.3529411764706,562.499815937799 267.05882352941177,562.499815937799Z" style="stroke: rgb(0, 255, 0); stroke-opacity: 0; fill: rgb(0, 255, 0); fill-opacity: 0; stroke-width: 1; opacity: 1;"/><path class="sankey-link" d="M267.05882352941177,562.4998159377989C272.3529411764706,562.4998159377989 272.3529411764706,460.2783345902764 277.6470588235294,460.2783345902764L288.2352941176471,460.2783733402134L277.6470588235294,460.2784120901504C272.3529411764706,460.2784120901504 272.3529411764706,562.499893437673 267.05882352941177,562.499893437673Z" style="stroke: rgb(0, 255, 0); stroke-opacity: 0; fill: rgb(0, 255, 0); fill-opacity: 0; stroke-width: 1; opacity: 1;"/><path class="sankey-link" d="M267.05882352941177,562.4998934376729C272.3529411764706,562.4998934376729 272.3529411764706,460.2784120901505 277.6470588235294,460.2784120901505L288.2352941176471,460.2784508400875L277.6470588235294,460.2784895900245C272.3529411764706,460.2784895900245 272.3529411764706,562.499970937547 267.05882352941177,562.499970937547Z" style="stroke: rgb(0, 255, 0); stroke-opacity: 0; fill: rgb(0, 255, 0); fill-opacity: 0; stroke-width: 1; opacity: 1;"/><path class="sankey-link" d="M267.05882352941177,562.4999709375469C272.3529411764706,562.4999709375469 272.3529411764706,460.27848959002455 277.6470588235294,460.27848959002455L288.2352941176471,460.27852833996155L277.6470588235294,460.27856708989856C272.3529411764706,460.27856708989856 272.3529411764706,562.500048437421 267.05882352941177,562.500048437421Z" style="stroke: rgb(0, 255, 0); stroke-opacity: 0; fill: rgb(0, 255, 0); fill-opacity: 0; stroke-width: 1; opacity: 1;"/><path class="sankey-link" d="M267.05882352941177,562.5000484374209C272.3529411764706,562.5000484374209 272.3529411764706,460.2785670898986 277.6470588235294,460.2785670898986L288.2352941176471,460.2786058398356L277.6470588235294,460.2786445897726C272.3529411764706,460.2786445897726 272.3529411764706,562.500125937295 267.05882352941177,562.500125937295Z" style="stroke: rgb(0, 255, 0); stroke-opacity: 0; fill: rgb(0, 255, 0); fill-opacity: 0; stroke-width: 1; opacity: 1;"/><path class="sankey-link" d="M308.2352941176471,460.27802459078015C313.5294117647059,460.27802459078015 313.5294117647059,446.7509176167482 318.82352941176475,446.7509176167482L329.41176470588243,446.7509563666852L318.82352941176475,446.7509951166222C313.5294117647059,446.7509951166222 313.5294117647059,460.27810209065416 308.2352941176471,460.27810209065416Z" style="stroke: rgb(0, 255, 0); stroke-opacity: 0; fill: rgb(0, 255, 0); fill-opacity: 0; stroke-width: 1; opacity: 1;"/><path class="sankey-link" d="M308.2352941176471,460.2781020906542C313.5294117647059,460.2781020906542 313.5294117647059,446.7509951166223 318.82352941176475,446.7509951166223L329.41176470588243,446.7510338665593L318.82352941176475,446.7510726164963C313.5294117647059,446.7510726164963 313.5294117647059,460.2781795905282 308.2352941176471,460.2781795905282Z" style="stroke: rgb(0, 255, 0); stroke-opacity: 0; fill: rgb(0, 255, 0); fill-opacity: 0; stroke-width: 1; opacity: 1;"/><path class="sankey-link" d="M349.4117647058824,446.7509176167482C354.7058823529412,446.7509176167482 354.7058823529412,433.0829713454814 360,433.0829713454814L370.5882352941177,433.0830100954184L360,433.0830488453554C354.7058823529412,433.0830488453554 354.7058823529412,446.7509951166222 349.4117647058824,446.7509951166222Z" style="stroke: rgb(0, 255, 0); stroke-opacity: 0; fill: rgb(0, 255, 0); fill-opacity: 0; stroke-width: 1; opacity: 1;"/><path class="sankey-link" d="M349.4117647058824,446.7509951166223C354.7058823529412,446.7509951166223 354.7058823529412,433.08304884535545 360,433.08304884535545L370.5882352941177,433.08308759529245L360,433.08312634522946C354.7058823529412,433.08312634522946 354.7058823529412,446.7510726164963 349.4117647058824,446.7510726164963Z" style="stroke: rgb(0, 255, 0); stroke-opacity: 0; fill: rgb(0, 255, 0); fill-opacity: 0; stroke-width: 1; opacity: 1;"/><path class="sankey-link" d="M390.5882352941177,433.0829713454814C395.8823529411765,433.0829713454814 395.8823529411765,443.8283118672412 401.17647058823536,443.8283118672412L411.76470588235304,443.8283506171782L401.17647058823536,443.8283893671152C395.8823529411765,443.8283893671152 395.8823529411765,433.0830488453554 390.5882352941177,433.0830488453554Z" style="stroke: rgb(0, 255, 0); stroke-opacity: 0; fill: rgb(0, 255, 0); fill-opacity: 0; stroke-width: 1; opacity: 1;"/><path class="sankey-link" d="M390.5882352941177,433.08304884535545C395.8823529411765,433.08304884535545 395.8823529411765,443.8283893671153 401.17647058823536,443.8283893671153L411.76470588235304,443.8284281170523L401.17647058823536,443.8284668669893C395.8823529411765,443.8284668669893 395.8823529411765,433.08312634522946 390.5882352941177,433.08312634522946Z" style="stroke: rgb(0, 255, 0); stroke-opacity: 0; fill: rgb(0, 255, 0); fill-opacity: 0; stroke-width: 1; opacity: 1;"/><path class="sankey-link" d="M390.5882352941177,433.0831263452295C395.8823529411765,433.0831263452295 395.8823529411765,443.82846686698934 401.17647058823536,443.82846686698934L411.76470588235304,443.82850561692635L401.17647058823536,443.82854436686335C395.8823529411765,443.82854436686335 395.8823529411765,433.0832038451035 390.5882352941177,433.0832038451035Z" style="stroke: rgb(0, 255, 0); stroke-opacity: 0; fill: rgb(0, 255, 0); fill-opacity: 0; stroke-width: 1; opacity: 1;"/><path class="sankey-link" d="M390.5882352941177,433.0832038451036C395.8823529411765,433.0832038451036 395.8823529411765,443.8285443668634 401.17647058823536,443.8285443668634L411.76470588235304,443.8285831168004L401.17647058823536,443.8286218667374C395.8823529411765,443.8286218667374 395.8823529411765,433.0832813449776 390.5882352941177,433.0832813449776Z" style="stroke: rgb(0, 255, 0); stroke-opacity: 0; fill: rgb(0, 255, 0); fill-opacity: 0; stroke-width: 1; opacity: 1;"/><path class="sankey-link" d="M431.764705882353,521.3281859299458C437.0588235294118,521.3281859299458 437.0588235294118,413.108936662787 442.3529411764706,413.108936662787L452.9411764705883,413.108975412724L442.3529411764706,413.109014162661C437.0588235294118,413.109014162661 437.0588235294118,521.3282634298199 431.764705882353,521.3282634298199Z" style="stroke: rgb(0, 255, 0); stroke-opacity: 0; fill: rgb(0, 255, 0); fill-opacity: 0; stroke-width: 1; opacity: 1;"/><path class="sankey-link" d="M431.764705882353,521.3282634298198C437.0588235294118,521.3282634298198 437.0588235294118,413.1090141626611 442.3529411764706,413.1090141626611L452.9411764705883,413.1090529125981L442.3529411764706,413.1090916625351C437.0588235294118,413.1090916625351 437.0588235294118,521.3283409296939 431.764705882353,521.3283409296939Z" style="stroke: rgb(0, 255, 0); stroke-opacity: 0; fill: rgb(0, 255, 0); fill-opacity: 0; stroke-width: 1; opacity: 1;"/><path class="sankey-link" d="M431.764705882353,521.3283409296938C437.0588235294118,521.3283409296938 437.0588235294118,413.10909166253515 442.3529411764706,413.10909166253515L452.9411764705883,413.10913041247215L442.3529411764706,413.10916916240916C437.0588235294118,413.10916916240916 437.0588235294118,521.3284184295679 431.764705882353,521.3284184295679Z" style="stroke: rgb(0, 255, 0); stroke-opacity: 0; fill: rgb(0, 255, 0); fill-opacity: 0; stroke-width: 1; opacity: 1;"/><path class="sankey-link" d="M431.764705882353,521.3284184295678C437.0588235294118,521.3284184295678 437.0588235294118,413.1091691624092 442.3529411764706,413.1091691624092L452.9411764705883,413.1092079123462L442.3529411764706,413.1092466622832C437.0588235294118,413.1092466622832 437.0588235294118,521.3284959294419 431.764705882353,521.3284959294419Z" style="stroke: rgb(0, 255, 0); stroke-opacity: 0; fill: rgb(0, 255, 0); fill-opacity: 0; stroke-width: 1; opacity: 1;"/><path class="sankey-link" d="M472.9411764705883,413.108936662787C478.2352941176471,413.108936662787 478.2352941176471,343.346152941403 483.5294117647059,343.346152941403L494.11764705882354,343.34619169134L483.5294117647059,343.346230441277C478.2352941176471,343.346230441277 478.2352941176471,413.109014162661 472.9411764705883,413.109014162661Z" style="stroke: rgb(0, 255, 0); stroke-opacity: 0; fill: rgb(0, 255, 0); fill-opacity: 0; stroke-width: 1; opacity: 1;"/><path class="sankey-link" d="M472.9411764705883,413.1090141626611C478.2352941176471,413.1090141626611 478.2352941176471,343.34623044127704 483.5294117647059,343.34623044127704L494.11764705882354,343.34626919121405L483.5294117647059,343.34630794115105C478.2352941176471,343.34630794115105 478.2352941176471,413.1090916625351 472.9411764705883,413.1090916625351Z" style="stroke: rgb(0, 255, 0); stroke-opacity: 0; fill: rgb(0, 255, 0); fill-opacity: 0; stroke-width: 1; opacity: 1;"/><path class="sankey-link" d="M514.1176470588235,420.8460270041076C519.4117647058824,420.8460270041076 519.4117647058824,269.999883750189 524.7058823529412,269.999883750189L535.2941176470589,269.999922500126L524.7058823529412,269.999961250063C519.4117647058824,269.999961250063 519.4117647058824,420.8461045039816 514.1176470588235,420.8461045039816Z" style="stroke: rgb(0, 255, 0); stroke-opacity: 0; fill: rgb(0, 255, 0); fill-opacity: 0; stroke-width: 1; opacity: 1;"/><path class="sankey-link" d="M514.1176470588235,420.8461045039817C519.4117647058824,420.8461045039817 519.4117647058824,269.99996125006305 524.7058823529412,269.99996125006305L535.2941176470589,270.00000000000006L524.7058823529412,270.00003874993706C519.4117647058824,270.00003874993706 519.4117647058824,420.8461820038557 514.1176470588235,420.8461820038557Z" style="stroke: rgb(0, 255, 0); stroke-opacity: 0; fill: rgb(0, 255, 0); fill-opacity: 0; stroke-width: 1; opacity: 1;"/><path class="sankey-link" d="M514.1176470588235,420.84641450347794C519.4117647058824,420.84641450347794 519.4117647058824,465.0000193749688 524.7058823529412,465.0000193749688L535.2941176470589,465.0000581249058L524.7058823529412,465.0000968748428C519.4117647058824,465.0000968748428 519.4117647058824,420.84649200335195 514.1176470588235,420.84649200335195Z" style="stroke: rgb(0, 255, 0); stroke-opacity: 0; fill: rgb(0, 255, 0); fill-opacity: 0; stroke-width: 1; opacity: 1;"/><path class="sankey-link" d="M514.1176470588235,420.84618200385574C519.4117647058824,420.84618200385574 519.4117647058824,270.0000387499371 524.7058823529412,270.0000387499371L535.2941176470589,270.0000774998741L524.7058823529412,270.00011624981113C519.4117647058824,270.00011624981113 519.4117647058824,420.84625950372975 514.1176470588235,420.84625950372975Z" style="stroke: rgb(0, 255, 0); stroke-opacity: 0; fill: rgb(0, 255, 0); fill-opacity: 0; stroke-width: 1; opacity: 1;"/><path class="sankey-link" d="M514.1176470588235,420.8462595037298C519.4117647058824,420.8462595037298 519.4117647058824,270.0001162498112 524.7058823529412,270.0001162498112L535.2941176470589,270.0001549997482L524.7058823529412,270.0001937496852C519.4117647058824,270.0001937496852 519.4117647058824,420.8463370036038 514.1176470588235,420.8463370036038Z" style="stroke: rgb(0, 255, 0); stroke-opacity: 0; fill: rgb(0, 255, 0); fill-opacity: 0; stroke-width: 1; opacity: 1;"/><path class="sankey-link" d="M514.1176470588235,420.846492003352C519.4117647058824,420.846492003352 519.4117647058824,639.9998450002521 524.7058823529412,639.9998450002521L535.2941176470589,639.9998837501892L524.7058823529412,639.9999225001262C519.4117647058824,639.9999225001262 519.4117647058824,420.846569503226 514.1176470588235,420.846569503226Z" style="stroke: rgb(0, 255, 0); stroke-opacity: 0; fill: rgb(0, 255, 0); fill-opacity: 0; stroke-width: 1; opacity: 1;"/><path class="sankey-link" d="M514.1176470588235,420.8463370036039C519.4117647058824,420.8463370036039 519.4117647058824,367.5000678123898 524.7058823529412,367.5000678123898L535.2941176470589,367.5001065623268L524.7058823529412,367.5001453122638C519.4117647058824,367.5001453122638 519.4117647058824,420.8464145034779 514.1176470588235,420.8464145034779Z" style="stroke: rgb(0, 255, 0); stroke-opacity: 0; fill: rgb(0, 255, 0); fill-opacity: 0; stroke-width: 1; opacity: 1;"/><path class="sankey-link" d="M514.1176470588235,420.8465695032261C519.4117647058824,420.8465695032261 519.4117647058824,639.9999225001261 524.7058823529412,639.9999225001261L535.2941176470589,639.9999612500632L524.7058823529412,640.0000000000002C519.4117647058824,640.0000000000002 519.4117647058824,420.8466470031001 514.1176470588235,420.8466470031001Z" style="stroke: rgb(0, 255, 0); stroke-opacity: 0; fill: rgb(0, 255, 0); fill-opacity: 0; stroke-width: 1; opacity: 1;"/><path class="sankey-link" d="M555.2941176470589,269.999883750189C560.5882352941178,269.999883750189 560.5882352941178,355.668550044182 565.8823529411766,355.668550044182L576.4705882352941,355.668588794119L565.8823529411766,355.668627544056C560.5882352941178,355.668627544056 560.5882352941178,269.999961250063 555.2941176470589,269.999961250063Z" style="stroke: rgb(0, 255, 0); stroke-opacity: 0; fill: rgb(0, 255, 0); fill-opacity: 0; stroke-width: 1; opacity: 1;"/><path class="sankey-link" d="M555.2941176470589,542.4998934376734C560.5882352941178,542.4998934376734 560.5882352941178,355.6689375435523 565.8823529411766,355.6689375435523L576.4705882352941,355.6689762934893L565.8823529411766,355.6690150434263C560.5882352941178,355.6690150434263 560.5882352941178,542.4999709375476 555.2941176470589,542.4999709375476Z" style="stroke: rgb(0, 255, 0); stroke-opacity: 0; fill: rgb(0, 255, 0); fill-opacity: 0; stroke-width: 1; opacity: 1;"/><path class="sankey-link" d="M555.2941176470589,269.99996125006305C560.5882352941178,269.99996125006305 560.5882352941178,355.66862754405605 565.8823529411766,355.66862754405605L576.4705882352941,355.66866629399306L565.8823529411766,355.66870504393006C560.5882352941178,355.66870504393006 560.5882352941178,270.00003874993706 555.2941176470589,270.00003874993706Z" style="stroke: rgb(0, 255, 0); stroke-opacity: 0; fill: rgb(0, 255, 0); fill-opacity: 0; stroke-width: 1; opacity: 1;"/><path class="sankey-link" d="M555.2941176470589,270.0000387499371C560.5882352941178,270.0000387499371 560.5882352941178,355.6687050439301 565.8823529411766,355.6687050439301L576.4705882352941,355.6687437938671L565.8823529411766,355.6687825438041C560.5882352941178,355.6687825438041 560.5882352941178,270.00011624981113 555.2941176470589,270.00011624981113Z" style="stroke: rgb(0, 255, 0); stroke-opacity: 0; fill: rgb(0, 255, 0); fill-opacity: 0; stroke-width: 1; opacity: 1;"/><path class="sankey-link" d="M555.2941176470589,639.9998450002521C560.5882352941178,639.9998450002521 560.5882352941178,355.6690150434264 565.8823529411766,355.6690150434264L576.4705882352941,355.6690537933634L565.8823529411766,355.6690925433004C560.5882352941178,355.6690925433004 560.5882352941178,639.9999225001262 555.2941176470589,639.9999225001262Z" style="stroke: rgb(0, 255, 0); stroke-opacity: 0; fill: rgb(0, 255, 0); fill-opacity: 0; stroke-width: 1; opacity: 1;"/><path class="sankey-link" d="M555.2941176470589,444.9999418750944C560.5882352941178,444.9999418750944 560.5882352941178,355.66886004367825 565.8823529411766,355.66886004367825L576.4705882352941,355.66889879361526L565.8823529411766,355.66893754355226C560.5882352941178,355.66893754355226 560.5882352941178,445.0000193749684 555.2941176470589,445.0000193749684Z" style="stroke: rgb(0, 255, 0); stroke-opacity: 0; fill: rgb(0, 255, 0); fill-opacity: 0; stroke-width: 1; opacity: 1;"/><path class="sankey-link" d="M555.2941176470589,639.9999225001261C560.5882352941178,639.9999225001261 560.5882352941178,355.66909254330045 565.8823529411766,355.66909254330045L576.4705882352941,355.66913129323746L565.8823529411766,355.66917004317446C560.5882352941178,355.66917004317446 560.5882352941178,640.0000000000002 555.2941176470589,640.0000000000002Z" style="stroke: rgb(0, 255, 0); stroke-opacity: 0; fill: rgb(0, 255, 0); fill-opacity: 0; stroke-width: 1; opacity: 1;"/><path class="sankey-link" d="M555.2941176470589,270.0001162498112C560.5882352941178,270.0001162498112 560.5882352941178,355.6687825438042 565.8823529411766,355.6687825438042L576.4705882352941,355.6688212937412L565.8823529411766,355.6688600436782C560.5882352941178,355.6688600436782 560.5882352941178,270.0001937496852 555.2941176470589,270.0001937496852Z" style="stroke: rgb(0, 255, 0); stroke-opacity: 0; fill: rgb(0, 255, 0); fill-opacity: 0; stroke-width: 1; opacity: 1;"/><path class="sankey-link" d="M596.4705882352941,433.1684241068866C601.7647058823529,433.1684241068866 601.7647058823529,309.99949625081825 607.0588235294118,309.99949625081825L617.6470588235295,309.99953500075526L607.0588235294118,309.99957375069226C601.7647058823529,309.99957375069226 601.7647058823529,433.1685016067606 596.4705882352941,433.1685016067606Z" style="stroke: rgb(0, 255, 0); stroke-opacity: 0; fill: rgb(0, 255, 0); fill-opacity: 0; stroke-width: 1; opacity: 1;"/><path class="sankey-link" d="M596.4705882352941,433.1685016067607C601.7647058823529,433.1685016067607 601.7647058823529,309.9995737506923 607.0588235294118,309.9995737506923L617.6470588235295,309.9996125006293L607.0588235294118,309.99965125056633C601.7647058823529,309.99965125056633 601.7647058823529,433.1685791066347 596.4705882352941,433.1685791066347Z" style="stroke: rgb(0, 255, 0); stroke-opacity: 0; fill: rgb(0, 255, 0); fill-opacity: 0; stroke-width: 1; opacity: 1;"/><path class="sankey-link" d="M596.4705882352941,433.16857910663475C601.7647058823529,433.16857910663475 601.7647058823529,309.9996512505664 607.0588235294118,309.9996512505664L617.6470588235295,309.9996900005034L607.0588235294118,309.9997287504404C601.7647058823529,309.9997287504404 601.7647058823529,433.16865660650876 596.4705882352941,433.16865660650876Z" style="stroke: rgb(0, 255, 0); stroke-opacity: 0; fill: rgb(0, 255, 0); fill-opacity: 0; stroke-width: 1; opacity: 1;"/><path class="sankey-link" d="M596.4705882352941,433.1686566065088C601.7647058823529,433.1686566065088 601.7647058823529,309.99972875044045 607.0588235294118,309.99972875044045L617.6470588235295,309.99976750037746L607.0588235294118,309.99980625031446C601.7647058823529,309.99980625031446 601.7647058823529,433.16873410638283 596.4705882352941,433.16873410638283Z" style="stroke: rgb(0, 255, 0); stroke-opacity: 0; fill: rgb(0, 255, 0); fill-opacity: 0; stroke-width: 1; opacity: 1;"/><path class="sankey-link" d="M596.4705882352941,433.1687341063829C601.7647058823529,433.1687341063829 601.7647058823529,309.9998062503145 607.0588235294118,309.9998062503145L617.6470588235295,309.9998450002515L607.0588235294118,309.99988375018853C601.7647058823529,309.99988375018853 601.7647058823529,433.1688116062569 596.4705882352941,433.1688116062569Z" style="stroke: rgb(0, 255, 0); stroke-opacity: 0; fill: rgb(0, 255, 0); fill-opacity: 0; stroke-width: 1; opacity: 1;"/><path class="sankey-link" d="M596.4705882352941,433.16904410587915C601.7647058823529,433.16904410587915 601.7647058823529,562.4997384379251 607.0588235294118,562.4997384379251L617.6470588235295,562.4997771878622L607.0588235294118,562.4998159377992C601.7647058823529,562.4998159377992 601.7647058823529,433.16912160575316 596.4705882352941,433.16912160575316Z" style="stroke: rgb(0, 255, 0); stroke-opacity: 0; fill: rgb(0, 255, 0); fill-opacity: 0; stroke-width: 1; opacity: 1;"/><path class="sankey-link" d="M596.4705882352941,433.1691216057532C601.7647058823529,433.1691216057532 601.7647058823529,562.4998159377991 607.0588235294118,562.4998159377991L617.6470588235295,562.4998546877362L607.0588235294118,562.4998934376732C601.7647058823529,562.4998934376732 601.7647058823529,433.16919910562723 596.4705882352941,433.16919910562723Z" style="stroke: rgb(0, 255, 0); stroke-opacity: 0; fill: rgb(0, 255, 0); fill-opacity: 0; stroke-width: 1; opacity: 1;"/><path class="sankey-link" d="M596.4705882352941,433.16881160625695C601.7647058823529,433.16881160625695 601.7647058823529,309.9998837501886 607.0588235294118,309.9998837501886L617.6470588235295,309.9999225001256L607.0588235294118,309.9999612500626C601.7647058823529,309.9999612500626 601.7647058823529,433.16888910613096 596.4705882352941,433.16888910613096Z" style="stroke: rgb(0, 255, 0); stroke-opacity: 0; fill: rgb(0, 255, 0); fill-opacity: 0; stroke-width: 1; opacity: 1;"/><path class="sankey-link" d="M596.4705882352941,433.1691991056273C601.7647058823529,433.1691991056273 601.7647058823529,562.4998934376731 607.0588235294118,562.4998934376731L617.6470588235295,562.4999321876102L607.0588235294118,562.4999709375472C601.7647058823529,562.4999709375472 601.7647058823529,433.1692766055013 596.4705882352941,433.1692766055013Z" style="stroke: rgb(0, 255, 0); stroke-opacity: 0; fill: rgb(0, 255, 0); fill-opacity: 0; stroke-width: 1; opacity: 1;"/><path class="sankey-link" d="M596.4705882352941,433.16927660550135C601.7647058823529,433.16927660550135 601.7647058823529,562.4999709375471 607.0588235294118,562.4999709375471L617.6470588235295,562.5000096874842L607.0588235294118,562.5000484374212C601.7647058823529,562.5000484374212 601.7647058823529,433.16935410537536 596.4705882352941,433.16935410537536Z" style="stroke: rgb(0, 255, 0); stroke-opacity: 0; fill: rgb(0, 255, 0); fill-opacity: 0; stroke-width: 1; opacity: 1;"/><path class="sankey-link" d="M596.4705882352941,433.168889106131C601.7647058823529,433.168889106131 601.7647058823529,309.99996125006265 607.0588235294118,309.99996125006265L617.6470588235295,309.99999999999966L607.0588235294118,310.00003874993666C601.7647058823529,310.00003874993666 601.7647058823529,433.16896660600503 596.4705882352941,433.16896660600503Z" style="stroke: rgb(0, 255, 0); stroke-opacity: 0; fill: rgb(0, 255, 0); fill-opacity: 0; stroke-width: 1; opacity: 1;"/><path class="sankey-link" d="M596.4705882352941,433.1693541053754C601.7647058823529,433.1693541053754 601.7647058823529,562.5000484374211 607.0588235294118,562.5000484374211L617.6470588235295,562.5000871873582L607.0588235294118,562.5001259372953C601.7647058823529,562.5001259372953 601.7647058823529,433.16943160524943 596.4705882352941,433.16943160524943Z" style="stroke: rgb(0, 255, 0); stroke-opacity: 0; fill: rgb(0, 255, 0); fill-opacity: 0; stroke-width: 1; opacity: 1;"/><path class="sankey-link" d="M596.4705882352941,433.1689666060051C601.7647058823529,433.1689666060051 601.7647058823529,310.0000387499367 607.0588235294118,310.0000387499367L617.6470588235295,310.0000774998737L607.0588235294118,310.00011624981073C601.7647058823529,310.00011624981073 601.7647058823529,433.1690441058791 596.4705882352941,433.1690441058791Z" style="stroke: rgb(0, 255, 0); stroke-opacity: 0; fill: rgb(0, 255, 0); fill-opacity: 0; stroke-width: 1; opacity: 1;"/><path class="sankey-link" d="M637.6470588235295,154.999748125409C642.9411764705883,154.999748125409 642.9411764705883,392.8907426718635 648.2352941176471,392.8907426718635L658.8235294117646,392.8907814218005L648.2352941176471,392.8908201717375C642.9411764705883,392.8908201717375 642.9411764705883,154.99982562528308 637.6470588235295,154.99982562528308Z" style="stroke: rgb(0, 255, 0); stroke-opacity: 0; fill: rgb(0, 255, 0); fill-opacity: 0; stroke-width: 1; opacity: 1;"/><path class="sankey-link" d="M637.6470588235295,154.99982562528308C642.9411764705883,154.99982562528308 642.9411764705883,392.8908201717376 648.2352941176471,392.8908201717376L658.8235294117646,392.8908589216746L648.2352941176471,392.8908976716116C642.9411764705883,392.8908976716116 642.9411764705883,154.99990312515715 637.6470588235295,154.99990312515715Z" style="stroke: rgb(0, 255, 0); stroke-opacity: 0; fill: rgb(0, 255, 0); fill-opacity: 0; stroke-width: 1; opacity: 1;"/><path class="sankey-link" d="M637.6470588235295,154.99990312515715C642.9411764705883,154.99990312515715 642.9411764705883,392.89089767161164 648.2352941176471,392.89089767161164L658.8235294117646,392.89093642154864L648.2352941176471,392.89097517148565C642.9411764705883,392.89097517148565 642.9411764705883,154.9999806250312 637.6470588235295,154.9999806250312Z" style="stroke: rgb(0, 255, 0); stroke-opacity: 0; fill: rgb(0, 255, 0); fill-opacity: 0; stroke-width: 1; opacity: 1;"/><path class="sankey-link" d="M637.6470588235295,154.9999806250312C642.9411764705883,154.9999806250312 642.9411764705883,392.8909751714857 648.2352941176471,392.8909751714857L658.8235294117646,392.8910139214227L648.2352941176471,392.8910526713597C642.9411764705883,392.8910526713597 642.9411764705883,155.00005812490528 637.6470588235295,155.00005812490528Z" style="stroke: rgb(0, 255, 0); stroke-opacity: 0; fill: rgb(0, 255, 0); fill-opacity: 0; stroke-width: 1; opacity: 1;"/><path class="sankey-link" d="M637.6470588235295,562.4997384379251C642.9411764705883,562.4997384379251 642.9411764705883,470.3913917333088 648.2352941176471,470.3913917333088L658.8235294117646,470.3914304832458L648.2352941176471,470.3914692331828C642.9411764705883,470.3914692331828 642.9411764705883,562.4998159377992 637.6470588235295,562.4998159377992Z" style="stroke: rgb(0, 255, 0); stroke-opacity: 0; fill: rgb(0, 255, 0); fill-opacity: 0; stroke-width: 1; opacity: 1;"/><path class="sankey-link" d="M637.6470588235295,562.4998159377991C642.9411764705883,562.4998159377991 642.9411764705883,470.3914692331829 648.2352941176471,470.3914692331829L658.8235294117646,470.3915079831199L648.2352941176471,470.3915467330569C642.9411764705883,470.3915467330569 642.9411764705883,562.4998934376732 637.6470588235295,562.4998934376732Z" style="stroke: rgb(0, 255, 0); stroke-opacity: 0; fill: rgb(0, 255, 0); fill-opacity: 0; stroke-width: 1; opacity: 1;"/><path class="sankey-link" d="M637.6470588235295,155.00005812490528C642.9411764705883,155.00005812490528 642.9411764705883,392.8910526713598 648.2352941176471,392.8910526713598L658.8235294117646,392.8910914212968L648.2352941176471,392.8911301712338C642.9411764705883,392.8911301712338 642.9411764705883,155.00013562477935 637.6470588235295,155.00013562477935Z" style="stroke: rgb(0, 255, 0); stroke-opacity: 0; fill: rgb(0, 255, 0); fill-opacity: 0; stroke-width: 1; opacity: 1;"/><path class="sankey-link" d="M637.6470588235295,562.4998934376731C642.9411764705883,562.4998934376731 642.9411764705883,470.39154673305694 648.2352941176471,470.39154673305694L658.8235294117646,470.39158548299395L648.2352941176471,470.39162423293095C642.9411764705883,470.39162423293095 642.9411764705883,562.4999709375472 637.6470588235295,562.4999709375472Z" style="stroke: rgb(0, 255, 0); stroke-opacity: 0; fill: rgb(0, 255, 0); fill-opacity: 0; stroke-width: 1; opacity: 1;"/><path class="sankey-link" d="M637.6470588235295,562.4999709375471C642.9411764705883,562.4999709375471 642.9411764705883,470.391624232931 648.2352941176471,470.391624232931L658.8235294117646,470.391662982868L648.2352941176471,470.391701732805C642.9411764705883,470.391701732805 642.9411764705883,562.5000484374212 637.6470588235295,562.5000484374212Z" style="stroke: rgb(0, 255, 0); stroke-opacity: 0; fill: rgb(0, 255, 0); fill-opacity: 0; stroke-width: 1; opacity: 1;"/><path class="sankey-link" d="M637.6470588235295,155.00013562477935C642.9411764705883,155.00013562477935 642.9411764705883,392.89113017123384 648.2352941176471,392.89113017123384L658.8235294117646,392.89116892117084L648.2352941176471,392.89120767110785C642.9411764705883,392.89120767110785 642.9411764705883,155.0002131246534 637.6470588235295,155.0002131246534Z" style="stroke: rgb(0, 255, 0); stroke-opacity: 0; fill: rgb(0, 255, 0); fill-opacity: 0; stroke-width: 1; opacity: 1;"/><path class="sankey-link" d="M637.6470588235295,562.5000484374211C642.9411764705883,562.5000484374211 642.9411764705883,470.3917017328051 648.2352941176471,470.3917017328051L658.8235294117646,470.3917404827421L648.2352941176471,470.3917792326791C642.9411764705883,470.3917792326791 642.9411764705883,562.5001259372953 637.6470588235295,562.5001259372953Z" style="stroke: rgb(0, 255, 0); stroke-opacity: 0; fill: rgb(0, 255, 0); fill-opacity: 0; stroke-width: 1; opacity: 1;"/><path class="sankey-link" d="M637.6470588235295,155.0002131246534C642.9411764705883,155.0002131246534 642.9411764705883,392.8912076711079 648.2352941176471,392.8912076711079L658.8235294117646,392.8912464210449L648.2352941176471,392.8912851709819C642.9411764705883,392.8912851709819 642.9411764705883,155.00029062452748 637.6470588235295,155.00029062452748Z" style="stroke: rgb(0, 255, 0); stroke-opacity: 0; fill: rgb(0, 255, 0); fill-opacity: 0; stroke-width: 1; opacity: 1;"/><path class="sankey-link" d="M637.6470588235295,155.00029062452748C642.9411764705883,155.00029062452748 642.9411764705883,392.891285170982 648.2352941176471,392.891285170982L658.8235294117646,392.891323920919L648.2352941176471,392.891362670856C642.9411764705883,392.891362670856 642.9411764705883,155.00036812440155 637.6470588235295,155.00036812440155Z" style="stroke: rgb(0, 255, 0); stroke-opacity: 0; fill: rgb(0, 255, 0); fill-opacity: 0; stroke-width: 1; opacity: 1;"/><path class="sankey-link" d="M637.6470588235295,155.00036812440155C642.9411764705883,155.00036812440155 642.9411764705883,392.89136267085604 648.2352941176471,392.89136267085604L658.8235294117646,392.89140142079304L648.2352941176471,392.89144017073005C642.9411764705883,392.89144017073005 642.9411764705883,155.0004456242756 637.6470588235295,155.0004456242756Z" style="stroke: rgb(0, 255, 0); stroke-opacity: 0; fill: rgb(0, 255, 0); fill-opacity: 0; stroke-width: 1; opacity: 1;"/><path class="sankey-link" d="M637.6470588235295,155.0004456242756C642.9411764705883,155.0004456242756 642.9411764705883,392.8914401707301 648.2352941176471,392.8914401707301L658.8235294117646,392.8914789206671L648.2352941176471,392.8915176706041C642.9411764705883,392.8915176706041 642.9411764705883,155.00052312414968 637.6470588235295,155.00052312414968Z" style="stroke: rgb(0, 255, 0); stroke-opacity: 0; fill: rgb(0, 255, 0); fill-opacity: 0; stroke-width: 1; opacity: 1;"/><path class="sankey-link" d="M678.8235294117648,392.8907426718635C684.1176470588236,392.8907426718635 684.1176470588236,329.99972875044097 689.4117647058824,329.99972875044097L700,329.99976750037797L689.4117647058824,329.999806250315C684.1176470588236,329.999806250315 684.1176470588236,392.8908201717375 678.8235294117648,392.8908201717375Z" style="stroke: rgb(0, 255, 0); stroke-opacity: 0; fill: rgb(0, 255, 0); fill-opacity: 0; stroke-width: 1; opacity: 1;"/><path class="sankey-link" d="M678.8235294117648,392.8908201717376C684.1176470588236,392.8908201717376 684.1176470588236,329.99980625031503 689.4117647058824,329.99980625031503L700,329.99984500025204L689.4117647058824,329.99988375018904C684.1176470588236,329.99988375018904 684.1176470588236,392.8908976716116 678.8235294117648,392.8908976716116Z" style="stroke: rgb(0, 255, 0); stroke-opacity: 0; fill: rgb(0, 255, 0); fill-opacity: 0; stroke-width: 1; opacity: 1;"/><path class="sankey-link" d="M678.8235294117648,392.89089767161164C684.1176470588236,392.89089767161164 684.1176470588236,329.9998837501891 689.4117647058824,329.9998837501891L700,329.9999225001261L689.4117647058824,329.9999612500631C684.1176470588236,329.9999612500631 684.1176470588236,392.89097517148565 678.8235294117648,392.89097517148565Z" style="stroke: rgb(0, 255, 0); stroke-opacity: 0; fill: rgb(0, 255, 0); fill-opacity: 0; stroke-width: 1; opacity: 1;"/><path class="sankey-link" d="M678.8235294117648,392.8909751714857C684.1176470588236,392.8909751714857 684.1176470588236,329.99996125006317 689.4117647058824,329.99996125006317L700,330.00000000000017L689.4117647058824,330.0000387499372C684.1176470588236,330.0000387499372 684.1176470588236,392.8910526713597 678.8235294117648,392.8910526713597Z" style="stroke: rgb(0, 255, 0); stroke-opacity: 0; fill: rgb(0, 255, 0); fill-opacity: 0; stroke-width: 1; opacity: 1;"/><path class="sankey-link" d="M678.8235294117648,392.8910526713598C684.1176470588236,392.8910526713598 684.1176470588236,330.00003874993723 689.4117647058824,330.00003874993723L700,330.00007749987424L689.4117647058824,330.00011624981124C684.1176470588236,330.00011624981124 684.1176470588236,392.8911301712338 678.8235294117648,392.8911301712338Z" style="stroke: rgb(0, 255, 0); stroke-opacity: 0; fill: rgb(0, 255, 0); fill-opacity: 0; stroke-width: 1; opacity: 1;"/><path class="sankey-link" d="M678.8235294117648,392.89113017123384C684.1176470588236,392.89113017123384 684.1176470588236,330.0001162498113 689.4117647058824,330.0001162498113L700,330.0001549997483L689.4117647058824,330.0001937496853C684.1176470588236,330.0001937496853 684.1176470588236,392.89120767110785 678.8235294117648,392.89120767110785Z" style="stroke: rgb(0, 255, 0); stroke-opacity: 0; fill: rgb(0, 255, 0); fill-opacity: 0; stroke-width: 1; opacity: 1;"/><path class="sankey-link" d="M678.8235294117648,392.8912076711079C684.1176470588236,392.8912076711079 684.1176470588236,330.00019374968537 689.4117647058824,330.00019374968537L700,330.00023249962237L689.4117647058824,330.0002712495594C684.1176470588236,330.0002712495594 684.1176470588236,392.8912851709819 678.8235294117648,392.8912851709819Z" style="stroke: rgb(0, 255, 0); stroke-opacity: 0; fill: rgb(0, 255, 0); fill-opacity: 0; stroke-width: 1; opacity: 1;"/><path class="sankey-link" d="M678.8235294117648,392.891285170982C684.1176470588236,392.891285170982 684.1176470588236,330.00027124955943 689.4117647058824,330.00027124955943L700,330.00030999949644L689.4117647058824,330.00034874943344C684.1176470588236,330.00034874943344 684.1176470588236,392.891362670856 678.8235294117648,392.891362670856Z" style="stroke: rgb(0, 255, 0); stroke-opacity: 0; fill: rgb(0, 255, 0); fill-opacity: 0; stroke-width: 1; opacity: 1;"/><path class="sankey-link" d="M678.8235294117648,392.89136267085604C684.1176470588236,392.89136267085604 684.1176470588236,330.0003487494335 689.4117647058824,330.0003487494335L700,330.0003874993705L689.4117647058824,330.0004262493075C684.1176470588236,330.0004262493075 684.1176470588236,392.89144017073005 678.8235294117648,392.89144017073005Z" style="stroke: rgb(0, 255, 0); stroke-opacity: 0; fill: rgb(0, 255, 0); fill-opacity: 0; stroke-width: 1; opacity: 1;"/><path class="sankey-link" d="M678.8235294117648,392.8914401707301C684.1176470588236,392.8914401707301 684.1176470588236,330.00042624930757 689.4117647058824,330.00042624930757L700,330.00046499924457L689.4117647058824,330.0005037491816C684.1176470588236,330.0005037491816 684.1176470588236,392.8915176706041 678.8235294117648,392.8915176706041Z" style="stroke: rgb(0, 255, 0); stroke-opacity: 0; fill: rgb(0, 255, 0); fill-opacity: 0; stroke-width: 1; opacity: 1;"/></g><g class="sankey-node-set" style="cursor: ns-resize;"><g class="sankey-node" transform="translate(576.471,355.669)" style="opacity: 1;"><rect class="node-rect" width="20" height="77.50088156106744" style="stroke-width: 0; stroke: rgb(68, 68, 68); stroke-opacity: 1; fill: rgb(153, 153, 153); fill-opacity: 1;"/><text class="node-label" data-notex="1" x="0" y="0" text-anchor="start" transform="translate(16.65,3)scale(-1,1)rotate(90)" style="cursor: default; font-family: 'Open Sans', verdana, arial, sans-serif; font-size: 19px; fill: rgb(42, 63, 95); fill-opacity: 1; text-shadow: rgb(255, 255, 255) 1px 1px 1px, rgb(255, 255, 255) -1px -1px 1px, rgb(255, 255, 255) 1px -1px 1px, rgb(255, 255, 255) -1px 1px 1px; white-space: pre;">MLP 6</text></g><g class="sankey-node" transform="translate(205.882,422.870)" style="opacity: 1;"><rect class="node-rect" width="20" height="0.5" style="stroke-width: 0; stroke: rgb(68, 68, 68); stroke-opacity: 1; fill: rgb(0, 0, 0); fill-opacity: 0;"/><text class="node-label" data-notex="1" x="0" y="0" text-anchor="start" transform="translate(16.65,3)scale(-1,1)rotate(90)" style="cursor: default; font-family: 'Open Sans', verdana, arial, sans-serif; font-size: 19px; fill: rgb(42, 63, 95); fill-opacity: 1; text-shadow: rgb(255, 255, 255) 1px 1px 1px, rgb(255, 255, 255) -1px -1px 1px, rgb(255, 255, 255) 1px -1px 1px, rgb(255, 255, 255) -1px 1px 1px; white-space: pre;"></text></g><g class="sankey-node" transform="translate(370.588,433.083)" style="opacity: 1;"><rect class="node-rect" width="20" height="0.5" style="stroke-width: 0; stroke: rgb(68, 68, 68); stroke-opacity: 1; fill: rgb(0, 0, 0); fill-opacity: 0;"/><text class="node-label" data-notex="1" x="0" y="0" text-anchor="start" transform="translate(16.65,3)scale(-1,1)rotate(90)" style="cursor: default; font-family: 'Open Sans', verdana, arial, sans-serif; font-size: 19px; fill: rgb(42, 63, 95); fill-opacity: 1; text-shadow: rgb(255, 255, 255) 1px 1px 1px, rgb(255, 255, 255) -1px -1px 1px, rgb(255, 255, 255) 1px -1px 1px, rgb(255, 255, 255) -1px 1px 1px; white-space: pre;"></text></g><g class="sankey-node" transform="translate(123.529,421.362)" style="opacity: 1;"><rect class="node-rect" width="20" height="0.5" style="stroke-width: 0; stroke: rgb(68, 68, 68); stroke-opacity: 1; fill: rgb(0, 0, 0); fill-opacity: 0;"/><text class="node-label" data-notex="1" x="0" y="0" text-anchor="start" transform="translate(16.65,3)scale(-1,1)rotate(90)" style="cursor: default; font-family: 'Open Sans', verdana, arial, sans-serif; font-size: 19px; fill: rgb(42, 63, 95); fill-opacity: 1; text-shadow: rgb(255, 255, 255) 1px 1px 1px, rgb(255, 255, 255) -1px -1px 1px, rgb(255, 255, 255) 1px -1px 1px, rgb(255, 255, 255) -1px 1px 1px; white-space: pre;"></text></g><g class="sankey-node" transform="translate(452.941,413.109)" style="opacity: 1;"><rect class="node-rect" width="20" height="0.5" style="stroke-width: 0; stroke: rgb(68, 68, 68); stroke-opacity: 1; fill: rgb(0, 0, 0); fill-opacity: 0;"/><text class="node-label" data-notex="1" x="0" y="0" text-anchor="start" transform="translate(16.65,3)scale(-1,1)rotate(90)" style="cursor: default; font-family: 'Open Sans', verdana, arial, sans-serif; font-size: 19px; fill: rgb(42, 63, 95); fill-opacity: 1; text-shadow: rgb(255, 255, 255) 1px 1px 1px, rgb(255, 255, 255) -1px -1px 1px, rgb(255, 255, 255) 1px -1px 1px, rgb(255, 255, 255) -1px 1px 1px; white-space: pre;"></text></g><g class="sankey-node" transform="translate(41.176,367.500)" style="opacity: 1;"><rect class="node-rect" width="20" height="77.50026156207491" style="stroke-width: 0; stroke: rgb(68, 68, 68); stroke-opacity: 1; fill: rgb(152, 78, 163); fill-opacity: 1;"/><text class="node-label" data-notex="1" x="0" y="0" text-anchor="start" transform="translate(16.65,3)scale(-1,1)rotate(90)" style="cursor: default; font-family: 'Open Sans', verdana, arial, sans-serif; font-size: 19px; fill: rgb(42, 63, 95); fill-opacity: 1; text-shadow: rgb(255, 255, 255) 1px 1px 1px, rgb(255, 255, 255) -1px -1px 1px, rgb(255, 255, 255) 1px -1px 1px, rgb(255, 255, 255) -1px 1px 1px; white-space: pre;">A0.10</text></g><g class="sankey-node" transform="translate(411.765,366.328)" style="opacity: 1;"><rect class="node-rect" width="20" height="155.00005812490548" style="stroke-width: 0; stroke: rgb(68, 68, 68); stroke-opacity: 1; fill: rgb(77, 175, 74); fill-opacity: 1;"/><text class="node-label" data-notex="1" x="0" y="0" text-anchor="start" transform="translate(16.65,3)scale(-1,1)rotate(90)" style="cursor: default; font-family: 'Open Sans', verdana, arial, sans-serif; font-size: 19px; fill: rgb(42, 63, 95); fill-opacity: 1; text-shadow: rgb(255, 255, 255) 1px 1px 1px, rgb(255, 255, 255) -1px -1px 1px, rgb(255, 255, 255) 1px -1px 1px, rgb(255, 255, 255) -1px 1px 1px; white-space: pre;">MLP 4</text></g><g class="sankey-node" transform="translate(288.235,460.278)" style="opacity: 1;"><rect class="node-rect" width="20" height="0.5" style="stroke-width: 0; stroke: rgb(68, 68, 68); stroke-opacity: 1; fill: rgb(0, 0, 0); fill-opacity: 0;"/><text class="node-label" data-notex="1" x="0" y="0" text-anchor="start" transform="translate(16.65,3)scale(-1,1)rotate(90)" style="cursor: default; font-family: 'Open Sans', verdana, arial, sans-serif; font-size: 19px; fill: rgb(42, 63, 95); fill-opacity: 1; text-shadow: rgb(255, 255, 255) 1px 1px 1px, rgb(255, 255, 255) -1px -1px 1px, rgb(255, 255, 255) 1px -1px 1px, rgb(255, 255, 255) -1px 1px 1px; white-space: pre;"></text></g><g class="sankey-node" transform="translate(535.294,192.500)" style="opacity: 1;"><rect class="node-rect" width="20" height="155.00005812490542" style="stroke-width: 0; stroke: rgb(68, 68, 68); stroke-opacity: 1; fill: rgb(77, 175, 74); fill-opacity: 1;"/><text class="node-label" data-notex="1" x="0" y="0" text-anchor="start" transform="translate(16.65,3)scale(-1,1)rotate(90)" style="cursor: default; font-family: 'Open Sans', verdana, arial, sans-serif; font-size: 19px; fill: rgb(42, 63, 95); fill-opacity: 1; text-shadow: rgb(255, 255, 255) 1px 1px 1px, rgb(255, 255, 255) -1px -1px 1px, rgb(255, 255, 255) 1px -1px 1px, rgb(255, 255, 255) -1px 1px 1px; white-space: pre;">A6.3</text></g><g class="sankey-node" transform="translate(329.412,446.751)" style="opacity: 1;"><rect class="node-rect" width="20" height="0.5" style="stroke-width: 0; stroke: rgb(68, 68, 68); stroke-opacity: 1; fill: rgb(0, 0, 0); fill-opacity: 0;"/><text class="node-label" data-notex="1" x="0" y="0" text-anchor="start" transform="translate(16.65,3)scale(-1,1)rotate(90)" style="cursor: default; font-family: 'Open Sans', verdana, arial, sans-serif; font-size: 19px; fill: rgb(42, 63, 95); fill-opacity: 1; text-shadow: rgb(255, 255, 255) 1px 1px 1px, rgb(255, 255, 255) -1px -1px 1px, rgb(255, 255, 255) 1px -1px 1px, rgb(255, 255, 255) -1px 1px 1px; white-space: pre;"></text></g><g class="sankey-node" transform="translate(494.118,343.346)" style="opacity: 1;"><rect class="node-rect" width="20" height="77.50049406169683" style="stroke-width: 0; stroke: rgb(68, 68, 68); stroke-opacity: 1; fill: rgb(247, 129, 191); fill-opacity: 1;"/><text class="node-label" data-notex="1" x="0" y="0" text-anchor="start" transform="translate(16.65,3)scale(-1,1)rotate(90)" style="cursor: default; font-family: 'Open Sans', verdana, arial, sans-serif; font-size: 19px; fill: rgb(42, 63, 95); fill-opacity: 1; text-shadow: rgb(255, 255, 255) 1px 1px 1px, rgb(255, 255, 255) -1px -1px 1px, rgb(255, 255, 255) 1px -1px 1px, rgb(255, 255, 255) -1px 1px 1px; white-space: pre;">MLP 5</text></g><g class="sankey-node" transform="translate(82.353,458.040)" style="opacity: 1;"><rect class="node-rect" width="20" height="0.5" style="stroke-width: 0; stroke: rgb(68, 68, 68); stroke-opacity: 1; fill: rgb(0, 0, 0); fill-opacity: 0;"/><text class="node-label" data-notex="1" x="0" y="0" text-anchor="start" transform="translate(16.65,3)scale(-1,1)rotate(90)" style="cursor: default; font-family: 'Open Sans', verdana, arial, sans-serif; font-size: 19px; fill: rgb(42, 63, 95); fill-opacity: 1; text-shadow: rgb(255, 255, 255) 1px 1px 1px, rgb(255, 255, 255) -1px -1px 1px, rgb(255, 255, 255) 1px -1px 1px, rgb(255, 255, 255) -1px 1px 1px; white-space: pre;"></text></g><g class="sankey-node" transform="translate(617.647,-0.000)" style="opacity: 1;"><rect class="node-rect" width="20" height="387.49999031251605" style="stroke-width: 0; stroke: rgb(68, 68, 68); stroke-opacity: 1; fill: rgb(153, 153, 153); fill-opacity: 1;"/><text class="node-label" data-notex="1" x="0" y="0" text-anchor="start" transform="translate(16.65,3)scale(-1,1)rotate(90)" style="cursor: default; font-family: 'Open Sans', verdana, arial, sans-serif; font-size: 19px; fill: rgb(42, 63, 95); fill-opacity: 1; text-shadow: rgb(255, 255, 255) 1px 1px 1px, rgb(255, 255, 255) -1px -1px 1px, rgb(255, 255, 255) 1px -1px 1px, rgb(255, 255, 255) -1px 1px 1px; white-space: pre;">A7.9</text></g><g class="sankey-node" transform="translate(164.706,349.832)" style="opacity: 1;"><rect class="node-rect" width="20" height="155.0001356247792" style="stroke-width: 0; stroke: rgb(68, 68, 68); stroke-opacity: 1; fill: rgb(255, 127, 0); fill-opacity: 1;"/><text class="node-label" data-notex="1" x="0" y="0" text-anchor="start" transform="translate(16.65,3)scale(-1,1)rotate(90)" style="cursor: default; font-family: 'Open Sans', verdana, arial, sans-serif; font-size: 19px; fill: rgb(42, 63, 95); fill-opacity: 1; text-shadow: rgb(255, 255, 255) 1px 1px 1px, rgb(255, 255, 255) -1px -1px 1px, rgb(255, 255, 255) 1px -1px 1px, rgb(255, 255, 255) -1px 1px 1px; white-space: pre;">MLP 1</text></g><g class="sankey-node" transform="translate(41.176,562.500)" style="opacity: 1;"><rect class="node-rect" width="20" height="77.50002906245231" style="stroke-width: 0; stroke: rgb(68, 68, 68); stroke-opacity: 1; fill: rgb(152, 78, 163); fill-opacity: 1;"/><text class="node-label" data-notex="1" x="0" y="0" text-anchor="start" transform="translate(16.65,3)scale(-1,1)rotate(90)" style="cursor: default; font-family: 'Open Sans', verdana, arial, sans-serif; font-size: 19px; fill: rgb(42, 63, 95); fill-opacity: 1; text-shadow: rgb(255, 255, 255) 1px 1px 1px, rgb(255, 255, 255) -1px -1px 1px, rgb(255, 255, 255) 1px -1px 1px, rgb(255, 255, 255) -1px 1px 1px; white-space: pre;">A0.7</text></g><g class="sankey-node" transform="translate(535.294,367.500)" style="opacity: 1;"><rect class="node-rect" width="20" height="77.49995156257904" style="stroke-width: 0; stroke: rgb(68, 68, 68); stroke-opacity: 1; fill: rgb(247, 129, 191); fill-opacity: 1;"/><text class="node-label" data-notex="1" x="0" y="0" text-anchor="start" transform="translate(16.65,3)scale(-1,1)rotate(90)" style="cursor: default; font-family: 'Open Sans', verdana, arial, sans-serif; font-size: 19px; fill: rgb(42, 63, 95); fill-opacity: 1; text-shadow: rgb(255, 255, 255) 1px 1px 1px, rgb(255, 255, 255) -1px -1px 1px, rgb(255, 255, 255) 1px -1px 1px, rgb(255, 255, 255) -1px 1px 1px; white-space: pre;">A6.2</text></g><g class="sankey-node" transform="translate(247.059,252.500)" style="opacity: 1;"><rect class="node-rect" width="20" height="387.4999903125157" style="stroke-width: 0; stroke: rgb(68, 68, 68); stroke-opacity: 1; fill: rgb(77, 175, 74); fill-opacity: 1;"/><text class="node-label" data-notex="1" x="0" y="0" text-anchor="start" transform="translate(16.65,3)scale(-1,1)rotate(90)" style="cursor: default; font-family: 'Open Sans', verdana, arial, sans-serif; font-size: 19px; fill: rgb(42, 63, 95); fill-opacity: 1; text-shadow: rgb(255, 255, 255) 1px 1px 1px, rgb(255, 255, 255) -1px -1px 1px, rgb(255, 255, 255) 1px -1px 1px, rgb(255, 255, 255) -1px 1px 1px; white-space: pre;">MLP 2</text></g><g class="sankey-node" transform="translate(617.647,407.500)" style="opacity: 1;"><rect class="node-rect" width="20" height="232.50000968748418" style="stroke-width: 0; stroke: rgb(68, 68, 68); stroke-opacity: 1; fill: rgb(166, 86, 40); fill-opacity: 1;"/><text class="node-label" data-notex="1" x="0" y="0" text-anchor="start" transform="translate(16.65,3)scale(-1,1)rotate(90)" style="cursor: default; font-family: 'Open Sans', verdana, arial, sans-serif; font-size: 19px; fill: rgb(42, 63, 95); fill-opacity: 1; text-shadow: rgb(255, 255, 255) 1px 1px 1px, rgb(255, 255, 255) -1px -1px 1px, rgb(255, 255, 255) 1px -1px 1px, rgb(255, 255, 255) -1px 1px 1px; white-space: pre;">A7.10</text></g><g class="sankey-node" transform="translate(41.176,465.000)" style="opacity: 1;"><rect class="node-rect" width="20" height="77.50002906245277" style="stroke-width: 0; stroke: rgb(68, 68, 68); stroke-opacity: 1; fill: rgb(222, 222, 0); fill-opacity: 1;"/><text class="node-label" data-notex="1" x="0" y="0" text-anchor="start" transform="translate(16.65,3)scale(-1,1)rotate(90)" style="cursor: default; font-family: 'Open Sans', verdana, arial, sans-serif; font-size: 19px; fill: rgb(42, 63, 95); fill-opacity: 1; text-shadow: rgb(255, 255, 255) 1px 1px 1px, rgb(255, 255, 255) -1px -1px 1px, rgb(255, 255, 255) 1px -1px 1px, rgb(255, 255, 255) -1px 1px 1px; white-space: pre;">A0.15</text></g><g class="sankey-node" transform="translate(535.294,562.500)" style="opacity: 1;"><rect class="node-rect" width="20" height="77.50002906245254" style="stroke-width: 0; stroke: rgb(68, 68, 68); stroke-opacity: 1; fill: rgb(228, 26, 28); fill-opacity: 1;"/><text class="node-label" data-notex="1" x="0" y="0" text-anchor="start" transform="translate(16.65,3)scale(-1,1)rotate(90)" style="cursor: default; font-family: 'Open Sans', verdana, arial, sans-serif; font-size: 19px; fill: rgb(42, 63, 95); fill-opacity: 1; text-shadow: rgb(255, 255, 255) 1px 1px 1px, rgb(255, 255, 255) -1px -1px 1px, rgb(255, 255, 255) 1px -1px 1px, rgb(255, 255, 255) -1px 1px 1px; white-space: pre;">A6.12</text></g><g class="sankey-node" transform="translate(535.294,465.000)" style="opacity: 1;"><rect class="node-rect" width="20" height="77.49995156257864" style="stroke-width: 0; stroke: rgb(68, 68, 68); stroke-opacity: 1; fill: rgb(55, 126, 184); fill-opacity: 1;"/><text class="node-label" data-notex="1" x="0" y="0" text-anchor="start" transform="translate(16.65,3)scale(-1,1)rotate(90)" style="cursor: default; font-family: 'Open Sans', verdana, arial, sans-serif; font-size: 19px; fill: rgb(42, 63, 95); fill-opacity: 1; text-shadow: rgb(255, 255, 255) 1px 1px 1px, rgb(255, 255, 255) -1px -1px 1px, rgb(255, 255, 255) 1px -1px 1px, rgb(255, 255, 255) -1px 1px 1px; white-space: pre;">A6.8</text></g><g class="sankey-node" transform="translate(658.824,315.391)" style="opacity: 1;"><rect class="node-rect" width="20" height="155.0009106235202" style="stroke-width: 0; stroke: rgb(68, 68, 68); stroke-opacity: 1; fill: rgb(222, 222, 0); fill-opacity: 1;"/><text class="node-label" data-notex="1" x="0" y="0" text-anchor="start" transform="translate(16.65,3)scale(-1,1)rotate(90)" style="cursor: default; font-family: 'Open Sans', verdana, arial, sans-serif; font-size: 19px; fill: rgb(42, 63, 95); fill-opacity: 1; text-shadow: rgb(255, 255, 255) 1px 1px 1px, rgb(255, 255, 255) -1px -1px 1px, rgb(255, 255, 255) 1px -1px 1px, rgb(255, 255, 255) -1px 1px 1px; white-space: pre;">MLP 7</text></g><g class="sankey-node" transform="translate(700.000,97.500)" style="opacity: 1;"><rect class="node-rect" width="20" height="542.4998934376729" style="stroke-width: 0; stroke: rgb(68, 68, 68); stroke-opacity: 1; fill: rgb(222, 222, 0); fill-opacity: 1;"/><text class="node-label" data-notex="1" x="0" y="0" text-anchor="start" transform="translate(16.65,3)scale(-1,1)rotate(90)" style="cursor: default; font-family: 'Open Sans', verdana, arial, sans-serif; font-size: 19px; fill: rgb(42, 63, 95); fill-opacity: 1; text-shadow: rgb(255, 255, 255) 1px 1px 1px, rgb(255, 255, 255) -1px -1px 1px, rgb(255, 255, 255) 1px -1px 1px, rgb(255, 255, 255) -1px 1px 1px; white-space: pre;">Unembed</text></g><g class="sankey-node" transform="translate(0.000,345.081)" style="opacity: 1;"><rect class="node-rect" width="20" height="232.50031968698028" style="stroke-width: 0; stroke: rgb(68, 68, 68); stroke-opacity: 1; fill: rgb(152, 78, 163); fill-opacity: 1;"/><text class="node-label" data-notex="1" x="0" y="0" text-anchor="start" transform="translate(16.65,3)scale(-1,1)rotate(90)" style="cursor: default; font-family: 'Open Sans', verdana, arial, sans-serif; font-size: 19px; fill: rgb(42, 63, 95); fill-opacity: 1; text-shadow: rgb(255, 255, 255) 1px 1px 1px, rgb(255, 255, 255) -1px -1px 1px, rgb(255, 255, 255) 1px -1px 1px, rgb(255, 255, 255) -1px 1px 1px; white-space: pre;">Embed</text></g></g></g><defs id="topdefs-4b6421"><g class="clips"/></defs><g class="layer-above"><g class="imagelayer"/><g class="shapelayer"/></g><g class="infolayer"><g class="g-gtitle"/><g class="first-render"/></g></svg>