<svg class="main-svg" xmlns="http://www.w3.org/2000/svg" xmlns:xlink="http://www.w3.org/1999/xlink" width="800" height="900" style="" viewBox="0 0 800 900"><rect x="0" y="0" width="800" height="900" style="fill: rgb(255, 255, 255); fill-opacity: 1;"/><defs id="defs-082c13"><g class="clips"/><g class="gradients"/><g class="patterns"/></defs><g class="bglayer"/><g class="layer-below"><g class="imagelayer"/><g class="shapelayer"/></g><g class="cartesianlayer"/><g class="polarlayer"/><g class="smithlayer"/><g class="ternarylayer"/><g class="geolayer"/><g class="funnelarealayer"/><g class="pielayer"/><g class="iciclelayer"/><g class="treemaplayer"/><g class="sunburstlayer"/><g class="glimages"/><g class="sankey" transform="translate(80,100)matrix(0 1 1 0 0 0)" style="box-sizing: content-box; position: absolute; left: 0px; shape-rendering: geometricprecision; pointer-events: none;"><g class="sankey-links" style="fill: none;"><path class="sankey-link" d="M267.05882352941177,289.7113242152332C429.8529411764706,289.7113242152332 429.8529411764706,231.99965200052242 592.6470588235295,231.99965200052242L617.6470588235295,260.99960850058767L592.6470588235295,289.9995650006529C429.8529411764706,289.9995650006529 429.8529411764706,347.7112372153637 267.05882352941177,347.7112372153637Z" style="stroke: rgb(68, 68, 68); stroke-opacity: 1; fill: rgb(0, 0, 255); fill-opacity: 0.3; stroke-width: 0; opacity: 1;"/><path class="sankey-link" d="M61.1764705882353,399.7038191662123C66.47058823529412,399.7038191662123 66.47058823529412,329.09874106033726 71.76470588235294,329.09874106033726L82.3529411764706,358.0986975604025L71.76470588235294,387.09865406046777C66.47058823529412,387.09865406046777 66.47058823529412,457.70373216634283 61.1764705882353,457.70373216634283Z" style="stroke: rgb(68, 68, 68); stroke-opacity: 1; fill: rgb(0, 0, 255); fill-opacity: 0.3; stroke-width: 0; opacity: 1;"/><path class="sankey-link" d="M184.7058823529412,235.77291718634882C388.67647058823536,235.77291718634882 388.67647058823536,57.99991300013097 592.6470588235295,57.99991300013097L617.6470588235295,86.99986950019621L592.6470588235295,115.99982600026146C388.67647058823536,115.99982600026146 388.67647058823536,293.7728301864793 184.7058823529412,293.7728301864793Z" style="stroke: rgb(68, 68, 68); stroke-opacity: 1; fill: rgb(0, 0, 255); fill-opacity: 0.3; stroke-width: 0; opacity: 1;"/><path class="sankey-link" d="M20,300.77427633187284C25.294117647058826,300.77427633187284 25.294117647058826,321.7037901662558 30.58823529411765,321.7037901662558L41.1764705882353,350.7037466663211L30.58823529411765,379.70370316638633C25.294117647058826,379.70370316638633 25.294117647058826,358.77418933200335 20,358.77418933200335Z" style="stroke: rgb(68, 68, 68); stroke-opacity: 1; fill: rgb(0, 0, 255); fill-opacity: 0.3; stroke-width: 0; opacity: 1;"/><path class="sankey-link" d="M637.6470588235295,368.0000000000003C656.3235294117648,368.0000000000003 656.3235294117648,341.84574627953555 675,341.84574627953555L700,370.8457027796008L675,399.84565927966605C656.3235294117648,399.84565927966605 656.3235294117648,425.9999130001308 637.6470588235295,425.9999130001308Z" style="stroke: rgb(68, 68, 68); stroke-opacity: 1; fill: rgb(0, 0, 255); fill-opacity: 0.3; stroke-width: 0; opacity: 1;"/><path class="sankey-link" d="M472.9411764705883,348.26484525029446C532.7941176470589,348.26484525029446 532.7941176470589,503.99999999999994 592.6470588235295,503.99999999999994L617.6470588235295,532.9999565000652L592.6470588235295,561.9999130001304C532.7941176470589,561.9999130001304 532.7941176470589,406.26475825042496 472.9411764705883,406.26475825042496Z" style="stroke: rgb(68, 68, 68); stroke-opacity: 1; fill: rgb(0, 0, 255); fill-opacity: 0.3; stroke-width: 0; opacity: 1;"/><path class="sankey-link" d="M472.9411764705883,290.26493225016395C491.6176470588236,290.26493225016395 491.6176470588236,325.1717958331335 510.2941176470589,325.1717958331335L535.2941176470589,354.17175233319875L510.2941176470589,383.171708833264C491.6176470588236,383.171708833264 491.6176470588236,348.26484525029446 472.9411764705883,348.26484525029446Z" style="stroke: rgb(68, 68, 68); stroke-opacity: 1; fill: rgb(0, 0, 255); fill-opacity: 0.3; stroke-width: 0; opacity: 1;"/><path class="sankey-link" d="M102.3529411764706,329.09862506051127C203.3823529411765,329.09862506051127 203.3823529411765,270.56191891977744 304.4117647058824,270.56191891977744L329.4117647058824,299.5618754198427L304.4117647058824,328.56183191990795C203.3823529411765,328.56183191990795 203.3823529411765,387.0985380606418 102.3529411764706,387.0985380606418Z" style="stroke: rgb(68, 68, 68); stroke-opacity: 1; fill: rgb(0, 0, 255); fill-opacity: 0.3; stroke-width: 0; opacity: 1;"/><path class="sankey-link" d="M637.6470588235295,425.9999130001308C642.9411764705883,425.9999130001308 642.9411764705883,332.25281560359747 648.2352941176471,332.25281560359747L658.8235294117646,361.2527721036627L648.2352941176471,390.252728603728C642.9411764705883,390.252728603728 642.9411764705883,483.9998260002613 637.6470588235295,483.9998260002613Z" style="stroke: rgb(68, 68, 68); stroke-opacity: 1; fill: rgb(0, 0, 255); fill-opacity: 0.3; stroke-width: 0; opacity: 1;"/><path class="sankey-link" d="M678.8235294117648,274.252264604424C684.1176470588236,274.252264604424 684.1176470588236,225.84534028014457 689.4117647058824,225.84534028014457L700,254.84529678020982L689.4117647058824,283.8452532802751C684.1176470588236,283.8452532802751 684.1176470588236,332.2521776045545 678.8235294117648,332.2521776045545Z" style="stroke: rgb(68, 68, 68); stroke-opacity: 1; fill: rgb(0, 0, 255); fill-opacity: 0.3; stroke-width: 0; opacity: 1;"/><path class="sankey-link" d="M61.1764705882353,477.7043701653858C66.47058823529412,477.7043701653858 66.47058823529412,387.09929205951073 71.76470588235294,387.09929205951073L82.3529411764706,416.099248559576L71.76470588235294,445.09920505964124C66.47058823529412,445.09920505964124 66.47058823529412,535.7042831655162 61.1764705882353,535.7042831655162Z" style="stroke: rgb(68, 68, 68); stroke-opacity: 1; fill: rgb(0, 0, 255); fill-opacity: 0.3; stroke-width: 0; opacity: 1;"/><path class="sankey-link" d="M637.6470588235295,4.689582056016661e-13C656.3235294117648,4.689582056016661e-13 656.3235294117648,167.8454272800141 675,167.8454272800141L700,196.84538378007935L675,225.8453402801446C656.3235294117648,225.8453402801446 656.3235294117648,57.99991300013096 637.6470588235295,57.99991300013096Z" style="stroke: rgb(68, 68, 68); stroke-opacity: 1; fill: rgb(0, 0, 255); fill-opacity: 0.3; stroke-width: 0; opacity: 1;"/><path class="sankey-link" d="M184.7058823529412,351.77274318660983C244.55882352941177,351.77274318660983 244.55882352941177,328.56183191990795 304.4117647058824,328.56183191990795L329.4117647058824,357.5617884199732L304.4117647058824,386.56174492003845C244.55882352941177,386.56174492003845 244.55882352941177,409.77265618674033 184.7058823529412,409.77265618674033Z" style="stroke: rgb(68, 68, 68); stroke-opacity: 1; fill: rgb(0, 0, 255); fill-opacity: 0.3; stroke-width: 0; opacity: 1;"/><path class="sankey-link" d="M102.3529411764706,213.09879906025026C347.50000000000006,213.09879906025026 347.50000000000006,4.689582056016661e-13 592.6470588235295,4.689582056016661e-13L617.6470588235295,28.999956500065714L592.6470588235295,57.99991300013096C347.50000000000006,57.99991300013096 347.50000000000006,271.09871206038076 102.3529411764706,271.09871206038076Z" style="stroke: rgb(68, 68, 68); stroke-opacity: 1; fill: rgb(0, 0, 255); fill-opacity: 0.3; stroke-width: 0; opacity: 1;"/><path class="sankey-link" d="M637.6470588235295,503.99999999999994C656.3235294117648,503.99999999999994 656.3235294117648,457.84557227979656 675,457.84557227979656L700,486.8455287798618L675,515.8454852799271C656.3235294117648,515.8454852799271 656.3235294117648,561.9999130001304 637.6470588235295,561.9999130001304Z" style="stroke: rgb(68, 68, 68); stroke-opacity: 1; fill: rgb(0, 0, 255); fill-opacity: 0.3; stroke-width: 0; opacity: 1;"/><path class="sankey-link" d="M184.7058823529412,293.7728301864793C388.67647058823536,293.7728301864793 388.67647058823536,115.99982600026144 592.6470588235295,115.99982600026144L617.6470588235295,144.9997825003267L592.6470588235295,173.99973900039194C388.67647058823536,173.99973900039194 388.67647058823536,351.77274318660983 184.7058823529412,351.77274318660983Z" style="stroke: rgb(68, 68, 68); stroke-opacity: 1; fill: rgb(0, 0, 255); fill-opacity: 0.3; stroke-width: 0; opacity: 1;"/><path class="sankey-link" d="M637.6470588235295,582.0000289999565C656.3235294117648,582.0000289999565 656.3235294117648,515.8454852799271 675,515.8454852799271L700,544.8454417799923L675,573.8453982800575C656.3235294117648,573.8453982800575 656.3235294117648,639.9999420000869 637.6470588235295,639.9999420000869Z" style="stroke: rgb(68, 68, 68); stroke-opacity: 1; fill: rgb(0, 0, 255); fill-opacity: 0.3; stroke-width: 0; opacity: 1;"/><path class="sankey-link" d="M102.3529411764706,271.09871206038076C121.02941176470588,271.09871206038076 121.02941176470588,235.77291718634882 139.7058823529412,235.77291718634882L164.7058823529412,264.7728736864141L139.7058823529412,293.7728301864793C121.02941176470588,293.7728301864793 121.02941176470588,329.09862506051127 102.3529411764706,329.09862506051127Z" style="stroke: rgb(68, 68, 68); stroke-opacity: 1; fill: rgb(0, 0, 255); fill-opacity: 0.3; stroke-width: 0; opacity: 1;"/><path class="sankey-link" d="M102.3529411764706,445.09903105990225C347.50000000000006,445.09903105990225 347.50000000000006,368.0000000000003 592.6470588235295,368.0000000000003L617.6470588235295,396.99995650006554L592.6470588235295,425.9999130001308C347.50000000000006,425.9999130001308 347.50000000000006,503.09894406003275 102.3529411764706,503.09894406003275Z" style="stroke: rgb(68, 68, 68); stroke-opacity: 1; fill: rgb(0, 0, 255); fill-opacity: 0.3; stroke-width: 0; opacity: 1;"/><path class="sankey-link" d="M514.1176470588235,310.23196356103847C553.3823529411766,310.23196356103847 553.3823529411766,289.9995650006529 592.6470588235295,289.9995650006529L617.6470588235295,318.9995215007182L592.6470588235295,347.9994780007834C553.3823529411766,347.9994780007834 553.3823529411766,368.231876561169 514.1176470588235,368.231876561169Z" style="stroke: rgb(68, 68, 68); stroke-opacity: 1; fill: rgb(0, 0, 255); fill-opacity: 0.3; stroke-width: 0; opacity: 1;"/><path class="sankey-link" d="M20,358.77430533182934C25.294117647058826,358.77430533182934 25.294117647058826,399.7038191662123 30.58823529411765,399.7038191662123L41.1764705882353,428.7037756662776L30.58823529411765,457.70373216634283C25.294117647058826,457.70373216634283 25.294117647058826,416.77421833195984 20,416.77421833195984Z" style="stroke: rgb(68, 68, 68); stroke-opacity: 1; fill: rgb(0, 0, 255); fill-opacity: 0.3; stroke-width: 0; opacity: 1;"/><path class="sankey-link" d="M102.3529411764706,387.0985380606418C162.2058823529412,387.0985380606418 162.2058823529412,289.7113242152332 222.05882352941177,289.7113242152332L247.05882352941177,318.71128071529847L222.05882352941177,347.7112372153637C162.2058823529412,347.7112372153637 162.2058823529412,445.0984510607723 102.3529411764706,445.0984510607723Z" style="stroke: rgb(68, 68, 68); stroke-opacity: 1; fill: rgb(0, 0, 255); fill-opacity: 0.3; stroke-width: 0; opacity: 1;"/><path class="sankey-link" d="M20,242.77436333174234C38.6764705882353,242.77436333174234 38.6764705882353,213.09879906025026 57.352941176470594,213.09879906025026L82.3529411764706,242.0987555603155L57.352941176470594,271.09871206038076C38.6764705882353,271.09871206038076 38.6764705882353,300.77427633187284 20,300.77427633187284Z" style="stroke: rgb(68, 68, 68); stroke-opacity: 1; fill: rgb(0, 0, 255); fill-opacity: 0.3; stroke-width: 0; opacity: 1;"/><path class="sankey-link" d="M20,416.7745663314378C25.294117647058826,416.7745663314378 25.294117647058826,477.7043701653858 30.58823529411765,477.7043701653858L41.1764705882353,506.70432666545105L30.58823529411765,535.7042831655162C25.294117647058826,535.7042831655162 25.294117647058826,474.77447933156833 20,474.77447933156833Z" style="stroke: rgb(68, 68, 68); stroke-opacity: 1; fill: rgb(0, 0, 255); fill-opacity: 0.3; stroke-width: 0; opacity: 1;"/><path class="sankey-link" d="M349.4117647058824,328.56183191990795C388.67647058823536,328.56183191990795 388.67647058823536,290.26470025051196 427.9411764705883,290.26470025051196L452.9411764705883,319.2646567505772L427.9411764705883,348.26461325064247C388.67647058823536,348.26461325064247 388.67647058823536,386.56174492003845 349.4117647058824,386.56174492003845Z" style="stroke: rgb(68, 68, 68); stroke-opacity: 1; fill: rgb(0, 0, 255); fill-opacity: 0.3; stroke-width: 0; opacity: 1;"/><path class="sankey-link" d="M555.2941176470589,325.1717958331335C615.1470588235295,325.1717958331335 615.1470588235295,283.84583327940504 675,283.84583327940504L700,312.8457897794703L675,341.84574627953555C615.1470588235295,341.84574627953555 615.1470588235295,383.171708833264 555.2941176470589,383.171708833264Z" style="stroke: rgb(68, 68, 68); stroke-opacity: 1; fill: rgb(0, 0, 255); fill-opacity: 0.3; stroke-width: 0; opacity: 1;"/><path class="sankey-link" d="M349.4117647058824,270.56191891977744C471.02941176470597,270.56191891977744 471.02941176470597,173.99973900039194 592.6470588235295,173.99973900039194L617.6470588235295,202.9996955004572L592.6470588235295,231.99965200052245C471.02941176470597,231.99965200052245 471.02941176470597,328.56183191990795 349.4117647058824,328.56183191990795Z" style="stroke: rgb(68, 68, 68); stroke-opacity: 1; fill: rgb(0, 0, 255); fill-opacity: 0.3; stroke-width: 0; opacity: 1;"/><path class="sankey-link" d="M472.9411764705883,426.26475825042473C573.9705882352941,426.26475825042473 573.9705882352941,399.84565927966605 675,399.84565927966605L700,428.8456157797313L675,457.84557227979656C573.9705882352941,457.84557227979656 573.9705882352941,484.26467125055524 472.9411764705883,484.26467125055524Z" style="stroke: rgb(68, 68, 68); stroke-opacity: 1; fill: rgb(0, 0, 255); fill-opacity: 0.3; stroke-width: 0; opacity: 1;"/><path class="sankey-link" d="M61.1764705882353,321.7037901662558C66.47058823529412,321.7037901662558 66.47058823529412,271.09871206038076 71.76470588235294,271.09871206038076L82.3529411764706,300.098668560446L71.76470588235294,329.09862506051127C66.47058823529412,329.09862506051127 66.47058823529412,379.70370316638633 61.1764705882353,379.70370316638633Z" style="stroke: rgb(68, 68, 68); stroke-opacity: 1; fill: rgb(0, 0, 255); fill-opacity: 0.3; stroke-width: 0; opacity: 1;"/><path class="sankey-link" d="M637.6470588235295,57.99991300013097C642.9411764705883,57.99991300013097 642.9411764705883,274.252264604424 648.2352941176471,274.252264604424L658.8235294117646,303.25222110448925L648.2352941176471,332.2521776045545C642.9411764705883,332.2521776045545 642.9411764705883,115.99982600026146 637.6470588235295,115.99982600026146Z" style="stroke: rgb(68, 68, 68); stroke-opacity: 1; fill: rgb(0, 0, 255); fill-opacity: 0.3; stroke-width: 0; opacity: 1;"/><path class="sankey-link" d="M20,416.77421833195984C25.294117647058826,416.77421833195984 25.294117647058826,457.70373216634283 30.58823529411765,457.70373216634283L41.1764705882353,457.70376116629933L30.58823529411765,457.7037901662558C25.294117647058826,457.7037901662558 25.294117647058826,416.77427633187284 20,416.77427633187284Z" style="stroke: rgb(0, 255, 0); stroke-opacity: 0; fill: rgb(0, 255, 0); fill-opacity: 0; stroke-width: 1; opacity: 1;"/><path class="sankey-link" d="M20,416.77427633187284C25.294117647058826,416.77427633187284 25.294117647058826,457.7037901662558 30.58823529411765,457.7037901662558L41.1764705882353,457.7038191662123L30.58823529411765,457.7038481661688C25.294117647058826,457.7038481661688 25.294117647058826,416.77433433178584 20,416.77433433178584Z" style="stroke: rgb(0, 255, 0); stroke-opacity: 0; fill: rgb(0, 255, 0); fill-opacity: 0; stroke-width: 1; opacity: 1;"/><path class="sankey-link" d="M20,416.77433433178584C25.294117647058826,416.77433433178584 25.294117647058826,457.7038481661688 30.58823529411765,457.7038481661688L41.1764705882353,457.7038771661253L30.58823529411765,457.7039061660818C25.294117647058826,457.7039061660818 25.294117647058826,416.77439233169883 20,416.77439233169883Z" style="stroke: rgb(0, 255, 0); stroke-opacity: 0; fill: rgb(0, 255, 0); fill-opacity: 0; stroke-width: 1; opacity: 1;"/><path class="sankey-link" d="M20,416.77439233169883C25.294117647058826,416.77439233169883 25.294117647058826,457.7039061660818 30.58823529411765,457.7039061660818L41.1764705882353,457.7039351660383L30.58823529411765,457.7039641659948C25.294117647058826,457.7039641659948 25.294117647058826,416.77445033161183 20,416.77445033161183Z" style="stroke: rgb(0, 255, 0); stroke-opacity: 0; fill: rgb(0, 255, 0); fill-opacity: 0; stroke-width: 1; opacity: 1;"/><path class="sankey-link" d="M20,416.77445033161183C25.294117647058826,416.77445033161183 25.294117647058826,457.7039641659948 30.58823529411765,457.7039641659948L41.1764705882353,457.7039931659513L30.58823529411765,457.7040221659078C25.294117647058826,457.7040221659078 25.294117647058826,416.7745083315248 20,416.7745083315248Z" style="stroke: rgb(0, 255, 0); stroke-opacity: 0; fill: rgb(0, 255, 0); fill-opacity: 0; stroke-width: 1; opacity: 1;"/><path class="sankey-link" d="M20,358.77418933200335C25.294117647058826,358.77418933200335 25.294117647058826,379.70370316638633 30.58823529411765,379.70370316638633L41.1764705882353,379.70373216634283L30.58823529411765,379.70376116629933C25.294117647058826,379.70376116629933 25.294117647058826,358.77424733191634 20,358.77424733191634Z" style="stroke: rgb(0, 255, 0); stroke-opacity: 0; fill: rgb(0, 255, 0); fill-opacity: 0; stroke-width: 1; opacity: 1;"/><path class="sankey-link" d="M20,474.77447933156833C25.294117647058826,474.77447933156833 25.294117647058826,535.7042831655162 30.58823529411765,535.7042831655162L41.1764705882353,535.7043121654727L30.58823529411765,535.7043411654292C25.294117647058826,535.7043411654292 25.294117647058826,474.7745373314813 20,474.7745373314813Z" style="stroke: rgb(0, 255, 0); stroke-opacity: 0; fill: rgb(0, 255, 0); fill-opacity: 0; stroke-width: 1; opacity: 1;"/><path class="sankey-link" d="M20,416.7745083315248C25.294117647058826,416.7745083315248 25.294117647058826,457.7040221659078 30.58823529411765,457.7040221659078L41.1764705882353,457.7040511658643L30.58823529411765,457.7040801658208C25.294117647058826,457.7040801658208 25.294117647058826,416.7745663314378 20,416.7745663314378Z" style="stroke: rgb(0, 255, 0); stroke-opacity: 0; fill: rgb(0, 255, 0); fill-opacity: 0; stroke-width: 1; opacity: 1;"/><path class="sankey-link" d="M20,474.7745373314813C25.294117647058826,474.7745373314813 25.294117647058826,535.7043411654292 30.58823529411765,535.7043411654292L41.1764705882353,535.7043701653857L30.58823529411765,535.7043991653422C25.294117647058826,535.7043991653422 25.294117647058826,474.7745953313943 20,474.7745953313943Z" style="stroke: rgb(0, 255, 0); stroke-opacity: 0; fill: rgb(0, 255, 0); fill-opacity: 0; stroke-width: 1; opacity: 1;"/><path class="sankey-link" d="M20,358.77424733191634C25.294117647058826,358.77424733191634 25.294117647058826,379.70376116629933 30.58823529411765,379.70376116629933L41.1764705882353,379.7037901662558L30.58823529411765,379.7038191662123C25.294117647058826,379.7038191662123 25.294117647058826,358.77430533182934 20,358.77430533182934Z" style="stroke: rgb(0, 255, 0); stroke-opacity: 0; fill: rgb(0, 255, 0); fill-opacity: 0; stroke-width: 1; opacity: 1;"/><path class="sankey-link" d="M61.1764705882353,457.70373216634283C66.47058823529412,457.70373216634283 66.47058823529412,387.09865406046777 71.76470588235294,387.09865406046777L82.3529411764706,387.09868306042426L71.76470588235294,387.09871206038076C66.47058823529412,387.09871206038076 66.47058823529412,457.7037901662558 61.1764705882353,457.7037901662558Z" style="stroke: rgb(0, 255, 0); stroke-opacity: 0; fill: rgb(0, 255, 0); fill-opacity: 0; stroke-width: 1; opacity: 1;"/><path class="sankey-link" d="M61.1764705882353,379.70370316638633C66.47058823529412,379.70370316638633 66.47058823529412,329.09862506051127 71.76470588235294,329.09862506051127L82.3529411764706,329.09865406046777L71.76470588235294,329.09868306042426C66.47058823529412,329.09868306042426 66.47058823529412,379.70376116629933 61.1764705882353,379.70376116629933Z" style="stroke: rgb(0, 255, 0); stroke-opacity: 0; fill: rgb(0, 255, 0); fill-opacity: 0; stroke-width: 1; opacity: 1;"/><path class="sankey-link" d="M61.1764705882353,535.7042831655162C66.47058823529412,535.7042831655162 66.47058823529412,445.09920505964124 71.76470588235294,445.09920505964124L82.3529411764706,445.09923405959773L71.76470588235294,445.09926305955423C66.47058823529412,445.09926305955423 66.47058823529412,535.7043411654292 61.1764705882353,535.7043411654292Z" style="stroke: rgb(0, 255, 0); stroke-opacity: 0; fill: rgb(0, 255, 0); fill-opacity: 0; stroke-width: 1; opacity: 1;"/><path class="sankey-link" d="M61.1764705882353,457.7037901662558C66.47058823529412,457.7037901662558 66.47058823529412,387.09871206038076 71.76470588235294,387.09871206038076L82.3529411764706,387.09874106033726L71.76470588235294,387.09877006029376C66.47058823529412,387.09877006029376 66.47058823529412,457.7038481661688 61.1764705882353,457.7038481661688Z" style="stroke: rgb(0, 255, 0); stroke-opacity: 0; fill: rgb(0, 255, 0); fill-opacity: 0; stroke-width: 1; opacity: 1;"/><path class="sankey-link" d="M61.1764705882353,535.7043411654292C66.47058823529412,535.7043411654292 66.47058823529412,445.09926305955423 71.76470588235294,445.09926305955423L82.3529411764706,445.09929205951073L71.76470588235294,445.09932105946723C66.47058823529412,445.09932105946723 66.47058823529412,535.7043991653422 61.1764705882353,535.7043991653422Z" style="stroke: rgb(0, 255, 0); stroke-opacity: 0; fill: rgb(0, 255, 0); fill-opacity: 0; stroke-width: 1; opacity: 1;"/><path class="sankey-link" d="M61.1764705882353,379.70376116629933C66.47058823529412,379.70376116629933 66.47058823529412,329.09868306042426 71.76470588235294,329.09868306042426L82.3529411764706,329.09871206038076L71.76470588235294,329.09874106033726C66.47058823529412,329.09874106033726 66.47058823529412,379.7038191662123 61.1764705882353,379.7038191662123Z" style="stroke: rgb(0, 255, 0); stroke-opacity: 0; fill: rgb(0, 255, 0); fill-opacity: 0; stroke-width: 1; opacity: 1;"/><path class="sankey-link" d="M61.1764705882353,457.7038481661688C66.47058823529412,457.7038481661688 66.47058823529412,387.09877006029376 71.76470588235294,387.09877006029376L82.3529411764706,387.09879906025026L71.76470588235294,387.09882806020676C66.47058823529412,387.09882806020676 66.47058823529412,457.7039061660818 61.1764705882353,457.7039061660818Z" style="stroke: rgb(0, 255, 0); stroke-opacity: 0; fill: rgb(0, 255, 0); fill-opacity: 0; stroke-width: 1; opacity: 1;"/><path class="sankey-link" d="M61.1764705882353,457.7039061660818C66.47058823529412,457.7039061660818 66.47058823529412,387.09882806020676 71.76470588235294,387.09882806020676L82.3529411764706,387.09885706016325L71.76470588235294,387.09888606011975C66.47058823529412,387.09888606011975 66.47058823529412,457.7039641659948 61.1764705882353,457.7039641659948Z" style="stroke: rgb(0, 255, 0); stroke-opacity: 0; fill: rgb(0, 255, 0); fill-opacity: 0; stroke-width: 1; opacity: 1;"/><path class="sankey-link" d="M61.1764705882353,457.7039641659948C66.47058823529412,457.7039641659948 66.47058823529412,387.09888606011975 71.76470588235294,387.09888606011975L82.3529411764706,387.09891506007625L71.76470588235294,387.09894406003275C66.47058823529412,387.09894406003275 66.47058823529412,457.7040221659078 61.1764705882353,457.7040221659078Z" style="stroke: rgb(0, 255, 0); stroke-opacity: 0; fill: rgb(0, 255, 0); fill-opacity: 0; stroke-width: 1; opacity: 1;"/><path class="sankey-link" d="M61.1764705882353,457.7040221659078C66.47058823529412,457.7040221659078 66.47058823529412,387.09894406003275 71.76470588235294,387.09894406003275L82.3529411764706,387.09897305998925L71.76470588235294,387.09900205994575C66.47058823529412,387.09900205994575 66.47058823529412,457.7040801658208 61.1764705882353,457.7040801658208Z" style="stroke: rgb(0, 255, 0); stroke-opacity: 0; fill: rgb(0, 255, 0); fill-opacity: 0; stroke-width: 1; opacity: 1;"/><path class="sankey-link" d="M61.1764705882353,457.7040801658208C66.47058823529412,457.7040801658208 66.47058823529412,387.09900205994575 71.76470588235294,387.09900205994575L82.3529411764706,387.09903105990225L71.76470588235294,387.09906005985874C66.47058823529412,387.09906005985874 66.47058823529412,457.7041381657338 61.1764705882353,457.7041381657338Z" style="stroke: rgb(0, 255, 0); stroke-opacity: 0; fill: rgb(0, 255, 0); fill-opacity: 0; stroke-width: 1; opacity: 1;"/><path class="sankey-link" d="M61.1764705882353,457.7041381657338C66.47058823529412,457.7041381657338 66.47058823529412,387.09906005985874 71.76470588235294,387.09906005985874L82.3529411764706,387.09908905981524L71.76470588235294,387.09911805977174C66.47058823529412,387.09911805977174 66.47058823529412,457.7041961656468 61.1764705882353,457.7041961656468Z" style="stroke: rgb(0, 255, 0); stroke-opacity: 0; fill: rgb(0, 255, 0); fill-opacity: 0; stroke-width: 1; opacity: 1;"/><path class="sankey-link" d="M61.1764705882353,457.7041961656468C66.47058823529412,457.7041961656468 66.47058823529412,387.09911805977174 71.76470588235294,387.09911805977174L82.3529411764706,387.09914705972824L71.76470588235294,387.09917605968474C66.47058823529412,387.09917605968474 66.47058823529412,457.7042541655598 61.1764705882353,457.7042541655598Z" style="stroke: rgb(0, 255, 0); stroke-opacity: 0; fill: rgb(0, 255, 0); fill-opacity: 0; stroke-width: 1; opacity: 1;"/><path class="sankey-link" d="M61.1764705882353,457.7042541655598C66.47058823529412,457.7042541655598 66.47058823529412,387.09917605968474 71.76470588235294,387.09917605968474L82.3529411764706,387.09920505964124L71.76470588235294,387.09923405959773C66.47058823529412,387.09923405959773 66.47058823529412,457.7043121654728 61.1764705882353,457.7043121654728Z" style="stroke: rgb(0, 255, 0); stroke-opacity: 0; fill: rgb(0, 255, 0); fill-opacity: 0; stroke-width: 1; opacity: 1;"/><path class="sankey-link" d="M61.1764705882353,457.7043121654728C66.47058823529412,457.7043121654728 66.47058823529412,387.09923405959773 71.76470588235294,387.09923405959773L82.3529411764706,387.09926305955423L71.76470588235294,387.09929205951073C66.47058823529412,387.09929205951073 66.47058823529412,457.7043701653858 61.1764705882353,457.7043701653858Z" style="stroke: rgb(0, 255, 0); stroke-opacity: 0; fill: rgb(0, 255, 0); fill-opacity: 0; stroke-width: 1; opacity: 1;"/><path class="sankey-link" d="M102.3529411764706,445.0984510607723C107.64705882352942,445.0984510607723 107.64705882352942,324.99488654007627 112.94117647058823,324.99488654007627L123.52941176470588,324.99491554003276L112.94117647058823,324.99494453998926C107.64705882352942,324.99494453998926 107.64705882352942,445.0985090606853 102.3529411764706,445.0985090606853Z" style="stroke: rgb(0, 255, 0); stroke-opacity: 0; fill: rgb(0, 255, 0); fill-opacity: 0; stroke-width: 1; opacity: 1;"/><path class="sankey-link" d="M102.3529411764706,445.0985090606853C107.64705882352942,445.0985090606853 107.64705882352942,324.99494453998926 112.94117647058823,324.99494453998926L123.52941176470588,324.99497353994576L112.94117647058823,324.99500253990226C107.64705882352942,324.99500253990226 107.64705882352942,445.09856706059827 102.3529411764706,445.09856706059827Z" style="stroke: rgb(0, 255, 0); stroke-opacity: 0; fill: rgb(0, 255, 0); fill-opacity: 0; stroke-width: 1; opacity: 1;"/><path class="sankey-link" d="M102.3529411764706,445.09856706059827C107.64705882352942,445.09856706059827 107.64705882352942,324.99500253990226 112.94117647058823,324.99500253990226L123.52941176470588,324.99503153985876L112.94117647058823,324.99506053981526C107.64705882352942,324.99506053981526 107.64705882352942,445.09862506051127 102.3529411764706,445.09862506051127Z" style="stroke: rgb(0, 255, 0); stroke-opacity: 0; fill: rgb(0, 255, 0); fill-opacity: 0; stroke-width: 1; opacity: 1;"/><path class="sankey-link" d="M102.3529411764706,445.09862506051127C107.64705882352942,445.09862506051127 107.64705882352942,324.99506053981526 112.94117647058823,324.99506053981526L123.52941176470588,324.99508953977175L112.94117647058823,324.99511853972825C107.64705882352942,324.99511853972825 107.64705882352942,445.09868306042426 102.3529411764706,445.09868306042426Z" style="stroke: rgb(0, 255, 0); stroke-opacity: 0; fill: rgb(0, 255, 0); fill-opacity: 0; stroke-width: 1; opacity: 1;"/><path class="sankey-link" d="M102.3529411764706,445.09868306042426C107.64705882352942,445.09868306042426 107.64705882352942,324.99511853972825 112.94117647058823,324.99511853972825L123.52941176470588,324.99514753968475L112.94117647058823,324.99517653964125C107.64705882352942,324.99517653964125 107.64705882352942,445.09874106033726 102.3529411764706,445.09874106033726Z" style="stroke: rgb(0, 255, 0); stroke-opacity: 0; fill: rgb(0, 255, 0); fill-opacity: 0; stroke-width: 1; opacity: 1;"/><path class="sankey-link" d="M102.3529411764706,445.09874106033726C107.64705882352942,445.09874106033726 107.64705882352942,324.99517653964125 112.94117647058823,324.99517653964125L123.52941176470588,324.99520553959775L112.94117647058823,324.99523453955425C107.64705882352942,324.99523453955425 107.64705882352942,445.09879906025026 102.3529411764706,445.09879906025026Z" style="stroke: rgb(0, 255, 0); stroke-opacity: 0; fill: rgb(0, 255, 0); fill-opacity: 0; stroke-width: 1; opacity: 1;"/><path class="sankey-link" d="M102.3529411764706,445.09879906025026C107.64705882352942,445.09879906025026 107.64705882352942,324.99523453955425 112.94117647058823,324.99523453955425L123.52941176470588,324.99526353951074L112.94117647058823,324.99529253946724C107.64705882352942,324.99529253946724 107.64705882352942,445.09885706016325 102.3529411764706,445.09885706016325Z" style="stroke: rgb(0, 255, 0); stroke-opacity: 0; fill: rgb(0, 255, 0); fill-opacity: 0; stroke-width: 1; opacity: 1;"/><path class="sankey-link" d="M102.3529411764706,445.09885706016325C107.64705882352942,445.09885706016325 107.64705882352942,324.99529253946724 112.94117647058823,324.99529253946724L123.52941176470588,324.99532153942374L112.94117647058823,324.99535053938024C107.64705882352942,324.99535053938024 107.64705882352942,445.09891506007625 102.3529411764706,445.09891506007625Z" style="stroke: rgb(0, 255, 0); stroke-opacity: 0; fill: rgb(0, 255, 0); fill-opacity: 0; stroke-width: 1; opacity: 1;"/><path class="sankey-link" d="M102.3529411764706,445.09891506007625C107.64705882352942,445.09891506007625 107.64705882352942,324.99535053938024 112.94117647058823,324.99535053938024L123.52941176470588,324.99537953933674L112.94117647058823,324.99540853929324C107.64705882352942,324.99540853929324 107.64705882352942,445.09897305998925 102.3529411764706,445.09897305998925Z" style="stroke: rgb(0, 255, 0); stroke-opacity: 0; fill: rgb(0, 255, 0); fill-opacity: 0; stroke-width: 1; opacity: 1;"/><path class="sankey-link" d="M102.3529411764706,445.09897305998925C107.64705882352942,445.09897305998925 107.64705882352942,324.99540853929324 112.94117647058823,324.99540853929324L123.52941176470588,324.99543753924974L112.94117647058823,324.99546653920623C107.64705882352942,324.99546653920623 107.64705882352942,445.09903105990225 102.3529411764706,445.09903105990225Z" style="stroke: rgb(0, 255, 0); stroke-opacity: 0; fill: rgb(0, 255, 0); fill-opacity: 0; stroke-width: 1; opacity: 1;"/><path class="sankey-link" d="M143.52941176470588,324.99488654007627C148.8235294117647,324.99488654007627 148.8235294117647,293.7728301864793 154.11764705882354,293.7728301864793L164.7058823529412,293.7728591864358L154.11764705882354,293.7728881863923C148.8235294117647,293.7728881863923 148.8235294117647,324.99494453998926 143.52941176470588,324.99494453998926Z" style="stroke: rgb(0, 255, 0); stroke-opacity: 0; fill: rgb(0, 255, 0); fill-opacity: 0; stroke-width: 1; opacity: 1;"/><path class="sankey-link" d="M143.52941176470588,324.99494453998926C148.8235294117647,324.99494453998926 148.8235294117647,293.7728881863923 154.11764705882354,293.7728881863923L164.7058823529412,293.7729171863488L154.11764705882354,293.7729461863053C148.8235294117647,293.7729461863053 148.8235294117647,324.99500253990226 143.52941176470588,324.99500253990226Z" style="stroke: rgb(0, 255, 0); stroke-opacity: 0; fill: rgb(0, 255, 0); fill-opacity: 0; stroke-width: 1; opacity: 1;"/><path class="sankey-link" d="M143.52941176470588,324.99500253990226C148.8235294117647,324.99500253990226 148.8235294117647,293.7729461863053 154.11764705882354,293.7729461863053L164.7058823529412,293.7729751862618L154.11764705882354,293.7730041862183C148.8235294117647,293.7730041862183 148.8235294117647,324.99506053981526 143.52941176470588,324.99506053981526Z" style="stroke: rgb(0, 255, 0); stroke-opacity: 0; fill: rgb(0, 255, 0); fill-opacity: 0; stroke-width: 1; opacity: 1;"/><path class="sankey-link" d="M143.52941176470588,324.99506053981526C148.8235294117647,324.99506053981526 148.8235294117647,293.7730041862183 154.11764705882354,293.7730041862183L164.7058823529412,293.7730331861748L154.11764705882354,293.7730621861313C148.8235294117647,293.7730621861313 148.8235294117647,324.99511853972825 143.52941176470588,324.99511853972825Z" style="stroke: rgb(0, 255, 0); stroke-opacity: 0; fill: rgb(0, 255, 0); fill-opacity: 0; stroke-width: 1; opacity: 1;"/><path class="sankey-link" d="M143.52941176470588,324.99511853972825C148.8235294117647,324.99511853972825 148.8235294117647,293.7730621861313 154.11764705882354,293.7730621861313L164.7058823529412,293.7730911860878L154.11764705882354,293.7731201860443C148.8235294117647,293.7731201860443 148.8235294117647,324.99517653964125 143.52941176470588,324.99517653964125Z" style="stroke: rgb(0, 255, 0); stroke-opacity: 0; fill: rgb(0, 255, 0); fill-opacity: 0; stroke-width: 1; opacity: 1;"/><path class="sankey-link" d="M184.7058823529412,409.77265618674033C190,409.77265618674033 190,316.28881287949054 195.29411764705884,316.28881287949054L205.8823529411765,316.28884187944703L195.29411764705884,316.28887087940353C190,316.28887087940353 190,409.77271418665333 184.7058823529412,409.77271418665333Z" style="stroke: rgb(0, 255, 0); stroke-opacity: 0; fill: rgb(0, 255, 0); fill-opacity: 0; stroke-width: 1; opacity: 1;"/><path class="sankey-link" d="M184.7058823529412,409.77271418665333C190,409.77271418665333 190,316.28887087940353 195.29411764705884,316.28887087940353L205.8823529411765,316.28889987936003L195.29411764705884,316.28892887931653C190,316.28892887931653 190,409.7727721865663 184.7058823529412,409.7727721865663Z" style="stroke: rgb(0, 255, 0); stroke-opacity: 0; fill: rgb(0, 255, 0); fill-opacity: 0; stroke-width: 1; opacity: 1;"/><path class="sankey-link" d="M184.7058823529412,409.7727721865663C190,409.7727721865663 190,316.28892887931653 195.29411764705884,316.28892887931653L205.8823529411765,316.288957879273L195.29411764705884,316.2889868792295C190,316.2889868792295 190,409.7728301864793 184.7058823529412,409.7728301864793Z" style="stroke: rgb(0, 255, 0); stroke-opacity: 0; fill: rgb(0, 255, 0); fill-opacity: 0; stroke-width: 1; opacity: 1;"/><path class="sankey-link" d="M184.7058823529412,409.7728301864793C190,409.7728301864793 190,316.2889868792295 195.29411764705884,316.2889868792295L205.8823529411765,316.289015879186L195.29411764705884,316.2890448791425C190,316.2890448791425 190,409.7728881863923 184.7058823529412,409.7728881863923Z" style="stroke: rgb(0, 255, 0); stroke-opacity: 0; fill: rgb(0, 255, 0); fill-opacity: 0; stroke-width: 1; opacity: 1;"/><path class="sankey-link" d="M184.7058823529412,409.7728881863923C190,409.7728881863923 190,316.2890448791425 195.29411764705884,316.2890448791425L205.8823529411765,316.289073879099L195.29411764705884,316.2891028790555C190,316.2891028790555 190,409.7729461863053 184.7058823529412,409.7729461863053Z" style="stroke: rgb(0, 255, 0); stroke-opacity: 0; fill: rgb(0, 255, 0); fill-opacity: 0; stroke-width: 1; opacity: 1;"/><path class="sankey-link" d="M225.8823529411765,316.28881287949054C231.1764705882353,316.28881287949054 231.1764705882353,347.7112372153637 236.47058823529414,347.7112372153637L247.05882352941177,347.7112662153202L236.47058823529414,347.7112952152767C231.1764705882353,347.7112952152767 231.1764705882353,316.28887087940353 225.8823529411765,316.28887087940353Z" style="stroke: rgb(0, 255, 0); stroke-opacity: 0; fill: rgb(0, 255, 0); fill-opacity: 0; stroke-width: 1; opacity: 1;"/><path class="sankey-link" d="M225.8823529411765,316.28887087940353C231.1764705882353,316.28887087940353 231.1764705882353,347.7112952152767 236.47058823529414,347.7112952152767L247.05882352941177,347.7113242152332L236.47058823529414,347.7113532151897C231.1764705882353,347.7113532151897 231.1764705882353,316.28892887931653 225.8823529411765,316.28892887931653Z" style="stroke: rgb(0, 255, 0); stroke-opacity: 0; fill: rgb(0, 255, 0); fill-opacity: 0; stroke-width: 1; opacity: 1;"/><path class="sankey-link" d="M225.8823529411765,316.28892887931653C231.1764705882353,316.28892887931653 231.1764705882353,347.7113532151897 236.47058823529414,347.7113532151897L247.05882352941177,347.7113822151462L236.47058823529414,347.7114112151027C231.1764705882353,347.7114112151027 231.1764705882353,316.2889868792295 225.8823529411765,316.2889868792295Z" style="stroke: rgb(0, 255, 0); stroke-opacity: 0; fill: rgb(0, 255, 0); fill-opacity: 0; stroke-width: 1; opacity: 1;"/><path class="sankey-link" d="M267.05882352941177,347.7112372153637C272.3529411764706,347.7112372153637 272.3529411764706,322.1897520339452 277.6470588235294,322.1897520339452L288.2352941176471,322.1897810339017L277.6470588235294,322.1898100338582C272.3529411764706,322.1898100338582 272.3529411764706,347.7112952152767 267.05882352941177,347.7112952152767Z" style="stroke: rgb(0, 255, 0); stroke-opacity: 0; fill: rgb(0, 255, 0); fill-opacity: 0; stroke-width: 1; opacity: 1;"/><path class="sankey-link" d="M267.05882352941177,347.7112952152767C272.3529411764706,347.7112952152767 272.3529411764706,322.1898100338582 277.6470588235294,322.1898100338582L288.2352941176471,322.1898390338147L277.6470588235294,322.1898680337712C272.3529411764706,322.1898680337712 272.3529411764706,347.7113532151897 267.05882352941177,347.7113532151897Z" style="stroke: rgb(0, 255, 0); stroke-opacity: 0; fill: rgb(0, 255, 0); fill-opacity: 0; stroke-width: 1; opacity: 1;"/><path class="sankey-link" d="M267.05882352941177,347.7113532151897C272.3529411764706,347.7113532151897 272.3529411764706,322.1898680337712 277.6470588235294,322.1898680337712L288.2352941176471,322.1898970337277L277.6470588235294,322.1899260336842C272.3529411764706,322.1899260336842 272.3529411764706,347.7114112151027 267.05882352941177,347.7114112151027Z" style="stroke: rgb(0, 255, 0); stroke-opacity: 0; fill: rgb(0, 255, 0); fill-opacity: 0; stroke-width: 1; opacity: 1;"/><path class="sankey-link" d="M308.2352941176471,322.1897520339452C313.5294117647059,322.1897520339452 313.5294117647059,386.56174492003845 318.82352941176475,386.56174492003845L329.41176470588243,386.56177391999495L318.82352941176475,386.56180291995145C313.5294117647059,386.56180291995145 313.5294117647059,322.1898100338582 308.2352941176471,322.1898100338582Z" style="stroke: rgb(0, 255, 0); stroke-opacity: 0; fill: rgb(0, 255, 0); fill-opacity: 0; stroke-width: 1; opacity: 1;"/><path class="sankey-link" d="M308.2352941176471,322.1898100338582C313.5294117647059,322.1898100338582 313.5294117647059,386.56180291995145 318.82352941176475,386.56180291995145L329.41176470588243,386.56183191990795L318.82352941176475,386.56186091986444C313.5294117647059,386.56186091986444 313.5294117647059,322.1898680337712 308.2352941176471,322.1898680337712Z" style="stroke: rgb(0, 255, 0); stroke-opacity: 0; fill: rgb(0, 255, 0); fill-opacity: 0; stroke-width: 1; opacity: 1;"/><path class="sankey-link" d="M308.2352941176471,322.1898680337712C313.5294117647059,322.1898680337712 313.5294117647059,386.56186091986444 318.82352941176475,386.56186091986444L329.41176470588243,386.56188991982094L318.82352941176475,386.56191891977744C313.5294117647059,386.56191891977744 313.5294117647059,322.1899260336842 308.2352941176471,322.1899260336842Z" style="stroke: rgb(0, 255, 0); stroke-opacity: 0; fill: rgb(0, 255, 0); fill-opacity: 0; stroke-width: 1; opacity: 1;"/><path class="sankey-link" d="M308.2352941176471,322.1899260336842C313.5294117647059,322.1899260336842 313.5294117647059,386.56191891977744 318.82352941176475,386.56191891977744L329.41176470588243,386.56194791973394L318.82352941176475,386.56197691969044C313.5294117647059,386.56197691969044 313.5294117647059,322.18998403359717 308.2352941176471,322.18998403359717Z" style="stroke: rgb(0, 255, 0); stroke-opacity: 0; fill: rgb(0, 255, 0); fill-opacity: 0; stroke-width: 1; opacity: 1;"/><path class="sankey-link" d="M308.2352941176471,322.18998403359717C313.5294117647059,322.18998403359717 313.5294117647059,386.56197691969044 318.82352941176475,386.56197691969044L329.41176470588243,386.56200591964694L318.82352941176475,386.56203491960343C313.5294117647059,386.56203491960343 313.5294117647059,322.19004203351017 308.2352941176471,322.19004203351017Z" style="stroke: rgb(0, 255, 0); stroke-opacity: 0; fill: rgb(0, 255, 0); fill-opacity: 0; stroke-width: 1; opacity: 1;"/><path class="sankey-link" d="M349.4117647058824,386.56174492003845C354.7058823529412,386.56174492003845 354.7058823529412,340.3986389792635 360,340.3986389792635L370.5882352941177,340.39866797922L360,340.3986969791765C354.7058823529412,340.3986969791765 354.7058823529412,386.56180291995145 349.4117647058824,386.56180291995145Z" style="stroke: rgb(0, 255, 0); stroke-opacity: 0; fill: rgb(0, 255, 0); fill-opacity: 0; stroke-width: 1; opacity: 1;"/><path class="sankey-link" d="M349.4117647058824,386.56180291995145C354.7058823529412,386.56180291995145 354.7058823529412,340.3986969791765 360,340.3986969791765L370.5882352941177,340.398725979133L360,340.3987549790895C354.7058823529412,340.3987549790895 354.7058823529412,386.56186091986444 349.4117647058824,386.56186091986444Z" style="stroke: rgb(0, 255, 0); stroke-opacity: 0; fill: rgb(0, 255, 0); fill-opacity: 0; stroke-width: 1; opacity: 1;"/><path class="sankey-link" d="M349.4117647058824,386.56186091986444C354.7058823529412,386.56186091986444 354.7058823529412,340.3987549790895 360,340.3987549790895L370.5882352941177,340.398783979046L360,340.3988129790025C354.7058823529412,340.3988129790025 354.7058823529412,386.56191891977744 349.4117647058824,386.56191891977744Z" style="stroke: rgb(0, 255, 0); stroke-opacity: 0; fill: rgb(0, 255, 0); fill-opacity: 0; stroke-width: 1; opacity: 1;"/><path class="sankey-link" d="M349.4117647058824,386.56191891977744C354.7058823529412,386.56191891977744 354.7058823529412,340.3988129790025 360,340.3988129790025L370.5882352941177,340.398841978959L360,340.3988709789155C354.7058823529412,340.3988709789155 354.7058823529412,386.56197691969044 349.4117647058824,386.56197691969044Z" style="stroke: rgb(0, 255, 0); stroke-opacity: 0; fill: rgb(0, 255, 0); fill-opacity: 0; stroke-width: 1; opacity: 1;"/><path class="sankey-link" d="M349.4117647058824,386.56197691969044C354.7058823529412,386.56197691969044 354.7058823529412,340.3988709789155 360,340.3988709789155L370.5882352941177,340.398899978872L360,340.3989289788285C354.7058823529412,340.3989289788285 354.7058823529412,386.56203491960343 349.4117647058824,386.56203491960343Z" style="stroke: rgb(0, 255, 0); stroke-opacity: 0; fill: rgb(0, 255, 0); fill-opacity: 0; stroke-width: 1; opacity: 1;"/><path class="sankey-link" d="M390.5882352941177,340.3986389792635C395.8823529411765,340.3986389792635 395.8823529411765,352.408014369041 401.17647058823536,352.408014369041L411.76470588235304,352.4080433689975L401.17647058823536,352.408072368954C395.8823529411765,352.408072368954 395.8823529411765,340.3986969791765 390.5882352941177,340.3986969791765Z" style="stroke: rgb(0, 255, 0); stroke-opacity: 0; fill: rgb(0, 255, 0); fill-opacity: 0; stroke-width: 1; opacity: 1;"/><path class="sankey-link" d="M390.5882352941177,340.3986969791765C395.8823529411765,340.3986969791765 395.8823529411765,352.408072368954 401.17647058823536,352.408072368954L411.76470588235304,352.4081013689105L401.17647058823536,352.408130368867C395.8823529411765,352.408130368867 395.8823529411765,340.3987549790895 390.5882352941177,340.3987549790895Z" style="stroke: rgb(0, 255, 0); stroke-opacity: 0; fill: rgb(0, 255, 0); fill-opacity: 0; stroke-width: 1; opacity: 1;"/><path class="sankey-link" d="M431.764705882353,352.408014369041C437.0588235294118,352.408014369041 437.0588235294118,348.26461325064247 442.3529411764706,348.26461325064247L452.9411764705883,348.26464225059897L442.3529411764706,348.26467125055547C437.0588235294118,348.26467125055547 437.0588235294118,352.408072368954 431.764705882353,352.408072368954Z" style="stroke: rgb(0, 255, 0); stroke-opacity: 0; fill: rgb(0, 255, 0); fill-opacity: 0; stroke-width: 1; opacity: 1;"/><path class="sankey-link" d="M431.764705882353,352.408072368954C437.0588235294118,352.408072368954 437.0588235294118,348.26467125055547 442.3529411764706,348.26467125055547L452.9411764705883,348.26470025051196L442.3529411764706,348.26472925046846C437.0588235294118,348.26472925046846 437.0588235294118,352.408130368867 431.764705882353,352.408130368867Z" style="stroke: rgb(0, 255, 0); stroke-opacity: 0; fill: rgb(0, 255, 0); fill-opacity: 0; stroke-width: 1; opacity: 1;"/><path class="sankey-link" d="M431.764705882353,352.408130368867C437.0588235294118,352.408130368867 437.0588235294118,348.26472925046846 442.3529411764706,348.26472925046846L452.9411764705883,348.26475825042496L442.3529411764706,348.26478725038146C437.0588235294118,348.26478725038146 437.0588235294118,352.40818836878 431.764705882353,352.40818836878Z" style="stroke: rgb(0, 255, 0); stroke-opacity: 0; fill: rgb(0, 255, 0); fill-opacity: 0; stroke-width: 1; opacity: 1;"/><path class="sankey-link" d="M431.764705882353,352.40818836878C437.0588235294118,352.40818836878 437.0588235294118,348.26478725038146 442.3529411764706,348.26478725038146L452.9411764705883,348.26481625033796L442.3529411764706,348.26484525029446C437.0588235294118,348.26484525029446 437.0588235294118,352.40824636869297 431.764705882353,352.40824636869297Z" style="stroke: rgb(0, 255, 0); stroke-opacity: 0; fill: rgb(0, 255, 0); fill-opacity: 0; stroke-width: 1; opacity: 1;"/><path class="sankey-link" d="M431.764705882353,352.40824636869297C437.0588235294118,352.40824636869297 437.0588235294118,426.26475825042473 442.3529411764706,426.26475825042473L452.9411764705883,426.26478725038123L442.3529411764706,426.26481625033773C437.0588235294118,426.26481625033773 437.0588235294118,352.40830436860597 431.764705882353,352.40830436860597Z" style="stroke: rgb(0, 255, 0); stroke-opacity: 0; fill: rgb(0, 255, 0); fill-opacity: 0; stroke-width: 1; opacity: 1;"/><path class="sankey-link" d="M472.9411764705883,290.26470025051196C478.2352941176471,290.26470025051196 478.2352941176471,310.23196356103847 483.5294117647059,310.23196356103847L494.11764705882354,310.23199256099497L483.5294117647059,310.23202156095147C478.2352941176471,310.23202156095147 478.2352941176471,290.26475825042496 472.9411764705883,290.26475825042496Z" style="stroke: rgb(0, 255, 0); stroke-opacity: 0; fill: rgb(0, 255, 0); fill-opacity: 0; stroke-width: 1; opacity: 1;"/><path class="sankey-link" d="M472.9411764705883,290.26475825042496C478.2352941176471,290.26475825042496 478.2352941176471,310.23202156095147 483.5294117647059,310.23202156095147L494.11764705882354,310.23205056090796L483.5294117647059,310.23207956086446C478.2352941176471,310.23207956086446 478.2352941176471,290.26481625033796 472.9411764705883,290.26481625033796Z" style="stroke: rgb(0, 255, 0); stroke-opacity: 0; fill: rgb(0, 255, 0); fill-opacity: 0; stroke-width: 1; opacity: 1;"/><path class="sankey-link" d="M472.9411764705883,290.26481625033796C478.2352941176471,290.26481625033796 478.2352941176471,310.23207956086446 483.5294117647059,310.23207956086446L494.11764705882354,310.23210856082096L483.5294117647059,310.23213756077746C478.2352941176471,310.23213756077746 478.2352941176471,290.26487425025095 472.9411764705883,290.26487425025095Z" style="stroke: rgb(0, 255, 0); stroke-opacity: 0; fill: rgb(0, 255, 0); fill-opacity: 0; stroke-width: 1; opacity: 1;"/><path class="sankey-link" d="M472.9411764705883,484.26467125055524C478.2352941176471,484.26467125055524 478.2352941176471,310.23219556069046 483.5294117647059,310.23219556069046L494.11764705882354,310.23222456064696L483.5294117647059,310.23225356060345C478.2352941176471,310.23225356060345 478.2352941176471,484.26472925046824 472.9411764705883,484.26472925046824Z" style="stroke: rgb(0, 255, 0); stroke-opacity: 0; fill: rgb(0, 255, 0); fill-opacity: 0; stroke-width: 1; opacity: 1;"/><path class="sankey-link" d="M472.9411764705883,290.26487425025095C478.2352941176471,290.26487425025095 478.2352941176471,310.23213756077746 483.5294117647059,310.23213756077746L494.11764705882354,310.23216656073396L483.5294117647059,310.23219556069046C478.2352941176471,310.23219556069046 478.2352941176471,290.26493225016395 472.9411764705883,290.26493225016395Z" style="stroke: rgb(0, 255, 0); stroke-opacity: 0; fill: rgb(0, 255, 0); fill-opacity: 0; stroke-width: 1; opacity: 1;"/><path class="sankey-link" d="M514.1176470588235,368.231876561169C519.4117647058824,368.231876561169 519.4117647058824,383.171708833264 524.7058823529412,383.171708833264L535.2941176470589,383.1717378332205L524.7058823529412,383.171766833177C519.4117647058824,383.171766833177 519.4117647058824,368.23193456108197 514.1176470588235,368.23193456108197Z" style="stroke: rgb(0, 255, 0); stroke-opacity: 0; fill: rgb(0, 255, 0); fill-opacity: 0; stroke-width: 1; opacity: 1;"/><path class="sankey-link" d="M514.1176470588235,368.23193456108197C519.4117647058824,368.23193456108197 519.4117647058824,383.171766833177 524.7058823529412,383.171766833177L535.2941176470589,383.1717958331335L524.7058823529412,383.17182483309C519.4117647058824,383.17182483309 519.4117647058824,368.23199256099497 514.1176470588235,368.23199256099497Z" style="stroke: rgb(0, 255, 0); stroke-opacity: 0; fill: rgb(0, 255, 0); fill-opacity: 0; stroke-width: 1; opacity: 1;"/><path class="sankey-link" d="M514.1176470588235,368.23199256099497C519.4117647058824,368.23199256099497 519.4117647058824,383.17182483309 524.7058823529412,383.17182483309L535.2941176470589,383.1718538330465L524.7058823529412,383.171882833003C519.4117647058824,383.171882833003 519.4117647058824,368.23205056090796 514.1176470588235,368.23205056090796Z" style="stroke: rgb(0, 255, 0); stroke-opacity: 0; fill: rgb(0, 255, 0); fill-opacity: 0; stroke-width: 1; opacity: 1;"/><path class="sankey-link" d="M555.2941176470589,383.171708833264C560.5882352941178,383.171708833264 560.5882352941178,349.7772097930155 565.8823529411766,349.7772097930155L576.4705882352941,349.777238792972L565.8823529411766,349.7772677929285C560.5882352941178,349.7772677929285 560.5882352941178,383.171766833177 555.2941176470589,383.171766833177Z" style="stroke: rgb(0, 255, 0); stroke-opacity: 0; fill: rgb(0, 255, 0); fill-opacity: 0; stroke-width: 1; opacity: 1;"/><path class="sankey-link" d="M555.2941176470589,383.171766833177C560.5882352941178,383.171766833177 560.5882352941178,349.7772677929285 565.8823529411766,349.7772677929285L576.4705882352941,349.777296792885L565.8823529411766,349.7773257928415C560.5882352941178,349.7773257928415 560.5882352941178,383.17182483309 555.2941176470589,383.17182483309Z" style="stroke: rgb(0, 255, 0); stroke-opacity: 0; fill: rgb(0, 255, 0); fill-opacity: 0; stroke-width: 1; opacity: 1;"/><path class="sankey-link" d="M555.2941176470589,383.17182483309C560.5882352941178,383.17182483309 560.5882352941178,349.7773257928415 565.8823529411766,349.7773257928415L576.4705882352941,349.777354792798L565.8823529411766,349.7773837927545C560.5882352941178,349.7773837927545 560.5882352941178,383.171882833003 555.2941176470589,383.171882833003Z" style="stroke: rgb(0, 255, 0); stroke-opacity: 0; fill: rgb(0, 255, 0); fill-opacity: 0; stroke-width: 1; opacity: 1;"/><path class="sankey-link" d="M596.4705882352941,349.7772097930155C601.7647058823529,349.7772097930155 601.7647058823529,347.9994780007834 607.0588235294118,347.9994780007834L617.6470588235295,347.9995070007399L607.0588235294118,347.9995360006964C601.7647058823529,347.9995360006964 601.7647058823529,349.7772677929285 596.4705882352941,349.7772677929285Z" style="stroke: rgb(0, 255, 0); stroke-opacity: 0; fill: rgb(0, 255, 0); fill-opacity: 0; stroke-width: 1; opacity: 1;"/><path class="sankey-link" d="M596.4705882352941,349.7772677929285C601.7647058823529,349.7772677929285 601.7647058823529,347.9995360006964 607.0588235294118,347.9995360006964L617.6470588235295,347.9995650006529L607.0588235294118,347.9995940006094C601.7647058823529,347.9995940006094 601.7647058823529,349.7773257928415 596.4705882352941,349.7773257928415Z" style="stroke: rgb(0, 255, 0); stroke-opacity: 0; fill: rgb(0, 255, 0); fill-opacity: 0; stroke-width: 1; opacity: 1;"/><path class="sankey-link" d="M596.4705882352941,349.7773257928415C601.7647058823529,349.7773257928415 601.7647058823529,347.9995940006094 607.0588235294118,347.9995940006094L617.6470588235295,347.9996230005659L607.0588235294118,347.9996520005224C601.7647058823529,347.9996520005224 601.7647058823529,349.7773837927545 596.4705882352941,349.7773837927545Z" style="stroke: rgb(0, 255, 0); stroke-opacity: 0; fill: rgb(0, 255, 0); fill-opacity: 0; stroke-width: 1; opacity: 1;"/><path class="sankey-link" d="M596.4705882352941,349.7777317922325C601.7647058823529,349.7777317922325 601.7647058823529,425.9999130001308 607.0588235294118,425.9999130001308L617.6470588235295,425.9999420000873L607.0588235294118,425.9999710000438C601.7647058823529,425.9999710000438 601.7647058823529,349.7777897921455 596.4705882352941,349.7777897921455Z" style="stroke: rgb(0, 255, 0); stroke-opacity: 0; fill: rgb(0, 255, 0); fill-opacity: 0; stroke-width: 1; opacity: 1;"/><path class="sankey-link" d="M596.4705882352941,349.7779057919715C601.7647058823529,349.7779057919715 601.7647058823529,561.9999130001305 607.0588235294118,561.9999130001305L617.6470588235295,561.999942000087L607.0588235294118,561.9999710000435C601.7647058823529,561.9999710000435 601.7647058823529,349.7779637918845 596.4705882352941,349.7779637918845Z" style="stroke: rgb(0, 255, 0); stroke-opacity: 0; fill: rgb(0, 255, 0); fill-opacity: 0; stroke-width: 1; opacity: 1;"/><path class="sankey-link" d="M596.4705882352941,349.7777897921455C601.7647058823529,349.7777897921455 601.7647058823529,425.9999710000438 607.0588235294118,425.9999710000438L617.6470588235295,426.0000000000003L607.0588235294118,426.0000289999568C601.7647058823529,426.0000289999568 601.7647058823529,349.7778477920585 596.4705882352941,349.7778477920585Z" style="stroke: rgb(0, 255, 0); stroke-opacity: 0; fill: rgb(0, 255, 0); fill-opacity: 0; stroke-width: 1; opacity: 1;"/><path class="sankey-link" d="M596.4705882352941,349.7773837927545C601.7647058823529,349.7773837927545 601.7647058823529,347.9996520005224 607.0588235294118,347.9996520005224L617.6470588235295,347.9996810004789L607.0588235294118,347.9997100004354C601.7647058823529,347.9997100004354 601.7647058823529,349.7774417926675 596.4705882352941,349.7774417926675Z" style="stroke: rgb(0, 255, 0); stroke-opacity: 0; fill: rgb(0, 255, 0); fill-opacity: 0; stroke-width: 1; opacity: 1;"/><path class="sankey-link" d="M596.4705882352941,349.7774417926675C601.7647058823529,349.7774417926675 601.7647058823529,347.9997100004354 607.0588235294118,347.9997100004354L617.6470588235295,347.9997390003919L607.0588235294118,347.9997680003484C601.7647058823529,347.9997680003484 601.7647058823529,349.7774997925805 596.4705882352941,349.7774997925805Z" style="stroke: rgb(0, 255, 0); stroke-opacity: 0; fill: rgb(0, 255, 0); fill-opacity: 0; stroke-width: 1; opacity: 1;"/><path class="sankey-link" d="M596.4705882352941,349.7779637918845C601.7647058823529,349.7779637918845 601.7647058823529,561.9999710000435 607.0588235294118,561.9999710000435L617.6470588235295,562L607.0588235294118,562.0000289999565C601.7647058823529,562.0000289999565 601.7647058823529,349.77802179179747 596.4705882352941,349.77802179179747Z" style="stroke: rgb(0, 255, 0); stroke-opacity: 0; fill: rgb(0, 255, 0); fill-opacity: 0; stroke-width: 1; opacity: 1;"/><path class="sankey-link" d="M596.4705882352941,349.7774997925805C601.7647058823529,349.7774997925805 601.7647058823529,347.9997680003484 607.0588235294118,347.9997680003484L617.6470588235295,347.9997970003049L607.0588235294118,347.9998260002614C601.7647058823529,347.9998260002614 601.7647058823529,349.7775577924935 596.4705882352941,349.7775577924935Z" style="stroke: rgb(0, 255, 0); stroke-opacity: 0; fill: rgb(0, 255, 0); fill-opacity: 0; stroke-width: 1; opacity: 1;"/><path class="sankey-link" d="M596.4705882352941,349.77802179179747C601.7647058823529,349.77802179179747 601.7647058823529,582.0000289999565 607.0588235294118,582.0000289999565L617.6470588235295,582.000057999913L607.0588235294118,582.0000869998695C601.7647058823529,582.0000869998695 601.7647058823529,349.77807979171047 596.4705882352941,349.77807979171047Z" style="stroke: rgb(0, 255, 0); stroke-opacity: 0; fill: rgb(0, 255, 0); fill-opacity: 0; stroke-width: 1; opacity: 1;"/><path class="sankey-link" d="M596.4705882352941,349.7778477920585C601.7647058823529,349.7778477920585 601.7647058823529,426.0000289999568 607.0588235294118,426.0000289999568L617.6470588235295,426.0000579999133L607.0588235294118,426.0000869998698C601.7647058823529,426.0000869998698 601.7647058823529,349.7779057919715 596.4705882352941,349.7779057919715Z" style="stroke: rgb(0, 255, 0); stroke-opacity: 0; fill: rgb(0, 255, 0); fill-opacity: 0; stroke-width: 1; opacity: 1;"/><path class="sankey-link" d="M596.4705882352941,349.7775577924935C601.7647058823529,349.7775577924935 601.7647058823529,347.9998260002614 607.0588235294118,347.9998260002614L617.6470588235295,347.9998550002179L607.0588235294118,347.9998840001744C601.7647058823529,347.9998840001744 601.7647058823529,349.7776157924065 596.4705882352941,349.7776157924065Z" style="stroke: rgb(0, 255, 0); stroke-opacity: 0; fill: rgb(0, 255, 0); fill-opacity: 0; stroke-width: 1; opacity: 1;"/><path class="sankey-link" d="M596.4705882352941,349.7776157924065C601.7647058823529,349.7776157924065 601.7647058823529,347.9998840001744 607.0588235294118,347.9998840001744L617.6470588235295,347.9999130001309L607.0588235294118,347.9999420000874C601.7647058823529,347.9999420000874 601.7647058823529,349.7776737923195 596.4705882352941,349.7776737923195Z" style="stroke: rgb(0, 255, 0); stroke-opacity: 0; fill: rgb(0, 255, 0); fill-opacity: 0; stroke-width: 1; opacity: 1;"/><path class="sankey-link" d="M596.4705882352941,349.7776737923195C601.7647058823529,349.7776737923195 601.7647058823529,347.9999420000874 607.0588235294118,347.9999420000874L617.6470588235295,347.9999710000439L607.0588235294118,348.0000000000004C601.7647058823529,348.0000000000004 601.7647058823529,349.7777317922325 596.4705882352941,349.7777317922325Z" style="stroke: rgb(0, 255, 0); stroke-opacity: 0; fill: rgb(0, 255, 0); fill-opacity: 0; stroke-width: 1; opacity: 1;"/><path class="sankey-link" d="M637.6470588235295,115.99982600026145C642.9411764705883,115.99982600026145 642.9411764705883,332.2521776045545 648.2352941176471,332.2521776045545L658.8235294117646,332.252206604511L648.2352941176471,332.2522356044675C642.9411764705883,332.2522356044675 642.9411764705883,115.99988400017445 637.6470588235295,115.99988400017445Z" style="stroke: rgb(0, 255, 0); stroke-opacity: 0; fill: rgb(0, 255, 0); fill-opacity: 0; stroke-width: 1; opacity: 1;"/><path class="sankey-link" d="M637.6470588235295,115.99988400017445C642.9411764705883,115.99988400017445 642.9411764705883,332.2522356044675 648.2352941176471,332.2522356044675L658.8235294117646,332.252264604424L648.2352941176471,332.2522936043805C642.9411764705883,332.2522936043805 642.9411764705883,115.99994200008744 637.6470588235295,115.99994200008744Z" style="stroke: rgb(0, 255, 0); stroke-opacity: 0; fill: rgb(0, 255, 0); fill-opacity: 0; stroke-width: 1; opacity: 1;"/><path class="sankey-link" d="M637.6470588235295,483.9998260002613C642.9411764705883,483.9998260002613 642.9411764705883,390.252728603728 648.2352941176471,390.252728603728L658.8235294117646,390.2527576036845L648.2352941176471,390.25278660364097C642.9411764705883,390.25278660364097 642.9411764705883,483.9998840001743 637.6470588235295,483.9998840001743Z" style="stroke: rgb(0, 255, 0); stroke-opacity: 0; fill: rgb(0, 255, 0); fill-opacity: 0; stroke-width: 1; opacity: 1;"/><path class="sankey-link" d="M637.6470588235295,561.9999130001305C642.9411764705883,561.9999130001305 642.9411764705883,390.25290260346696 648.2352941176471,390.25290260346696L658.8235294117646,390.25293160342346L648.2352941176471,390.25296060337996C642.9411764705883,390.25296060337996 642.9411764705883,561.9999710000435 637.6470588235295,561.9999710000435Z" style="stroke: rgb(0, 255, 0); stroke-opacity: 0; fill: rgb(0, 255, 0); fill-opacity: 0; stroke-width: 1; opacity: 1;"/><path class="sankey-link" d="M637.6470588235295,483.9998840001743C642.9411764705883,483.9998840001743 642.9411764705883,390.25278660364097 648.2352941176471,390.25278660364097L658.8235294117646,390.25281560359747L648.2352941176471,390.25284460355397C642.9411764705883,390.25284460355397 642.9411764705883,483.9999420000873 637.6470588235295,483.9999420000873Z" style="stroke: rgb(0, 255, 0); stroke-opacity: 0; fill: rgb(0, 255, 0); fill-opacity: 0; stroke-width: 1; opacity: 1;"/><path class="sankey-link" d="M637.6470588235295,115.99994200008744C642.9411764705883,115.99994200008744 642.9411764705883,332.2522936043805 648.2352941176471,332.2522936043805L658.8235294117646,332.252322604337L648.2352941176471,332.2523516042935C642.9411764705883,332.2523516042935 642.9411764705883,116.00000000000044 637.6470588235295,116.00000000000044Z" style="stroke: rgb(0, 255, 0); stroke-opacity: 0; fill: rgb(0, 255, 0); fill-opacity: 0; stroke-width: 1; opacity: 1;"/><path class="sankey-link" d="M637.6470588235295,116.00000000000044C642.9411764705883,116.00000000000044 642.9411764705883,332.2523516042935 648.2352941176471,332.2523516042935L658.8235294117646,332.25238060425L648.2352941176471,332.2524096042065C642.9411764705883,332.2524096042065 642.9411764705883,116.00005799991344 637.6470588235295,116.00005799991344Z" style="stroke: rgb(0, 255, 0); stroke-opacity: 0; fill: rgb(0, 255, 0); fill-opacity: 0; stroke-width: 1; opacity: 1;"/><path class="sankey-link" d="M637.6470588235295,561.9999710000435C642.9411764705883,561.9999710000435 642.9411764705883,390.25296060337996 648.2352941176471,390.25296060337996L658.8235294117646,390.25298960333646L648.2352941176471,390.25301860329296C642.9411764705883,390.25301860329296 642.9411764705883,562.0000289999565 637.6470588235295,562.0000289999565Z" style="stroke: rgb(0, 255, 0); stroke-opacity: 0; fill: rgb(0, 255, 0); fill-opacity: 0; stroke-width: 1; opacity: 1;"/><path class="sankey-link" d="M637.6470588235295,116.00005799991344C642.9411764705883,116.00005799991344 642.9411764705883,332.2524096042065 648.2352941176471,332.2524096042065L658.8235294117646,332.252438604163L648.2352941176471,332.2524676041195C642.9411764705883,332.2524676041195 642.9411764705883,116.00011599982643 637.6470588235295,116.00011599982643Z" style="stroke: rgb(0, 255, 0); stroke-opacity: 0; fill: rgb(0, 255, 0); fill-opacity: 0; stroke-width: 1; opacity: 1;"/><path class="sankey-link" d="M637.6470588235295,639.999942000087C642.9411764705883,639.999942000087 642.9411764705883,390.25301860329296 648.2352941176471,390.25301860329296L658.8235294117646,390.25304760324946L648.2352941176471,390.25307660320595C642.9411764705883,390.25307660320595 642.9411764705883,640 637.6470588235295,640Z" style="stroke: rgb(0, 255, 0); stroke-opacity: 0; fill: rgb(0, 255, 0); fill-opacity: 0; stroke-width: 1; opacity: 1;"/><path class="sankey-link" d="M637.6470588235295,483.9999420000873C642.9411764705883,483.9999420000873 642.9411764705883,390.25284460355397 648.2352941176471,390.25284460355397L658.8235294117646,390.25287360351047L648.2352941176471,390.25290260346696C642.9411764705883,390.25290260346696 642.9411764705883,484.0000000000003 637.6470588235295,484.0000000000003Z" style="stroke: rgb(0, 255, 0); stroke-opacity: 0; fill: rgb(0, 255, 0); fill-opacity: 0; stroke-width: 1; opacity: 1;"/><path class="sankey-link" d="M637.6470588235295,116.00011599982643C642.9411764705883,116.00011599982643 642.9411764705883,332.2524676041195 648.2352941176471,332.2524676041195L658.8235294117646,332.252496604076L648.2352941176471,332.2525256040325C642.9411764705883,332.2525256040325 642.9411764705883,116.00017399973943 637.6470588235295,116.00017399973943Z" style="stroke: rgb(0, 255, 0); stroke-opacity: 0; fill: rgb(0, 255, 0); fill-opacity: 0; stroke-width: 1; opacity: 1;"/><path class="sankey-link" d="M637.6470588235295,116.00017399973943C642.9411764705883,116.00017399973943 642.9411764705883,332.2525256040325 648.2352941176471,332.2525256040325L658.8235294117646,332.252554603989L648.2352941176471,332.2525836039455C642.9411764705883,332.2525836039455 642.9411764705883,116.00023199965243 637.6470588235295,116.00023199965243Z" style="stroke: rgb(0, 255, 0); stroke-opacity: 0; fill: rgb(0, 255, 0); fill-opacity: 0; stroke-width: 1; opacity: 1;"/><path class="sankey-link" d="M637.6470588235295,116.00023199965243C642.9411764705883,116.00023199965243 642.9411764705883,332.2525836039455 648.2352941176471,332.2525836039455L658.8235294117646,332.252612603902L648.2352941176471,332.2526416038585C642.9411764705883,332.2526416038585 642.9411764705883,116.00028999956542 637.6470588235295,116.00028999956542Z" style="stroke: rgb(0, 255, 0); stroke-opacity: 0; fill: rgb(0, 255, 0); fill-opacity: 0; stroke-width: 1; opacity: 1;"/><path class="sankey-link" d="M637.6470588235295,116.00028999956542C642.9411764705883,116.00028999956542 642.9411764705883,332.2526416038585 648.2352941176471,332.2526416038585L658.8235294117646,332.252670603815L648.2352941176471,332.2526996037715C642.9411764705883,332.2526996037715 642.9411764705883,116.00034799947842 637.6470588235295,116.00034799947842Z" style="stroke: rgb(0, 255, 0); stroke-opacity: 0; fill: rgb(0, 255, 0); fill-opacity: 0; stroke-width: 1; opacity: 1;"/><path class="sankey-link" d="M637.6470588235295,116.00034799947842C642.9411764705883,116.00034799947842 642.9411764705883,332.2526996037715 648.2352941176471,332.2526996037715L658.8235294117646,332.252728603728L648.2352941176471,332.2527576036845C642.9411764705883,332.2527576036845 642.9411764705883,116.00040599939142 637.6470588235295,116.00040599939142Z" style="stroke: rgb(0, 255, 0); stroke-opacity: 0; fill: rgb(0, 255, 0); fill-opacity: 0; stroke-width: 1; opacity: 1;"/><path class="sankey-link" d="M637.6470588235295,116.00040599939142C642.9411764705883,116.00040599939142 642.9411764705883,332.2527576036845 648.2352941176471,332.2527576036845L658.8235294117646,332.25278660364097L648.2352941176471,332.25281560359747C642.9411764705883,332.25281560359747 642.9411764705883,116.00046399930442 637.6470588235295,116.00046399930442Z" style="stroke: rgb(0, 255, 0); stroke-opacity: 0; fill: rgb(0, 255, 0); fill-opacity: 0; stroke-width: 1; opacity: 1;"/><path class="sankey-link" d="M678.8235294117648,332.2521776045545C684.1176470588236,332.2521776045545 684.1176470588236,283.8452532802751 689.4117647058824,283.8452532802751L700,283.8452822802316L689.4117647058824,283.84531128018807C684.1176470588236,283.84531128018807 684.1176470588236,332.2522356044675 678.8235294117648,332.2522356044675Z" style="stroke: rgb(0, 255, 0); stroke-opacity: 0; fill: rgb(0, 255, 0); fill-opacity: 0; stroke-width: 1; opacity: 1;"/><path class="sankey-link" d="M678.8235294117648,332.2522356044675C684.1176470588236,332.2522356044675 684.1176470588236,283.84531128018807 689.4117647058824,283.84531128018807L700,283.84534028014457L689.4117647058824,283.84536928010107C684.1176470588236,283.84536928010107 684.1176470588236,332.2522936043805 678.8235294117648,332.2522936043805Z" style="stroke: rgb(0, 255, 0); stroke-opacity: 0; fill: rgb(0, 255, 0); fill-opacity: 0; stroke-width: 1; opacity: 1;"/><path class="sankey-link" d="M678.8235294117648,332.2522936043805C684.1176470588236,332.2522936043805 684.1176470588236,283.84536928010107 689.4117647058824,283.84536928010107L700,283.84539828005757L689.4117647058824,283.84542728001406C684.1176470588236,283.84542728001406 684.1176470588236,332.2523516042935 678.8235294117648,332.2523516042935Z" style="stroke: rgb(0, 255, 0); stroke-opacity: 0; fill: rgb(0, 255, 0); fill-opacity: 0; stroke-width: 1; opacity: 1;"/><path class="sankey-link" d="M678.8235294117648,332.2523516042935C684.1176470588236,332.2523516042935 684.1176470588236,283.84542728001406 689.4117647058824,283.84542728001406L700,283.84545627997056L689.4117647058824,283.84548527992706C684.1176470588236,283.84548527992706 684.1176470588236,332.2524096042065 678.8235294117648,332.2524096042065Z" style="stroke: rgb(0, 255, 0); stroke-opacity: 0; fill: rgb(0, 255, 0); fill-opacity: 0; stroke-width: 1; opacity: 1;"/><path class="sankey-link" d="M678.8235294117648,332.2524096042065C684.1176470588236,332.2524096042065 684.1176470588236,283.84548527992706 689.4117647058824,283.84548527992706L700,283.84551427988356L689.4117647058824,283.84554327984006C684.1176470588236,283.84554327984006 684.1176470588236,332.2524676041195 678.8235294117648,332.2524676041195Z" style="stroke: rgb(0, 255, 0); stroke-opacity: 0; fill: rgb(0, 255, 0); fill-opacity: 0; stroke-width: 1; opacity: 1;"/><path class="sankey-link" d="M678.8235294117648,332.2524676041195C684.1176470588236,332.2524676041195 684.1176470588236,283.84554327984006 689.4117647058824,283.84554327984006L700,283.84557227979656L689.4117647058824,283.84560127975305C684.1176470588236,283.84560127975305 684.1176470588236,332.2525256040325 678.8235294117648,332.2525256040325Z" style="stroke: rgb(0, 255, 0); stroke-opacity: 0; fill: rgb(0, 255, 0); fill-opacity: 0; stroke-width: 1; opacity: 1;"/><path class="sankey-link" d="M678.8235294117648,332.2525256040325C684.1176470588236,332.2525256040325 684.1176470588236,283.84560127975305 689.4117647058824,283.84560127975305L700,283.84563027970955L689.4117647058824,283.84565927966605C684.1176470588236,283.84565927966605 684.1176470588236,332.2525836039455 678.8235294117648,332.2525836039455Z" style="stroke: rgb(0, 255, 0); stroke-opacity: 0; fill: rgb(0, 255, 0); fill-opacity: 0; stroke-width: 1; opacity: 1;"/><path class="sankey-link" d="M678.8235294117648,332.2525836039455C684.1176470588236,332.2525836039455 684.1176470588236,283.84565927966605 689.4117647058824,283.84565927966605L700,283.84568827962255L689.4117647058824,283.84571727957905C684.1176470588236,283.84571727957905 684.1176470588236,332.2526416038585 678.8235294117648,332.2526416038585Z" style="stroke: rgb(0, 255, 0); stroke-opacity: 0; fill: rgb(0, 255, 0); fill-opacity: 0; stroke-width: 1; opacity: 1;"/><path class="sankey-link" d="M678.8235294117648,332.2526416038585C684.1176470588236,332.2526416038585 684.1176470588236,283.84571727957905 689.4117647058824,283.84571727957905L700,283.84574627953555L689.4117647058824,283.84577527949205C684.1176470588236,283.84577527949205 684.1176470588236,332.2526996037715 678.8235294117648,332.2526996037715Z" style="stroke: rgb(0, 255, 0); stroke-opacity: 0; fill: rgb(0, 255, 0); fill-opacity: 0; stroke-width: 1; opacity: 1;"/><path class="sankey-link" d="M678.8235294117648,332.2526996037715C684.1176470588236,332.2526996037715 684.1176470588236,283.84577527949205 689.4117647058824,283.84577527949205L700,283.84580427944854L689.4117647058824,283.84583327940504C684.1176470588236,283.84583327940504 684.1176470588236,332.2527576036845 678.8235294117648,332.2527576036845Z" style="stroke: rgb(0, 255, 0); stroke-opacity: 0; fill: rgb(0, 255, 0); fill-opacity: 0; stroke-width: 1; opacity: 1;"/></g><g class="sankey-node-set" style="cursor: ns-resize;"><g class="sankey-node" transform="translate(452.941,426.265)" style="opacity: 1;"><rect class="node-rect" width="20" height="57.99997100004356" style="stroke-width: 0; stroke: rgb(68, 68, 68); stroke-opacity: 1; fill: rgb(55, 126, 184); fill-opacity: 1;"/><text class="node-label" data-notex="1" x="0" y="0" text-anchor="start" transform="translate(16.65,3)scale(-1,1)rotate(90)" style="cursor: default; font-family: 'Open Sans', verdana, arial, sans-serif; font-size: 19px; fill: rgb(42, 63, 95); fill-opacity: 1; text-shadow: rgb(255, 255, 255) 1px 1px 1px, rgb(255, 255, 255) -1px -1px 1px, rgb(255, 255, 255) 1px -1px 1px, rgb(255, 255, 255) -1px 1px 1px; white-space: pre;">A5.15</text></g><g class="sankey-node" transform="translate(288.235,322.190)" style="opacity: 1;"><rect class="node-rect" width="20" height="0.5" style="stroke-width: 0; stroke: rgb(68, 68, 68); stroke-opacity: 1; fill: rgb(0, 0, 0); fill-opacity: 0;"/><text class="node-label" data-notex="1" x="0" y="0" text-anchor="start" transform="translate(16.65,3)scale(-1,1)rotate(90)" style="cursor: default; font-family: 'Open Sans', verdana, arial, sans-serif; font-size: 19px; fill: rgb(42, 63, 95); fill-opacity: 1; text-shadow: rgb(255, 255, 255) 1px 1px 1px, rgb(255, 255, 255) -1px -1px 1px, rgb(255, 255, 255) 1px -1px 1px, rgb(255, 255, 255) -1px 1px 1px; white-space: pre;"></text></g><g class="sankey-node" transform="translate(123.529,324.995)" style="opacity: 1;"><rect class="node-rect" width="20" height="0.5" style="stroke-width: 0; stroke: rgb(68, 68, 68); stroke-opacity: 1; fill: rgb(0, 0, 0); fill-opacity: 0;"/><text class="node-label" data-notex="1" x="0" y="0" text-anchor="start" transform="translate(16.65,3)scale(-1,1)rotate(90)" style="cursor: default; font-family: 'Open Sans', verdana, arial, sans-serif; font-size: 19px; fill: rgb(42, 63, 95); fill-opacity: 1; text-shadow: rgb(255, 255, 255) 1px 1px 1px, rgb(255, 255, 255) -1px -1px 1px, rgb(255, 255, 255) 1px -1px 1px, rgb(255, 255, 255) -1px 1px 1px; white-space: pre;"></text></g><g class="sankey-node" transform="translate(535.294,325.172)" style="opacity: 1;"><rect class="node-rect" width="20" height="58.00008699986938" style="stroke-width: 0; stroke: rgb(68, 68, 68); stroke-opacity: 1; fill: rgb(153, 153, 153); fill-opacity: 1;"/><text class="node-label" data-notex="1" x="0" y="0" text-anchor="start" transform="translate(16.65,3)scale(-1,1)rotate(90)" style="cursor: default; font-family: 'Open Sans', verdana, arial, sans-serif; font-size: 19px; fill: rgb(42, 63, 95); fill-opacity: 1; text-shadow: rgb(255, 255, 255) 1px 1px 1px, rgb(255, 255, 255) -1px -1px 1px, rgb(255, 255, 255) 1px -1px 1px, rgb(255, 255, 255) -1px 1px 1px; white-space: pre;">A6.15</text></g><g class="sankey-node" transform="translate(617.647,0.000)" style="opacity: 1;"><rect class="node-rect" width="20" height="347.99999999999983" style="stroke-width: 0; stroke: rgb(68, 68, 68); stroke-opacity: 1; fill: rgb(77, 175, 74); fill-opacity: 1;"/><text class="node-label" data-notex="1" x="0" y="0" text-anchor="start" transform="translate(16.65,3)scale(-1,1)rotate(90)" style="cursor: default; font-family: 'Open Sans', verdana, arial, sans-serif; font-size: 19px; fill: rgb(42, 63, 95); fill-opacity: 1; text-shadow: rgb(255, 255, 255) 1px 1px 1px, rgb(255, 255, 255) -1px -1px 1px, rgb(255, 255, 255) 1px -1px 1px, rgb(255, 255, 255) -1px 1px 1px; white-space: pre;">A7.3</text></g><g class="sankey-node" transform="translate(370.588,340.399)" style="opacity: 1;"><rect class="node-rect" width="20" height="0.5" style="stroke-width: 0; stroke: rgb(68, 68, 68); stroke-opacity: 1; fill: rgb(0, 0, 0); fill-opacity: 0;"/><text class="node-label" data-notex="1" x="0" y="0" text-anchor="start" transform="translate(16.65,3)scale(-1,1)rotate(90)" style="cursor: default; font-family: 'Open Sans', verdana, arial, sans-serif; font-size: 19px; fill: rgb(42, 63, 95); fill-opacity: 1; text-shadow: rgb(255, 255, 255) 1px 1px 1px, rgb(255, 255, 255) -1px -1px 1px, rgb(255, 255, 255) 1px -1px 1px, rgb(255, 255, 255) -1px 1px 1px; white-space: pre;"></text></g><g class="sankey-node" transform="translate(205.882,316.289)" style="opacity: 1;"><rect class="node-rect" width="20" height="0.5" style="stroke-width: 0; stroke: rgb(68, 68, 68); stroke-opacity: 1; fill: rgb(0, 0, 0); fill-opacity: 0;"/><text class="node-label" data-notex="1" x="0" y="0" text-anchor="start" transform="translate(16.65,3)scale(-1,1)rotate(90)" style="cursor: default; font-family: 'Open Sans', verdana, arial, sans-serif; font-size: 19px; fill: rgb(42, 63, 95); fill-opacity: 1; text-shadow: rgb(255, 255, 255) 1px 1px 1px, rgb(255, 255, 255) -1px -1px 1px, rgb(255, 255, 255) 1px -1px 1px, rgb(255, 255, 255) -1px 1px 1px; white-space: pre;"></text></g><g class="sankey-node" transform="translate(700.000,167.845)" style="opacity: 1;"><rect class="node-rect" width="20" height="405.99997100004384" style="stroke-width: 0; stroke: rgb(68, 68, 68); stroke-opacity: 1; fill: rgb(55, 126, 184); fill-opacity: 1;"/><text class="node-label" data-notex="1" x="0" y="0" text-anchor="start" transform="translate(16.65,3)scale(-1,1)rotate(90)" style="cursor: default; font-family: 'Open Sans', verdana, arial, sans-serif; font-size: 19px; fill: rgb(42, 63, 95); fill-opacity: 1; text-shadow: rgb(255, 255, 255) 1px 1px 1px, rgb(255, 255, 255) -1px -1px 1px, rgb(255, 255, 255) 1px -1px 1px, rgb(255, 255, 255) -1px 1px 1px; white-space: pre;">Unembed</text></g><g class="sankey-node" transform="translate(576.471,349.777)" style="opacity: 1;"><rect class="node-rect" width="20" height="0.5" style="stroke-width: 0; stroke: rgb(68, 68, 68); stroke-opacity: 1; fill: rgb(0, 0, 0); fill-opacity: 0;"/><text class="node-label" data-notex="1" x="0" y="0" text-anchor="start" transform="translate(16.65,3)scale(-1,1)rotate(90)" style="cursor: default; font-family: 'Open Sans', verdana, arial, sans-serif; font-size: 19px; fill: rgb(42, 63, 95); fill-opacity: 1; text-shadow: rgb(255, 255, 255) 1px 1px 1px, rgb(255, 255, 255) -1px -1px 1px, rgb(255, 255, 255) 1px -1px 1px, rgb(255, 255, 255) -1px 1px 1px; white-space: pre;"></text></g><g class="sankey-node" transform="translate(82.353,213.099)" style="opacity: 1;"><rect class="node-rect" width="20" height="290.0001449997826" style="stroke-width: 0; stroke: rgb(68, 68, 68); stroke-opacity: 1; fill: rgb(255, 127, 0); fill-opacity: 1;"/><text class="node-label" data-notex="1" x="0" y="0" text-anchor="start" transform="translate(16.65,3)scale(-1,1)rotate(90)" style="cursor: default; font-family: 'Open Sans', verdana, arial, sans-serif; font-size: 19px; fill: rgb(42, 63, 95); fill-opacity: 1; text-shadow: rgb(255, 255, 255) 1px 1px 1px, rgb(255, 255, 255) -1px -1px 1px, rgb(255, 255, 255) 1px -1px 1px, rgb(255, 255, 255) -1px 1px 1px; white-space: pre;">MLP 0</text></g><g class="sankey-node" transform="translate(164.706,235.773)" style="opacity: 1;"><rect class="node-rect" width="20" height="174.0000289999564" style="stroke-width: 0; stroke: rgb(68, 68, 68); stroke-opacity: 1; fill: rgb(222, 222, 0); fill-opacity: 1;"/><text class="node-label" data-notex="1" x="0" y="0" text-anchor="start" transform="translate(16.65,3)scale(-1,1)rotate(90)" style="cursor: default; font-family: 'Open Sans', verdana, arial, sans-serif; font-size: 19px; fill: rgb(42, 63, 95); fill-opacity: 1; text-shadow: rgb(255, 255, 255) 1px 1px 1px, rgb(255, 255, 255) -1px -1px 1px, rgb(255, 255, 255) 1px -1px 1px, rgb(255, 255, 255) -1px 1px 1px; white-space: pre;">MLP 1</text></g><g class="sankey-node" transform="translate(617.647,504.000)" style="opacity: 1;"><rect class="node-rect" width="20" height="58.0000289999565" style="stroke-width: 0; stroke: rgb(68, 68, 68); stroke-opacity: 1; fill: rgb(152, 78, 163); fill-opacity: 1;"/><text class="node-label" data-notex="1" x="0" y="0" text-anchor="start" transform="translate(16.65,3)scale(-1,1)rotate(90)" style="cursor: default; font-family: 'Open Sans', verdana, arial, sans-serif; font-size: 19px; fill: rgb(42, 63, 95); fill-opacity: 1; text-shadow: rgb(255, 255, 255) 1px 1px 1px, rgb(255, 255, 255) -1px -1px 1px, rgb(255, 255, 255) 1px -1px 1px, rgb(255, 255, 255) -1px 1px 1px; white-space: pre;">A7.5</text></g><g class="sankey-node" transform="translate(411.765,352.408)" style="opacity: 1;"><rect class="node-rect" width="20" height="0.5" style="stroke-width: 0; stroke: rgb(68, 68, 68); stroke-opacity: 1; fill: rgb(0, 0, 0); fill-opacity: 0;"/><text class="node-label" data-notex="1" x="0" y="0" text-anchor="start" transform="translate(16.65,3)scale(-1,1)rotate(90)" style="cursor: default; font-family: 'Open Sans', verdana, arial, sans-serif; font-size: 19px; fill: rgb(42, 63, 95); fill-opacity: 1; text-shadow: rgb(255, 255, 255) 1px 1px 1px, rgb(255, 255, 255) -1px -1px 1px, rgb(255, 255, 255) 1px -1px 1px, rgb(255, 255, 255) -1px 1px 1px; white-space: pre;"></text></g><g class="sankey-node" transform="translate(41.176,321.704)" style="opacity: 1;"><rect class="node-rect" width="20" height="58.0000289999565" style="stroke-width: 0; stroke: rgb(68, 68, 68); stroke-opacity: 1; fill: rgb(255, 127, 0); fill-opacity: 1;"/><text class="node-label" data-notex="1" x="0" y="0" text-anchor="start" transform="translate(16.65,3)scale(-1,1)rotate(90)" style="cursor: default; font-family: 'Open Sans', verdana, arial, sans-serif; font-size: 19px; fill: rgb(42, 63, 95); fill-opacity: 1; text-shadow: rgb(255, 255, 255) 1px 1px 1px, rgb(255, 255, 255) -1px -1px 1px, rgb(255, 255, 255) 1px -1px 1px, rgb(255, 255, 255) -1px 1px 1px; white-space: pre;">A0.14</text></g><g class="sankey-node" transform="translate(41.176,399.704)" style="opacity: 1;"><rect class="node-rect" width="20" height="58.00055099917347" style="stroke-width: 0; stroke: rgb(68, 68, 68); stroke-opacity: 1; fill: rgb(77, 175, 74); fill-opacity: 1;"/><text class="node-label" data-notex="1" x="0" y="0" text-anchor="start" transform="translate(16.65,3)scale(-1,1)rotate(90)" style="cursor: default; font-family: 'Open Sans', verdana, arial, sans-serif; font-size: 19px; fill: rgb(42, 63, 95); fill-opacity: 1; text-shadow: rgb(255, 255, 255) 1px 1px 1px, rgb(255, 255, 255) -1px -1px 1px, rgb(255, 255, 255) 1px -1px 1px, rgb(255, 255, 255) -1px 1px 1px; white-space: pre;">A0.0</text></g><g class="sankey-node" transform="translate(452.941,290.265)" style="opacity: 1;"><rect class="node-rect" width="20" height="116.00005799991277" style="stroke-width: 0; stroke: rgb(68, 68, 68); stroke-opacity: 1; fill: rgb(166, 86, 40); fill-opacity: 1;"/><text class="node-label" data-notex="1" x="0" y="0" text-anchor="start" transform="translate(16.65,3)scale(-1,1)rotate(90)" style="cursor: default; font-family: 'Open Sans', verdana, arial, sans-serif; font-size: 19px; fill: rgb(42, 63, 95); fill-opacity: 1; text-shadow: rgb(255, 255, 255) 1px 1px 1px, rgb(255, 255, 255) -1px -1px 1px, rgb(255, 255, 255) 1px -1px 1px, rgb(255, 255, 255) -1px 1px 1px; white-space: pre;">A5.5</text></g><g class="sankey-node" transform="translate(617.647,582.000)" style="opacity: 1;"><rect class="node-rect" width="20" height="57.9999710000435" style="stroke-width: 0; stroke: rgb(68, 68, 68); stroke-opacity: 1; fill: rgb(153, 153, 153); fill-opacity: 1;"/><text class="node-label" data-notex="1" x="0" y="0" text-anchor="start" transform="translate(16.65,3)scale(-1,1)rotate(90)" style="cursor: default; font-family: 'Open Sans', verdana, arial, sans-serif; font-size: 19px; fill: rgb(42, 63, 95); fill-opacity: 1; text-shadow: rgb(255, 255, 255) 1px 1px 1px, rgb(255, 255, 255) -1px -1px 1px, rgb(255, 255, 255) 1px -1px 1px, rgb(255, 255, 255) -1px 1px 1px; white-space: pre;">A7.12</text></g><g class="sankey-node" transform="translate(494.118,310.232)" style="opacity: 1;"><rect class="node-rect" width="20" height="58.000086999869495" style="stroke-width: 0; stroke: rgb(68, 68, 68); stroke-opacity: 1; fill: rgb(255, 127, 0); fill-opacity: 1;"/><text class="node-label" data-notex="1" x="0" y="0" text-anchor="start" transform="translate(16.65,3)scale(-1,1)rotate(90)" style="cursor: default; font-family: 'Open Sans', verdana, arial, sans-serif; font-size: 19px; fill: rgb(42, 63, 95); fill-opacity: 1; text-shadow: rgb(255, 255, 255) 1px 1px 1px, rgb(255, 255, 255) -1px -1px 1px, rgb(255, 255, 255) 1px -1px 1px, rgb(255, 255, 255) -1px 1px 1px; white-space: pre;">MLP 5</text></g><g class="sankey-node" transform="translate(658.824,274.252)" style="opacity: 1;"><rect class="node-rect" width="20" height="116.00081199878207" style="stroke-width: 0; stroke: rgb(68, 68, 68); stroke-opacity: 1; fill: rgb(77, 175, 74); fill-opacity: 1;"/><text class="node-label" data-notex="1" x="0" y="0" text-anchor="start" transform="translate(16.65,3)scale(-1,1)rotate(90)" style="cursor: default; font-family: 'Open Sans', verdana, arial, sans-serif; font-size: 19px; fill: rgb(42, 63, 95); fill-opacity: 1; text-shadow: rgb(255, 255, 255) 1px 1px 1px, rgb(255, 255, 255) -1px -1px 1px, rgb(255, 255, 255) 1px -1px 1px, rgb(255, 255, 255) -1px 1px 1px; white-space: pre;">MLP 7</text></g><g class="sankey-node" transform="translate(617.647,368.000)" style="opacity: 1;"><rect class="node-rect" width="20" height="115.99999999999972" style="stroke-width: 0; stroke: rgb(68, 68, 68); stroke-opacity: 1; fill: rgb(55, 126, 184); fill-opacity: 1;"/><text class="node-label" data-notex="1" x="0" y="0" text-anchor="start" transform="translate(16.65,3)scale(-1,1)rotate(90)" style="cursor: default; font-family: 'Open Sans', verdana, arial, sans-serif; font-size: 19px; fill: rgb(42, 63, 95); fill-opacity: 1; text-shadow: rgb(255, 255, 255) 1px 1px 1px, rgb(255, 255, 255) -1px -1px 1px, rgb(255, 255, 255) 1px -1px 1px, rgb(255, 255, 255) -1px 1px 1px; white-space: pre;">A7.8</text></g><g class="sankey-node" transform="translate(41.176,477.704)" style="opacity: 1;"><rect class="node-rect" width="20" height="58.00002899995644" style="stroke-width: 0; stroke: rgb(68, 68, 68); stroke-opacity: 1; fill: rgb(152, 78, 163); fill-opacity: 1;"/><text class="node-label" data-notex="1" x="0" y="0" text-anchor="start" transform="translate(16.65,3)scale(-1,1)rotate(90)" style="cursor: default; font-family: 'Open Sans', verdana, arial, sans-serif; font-size: 19px; fill: rgb(42, 63, 95); fill-opacity: 1; text-shadow: rgb(255, 255, 255) 1px 1px 1px, rgb(255, 255, 255) -1px -1px 1px, rgb(255, 255, 255) 1px -1px 1px, rgb(255, 255, 255) -1px 1px 1px; white-space: pre;">A0.4</text></g><g class="sankey-node" transform="translate(329.412,270.562)" style="opacity: 1;"><rect class="node-rect" width="20" height="116.00011599982611" style="stroke-width: 0; stroke: rgb(68, 68, 68); stroke-opacity: 1; fill: rgb(222, 222, 0); fill-opacity: 1;"/><text class="node-label" data-notex="1" x="0" y="0" text-anchor="start" transform="translate(16.65,3)scale(-1,1)rotate(90)" style="cursor: default; font-family: 'Open Sans', verdana, arial, sans-serif; font-size: 19px; fill: rgb(42, 63, 95); fill-opacity: 1; text-shadow: rgb(255, 255, 255) 1px 1px 1px, rgb(255, 255, 255) -1px -1px 1px, rgb(255, 255, 255) 1px -1px 1px, rgb(255, 255, 255) -1px 1px 1px; white-space: pre;">MLP 3</text></g><g class="sankey-node" transform="translate(247.059,289.711)" style="opacity: 1;"><rect class="node-rect" width="20" height="58.00008699986961" style="stroke-width: 0; stroke: rgb(68, 68, 68); stroke-opacity: 1; fill: rgb(247, 129, 191); fill-opacity: 1;"/><text class="node-label" data-notex="1" x="0" y="0" text-anchor="start" transform="translate(16.65,3)scale(-1,1)rotate(90)" style="cursor: default; font-family: 'Open Sans', verdana, arial, sans-serif; font-size: 19px; fill: rgb(42, 63, 95); fill-opacity: 1; text-shadow: rgb(255, 255, 255) 1px 1px 1px, rgb(255, 255, 255) -1px -1px 1px, rgb(255, 255, 255) 1px -1px 1px, rgb(255, 255, 255) -1px 1px 1px; white-space: pre;">MLP 2</text></g><g class="sankey-node" transform="translate(0.000,242.774)" style="opacity: 1;"><rect class="node-rect" width="20" height="232.000231999652" style="stroke-width: 0; stroke: rgb(68, 68, 68); stroke-opacity: 1; fill: rgb(152, 78, 163); fill-opacity: 1;"/><text class="node-label" data-notex="1" x="0" y="0" text-anchor="start" transform="translate(16.65,3)scale(-1,1)rotate(90)" style="cursor: default; font-family: 'Open Sans', verdana, arial, sans-serif; font-size: 19px; fill: rgb(42, 63, 95); fill-opacity: 1; text-shadow: rgb(255, 255, 255) 1px 1px 1px, rgb(255, 255, 255) -1px -1px 1px, rgb(255, 255, 255) 1px -1px 1px, rgb(255, 255, 255) -1px 1px 1px; white-space: pre;">Embed</text></g></g></g><defs id="topdefs-082c13"><g class="clips"/></defs><g class="layer-above"><g class="imagelayer"/><g class="shapelayer"/></g><g class="infolayer"><g class="g-gtitle"/><g class="first-render"/></g></svg>